<?xml version="1.0" encoding="utf-8"?>
<!-- Generator: Adobe Illustrator 15.0.0, SVG Export Plug-In . SVG Version: 6.00 Build 0)  -->
<!DOCTYPE svg PUBLIC "-//W3C//DTD SVG 1.1//EN" "http://www.w3.org/Graphics/SVG/1.1/DTD/svg11.dtd">
<svg version="1.1" id="レイヤー_1" xmlns="http://www.w3.org/2000/svg" xmlns:xlink="http://www.w3.org/1999/xlink" x="0px"
	 y="0px" width="512px" height="512px" viewBox="0 0 512 512" enable-background="new 0 0 512 512" xml:space="preserve">
<path fill="#231815" d="M429.725,429.729c-95.944,95.943-251.503,95.943-347.451,0c-95.947-95.949-95.949-251.507-0.002-347.455
	c95.947-95.947,251.508-95.947,347.453,0C525.672,178.221,525.672,333.779,429.725,429.729z"/>
<path fill="#FFFFFF" d="M141,392.26c-5.441,0-10.882-2.074-15.033-6.227c-8.302-8.303-8.302-21.764,0-30.066l230-230
	c8.303-8.302,21.765-8.302,30.066,0c8.303,8.303,8.303,21.764,0,30.066l-230,230C151.882,390.186,146.441,392.26,141,392.26z"/>
<path fill="#FFFFFF" d="M371,392.26c-5.44,0-10.882-2.074-15.033-6.227l-230-230c-8.302-8.303-8.302-21.764,0-30.066
	c8.303-8.302,21.764-8.302,30.066,0l230,230c8.303,8.303,8.303,21.764,0,30.066C381.882,390.186,376.44,392.26,371,392.26z"/>
</svg>
