<?xml version="1.0" encoding="utf-8"?>
<!-- Generator: Adobe Illustrator 15.0.0, SVG Export Plug-In . SVG Version: 6.00 Build 0)  -->
<!DOCTYPE svg PUBLIC "-//W3C//DTD SVG 1.1//EN" "http://www.w3.org/Graphics/SVG/1.1/DTD/svg11.dtd">
<svg version="1.1" id="レイヤー_1" xmlns="http://www.w3.org/2000/svg" xmlns:xlink="http://www.w3.org/1999/xlink" x="0px"
	 y="0px" width="512px" height="360px" viewBox="0 0 512 360" enable-background="new 0 0 512 360" xml:space="preserve">
<g>
	<polygon fill="#717071" points="321.775,302 328.109,291.098 334.34,302 	"/>
	<g>
		<path fill="#FCFBF8" d="M369.019,287.88c0.83,0,1.558-0.728,1.558-1.559V59.869c0-0.831-0.728-1.558-1.558-1.558H147.342
			c-0.831,0-1.558,0.727-1.558,1.558v226.452c0,0.831,0.727,1.559,1.558,1.559H369.019L369.019,287.88z"/>
		<g>
			<g>
				<defs>
					<rect id="SVGID_1_" x="141.009" y="58" width="229.982" height="241.093"/>
				</defs>
				<clipPath id="SVGID_2_">
					<use xlink:href="#SVGID_1_"  overflow="visible"/>
				</clipPath>
				<path clip-path="url(#SVGID_2_)" fill="none" stroke="#717071" stroke-linecap="round" stroke-linejoin="round" d="
					M369.019,287.88c0.83,0,1.558-0.728,1.558-1.559V59.869c0-0.831-0.728-1.558-1.558-1.558H147.342
					c-0.831,0-1.558,0.727-1.558,1.558v226.452c0,0.831,0.727,1.559,1.558,1.559H369.019L369.019,287.88z"/>
			</g>
		</g>
		<path fill="#FFFFFF" d="M153.156,199.831c0-4.36,3.531-7.786,7.788-7.786H356.04c4.361,0,7.787,3.53,7.787,7.786v74.654
			c0,4.361-3.529,7.787-7.787,7.787H161.048c-4.361,0-7.788-3.53-7.788-7.787v-74.654H153.156z"/>
		<path fill="none" stroke="#717071" stroke-linecap="round" stroke-linejoin="round" d="M153.156,199.831
			c0-4.36,3.531-7.786,7.788-7.786H356.04c4.361,0,7.787,3.53,7.787,7.786v74.654c0,4.361-3.529,7.787-7.787,7.787H161.048
			c-4.361,0-7.788-3.53-7.788-7.787v-74.654H153.156z"/>
		<path fill="#F8F6E7" d="M153.156,199.831c0-4.36,3.531-7.786,7.788-7.786H356.04c4.361,0,7.787,3.53,7.787,7.786v74.654
			c0,4.361-3.529,7.787-7.787,7.787H161.048c-4.361,0-7.788-3.53-7.788-7.787v-74.654H153.156z"/>
		<path fill="none" stroke="#717071" stroke-linecap="round" stroke-linejoin="round" d="M153.156,199.831
			c0-4.36,3.531-7.786,7.788-7.786H356.04c4.361,0,7.787,3.53,7.787,7.786v74.654c0,4.361-3.529,7.787-7.787,7.787H161.048
			c-4.361,0-7.788-3.53-7.788-7.787v-74.654H153.156z"/>
		<path fill="#FFFFFF" d="M364.762,72.432c0-2.803-2.077-6.229-6.229-6.229h-86.283c-3.737,0-6.125,2.803-6.229,6.022l-1.557,41.739
			c0,0,0,2.077-3.116,2.077c-2.595,0-3.114-3.114-3.114-3.114v10.694v0.104v10.694c0,0,0.52-3.114,3.114-3.114
			c3.116,0,3.116,2.077,3.116,2.077l1.557,41.739c0.104,3.219,2.492,6.022,6.229,6.022h86.283c4.152,0,6.229-3.426,6.229-6.229
			l0.104-51.188L364.762,72.432L364.762,72.432z"/>
		<path fill="none" stroke="#717071" stroke-linecap="round" stroke-linejoin="round" d="M364.762,72.432
			c0-2.803-2.077-6.229-6.229-6.229h-86.283c-3.737,0-6.125,2.803-6.229,6.022l-1.557,41.739c0,0,0,2.077-3.116,2.077
			c-2.595,0-3.114-3.114-3.114-3.114v10.694v0.104v10.694c0,0,0.52-3.114,3.114-3.114c3.116,0,3.116,2.077,3.116,2.077l1.557,41.739
			c0.104,3.219,2.492,6.022,6.229,6.022h86.283c4.152,0,6.229-3.426,6.229-6.229l0.104-51.188L364.762,72.432L364.762,72.432z"/>
		<path fill="#F8F6E7" d="M364.762,72.432c0-2.803-2.077-6.229-6.229-6.229h-86.283c-3.737,0-6.125,2.803-6.229,6.022l-1.557,41.739
			c0,0,0,2.077-3.116,2.077c-2.595,0-3.114-3.114-3.114-3.114v10.694v0.104v10.694c0,0,0.52-3.114,3.114-3.114
			c3.116,0,3.116,2.077,3.116,2.077l1.557,41.739c0.104,3.219,2.492,6.022,6.229,6.022h86.283c4.152,0,6.229-3.426,6.229-6.229
			l0.104-51.188L364.762,72.432L364.762,72.432z"/>
		<path fill="none" stroke="#717071" stroke-linecap="round" stroke-linejoin="round" d="M364.762,72.432
			c0-2.803-2.077-6.229-6.229-6.229h-86.283c-3.737,0-6.125,2.803-6.229,6.022l-1.557,41.739c0,0,0,2.077-3.116,2.077
			c-2.595,0-3.114-3.114-3.114-3.114v10.694v0.104v10.694c0,0,0.52-3.114,3.114-3.114c3.116,0,3.116,2.077,3.116,2.077l1.557,41.739
			c0.104,3.219,2.492,6.022,6.229,6.022h86.283c4.152,0,6.229-3.426,6.229-6.229l0.104-51.188L364.762,72.432L364.762,72.432z"/>
		<path fill="#FFFFFF" d="M332.471,77.728c0,0.727-0.623,1.349-1.351,1.349h-38.832c-0.727,0-1.35-0.623-1.35-1.349v-5.192
			c0-0.727,0.623-1.35,1.35-1.35h38.832c0.728,0,1.351,0.623,1.351,1.35V77.728L332.471,77.728z"/>
		<path fill="none" stroke="#717071" stroke-linecap="round" stroke-linejoin="round" d="M332.471,77.728
			c0,0.727-0.623,1.349-1.351,1.349h-38.832c-0.727,0-1.35-0.623-1.35-1.349v-5.192c0-0.727,0.623-1.35,1.35-1.35h38.832
			c0.728,0,1.351,0.623,1.351,1.35V77.728L332.471,77.728z"/>
		<path fill="#FCFBF8" d="M332.471,77.728c0,0.727-0.623,1.349-1.351,1.349h-38.832c-0.727,0-1.35-0.623-1.35-1.349v-5.192
			c0-0.727,0.623-1.35,1.35-1.35h38.832c0.728,0,1.351,0.623,1.351,1.35V77.728L332.471,77.728z"/>
		<path fill="none" stroke="#717071" stroke-linecap="round" stroke-linejoin="round" d="M332.471,77.728
			c0,0.727-0.623,1.349-1.351,1.349h-38.832c-0.727,0-1.35-0.623-1.35-1.349v-5.192c0-0.727,0.623-1.35,1.35-1.35h38.832
			c0.728,0,1.351,0.623,1.351,1.35V77.728L332.471,77.728z"/>
		<path fill="#F8F6E7" d="M250.237,112.096c-6.333,0-11.525,5.191-11.525,11.525s5.191,11.525,11.525,11.525
			c6.334,0,11.525-5.192,11.525-11.525S256.675,112.096,250.237,112.096L250.237,112.096z"/>
		<path fill="none" stroke="#717071" stroke-linecap="round" stroke-linejoin="round" d="M250.237,112.096
			c-6.333,0-11.525,5.191-11.525,11.525s5.191,11.525,11.525,11.525c6.334,0,11.525-5.192,11.525-11.525
			S256.675,112.096,250.237,112.096L250.237,112.096z"/>
		<path fill="#717071" d="M251.795,124.659h6.437c0-0.208,0-0.416,0.104-0.727h-7.164L251.795,124.659L251.795,124.659z"/>
		<path fill="#717071" d="M253.146,126.008h4.672c0.104-0.207,0.104-0.415,0.207-0.727h-5.606L253.146,126.008L253.146,126.008z"/>
		<path fill="#717071" d="M254.495,127.462h2.803c0.104-0.208,0.208-0.416,0.312-0.727h-3.738L254.495,127.462L254.495,127.462z"/>
		<path fill="#717071" d="M255.948,128.812h0.415c0.208-0.207,0.416-0.415,0.52-0.727h-1.662L255.948,128.812L255.948,128.812z"/>
		<path fill="#717071" d="M255.221,119.156h1.662c-0.208-0.208-0.312-0.52-0.52-0.727h-0.415L255.221,119.156L255.221,119.156z"/>
		<path fill="#717071" d="M253.871,120.505h3.738c-0.104-0.208-0.208-0.415-0.312-0.727h-2.803L253.871,120.505L253.871,120.505z"/>
		<path fill="#717071" d="M252.418,121.855h5.606c0-0.208-0.104-0.416-0.207-0.727h-4.672L252.418,121.855L252.418,121.855z"/>
		<path fill="#717071" d="M251.068,123.309h7.165c0-0.207,0-0.415-0.104-0.727h-6.333L251.068,123.309L251.068,123.309z"/>
		<path fill="#717071" d="M248.784,124.659h-6.334c0-0.208,0-0.416-0.104-0.727h7.164L248.784,124.659L248.784,124.659z"/>
		<path fill="#717071" d="M247.434,126.008h-4.672c-0.104-0.207-0.104-0.415-0.208-0.727h5.607L247.434,126.008L247.434,126.008z"/>
		<path fill="#717071" d="M246.084,127.462h-2.804c-0.104-0.208-0.208-0.416-0.312-0.727h3.738L246.084,127.462L246.084,127.462z"/>
		<path fill="#717071" d="M244.63,128.812h-0.415c-0.208-0.207-0.416-0.415-0.52-0.727h1.662L244.63,128.812L244.63,128.812z"/>
		<path fill="#717071" d="M245.358,119.156h-1.662c0.208-0.208,0.312-0.52,0.52-0.727h0.415L245.358,119.156L245.358,119.156z"/>
		<path fill="#717071" d="M246.707,120.505h-3.738c0.104-0.208,0.208-0.415,0.312-0.727h2.804L246.707,120.505L246.707,120.505z"/>
		<path fill="#717071" d="M248.161,121.855h-5.607c0.104-0.208,0.104-0.416,0.208-0.727h4.776L248.161,121.855L248.161,121.855z"/>
		<path fill="#717071" d="M249.511,123.309h-7.164c0-0.207,0-0.415,0.104-0.727h6.438L249.511,123.309L249.511,123.309z"/>
		<path fill="#717071" d="M251.276,122.167v-6.438c-0.208,0-0.415,0-0.727-0.104v7.165L251.276,122.167L251.276,122.167z"/>
		<path fill="#717071" d="M252.729,120.713v-4.672c-0.208-0.104-0.415-0.104-0.728-0.208v5.607L252.729,120.713L252.729,120.713z"/>
		<path fill="#717071" d="M254.079,119.364v-2.7c-0.208-0.104-0.415-0.208-0.728-0.312v3.738L254.079,119.364L254.079,119.364z"/>
		<path fill="#717071" d="M255.429,118.014v-0.415c-0.208-0.208-0.415-0.416-0.727-0.52v1.661L255.429,118.014L255.429,118.014z"/>
		<path fill="#717071" d="M245.773,118.636v-1.661c-0.208,0.208-0.519,0.312-0.727,0.52v0.415L245.773,118.636L245.773,118.636z"/>
		<path fill="#717071" d="M247.227,120.09v-3.738c-0.208,0.104-0.416,0.208-0.727,0.312v2.803L247.227,120.09L247.227,120.09z"/>
		<path fill="#717071" d="M248.576,121.44v-5.607c-0.208,0-0.415,0.104-0.727,0.208v4.776L248.576,121.44L248.576,121.44z"/>
		<path fill="#717071" d="M249.926,122.79v-7.165c-0.208,0-0.416,0-0.728,0.104v6.438L249.926,122.79L249.926,122.79z"/>
		<path fill="#717071" d="M251.276,125.074v6.438c-0.208,0-0.415,0-0.727,0.104v-7.164L251.276,125.074L251.276,125.074z"/>
		<path fill="#717071" d="M252.729,126.528v4.672c-0.208,0.104-0.415,0.104-0.728,0.208v-5.606L252.729,126.528L252.729,126.528z"/>
		<path fill="#717071" d="M254.079,127.877v2.803c-0.208,0.104-0.415,0.208-0.728,0.312v-3.738L254.079,127.877L254.079,127.877z"/>
		<path fill="#717071" d="M255.429,129.227v0.416c-0.208,0.207-0.415,0.415-0.727,0.519V128.5L255.429,129.227L255.429,129.227z"/>
		<path fill="#717071" d="M245.773,128.5v1.661c-0.208-0.208-0.519-0.312-0.727-0.519v-0.416L245.773,128.5L245.773,128.5z"/>
		<path fill="#717071" d="M247.227,127.15v3.738c-0.208-0.104-0.416-0.208-0.727-0.312v-2.803L247.227,127.15L247.227,127.15z"/>
		<path fill="#717071" d="M248.576,125.801v5.606c-0.208,0-0.415-0.104-0.727-0.208v-4.776L248.576,125.801L248.576,125.801z"/>
		<path fill="#717071" d="M249.926,124.451v7.164c-0.208,0-0.416,0-0.728-0.104v-6.438L249.926,124.451L249.926,124.451z"/>
		<path fill="#F7F2E1" d="M253.352,61.011h-99.987c-2.7,0-4.88,2.18-4.88,4.776v56.275v59.495c0,2.7,2.181,4.776,4.88,4.776h50.98
			h49.007c2.7,0,4.777-2.181,4.777-4.776v-59.495V65.788C258.232,63.088,256.052,61.011,253.352,61.011"/>
		<g>
			<g>
				<defs>
					<rect id="SVGID_3_" x="141.009" y="58" width="229.982" height="241.093"/>
				</defs>
				<clipPath id="SVGID_4_">
					<use xlink:href="#SVGID_3_"  overflow="visible"/>
				</clipPath>
				<path clip-path="url(#SVGID_4_)" fill="none" stroke="#717071" stroke-miterlimit="10" d="M253.352,61.011h-99.987
					c-2.7,0-4.88,2.18-4.88,4.776v56.275v59.495c0,2.7,2.181,4.776,4.88,4.776h50.98h49.007c2.7,0,4.777-2.181,4.777-4.776v-59.495
					V65.788C258.232,63.088,256.052,61.011,253.352,61.011"/>
			</g>
		</g>
		<path fill="#EEE2BF" d="M250.445,74.094c-0.727-6.438-7.372-6.957-7.372-6.957c-11.525-0.727-39.663-1.038-39.663-1.038
			s-28.241,0.208-39.663,1.038c0,0-6.75,0.52-7.372,6.957c0,0-2.596,21.908-2.596,49.527s2.596,49.526,2.596,49.526
			c0.727,6.438,7.372,6.957,7.372,6.957c11.524,0.832,39.663,1.038,39.663,1.038s28.242-0.206,39.663-1.038
			c0,0,6.749-0.519,7.372-6.957c0,0,2.595-21.908,2.595-49.526C253.146,96.002,250.445,74.094,250.445,74.094"/>
		<path fill="none" stroke="#717071" stroke-miterlimit="10" d="M250.445,74.094c-0.727-6.438-7.372-6.957-7.372-6.957
			c-11.525-0.727-39.663-1.038-39.663-1.038s-28.241,0.208-39.663,1.038c0,0-6.75,0.52-7.372,6.957c0,0-2.596,21.908-2.596,49.527
			s2.596,49.526,2.596,49.526c0.727,6.438,7.372,6.957,7.372,6.957c11.524,0.832,39.663,1.038,39.663,1.038
			s28.242-0.206,39.663-1.038c0,0,6.749-0.519,7.372-6.957c0,0,2.595-21.908,2.595-49.526
			C253.146,96.002,250.445,74.094,250.445,74.094 M245.773,74.613c-0.312-2.596-3.011-2.804-3.011-2.804
			c-16.509-1.038-39.456-1.038-39.456-1.038s-22.946,0-39.455,1.038c0,0-2.699,0.208-2.907,2.804c0,0-2.596,20.974-2.596,49.008
			s2.596,49.007,2.596,49.007c0.312,2.596,2.907,2.804,2.907,2.804c16.509,1.038,39.455,1.038,39.455,1.038s22.947,0,39.456-1.038
			c0,0,2.699-0.208,3.011-2.804c0,0,2.595-20.973,2.595-49.007S245.773,74.613,245.773,74.613"/>
		<path fill="#EEEEEF" d="M210.574,89.46c0,3.011-2.492,5.503-5.503,5.503s-5.503-2.492-5.503-5.503s2.492-5.503,5.503-5.503
			S210.574,86.449,210.574,89.46L210.574,89.46z"/>
		<path fill="none" stroke="#717071" stroke-linecap="round" stroke-linejoin="round" d="M210.574,89.46
			c0,3.011-2.492,5.503-5.503,5.503s-5.503-2.492-5.503-5.503s2.492-5.503,5.503-5.503S210.574,86.449,210.574,89.46L210.574,89.46z
			"/>
		<path fill="#EEEEEF" d="M208.187,89.46c0,1.765-1.35,3.115-3.115,3.115s-3.114-1.35-3.114-3.115s1.349-3.115,3.114-3.115
			S208.187,87.799,208.187,89.46L208.187,89.46z"/>
		<path fill="none" stroke="#717071" stroke-linecap="round" stroke-linejoin="round" d="M208.187,89.46
			c0,1.765-1.35,3.115-3.115,3.115s-3.114-1.35-3.114-3.115s1.349-3.115,3.114-3.115S208.187,87.799,208.187,89.46L208.187,89.46z"
			/>
		<path fill="#FFFFFF" d="M355.209,77.728c0,0.727-0.622,1.349-1.35,1.349h-16.093c-0.728,0-1.35-0.623-1.35-1.349v-5.192
			c0-0.727,0.622-1.35,1.35-1.35h16.093c0.728,0,1.35,0.623,1.35,1.35V77.728L355.209,77.728z"/>
		<path fill="none" stroke="#717071" stroke-linecap="round" stroke-linejoin="round" d="M355.209,77.728
			c0,0.727-0.622,1.349-1.35,1.349h-16.093c-0.728,0-1.35-0.623-1.35-1.349v-5.192c0-0.727,0.622-1.35,1.35-1.35h16.093
			c0.728,0,1.35,0.623,1.35,1.35V77.728L355.209,77.728z"/>
		<path fill="#FCFBF8" d="M355.209,77.728c0,0.727-0.622,1.349-1.35,1.349h-16.093c-0.728,0-1.35-0.623-1.35-1.349v-5.192
			c0-0.727,0.622-1.35,1.35-1.35h16.093c0.728,0,1.35,0.623,1.35,1.35V77.728L355.209,77.728z"/>
		<path fill="none" stroke="#717071" stroke-linecap="round" stroke-linejoin="round" d="M355.209,77.728
			c0,0.727-0.622,1.349-1.35,1.349h-16.093c-0.728,0-1.35-0.623-1.35-1.349v-5.192c0-0.727,0.622-1.35,1.35-1.35h16.093
			c0.728,0,1.35,0.623,1.35,1.35V77.728L355.209,77.728z"/>
		<path fill="#FFFFFF" d="M287.097,77.728c0,0.727-0.622,1.349-1.35,1.349h-16.093c-0.728,0-1.351-0.623-1.351-1.349v-5.192
			c0-0.727,0.623-1.35,1.351-1.35h16.093c0.728,0,1.35,0.623,1.35,1.35V77.728L287.097,77.728z"/>
		<path fill="none" stroke="#717071" stroke-linecap="round" stroke-linejoin="round" d="M287.097,77.728
			c0,0.727-0.622,1.349-1.35,1.349h-16.093c-0.728,0-1.351-0.623-1.351-1.349v-5.192c0-0.727,0.623-1.35,1.351-1.35h16.093
			c0.728,0,1.35,0.623,1.35,1.35V77.728L287.097,77.728z"/>
		<path fill="#FCFBF8" d="M287.097,77.728c0,0.727-0.622,1.349-1.35,1.349h-16.093c-0.728,0-1.351-0.623-1.351-1.349v-5.192
			c0-0.727,0.623-1.35,1.351-1.35h16.093c0.728,0,1.35,0.623,1.35,1.35V77.728L287.097,77.728z"/>
		<path fill="none" stroke="#717071" stroke-linecap="round" stroke-linejoin="round" d="M287.097,77.728
			c0,0.727-0.622,1.349-1.35,1.349h-16.093c-0.728,0-1.351-0.623-1.351-1.349v-5.192c0-0.727,0.623-1.35,1.351-1.35h16.093
			c0.728,0,1.35,0.623,1.35,1.35V77.728L287.097,77.728z"/>
		<path fill="#FFFFFF" d="M309.836,88.63c0,0.727-0.623,1.35-1.35,1.35h-38.832c-0.728,0-1.351-0.623-1.351-1.35v-5.191
			c0-0.727,0.623-1.35,1.351-1.35h38.832c0.727,0,1.35,0.623,1.35,1.35V88.63L309.836,88.63z"/>
		<path fill="none" stroke="#717071" stroke-linecap="round" stroke-linejoin="round" d="M309.836,88.63
			c0,0.727-0.623,1.35-1.35,1.35h-38.832c-0.728,0-1.351-0.623-1.351-1.35v-5.191c0-0.727,0.623-1.35,1.351-1.35h38.832
			c0.727,0,1.35,0.623,1.35,1.35V88.63L309.836,88.63z"/>
		<path fill="#FCFBF8" d="M309.836,88.63c0,0.727-0.623,1.35-1.35,1.35h-38.832c-0.728,0-1.351-0.623-1.351-1.35v-5.191
			c0-0.727,0.623-1.35,1.351-1.35h38.832c0.727,0,1.35,0.623,1.35,1.35V88.63L309.836,88.63z"/>
		<path fill="none" stroke="#717071" stroke-linecap="round" stroke-linejoin="round" d="M309.836,88.63
			c0,0.727-0.623,1.35-1.35,1.35h-38.832c-0.728,0-1.351-0.623-1.351-1.35v-5.191c0-0.727,0.623-1.35,1.351-1.35h38.832
			c0.727,0,1.35,0.623,1.35,1.35V88.63L309.836,88.63z"/>
		<path fill="#FFFFFF" d="M355.209,88.63c0,0.727-0.622,1.35-1.35,1.35h-38.832c-0.728,0-1.35-0.623-1.35-1.35v-5.191
			c0-0.727,0.622-1.35,1.35-1.35h38.832c0.728,0,1.35,0.623,1.35,1.35V88.63L355.209,88.63z"/>
		<path fill="none" stroke="#717071" stroke-linecap="round" stroke-linejoin="round" d="M355.209,88.63
			c0,0.727-0.622,1.35-1.35,1.35h-38.832c-0.728,0-1.35-0.623-1.35-1.35v-5.191c0-0.727,0.622-1.35,1.35-1.35h38.832
			c0.728,0,1.35,0.623,1.35,1.35V88.63L355.209,88.63z"/>
		<path fill="#FCFBF8" d="M355.209,88.63c0,0.727-0.622,1.35-1.35,1.35h-38.832c-0.728,0-1.35-0.623-1.35-1.35v-5.191
			c0-0.727,0.622-1.35,1.35-1.35h38.832c0.728,0,1.35,0.623,1.35,1.35V88.63L355.209,88.63z"/>
		<path fill="none" stroke="#717071" stroke-linecap="round" stroke-linejoin="round" d="M355.209,88.63
			c0,0.727-0.622,1.35-1.35,1.35h-38.832c-0.728,0-1.35-0.623-1.35-1.35v-5.191c0-0.727,0.622-1.35,1.35-1.35h38.832
			c0.728,0,1.35,0.623,1.35,1.35V88.63L355.209,88.63z"/>
		<path fill="#FFFFFF" d="M332.471,99.636c0,0.727-0.623,1.35-1.351,1.35h-38.832c-0.727,0-1.35-0.623-1.35-1.35v-5.191
			c0-0.727,0.623-1.35,1.35-1.35h38.832c0.728,0,1.351,0.623,1.351,1.35V99.636L332.471,99.636z"/>
		<path fill="none" stroke="#717071" stroke-linecap="round" stroke-linejoin="round" d="M332.471,99.636
			c0,0.727-0.623,1.35-1.351,1.35h-38.832c-0.727,0-1.35-0.623-1.35-1.35v-5.191c0-0.727,0.623-1.35,1.35-1.35h38.832
			c0.728,0,1.351,0.623,1.351,1.35V99.636L332.471,99.636z"/>
		<path fill="#FCFBF8" d="M332.471,99.636c0,0.727-0.623,1.35-1.351,1.35h-38.832c-0.727,0-1.35-0.623-1.35-1.35v-5.191
			c0-0.727,0.623-1.35,1.35-1.35h38.832c0.728,0,1.351,0.623,1.351,1.35V99.636L332.471,99.636z"/>
		<path fill="none" stroke="#717071" stroke-linecap="round" stroke-linejoin="round" d="M332.471,99.636
			c0,0.727-0.623,1.35-1.351,1.35h-38.832c-0.727,0-1.35-0.623-1.35-1.35v-5.191c0-0.727,0.623-1.35,1.35-1.35h38.832
			c0.728,0,1.351,0.623,1.351,1.35V99.636L332.471,99.636z"/>
		<path fill="#FFFFFF" d="M355.209,99.636c0,0.727-0.622,1.35-1.35,1.35h-16.093c-0.728,0-1.35-0.623-1.35-1.35v-5.191
			c0-0.727,0.622-1.35,1.35-1.35h16.093c0.728,0,1.35,0.623,1.35,1.35V99.636L355.209,99.636z"/>
		<path fill="none" stroke="#717071" stroke-linecap="round" stroke-linejoin="round" d="M355.209,99.636
			c0,0.727-0.622,1.35-1.35,1.35h-16.093c-0.728,0-1.35-0.623-1.35-1.35v-5.191c0-0.727,0.622-1.35,1.35-1.35h16.093
			c0.728,0,1.35,0.623,1.35,1.35V99.636L355.209,99.636z"/>
		<path fill="#FCFBF8" d="M355.209,99.636c0,0.727-0.622,1.35-1.35,1.35h-16.093c-0.728,0-1.35-0.623-1.35-1.35v-5.191
			c0-0.727,0.622-1.35,1.35-1.35h16.093c0.728,0,1.35,0.623,1.35,1.35V99.636L355.209,99.636z"/>
		<path fill="none" stroke="#717071" stroke-linecap="round" stroke-linejoin="round" d="M355.209,99.636
			c0,0.727-0.622,1.35-1.35,1.35h-16.093c-0.728,0-1.35-0.623-1.35-1.35v-5.191c0-0.727,0.622-1.35,1.35-1.35h16.093
			c0.728,0,1.35,0.623,1.35,1.35V99.636L355.209,99.636z"/>
		<path fill="#FFFFFF" d="M287.097,99.636c0,0.727-0.622,1.35-1.35,1.35h-16.093c-0.728,0-1.351-0.623-1.351-1.35v-5.191
			c0-0.727,0.623-1.35,1.351-1.35h16.093c0.728,0,1.35,0.623,1.35,1.35V99.636L287.097,99.636z"/>
		<path fill="none" stroke="#717071" stroke-linecap="round" stroke-linejoin="round" d="M287.097,99.636
			c0,0.727-0.622,1.35-1.35,1.35h-16.093c-0.728,0-1.351-0.623-1.351-1.35v-5.191c0-0.727,0.623-1.35,1.351-1.35h16.093
			c0.728,0,1.35,0.623,1.35,1.35V99.636L287.097,99.636z"/>
		<path fill="#FCFBF8" d="M287.097,99.636c0,0.727-0.622,1.35-1.35,1.35h-16.093c-0.728,0-1.351-0.623-1.351-1.35v-5.191
			c0-0.727,0.623-1.35,1.351-1.35h16.093c0.728,0,1.35,0.623,1.35,1.35V99.636L287.097,99.636z"/>
		<path fill="none" stroke="#717071" stroke-linecap="round" stroke-linejoin="round" d="M287.097,99.636
			c0,0.727-0.622,1.35-1.35,1.35h-16.093c-0.728,0-1.351-0.623-1.351-1.35v-5.191c0-0.727,0.623-1.35,1.351-1.35h16.093
			c0.728,0,1.35,0.623,1.35,1.35V99.636L287.097,99.636z"/>
		<path fill="#FFFFFF" d="M309.836,110.538c0,0.727-0.623,1.35-1.35,1.35h-38.832c-0.728,0-1.351-0.623-1.351-1.35v-5.191
			c0-0.727,0.623-1.35,1.351-1.35h38.832c0.727,0,1.35,0.623,1.35,1.35V110.538L309.836,110.538z"/>
		<path fill="none" stroke="#717071" stroke-linecap="round" stroke-linejoin="round" d="M309.836,110.538
			c0,0.727-0.623,1.35-1.35,1.35h-38.832c-0.728,0-1.351-0.623-1.351-1.35v-5.191c0-0.727,0.623-1.35,1.351-1.35h38.832
			c0.727,0,1.35,0.623,1.35,1.35V110.538L309.836,110.538z"/>
		<path fill="#FCFBF8" d="M309.836,110.538c0,0.727-0.623,1.35-1.35,1.35h-38.832c-0.728,0-1.351-0.623-1.351-1.35v-5.191
			c0-0.727,0.623-1.35,1.351-1.35h38.832c0.727,0,1.35,0.623,1.35,1.35V110.538L309.836,110.538z"/>
		<path fill="none" stroke="#717071" stroke-linecap="round" stroke-linejoin="round" d="M309.836,110.538
			c0,0.727-0.623,1.35-1.35,1.35h-38.832c-0.728,0-1.351-0.623-1.351-1.35v-5.191c0-0.727,0.623-1.35,1.351-1.35h38.832
			c0.727,0,1.35,0.623,1.35,1.35V110.538L309.836,110.538z"/>
		<path fill="#FFFFFF" d="M355.209,110.538c0,0.727-0.622,1.35-1.35,1.35h-38.832c-0.728,0-1.35-0.623-1.35-1.35v-5.191
			c0-0.727,0.622-1.35,1.35-1.35h38.832c0.728,0,1.35,0.623,1.35,1.35V110.538L355.209,110.538z"/>
		<path fill="none" stroke="#717071" stroke-linecap="round" stroke-linejoin="round" d="M355.209,110.538
			c0,0.727-0.622,1.35-1.35,1.35h-38.832c-0.728,0-1.35-0.623-1.35-1.35v-5.191c0-0.727,0.622-1.35,1.35-1.35h38.832
			c0.728,0,1.35,0.623,1.35,1.35V110.538L355.209,110.538z"/>
		<path fill="#FCFBF8" d="M355.209,110.538c0,0.727-0.622,1.35-1.35,1.35h-38.832c-0.728,0-1.35-0.623-1.35-1.35v-5.191
			c0-0.727,0.622-1.35,1.35-1.35h38.832c0.728,0,1.35,0.623,1.35,1.35V110.538L355.209,110.538z"/>
		<path fill="none" stroke="#717071" stroke-linecap="round" stroke-linejoin="round" d="M355.209,110.538
			c0,0.727-0.622,1.35-1.35,1.35h-38.832c-0.728,0-1.35-0.623-1.35-1.35v-5.191c0-0.727,0.622-1.35,1.35-1.35h38.832
			c0.728,0,1.35,0.623,1.35,1.35V110.538L355.209,110.538z"/>
		<path fill="#FFFFFF" d="M332.471,121.543c0,0.727-0.623,1.35-1.351,1.35h-38.832c-0.727,0-1.35-0.623-1.35-1.35v-5.191
			c0-0.727,0.623-1.35,1.35-1.35h38.832c0.728,0,1.351,0.623,1.351,1.35V121.543L332.471,121.543z"/>
		<path fill="none" stroke="#717071" stroke-linecap="round" stroke-linejoin="round" d="M332.471,121.543
			c0,0.727-0.623,1.35-1.351,1.35h-38.832c-0.727,0-1.35-0.623-1.35-1.35v-5.191c0-0.727,0.623-1.35,1.35-1.35h38.832
			c0.728,0,1.351,0.623,1.351,1.35V121.543L332.471,121.543z"/>
		<path fill="#FCFBF8" d="M332.471,121.543c0,0.727-0.623,1.35-1.351,1.35h-38.832c-0.727,0-1.35-0.623-1.35-1.35v-5.191
			c0-0.727,0.623-1.35,1.35-1.35h38.832c0.728,0,1.351,0.623,1.351,1.35V121.543L332.471,121.543z"/>
		<path fill="none" stroke="#717071" stroke-linecap="round" stroke-linejoin="round" d="M332.471,121.543
			c0,0.727-0.623,1.35-1.351,1.35h-38.832c-0.727,0-1.35-0.623-1.35-1.35v-5.191c0-0.727,0.623-1.35,1.35-1.35h38.832
			c0.728,0,1.351,0.623,1.351,1.35V121.543L332.471,121.543z"/>
		<path fill="#FFFFFF" d="M355.209,121.543c0,0.727-0.622,1.35-1.35,1.35h-16.093c-0.728,0-1.35-0.623-1.35-1.35v-5.191
			c0-0.727,0.622-1.35,1.35-1.35h16.093c0.728,0,1.35,0.623,1.35,1.35V121.543L355.209,121.543z"/>
		<path fill="none" stroke="#717071" stroke-linecap="round" stroke-linejoin="round" d="M355.209,121.543
			c0,0.727-0.622,1.35-1.35,1.35h-16.093c-0.728,0-1.35-0.623-1.35-1.35v-5.191c0-0.727,0.622-1.35,1.35-1.35h16.093
			c0.728,0,1.35,0.623,1.35,1.35V121.543L355.209,121.543z"/>
		<path fill="#FCFBF8" d="M355.209,121.543c0,0.727-0.622,1.35-1.35,1.35h-16.093c-0.728,0-1.35-0.623-1.35-1.35v-5.191
			c0-0.727,0.622-1.35,1.35-1.35h16.093c0.728,0,1.35,0.623,1.35,1.35V121.543L355.209,121.543z"/>
		<path fill="none" stroke="#717071" stroke-linecap="round" stroke-linejoin="round" d="M355.209,121.543
			c0,0.727-0.622,1.35-1.35,1.35h-16.093c-0.728,0-1.35-0.623-1.35-1.35v-5.191c0-0.727,0.622-1.35,1.35-1.35h16.093
			c0.728,0,1.35,0.623,1.35,1.35V121.543L355.209,121.543z"/>
		<path fill="#FFFFFF" d="M287.097,121.543c0,0.727-0.622,1.35-1.35,1.35h-16.093c-0.728,0-1.351-0.623-1.351-1.35v-5.191
			c0-0.727,0.623-1.35,1.351-1.35h16.093c0.728,0,1.35,0.623,1.35,1.35V121.543L287.097,121.543z"/>
		<path fill="none" stroke="#717071" stroke-linecap="round" stroke-linejoin="round" d="M287.097,121.543
			c0,0.727-0.622,1.35-1.35,1.35h-16.093c-0.728,0-1.351-0.623-1.351-1.35v-5.191c0-0.727,0.623-1.35,1.351-1.35h16.093
			c0.728,0,1.35,0.623,1.35,1.35V121.543L287.097,121.543z"/>
		<path fill="#FCFBF8" d="M287.097,121.543c0,0.727-0.622,1.35-1.35,1.35h-16.093c-0.728,0-1.351-0.623-1.351-1.35v-5.191
			c0-0.727,0.623-1.35,1.351-1.35h16.093c0.728,0,1.35,0.623,1.35,1.35V121.543L287.097,121.543z"/>
		<path fill="none" stroke="#717071" stroke-linecap="round" stroke-linejoin="round" d="M287.097,121.543
			c0,0.727-0.622,1.35-1.35,1.35h-16.093c-0.728,0-1.351-0.623-1.351-1.35v-5.191c0-0.727,0.623-1.35,1.351-1.35h16.093
			c0.728,0,1.35,0.623,1.35,1.35V121.543L287.097,121.543z"/>
		<path fill="#FFFFFF" d="M309.836,132.446c0,0.727-0.623,1.35-1.35,1.35h-38.832c-0.728,0-1.351-0.623-1.351-1.35v-5.191
			c0-0.727,0.623-1.35,1.351-1.35h38.832c0.727,0,1.35,0.624,1.35,1.35V132.446L309.836,132.446z"/>
		<path fill="none" stroke="#717071" stroke-linecap="round" stroke-linejoin="round" d="M309.836,132.446
			c0,0.727-0.623,1.35-1.35,1.35h-38.832c-0.728,0-1.351-0.623-1.351-1.35v-5.191c0-0.727,0.623-1.35,1.351-1.35h38.832
			c0.727,0,1.35,0.624,1.35,1.35V132.446L309.836,132.446z"/>
		<path fill="#FCFBF8" d="M309.836,132.446c0,0.727-0.623,1.35-1.35,1.35h-38.832c-0.728,0-1.351-0.623-1.351-1.35v-5.191
			c0-0.727,0.623-1.35,1.351-1.35h38.832c0.727,0,1.35,0.624,1.35,1.35V132.446L309.836,132.446z"/>
		<path fill="none" stroke="#717071" stroke-linecap="round" stroke-linejoin="round" d="M309.836,132.446
			c0,0.727-0.623,1.35-1.35,1.35h-38.832c-0.728,0-1.351-0.623-1.351-1.35v-5.191c0-0.727,0.623-1.35,1.351-1.35h38.832
			c0.727,0,1.35,0.624,1.35,1.35V132.446L309.836,132.446z"/>
		<path fill="#FFFFFF" d="M355.209,132.446c0,0.727-0.622,1.35-1.35,1.35h-38.832c-0.728,0-1.35-0.623-1.35-1.35v-5.191
			c0-0.727,0.622-1.35,1.35-1.35h38.832c0.728,0,1.35,0.624,1.35,1.35V132.446L355.209,132.446z"/>
		<path fill="none" stroke="#717071" stroke-linecap="round" stroke-linejoin="round" d="M355.209,132.446
			c0,0.727-0.622,1.35-1.35,1.35h-38.832c-0.728,0-1.35-0.623-1.35-1.35v-5.191c0-0.727,0.622-1.35,1.35-1.35h38.832
			c0.728,0,1.35,0.624,1.35,1.35V132.446L355.209,132.446z"/>
		<path fill="#FCFBF8" d="M355.209,132.446c0,0.727-0.622,1.35-1.35,1.35h-38.832c-0.728,0-1.35-0.623-1.35-1.35v-5.191
			c0-0.727,0.622-1.35,1.35-1.35h38.832c0.728,0,1.35,0.624,1.35,1.35V132.446L355.209,132.446z"/>
		<path fill="none" stroke="#717071" stroke-linecap="round" stroke-linejoin="round" d="M355.209,132.446
			c0,0.727-0.622,1.35-1.35,1.35h-38.832c-0.728,0-1.35-0.623-1.35-1.35v-5.191c0-0.727,0.622-1.35,1.35-1.35h38.832
			c0.728,0,1.35,0.624,1.35,1.35V132.446L355.209,132.446z"/>
		<path fill="#FFFFFF" d="M332.471,143.452c0,0.727-0.623,1.35-1.351,1.35h-38.832c-0.727,0-1.35-0.623-1.35-1.35v-5.192
			c0-0.727,0.623-1.35,1.35-1.35h38.832c0.728,0,1.351,0.623,1.351,1.35V143.452L332.471,143.452z"/>
		<path fill="none" stroke="#717071" stroke-linecap="round" stroke-linejoin="round" d="M332.471,143.452
			c0,0.727-0.623,1.35-1.351,1.35h-38.832c-0.727,0-1.35-0.623-1.35-1.35v-5.192c0-0.727,0.623-1.35,1.35-1.35h38.832
			c0.728,0,1.351,0.623,1.351,1.35V143.452L332.471,143.452z"/>
		<path fill="#FCFBF8" d="M332.471,143.452c0,0.727-0.623,1.35-1.351,1.35h-38.832c-0.727,0-1.35-0.623-1.35-1.35v-5.192
			c0-0.727,0.623-1.35,1.35-1.35h38.832c0.728,0,1.351,0.623,1.351,1.35V143.452L332.471,143.452z"/>
		<path fill="none" stroke="#717071" stroke-linecap="round" stroke-linejoin="round" d="M332.471,143.452
			c0,0.727-0.623,1.35-1.351,1.35h-38.832c-0.727,0-1.35-0.623-1.35-1.35v-5.192c0-0.727,0.623-1.35,1.35-1.35h38.832
			c0.728,0,1.351,0.623,1.351,1.35V143.452L332.471,143.452z"/>
		<path fill="#FFFFFF" d="M355.209,143.452c0,0.727-0.622,1.35-1.35,1.35h-16.093c-0.728,0-1.35-0.623-1.35-1.35v-5.192
			c0-0.727,0.622-1.35,1.35-1.35h16.093c0.728,0,1.35,0.623,1.35,1.35V143.452L355.209,143.452z"/>
		<path fill="none" stroke="#717071" stroke-linecap="round" stroke-linejoin="round" d="M355.209,143.452
			c0,0.727-0.622,1.35-1.35,1.35h-16.093c-0.728,0-1.35-0.623-1.35-1.35v-5.192c0-0.727,0.622-1.35,1.35-1.35h16.093
			c0.728,0,1.35,0.623,1.35,1.35V143.452L355.209,143.452z"/>
		<path fill="#FCFBF8" d="M355.209,143.452c0,0.727-0.622,1.35-1.35,1.35h-16.093c-0.728,0-1.35-0.623-1.35-1.35v-5.192
			c0-0.727,0.622-1.35,1.35-1.35h16.093c0.728,0,1.35,0.623,1.35,1.35V143.452L355.209,143.452z"/>
		<path fill="none" stroke="#717071" stroke-linecap="round" stroke-linejoin="round" d="M355.209,143.452
			c0,0.727-0.622,1.35-1.35,1.35h-16.093c-0.728,0-1.35-0.623-1.35-1.35v-5.192c0-0.727,0.622-1.35,1.35-1.35h16.093
			c0.728,0,1.35,0.623,1.35,1.35V143.452L355.209,143.452z"/>
		<path fill="#FFFFFF" d="M287.097,143.452c0,0.727-0.622,1.35-1.35,1.35h-16.093c-0.728,0-1.351-0.623-1.351-1.35v-5.192
			c0-0.727,0.623-1.35,1.351-1.35h16.093c0.728,0,1.35,0.623,1.35,1.35V143.452L287.097,143.452z"/>
		<path fill="none" stroke="#717071" stroke-linecap="round" stroke-linejoin="round" d="M287.097,143.452
			c0,0.727-0.622,1.35-1.35,1.35h-16.093c-0.728,0-1.351-0.623-1.351-1.35v-5.192c0-0.727,0.623-1.35,1.351-1.35h16.093
			c0.728,0,1.35,0.623,1.35,1.35V143.452L287.097,143.452z"/>
		<path fill="#FCFBF8" d="M287.097,143.452c0,0.727-0.622,1.35-1.35,1.35h-16.093c-0.728,0-1.351-0.623-1.351-1.35v-5.192
			c0-0.727,0.623-1.35,1.351-1.35h16.093c0.728,0,1.35,0.623,1.35,1.35V143.452L287.097,143.452z"/>
		<path fill="none" stroke="#717071" stroke-linecap="round" stroke-linejoin="round" d="M287.097,143.452
			c0,0.727-0.622,1.35-1.35,1.35h-16.093c-0.728,0-1.351-0.623-1.351-1.35v-5.192c0-0.727,0.623-1.35,1.351-1.35h16.093
			c0.728,0,1.35,0.623,1.35,1.35V143.452L287.097,143.452z"/>
		<path fill="#FFFFFF" d="M309.836,154.354c0,0.727-0.623,1.35-1.35,1.35h-38.832c-0.728,0-1.351-0.623-1.351-1.35v-5.191
			c0-0.727,0.623-1.35,1.351-1.35h38.832c0.727,0,1.35,0.623,1.35,1.35V154.354L309.836,154.354z"/>
		<path fill="none" stroke="#717071" stroke-linecap="round" stroke-linejoin="round" d="M309.836,154.354
			c0,0.727-0.623,1.35-1.35,1.35h-38.832c-0.728,0-1.351-0.623-1.351-1.35v-5.191c0-0.727,0.623-1.35,1.351-1.35h38.832
			c0.727,0,1.35,0.623,1.35,1.35V154.354L309.836,154.354z"/>
		<path fill="#FCFBF8" d="M309.836,154.354c0,0.727-0.623,1.35-1.35,1.35h-38.832c-0.728,0-1.351-0.623-1.351-1.35v-5.191
			c0-0.727,0.623-1.35,1.351-1.35h38.832c0.727,0,1.35,0.623,1.35,1.35V154.354L309.836,154.354z"/>
		<path fill="none" stroke="#717071" stroke-linecap="round" stroke-linejoin="round" d="M309.836,154.354
			c0,0.727-0.623,1.35-1.35,1.35h-38.832c-0.728,0-1.351-0.623-1.351-1.35v-5.191c0-0.727,0.623-1.35,1.351-1.35h38.832
			c0.727,0,1.35,0.623,1.35,1.35V154.354L309.836,154.354z"/>
		<path fill="#FFFFFF" d="M355.209,154.354c0,0.727-0.622,1.35-1.35,1.35h-38.832c-0.728,0-1.35-0.623-1.35-1.35v-5.191
			c0-0.727,0.622-1.35,1.35-1.35h38.832c0.728,0,1.35,0.623,1.35,1.35V154.354L355.209,154.354z"/>
		<path fill="none" stroke="#717071" stroke-linecap="round" stroke-linejoin="round" d="M355.209,154.354
			c0,0.727-0.622,1.35-1.35,1.35h-38.832c-0.728,0-1.35-0.623-1.35-1.35v-5.191c0-0.727,0.622-1.35,1.35-1.35h38.832
			c0.728,0,1.35,0.623,1.35,1.35V154.354L355.209,154.354z"/>
		<path fill="#FCFBF8" d="M355.209,154.354c0,0.727-0.622,1.35-1.35,1.35h-38.832c-0.728,0-1.35-0.623-1.35-1.35v-5.191
			c0-0.727,0.622-1.35,1.35-1.35h38.832c0.728,0,1.35,0.623,1.35,1.35V154.354L355.209,154.354z"/>
		<path fill="none" stroke="#717071" stroke-linecap="round" stroke-linejoin="round" d="M355.209,154.354
			c0,0.727-0.622,1.35-1.35,1.35h-38.832c-0.728,0-1.35-0.623-1.35-1.35v-5.191c0-0.727,0.622-1.35,1.35-1.35h38.832
			c0.728,0,1.35,0.623,1.35,1.35V154.354L355.209,154.354z"/>
		<path fill="#FFFFFF" d="M332.471,165.36c0,0.727-0.623,1.35-1.351,1.35h-38.832c-0.727,0-1.35-0.623-1.35-1.35v-5.191
			c0-0.728,0.623-1.35,1.35-1.35h38.832c0.728,0,1.351,0.623,1.351,1.35V165.36L332.471,165.36z"/>
		<path fill="none" stroke="#717071" stroke-linecap="round" stroke-linejoin="round" d="M332.471,165.36
			c0,0.727-0.623,1.35-1.351,1.35h-38.832c-0.727,0-1.35-0.623-1.35-1.35v-5.191c0-0.728,0.623-1.35,1.35-1.35h38.832
			c0.728,0,1.351,0.623,1.351,1.35V165.36L332.471,165.36z"/>
		<path fill="#FCFBF8" d="M332.471,165.36c0,0.727-0.623,1.35-1.351,1.35h-38.832c-0.727,0-1.35-0.623-1.35-1.35v-5.191
			c0-0.728,0.623-1.35,1.35-1.35h38.832c0.728,0,1.351,0.623,1.351,1.35V165.36L332.471,165.36z"/>
		<path fill="none" stroke="#717071" stroke-linecap="round" stroke-linejoin="round" d="M332.471,165.36
			c0,0.727-0.623,1.35-1.351,1.35h-38.832c-0.727,0-1.35-0.623-1.35-1.35v-5.191c0-0.728,0.623-1.35,1.35-1.35h38.832
			c0.728,0,1.351,0.623,1.351,1.35V165.36L332.471,165.36z"/>
		<path fill="#FFFFFF" d="M355.209,165.36c0,0.727-0.622,1.35-1.35,1.35h-16.093c-0.728,0-1.35-0.623-1.35-1.35v-5.191
			c0-0.728,0.622-1.35,1.35-1.35h16.093c0.728,0,1.35,0.623,1.35,1.35V165.36L355.209,165.36z"/>
		<path fill="none" stroke="#717071" stroke-linecap="round" stroke-linejoin="round" d="M355.209,165.36
			c0,0.727-0.622,1.35-1.35,1.35h-16.093c-0.728,0-1.35-0.623-1.35-1.35v-5.191c0-0.728,0.622-1.35,1.35-1.35h16.093
			c0.728,0,1.35,0.623,1.35,1.35V165.36L355.209,165.36z"/>
		<path fill="#FCFBF8" d="M355.209,165.36c0,0.727-0.622,1.35-1.35,1.35h-16.093c-0.728,0-1.35-0.623-1.35-1.35v-5.191
			c0-0.728,0.622-1.35,1.35-1.35h16.093c0.728,0,1.35,0.623,1.35,1.35V165.36L355.209,165.36z"/>
		<path fill="none" stroke="#717071" stroke-linecap="round" stroke-linejoin="round" d="M355.209,165.36
			c0,0.727-0.622,1.35-1.35,1.35h-16.093c-0.728,0-1.35-0.623-1.35-1.35v-5.191c0-0.728,0.622-1.35,1.35-1.35h16.093
			c0.728,0,1.35,0.623,1.35,1.35V165.36L355.209,165.36z"/>
		<path fill="#FFFFFF" d="M287.097,165.36c0,0.727-0.622,1.35-1.35,1.35h-16.093c-0.728,0-1.351-0.623-1.351-1.35v-5.191
			c0-0.728,0.623-1.35,1.351-1.35h16.093c0.728,0,1.35,0.623,1.35,1.35V165.36L287.097,165.36z"/>
		<path fill="none" stroke="#717071" stroke-linecap="round" stroke-linejoin="round" d="M287.097,165.36
			c0,0.727-0.622,1.35-1.35,1.35h-16.093c-0.728,0-1.351-0.623-1.351-1.35v-5.191c0-0.728,0.623-1.35,1.351-1.35h16.093
			c0.728,0,1.35,0.623,1.35,1.35V165.36L287.097,165.36z"/>
		<path fill="#FCFBF8" d="M287.097,165.36c0,0.727-0.622,1.35-1.35,1.35h-16.093c-0.728,0-1.351-0.623-1.351-1.35v-5.191
			c0-0.728,0.623-1.35,1.351-1.35h16.093c0.728,0,1.35,0.623,1.35,1.35V165.36L287.097,165.36z"/>
		<path fill="none" stroke="#717071" stroke-linecap="round" stroke-linejoin="round" d="M287.097,165.36
			c0,0.727-0.622,1.35-1.35,1.35h-16.093c-0.728,0-1.351-0.623-1.351-1.35v-5.191c0-0.728,0.623-1.35,1.351-1.35h16.093
			c0.728,0,1.35,0.623,1.35,1.35V165.36L287.097,165.36z"/>
		<path fill="#FFFFFF" d="M309.836,176.262c0,0.727-0.623,1.35-1.35,1.35h-38.832c-0.728,0-1.351-0.624-1.351-1.35v-5.191
			c0-0.727,0.623-1.35,1.351-1.35h38.832c0.727,0,1.35,0.623,1.35,1.35V176.262L309.836,176.262z"/>
		<path fill="none" stroke="#717071" stroke-linecap="round" stroke-linejoin="round" d="M309.836,176.262
			c0,0.727-0.623,1.35-1.35,1.35h-38.832c-0.728,0-1.351-0.624-1.351-1.35v-5.191c0-0.727,0.623-1.35,1.351-1.35h38.832
			c0.727,0,1.35,0.623,1.35,1.35V176.262L309.836,176.262z"/>
		<path fill="#FCFBF8" d="M309.836,176.262c0,0.727-0.623,1.35-1.35,1.35h-38.832c-0.728,0-1.351-0.624-1.351-1.35v-5.191
			c0-0.727,0.623-1.35,1.351-1.35h38.832c0.727,0,1.35,0.623,1.35,1.35V176.262L309.836,176.262z"/>
		<path fill="none" stroke="#717071" stroke-linecap="round" stroke-linejoin="round" d="M309.836,176.262
			c0,0.727-0.623,1.35-1.35,1.35h-38.832c-0.728,0-1.351-0.624-1.351-1.35v-5.191c0-0.727,0.623-1.35,1.351-1.35h38.832
			c0.727,0,1.35,0.623,1.35,1.35V176.262L309.836,176.262z"/>
		<path fill="#FFFFFF" d="M355.209,176.262c0,0.727-0.622,1.35-1.35,1.35h-38.832c-0.728,0-1.35-0.624-1.35-1.35v-5.191
			c0-0.727,0.622-1.35,1.35-1.35h38.832c0.728,0,1.35,0.623,1.35,1.35V176.262L355.209,176.262z"/>
		<path fill="none" stroke="#717071" stroke-linecap="round" stroke-linejoin="round" d="M355.209,176.262
			c0,0.727-0.622,1.35-1.35,1.35h-38.832c-0.728,0-1.35-0.624-1.35-1.35v-5.191c0-0.727,0.622-1.35,1.35-1.35h38.832
			c0.728,0,1.35,0.623,1.35,1.35V176.262L355.209,176.262z"/>
		<path fill="#FCFBF8" d="M355.209,176.262c0,0.727-0.622,1.35-1.35,1.35h-38.832c-0.728,0-1.35-0.624-1.35-1.35v-5.191
			c0-0.727,0.622-1.35,1.35-1.35h38.832c0.728,0,1.35,0.623,1.35,1.35V176.262L355.209,176.262z"/>
		<path fill="none" stroke="#717071" stroke-linecap="round" stroke-linejoin="round" d="M355.209,176.262
			c0,0.727-0.622,1.35-1.35,1.35h-38.832c-0.728,0-1.35-0.624-1.35-1.35v-5.191c0-0.727,0.622-1.35,1.35-1.35h38.832
			c0.728,0,1.35,0.623,1.35,1.35V176.262L355.209,176.262z"/>
		<polygon fill="#FFFFFF" points="288.446,68.694 286.889,68.694 286.889,61.011 288.446,61.011 		"/>
		<polygon fill="none" stroke="#717071" stroke-linecap="round" stroke-linejoin="round" points="288.446,68.694 286.889,68.694 
			286.889,61.011 288.446,61.011 		"/>
		<polygon fill="#EEEEEF" points="347.941,65.58 288.446,65.58 288.446,67.137 347.941,67.137 		"/>
		<polygon fill="none" stroke="#717071" stroke-linecap="round" stroke-linejoin="round" points="347.941,65.58 288.446,65.58 
			288.446,67.137 347.941,67.137 		"/>
		<polygon fill="#FFFFFF" points="349.498,68.694 347.941,68.694 347.941,61.011 349.498,61.011 		"/>
		<polygon fill="none" stroke="#717071" stroke-linecap="round" stroke-linejoin="round" points="349.498,68.694 347.941,68.694 
			347.941,61.011 349.498,61.011 		"/>
		<path fill="#FCFBF8" d="M355.417,255.588c-0.727,0-1.35-0.623-1.35-1.35v-34.16c0-0.727,0.623-1.35,1.35-1.35h4.257
			c0.728,0,1.35,0.623,1.35,1.35v34.16c0,0.727-0.622,1.35-1.35,1.35H355.417L355.417,255.588z"/>
		<path fill="none" stroke="#717071" stroke-linecap="round" stroke-linejoin="round" d="M355.417,255.588
			c-0.727,0-1.35-0.623-1.35-1.35v-34.16c0-0.727,0.623-1.35,1.35-1.35h4.257c0.728,0,1.35,0.623,1.35,1.35v34.16
			c0,0.727-0.622,1.35-1.35,1.35H355.417L355.417,255.588z"/>
		<path fill="#FCFBF8" d="M355.417,275.73c-0.727,0-1.35-0.622-1.35-1.35v-14.018c0-0.726,0.623-1.349,1.35-1.349h4.257
			c0.728,0,1.35,0.623,1.35,1.349v14.018c0,0.728-0.622,1.35-1.35,1.35H355.417L355.417,275.73z"/>
		<path fill="none" stroke="#717071" stroke-linecap="round" stroke-linejoin="round" d="M355.417,275.73
			c-0.727,0-1.35-0.622-1.35-1.35v-14.018c0-0.726,0.623-1.349,1.35-1.349h4.257c0.728,0,1.35,0.623,1.35,1.349v14.018
			c0,0.728-0.622,1.35-1.35,1.35H355.417L355.417,275.73z"/>
		<path fill="#FCFBF8" d="M355.417,215.198c-0.727,0-1.35-0.623-1.35-1.35v-14.018c0-0.726,0.623-1.35,1.35-1.35h4.257
			c0.728,0,1.35,0.624,1.35,1.35v14.018c0,0.727-0.622,1.35-1.35,1.35H355.417L355.417,215.198z"/>
		<path fill="none" stroke="#717071" stroke-linecap="round" stroke-linejoin="round" d="M355.417,215.198
			c-0.727,0-1.35-0.623-1.35-1.35v-14.018c0-0.726,0.623-1.35,1.35-1.35h4.257c0.728,0,1.35,0.624,1.35,1.35v14.018
			c0,0.727-0.622,1.35-1.35,1.35H355.417L355.417,215.198z"/>
		<path fill="#FCFBF8" d="M345.656,235.445c-0.726,0-1.35-0.623-1.35-1.35v-34.16c0-0.727,0.624-1.35,1.35-1.35h4.258
			c0.727,0,1.351,0.623,1.351,1.35v34.16c0,0.727-0.624,1.35-1.351,1.35H345.656L345.656,235.445z"/>
		<path fill="none" stroke="#717071" stroke-linecap="round" stroke-linejoin="round" d="M345.656,235.445
			c-0.726,0-1.35-0.623-1.35-1.35v-34.16c0-0.727,0.624-1.35,1.35-1.35h4.258c0.727,0,1.351,0.623,1.351,1.35v34.16
			c0,0.727-0.624,1.35-1.351,1.35H345.656L345.656,235.445z"/>
		<path fill="#FCFBF8" d="M345.656,275.73c-0.726,0-1.35-0.622-1.35-1.35v-34.16c0-0.726,0.624-1.35,1.35-1.35h4.258
			c0.727,0,1.351,0.624,1.351,1.35v34.16c0,0.728-0.624,1.35-1.351,1.35H345.656L345.656,275.73z"/>
		<path fill="none" stroke="#717071" stroke-linecap="round" stroke-linejoin="round" d="M345.656,275.73
			c-0.726,0-1.35-0.622-1.35-1.35v-34.16c0-0.726,0.624-1.35,1.35-1.35h4.258c0.727,0,1.351,0.624,1.351,1.35v34.16
			c0,0.728-0.624,1.35-1.351,1.35H345.656L345.656,275.73z"/>
		<path fill="#FCFBF8" d="M335.897,255.588c-0.728,0-1.35-0.623-1.35-1.35v-34.16c0-0.727,0.622-1.35,1.35-1.35h4.256
			c0.728,0,1.351,0.623,1.351,1.35v34.16c0,0.727-0.623,1.35-1.351,1.35H335.897L335.897,255.588z"/>
		<path fill="none" stroke="#717071" stroke-linecap="round" stroke-linejoin="round" d="M335.897,255.588
			c-0.728,0-1.35-0.623-1.35-1.35v-34.16c0-0.727,0.622-1.35,1.35-1.35h4.256c0.728,0,1.351,0.623,1.351,1.35v34.16
			c0,0.727-0.623,1.35-1.351,1.35H335.897L335.897,255.588z"/>
		<path fill="#FCFBF8" d="M335.897,275.73c-0.728,0-1.35-0.622-1.35-1.35v-14.018c0-0.726,0.622-1.349,1.35-1.349h4.256
			c0.728,0,1.351,0.623,1.351,1.349v14.018c0,0.728-0.623,1.35-1.351,1.35H335.897L335.897,275.73z"/>
		<path fill="none" stroke="#717071" stroke-linecap="round" stroke-linejoin="round" d="M335.897,275.73
			c-0.728,0-1.35-0.622-1.35-1.35v-14.018c0-0.726,0.622-1.349,1.35-1.349h4.256c0.728,0,1.351,0.623,1.351,1.349v14.018
			c0,0.728-0.623,1.35-1.351,1.35H335.897L335.897,275.73z"/>
		<path fill="#FCFBF8" d="M335.897,215.198c-0.728,0-1.35-0.623-1.35-1.35v-14.018c0-0.726,0.622-1.35,1.35-1.35h4.256
			c0.728,0,1.351,0.624,1.351,1.35v14.018c0,0.727-0.623,1.35-1.351,1.35H335.897L335.897,215.198z"/>
		<path fill="none" stroke="#717071" stroke-linecap="round" stroke-linejoin="round" d="M335.897,215.198
			c-0.728,0-1.35-0.623-1.35-1.35v-14.018c0-0.726,0.622-1.35,1.35-1.35h4.256c0.728,0,1.351,0.624,1.351,1.35v14.018
			c0,0.727-0.623,1.35-1.351,1.35H335.897L335.897,215.198z"/>
		<path fill="#FCFBF8" d="M326.137,235.445c-0.726,0-1.35-0.623-1.35-1.35v-34.16c0-0.727,0.624-1.35,1.35-1.35h4.258
			c0.726,0,1.35,0.623,1.35,1.35v34.16c0,0.727-0.624,1.35-1.35,1.35H326.137L326.137,235.445z"/>
		<path fill="none" stroke="#717071" stroke-linecap="round" stroke-linejoin="round" d="M326.137,235.445
			c-0.726,0-1.35-0.623-1.35-1.35v-34.16c0-0.727,0.624-1.35,1.35-1.35h4.258c0.726,0,1.35,0.623,1.35,1.35v34.16
			c0,0.727-0.624,1.35-1.35,1.35H326.137L326.137,235.445z"/>
		<path fill="#FCFBF8" d="M326.137,275.73c-0.726,0-1.35-0.622-1.35-1.35v-34.16c0-0.726,0.624-1.35,1.35-1.35h4.258
			c0.726,0,1.35,0.624,1.35,1.35v34.16c0,0.728-0.624,1.35-1.35,1.35H326.137L326.137,275.73z"/>
		<path fill="none" stroke="#717071" stroke-linecap="round" stroke-linejoin="round" d="M326.137,275.73
			c-0.726,0-1.35-0.622-1.35-1.35v-34.16c0-0.726,0.624-1.35,1.35-1.35h4.258c0.726,0,1.35,0.624,1.35,1.35v34.16
			c0,0.728-0.624,1.35-1.35,1.35H326.137L326.137,275.73z"/>
		<path fill="#FCFBF8" d="M316.48,255.588c-0.727,0-1.35-0.623-1.35-1.35v-34.16c0-0.727,0.623-1.35,1.35-1.35h4.258
			c0.727,0,1.35,0.623,1.35,1.35v34.16c0,0.727-0.623,1.35-1.35,1.35H316.48L316.48,255.588z"/>
		<path fill="none" stroke="#717071" stroke-linecap="round" stroke-linejoin="round" d="M316.48,255.588
			c-0.727,0-1.35-0.623-1.35-1.35v-34.16c0-0.727,0.623-1.35,1.35-1.35h4.258c0.727,0,1.35,0.623,1.35,1.35v34.16
			c0,0.727-0.623,1.35-1.35,1.35H316.48L316.48,255.588z"/>
		<path fill="#FCFBF8" d="M316.48,275.73c-0.727,0-1.35-0.622-1.35-1.35v-14.018c0-0.726,0.623-1.349,1.35-1.349h4.258
			c0.727,0,1.35,0.623,1.35,1.349v14.018c0,0.728-0.623,1.35-1.35,1.35H316.48L316.48,275.73z"/>
		<path fill="none" stroke="#717071" stroke-linecap="round" stroke-linejoin="round" d="M316.48,275.73
			c-0.727,0-1.35-0.622-1.35-1.35v-14.018c0-0.726,0.623-1.349,1.35-1.349h4.258c0.727,0,1.35,0.623,1.35,1.349v14.018
			c0,0.728-0.623,1.35-1.35,1.35H316.48L316.48,275.73z"/>
		<path fill="#FCFBF8" d="M316.48,215.198c-0.727,0-1.35-0.623-1.35-1.35v-14.018c0-0.726,0.623-1.35,1.35-1.35h4.258
			c0.727,0,1.35,0.624,1.35,1.35v14.018c0,0.727-0.623,1.35-1.35,1.35H316.48L316.48,215.198z"/>
		<path fill="none" stroke="#717071" stroke-linecap="round" stroke-linejoin="round" d="M316.48,215.198
			c-0.727,0-1.35-0.623-1.35-1.35v-14.018c0-0.726,0.623-1.35,1.35-1.35h4.258c0.727,0,1.35,0.624,1.35,1.35v14.018
			c0,0.727-0.623,1.35-1.35,1.35H316.48L316.48,215.198z"/>
		<path fill="#FCFBF8" d="M306.722,235.445c-0.728,0-1.351-0.623-1.351-1.35v-34.16c0-0.727,0.623-1.35,1.351-1.35h4.256
			c0.728,0,1.351,0.623,1.351,1.35v34.16c0,0.727-0.623,1.35-1.351,1.35H306.722L306.722,235.445z"/>
		<path fill="none" stroke="#717071" stroke-linecap="round" stroke-linejoin="round" d="M306.722,235.445
			c-0.728,0-1.351-0.623-1.351-1.35v-34.16c0-0.727,0.623-1.35,1.351-1.35h4.256c0.728,0,1.351,0.623,1.351,1.35v34.16
			c0,0.727-0.623,1.35-1.351,1.35H306.722L306.722,235.445z"/>
		<path fill="#FCFBF8" d="M306.722,275.73c-0.728,0-1.351-0.622-1.351-1.35v-34.16c0-0.726,0.623-1.35,1.351-1.35h4.256
			c0.728,0,1.351,0.624,1.351,1.35v34.16c0,0.728-0.623,1.35-1.351,1.35H306.722L306.722,275.73z"/>
		<path fill="none" stroke="#717071" stroke-linecap="round" stroke-linejoin="round" d="M306.722,275.73
			c-0.728,0-1.351-0.622-1.351-1.35v-34.16c0-0.726,0.623-1.35,1.351-1.35h4.256c0.728,0,1.351,0.624,1.351,1.35v34.16
			c0,0.728-0.623,1.35-1.351,1.35H306.722L306.722,275.73z"/>
		<path fill="#FCFBF8" d="M296.961,255.588c-0.728,0-1.35-0.623-1.35-1.35v-34.16c0-0.727,0.622-1.35,1.35-1.35h4.258
			c0.726,0,1.35,0.623,1.35,1.35v34.16c0,0.727-0.624,1.35-1.35,1.35H296.961L296.961,255.588z"/>
		<path fill="none" stroke="#717071" stroke-linecap="round" stroke-linejoin="round" d="M296.961,255.588
			c-0.728,0-1.35-0.623-1.35-1.35v-34.16c0-0.727,0.622-1.35,1.35-1.35h4.258c0.726,0,1.35,0.623,1.35,1.35v34.16
			c0,0.727-0.624,1.35-1.35,1.35H296.961L296.961,255.588z"/>
		<path fill="#FCFBF8" d="M296.961,275.73c-0.728,0-1.35-0.622-1.35-1.35v-14.018c0-0.726,0.622-1.349,1.35-1.349h4.258
			c0.726,0,1.35,0.623,1.35,1.349v14.018c0,0.728-0.624,1.35-1.35,1.35H296.961L296.961,275.73z"/>
		<path fill="none" stroke="#717071" stroke-linecap="round" stroke-linejoin="round" d="M296.961,275.73
			c-0.728,0-1.35-0.622-1.35-1.35v-14.018c0-0.726,0.622-1.349,1.35-1.349h4.258c0.726,0,1.35,0.623,1.35,1.349v14.018
			c0,0.728-0.624,1.35-1.35,1.35H296.961L296.961,275.73z"/>
		<path fill="#FCFBF8" d="M296.961,215.198c-0.728,0-1.35-0.623-1.35-1.35v-14.018c0-0.726,0.622-1.35,1.35-1.35h4.258
			c0.726,0,1.35,0.624,1.35,1.35v14.018c0,0.727-0.624,1.35-1.35,1.35H296.961L296.961,215.198z"/>
		<path fill="none" stroke="#717071" stroke-linecap="round" stroke-linejoin="round" d="M296.961,215.198
			c-0.728,0-1.35-0.623-1.35-1.35v-14.018c0-0.726,0.622-1.35,1.35-1.35h4.258c0.726,0,1.35,0.624,1.35,1.35v14.018
			c0,0.727-0.624,1.35-1.35,1.35H296.961L296.961,215.198z"/>
		<path fill="#FCFBF8" d="M287.201,235.445c-0.727,0-1.35-0.623-1.35-1.35v-34.16c0-0.727,0.623-1.35,1.35-1.35h4.257
			c0.728,0,1.35,0.623,1.35,1.35v34.16c0,0.727-0.622,1.35-1.35,1.35H287.201L287.201,235.445z"/>
		<path fill="none" stroke="#717071" stroke-linecap="round" stroke-linejoin="round" d="M287.201,235.445
			c-0.727,0-1.35-0.623-1.35-1.35v-34.16c0-0.727,0.623-1.35,1.35-1.35h4.257c0.728,0,1.35,0.623,1.35,1.35v34.16
			c0,0.727-0.622,1.35-1.35,1.35H287.201L287.201,235.445z"/>
		<path fill="#FCFBF8" d="M287.201,275.73c-0.727,0-1.35-0.622-1.35-1.35v-34.16c0-0.726,0.623-1.35,1.35-1.35h4.257
			c0.728,0,1.35,0.624,1.35,1.35v34.16c0,0.728-0.622,1.35-1.35,1.35H287.201L287.201,275.73z"/>
		<path fill="none" stroke="#717071" stroke-linecap="round" stroke-linejoin="round" d="M287.201,275.73
			c-0.727,0-1.35-0.622-1.35-1.35v-34.16c0-0.726,0.623-1.35,1.35-1.35h4.257c0.728,0,1.35,0.624,1.35,1.35v34.16
			c0,0.728-0.622,1.35-1.35,1.35H287.201L287.201,275.73z"/>
		<path fill="#FCFBF8" d="M277.44,255.588c-0.727,0-1.35-0.623-1.35-1.35v-34.16c0-0.727,0.623-1.35,1.35-1.35h4.258
			c0.727,0,1.349,0.623,1.349,1.35v34.16c0,0.727-0.622,1.35-1.349,1.35H277.44L277.44,255.588z"/>
		<path fill="none" stroke="#717071" stroke-linecap="round" stroke-linejoin="round" d="M277.44,255.588
			c-0.727,0-1.35-0.623-1.35-1.35v-34.16c0-0.727,0.623-1.35,1.35-1.35h4.258c0.727,0,1.349,0.623,1.349,1.35v34.16
			c0,0.727-0.622,1.35-1.349,1.35H277.44L277.44,255.588z"/>
		<path fill="#FCFBF8" d="M277.44,275.73c-0.727,0-1.35-0.622-1.35-1.35v-14.018c0-0.726,0.623-1.349,1.35-1.349h4.258
			c0.727,0,1.349,0.623,1.349,1.349v14.018c0,0.728-0.622,1.35-1.349,1.35H277.44L277.44,275.73z"/>
		<path fill="none" stroke="#717071" stroke-linecap="round" stroke-linejoin="round" d="M277.44,275.73
			c-0.727,0-1.35-0.622-1.35-1.35v-14.018c0-0.726,0.623-1.349,1.35-1.349h4.258c0.727,0,1.349,0.623,1.349,1.349v14.018
			c0,0.728-0.622,1.35-1.349,1.35H277.44L277.44,275.73z"/>
		<path fill="#FCFBF8" d="M277.44,215.198c-0.727,0-1.35-0.623-1.35-1.35v-14.018c0-0.726,0.623-1.35,1.35-1.35h4.258
			c0.727,0,1.349,0.624,1.349,1.35v14.018c0,0.727-0.622,1.35-1.349,1.35H277.44L277.44,215.198z"/>
		<path fill="none" stroke="#717071" stroke-linecap="round" stroke-linejoin="round" d="M277.44,215.198
			c-0.727,0-1.35-0.623-1.35-1.35v-14.018c0-0.726,0.623-1.35,1.35-1.35h4.258c0.727,0,1.349,0.624,1.349,1.35v14.018
			c0,0.727-0.622,1.35-1.349,1.35H277.44L277.44,215.198z"/>
		<path fill="#FCFBF8" d="M267.785,235.445c-0.728,0-1.351-0.623-1.351-1.35v-34.16c0-0.727,0.623-1.35,1.351-1.35h4.256
			c0.728,0,1.351,0.623,1.351,1.35v34.16c0,0.727-0.623,1.35-1.351,1.35H267.785L267.785,235.445z"/>
		<path fill="none" stroke="#717071" stroke-linecap="round" stroke-linejoin="round" d="M267.785,235.445
			c-0.728,0-1.351-0.623-1.351-1.35v-34.16c0-0.727,0.623-1.35,1.351-1.35h4.256c0.728,0,1.351,0.623,1.351,1.35v34.16
			c0,0.727-0.623,1.35-1.351,1.35H267.785L267.785,235.445z"/>
		<path fill="#FCFBF8" d="M267.785,275.73c-0.728,0-1.351-0.622-1.351-1.35v-34.16c0-0.726,0.623-1.35,1.351-1.35h4.256
			c0.728,0,1.351,0.624,1.351,1.35v34.16c0,0.728-0.623,1.35-1.351,1.35H267.785L267.785,275.73z"/>
		<path fill="none" stroke="#717071" stroke-linecap="round" stroke-linejoin="round" d="M267.785,275.73
			c-0.728,0-1.351-0.622-1.351-1.35v-34.16c0-0.726,0.623-1.35,1.351-1.35h4.256c0.728,0,1.351,0.624,1.351,1.35v34.16
			c0,0.728-0.623,1.35-1.351,1.35H267.785L267.785,275.73z"/>
		<path fill="#FCFBF8" d="M257.401,255.588c-0.727,0-1.35-0.623-1.35-1.35v-34.16c0-0.727,0.623-1.35,1.35-1.35h4.258
			c0.727,0,1.35,0.623,1.35,1.35v34.16c0,0.727-0.623,1.35-1.35,1.35H257.401L257.401,255.588z"/>
		<path fill="none" stroke="#717071" stroke-linecap="round" stroke-linejoin="round" d="M257.401,255.588
			c-0.727,0-1.35-0.623-1.35-1.35v-34.16c0-0.727,0.623-1.35,1.35-1.35h4.258c0.727,0,1.35,0.623,1.35,1.35v34.16
			c0,0.727-0.623,1.35-1.35,1.35H257.401L257.401,255.588z"/>
		<path fill="#FCFBF8" d="M257.401,275.73c-0.727,0-1.35-0.622-1.35-1.35v-14.018c0-0.726,0.623-1.349,1.35-1.349h4.258
			c0.727,0,1.35,0.623,1.35,1.349v14.018c0,0.728-0.623,1.35-1.35,1.35H257.401L257.401,275.73z"/>
		<path fill="none" stroke="#717071" stroke-linecap="round" stroke-linejoin="round" d="M257.401,275.73
			c-0.727,0-1.35-0.622-1.35-1.35v-14.018c0-0.726,0.623-1.349,1.35-1.349h4.258c0.727,0,1.35,0.623,1.35,1.349v14.018
			c0,0.728-0.623,1.35-1.35,1.35H257.401L257.401,275.73z"/>
		<path fill="#FCFBF8" d="M257.401,215.198c-0.727,0-1.35-0.623-1.35-1.35v-14.018c0-0.726,0.623-1.35,1.35-1.35h4.258
			c0.727,0,1.35,0.624,1.35,1.35v14.018c0,0.727-0.623,1.35-1.35,1.35H257.401L257.401,215.198z"/>
		<path fill="none" stroke="#717071" stroke-linecap="round" stroke-linejoin="round" d="M257.401,215.198
			c-0.727,0-1.35-0.623-1.35-1.35v-14.018c0-0.726,0.623-1.35,1.35-1.35h4.258c0.727,0,1.35,0.624,1.35,1.35v14.018
			c0,0.727-0.623,1.35-1.35,1.35H257.401L257.401,215.198z"/>
		<path fill="#FFFFFF" d="M159.698,255.588c-0.727,0-1.35-0.623-1.35-1.35v-34.16c0-0.727,0.623-1.35,1.35-1.35h4.257
			c0.727,0,1.35,0.623,1.35,1.35v34.16c0,0.727-0.623,1.35-1.35,1.35H159.698L159.698,255.588z"/>
		<path fill="none" stroke="#717071" stroke-linecap="round" stroke-linejoin="round" d="M159.698,255.588
			c-0.727,0-1.35-0.623-1.35-1.35v-34.16c0-0.727,0.623-1.35,1.35-1.35h4.257c0.727,0,1.35,0.623,1.35,1.35v34.16
			c0,0.727-0.623,1.35-1.35,1.35H159.698L159.698,255.588z"/>
		<path fill="#FFFFFF" d="M159.698,275.73c-0.727,0-1.35-0.622-1.35-1.35v-14.018c0-0.726,0.623-1.349,1.35-1.349h4.257
			c0.727,0,1.35,0.623,1.35,1.349v14.018c0,0.728-0.623,1.35-1.35,1.35H159.698L159.698,275.73z"/>
		<path fill="none" stroke="#717071" stroke-linecap="round" stroke-linejoin="round" d="M159.698,275.73
			c-0.727,0-1.35-0.622-1.35-1.35v-14.018c0-0.726,0.623-1.349,1.35-1.349h4.257c0.727,0,1.35,0.623,1.35,1.349v14.018
			c0,0.728-0.623,1.35-1.35,1.35H159.698L159.698,275.73z"/>
		<path fill="#FFFFFF" d="M159.698,215.198c-0.727,0-1.35-0.623-1.35-1.35v-14.018c0-0.726,0.623-1.35,1.35-1.35h4.257
			c0.727,0,1.35,0.624,1.35,1.35v14.018c0,0.727-0.623,1.35-1.35,1.35H159.698L159.698,215.198z"/>
		<path fill="none" stroke="#717071" stroke-linecap="round" stroke-linejoin="round" d="M159.698,215.198
			c-0.727,0-1.35-0.623-1.35-1.35v-14.018c0-0.726,0.623-1.35,1.35-1.35h4.257c0.727,0,1.35,0.624,1.35,1.35v14.018
			c0,0.727-0.623,1.35-1.35,1.35H159.698L159.698,215.198z"/>
		<path fill="#FCFBF8" d="M247.642,235.445c-0.727,0-1.35-0.623-1.35-1.35v-34.16c0-0.727,0.623-1.35,1.35-1.35h4.257
			c0.728,0,1.351,0.623,1.351,1.35v34.16c0,0.727-0.623,1.35-1.351,1.35H247.642L247.642,235.445z"/>
		<path fill="none" stroke="#717071" stroke-linecap="round" stroke-linejoin="round" d="M247.642,235.445
			c-0.727,0-1.35-0.623-1.35-1.35v-34.16c0-0.727,0.623-1.35,1.35-1.35h4.257c0.728,0,1.351,0.623,1.351,1.35v34.16
			c0,0.727-0.623,1.35-1.351,1.35H247.642L247.642,235.445z"/>
		<path fill="#FCFBF8" d="M247.642,275.73c-0.727,0-1.35-0.622-1.35-1.35v-34.16c0-0.726,0.623-1.35,1.35-1.35h4.257
			c0.728,0,1.351,0.624,1.351,1.35v34.16c0,0.728-0.623,1.35-1.351,1.35H247.642L247.642,275.73z"/>
		<path fill="none" stroke="#717071" stroke-linecap="round" stroke-linejoin="round" d="M247.642,275.73
			c-0.727,0-1.35-0.622-1.35-1.35v-34.16c0-0.726,0.623-1.35,1.35-1.35h4.257c0.728,0,1.351,0.624,1.351,1.35v34.16
			c0,0.728-0.623,1.35-1.351,1.35H247.642L247.642,275.73z"/>
		<path fill="#FCFBF8" d="M237.882,255.588c-0.727,0-1.35-0.623-1.35-1.35v-34.16c0-0.727,0.624-1.35,1.35-1.35h4.257
			c0.727,0,1.35,0.623,1.35,1.35v34.16c0,0.727-0.624,1.35-1.35,1.35H237.882L237.882,255.588z"/>
		<path fill="none" stroke="#717071" stroke-linecap="round" stroke-linejoin="round" d="M237.882,255.588
			c-0.727,0-1.35-0.623-1.35-1.35v-34.16c0-0.727,0.624-1.35,1.35-1.35h4.257c0.727,0,1.35,0.623,1.35,1.35v34.16
			c0,0.727-0.624,1.35-1.35,1.35H237.882L237.882,255.588z"/>
		<path fill="#FCFBF8" d="M237.882,275.73c-0.727,0-1.35-0.622-1.35-1.35v-14.018c0-0.726,0.624-1.349,1.35-1.349h4.257
			c0.727,0,1.35,0.623,1.35,1.349v14.018c0,0.728-0.624,1.35-1.35,1.35H237.882L237.882,275.73z"/>
		<path fill="none" stroke="#717071" stroke-linecap="round" stroke-linejoin="round" d="M237.882,275.73
			c-0.727,0-1.35-0.622-1.35-1.35v-14.018c0-0.726,0.624-1.349,1.35-1.349h4.257c0.727,0,1.35,0.623,1.35,1.349v14.018
			c0,0.728-0.624,1.35-1.35,1.35H237.882L237.882,275.73z"/>
		<path fill="#FCFBF8" d="M237.882,215.198c-0.727,0-1.35-0.623-1.35-1.35v-14.018c0-0.726,0.624-1.35,1.35-1.35h4.257
			c0.727,0,1.35,0.624,1.35,1.35v14.018c0,0.727-0.624,1.35-1.35,1.35H237.882L237.882,215.198z"/>
		<path fill="none" stroke="#717071" stroke-linecap="round" stroke-linejoin="round" d="M237.882,215.198
			c-0.727,0-1.35-0.623-1.35-1.35v-14.018c0-0.726,0.624-1.35,1.35-1.35h4.257c0.727,0,1.35,0.624,1.35,1.35v14.018
			c0,0.727-0.624,1.35-1.35,1.35H237.882L237.882,215.198z"/>
		<path fill="#FCFBF8" d="M228.122,235.445c-0.727,0-1.35-0.623-1.35-1.35v-34.16c0-0.727,0.623-1.35,1.35-1.35h4.257
			c0.727,0,1.35,0.623,1.35,1.35v34.16c0,0.727-0.623,1.35-1.35,1.35H228.122L228.122,235.445z"/>
		<path fill="none" stroke="#717071" stroke-linecap="round" stroke-linejoin="round" d="M228.122,235.445
			c-0.727,0-1.35-0.623-1.35-1.35v-34.16c0-0.727,0.623-1.35,1.35-1.35h4.257c0.727,0,1.35,0.623,1.35,1.35v34.16
			c0,0.727-0.623,1.35-1.35,1.35H228.122L228.122,235.445z"/>
		<path fill="#FCFBF8" d="M228.122,275.73c-0.727,0-1.35-0.622-1.35-1.35v-34.16c0-0.726,0.623-1.35,1.35-1.35h4.257
			c0.727,0,1.35,0.624,1.35,1.35v34.16c0,0.728-0.623,1.35-1.35,1.35H228.122L228.122,275.73z"/>
		<path fill="none" stroke="#717071" stroke-linecap="round" stroke-linejoin="round" d="M228.122,275.73
			c-0.727,0-1.35-0.622-1.35-1.35v-34.16c0-0.726,0.623-1.35,1.35-1.35h4.257c0.727,0,1.35,0.624,1.35,1.35v34.16
			c0,0.728-0.623,1.35-1.35,1.35H228.122L228.122,275.73z"/>
		<path fill="#FCFBF8" d="M218.466,255.588c-0.727,0-1.35-0.623-1.35-1.35v-34.16c0-0.727,0.624-1.35,1.35-1.35h4.257
			c0.727,0,1.35,0.623,1.35,1.35v34.16c0,0.727-0.624,1.35-1.35,1.35H218.466L218.466,255.588z"/>
		<path fill="none" stroke="#717071" stroke-linecap="round" stroke-linejoin="round" d="M218.466,255.588
			c-0.727,0-1.35-0.623-1.35-1.35v-34.16c0-0.727,0.624-1.35,1.35-1.35h4.257c0.727,0,1.35,0.623,1.35,1.35v34.16
			c0,0.727-0.624,1.35-1.35,1.35H218.466L218.466,255.588z"/>
		<path fill="#FCFBF8" d="M218.466,275.73c-0.727,0-1.35-0.622-1.35-1.35v-14.018c0-0.726,0.624-1.349,1.35-1.349h4.257
			c0.727,0,1.35,0.623,1.35,1.349v14.018c0,0.728-0.624,1.35-1.35,1.35H218.466L218.466,275.73z"/>
		<path fill="none" stroke="#717071" stroke-linecap="round" stroke-linejoin="round" d="M218.466,275.73
			c-0.727,0-1.35-0.622-1.35-1.35v-14.018c0-0.726,0.624-1.349,1.35-1.349h4.257c0.727,0,1.35,0.623,1.35,1.349v14.018
			c0,0.728-0.624,1.35-1.35,1.35H218.466L218.466,275.73z"/>
		<path fill="#FCFBF8" d="M218.466,215.198c-0.727,0-1.35-0.623-1.35-1.35v-14.018c0-0.726,0.624-1.35,1.35-1.35h4.257
			c0.727,0,1.35,0.624,1.35,1.35v14.018c0,0.727-0.624,1.35-1.35,1.35H218.466L218.466,215.198z"/>
		<path fill="none" stroke="#717071" stroke-linecap="round" stroke-linejoin="round" d="M218.466,215.198
			c-0.727,0-1.35-0.623-1.35-1.35v-14.018c0-0.726,0.624-1.35,1.35-1.35h4.257c0.727,0,1.35,0.624,1.35,1.35v14.018
			c0,0.727-0.624,1.35-1.35,1.35H218.466L218.466,215.198z"/>
		<path fill="#FCFBF8" d="M208.706,235.445c-0.727,0-1.35-0.623-1.35-1.35v-34.16c0-0.727,0.623-1.35,1.35-1.35h4.257
			c0.727,0,1.35,0.623,1.35,1.35v34.16c0,0.727-0.623,1.35-1.35,1.35H208.706L208.706,235.445z"/>
		<path fill="none" stroke="#717071" stroke-linecap="round" stroke-linejoin="round" d="M208.706,235.445
			c-0.727,0-1.35-0.623-1.35-1.35v-34.16c0-0.727,0.623-1.35,1.35-1.35h4.257c0.727,0,1.35,0.623,1.35,1.35v34.16
			c0,0.727-0.623,1.35-1.35,1.35H208.706L208.706,235.445z"/>
		<path fill="#FCFBF8" d="M208.706,275.73c-0.727,0-1.35-0.622-1.35-1.35v-34.16c0-0.726,0.623-1.35,1.35-1.35h4.257
			c0.727,0,1.35,0.624,1.35,1.35v34.16c0,0.728-0.623,1.35-1.35,1.35H208.706L208.706,275.73z"/>
		<path fill="none" stroke="#717071" stroke-linecap="round" stroke-linejoin="round" d="M208.706,275.73
			c-0.727,0-1.35-0.622-1.35-1.35v-34.16c0-0.726,0.623-1.35,1.35-1.35h4.257c0.727,0,1.35,0.624,1.35,1.35v34.16
			c0,0.728-0.623,1.35-1.35,1.35H208.706L208.706,275.73z"/>
		<path fill="#FCFBF8" d="M198.946,255.588c-0.727,0-1.35-0.623-1.35-1.35v-34.16c0-0.727,0.623-1.35,1.35-1.35h4.257
			c0.727,0,1.35,0.623,1.35,1.35v34.16c0,0.727-0.624,1.35-1.35,1.35H198.946L198.946,255.588z"/>
		<path fill="none" stroke="#717071" stroke-linecap="round" stroke-linejoin="round" d="M198.946,255.588
			c-0.727,0-1.35-0.623-1.35-1.35v-34.16c0-0.727,0.623-1.35,1.35-1.35h4.257c0.727,0,1.35,0.623,1.35,1.35v34.16
			c0,0.727-0.624,1.35-1.35,1.35H198.946L198.946,255.588z"/>
		<path fill="#FCFBF8" d="M198.946,275.73c-0.727,0-1.35-0.622-1.35-1.35v-14.018c0-0.726,0.623-1.349,1.35-1.349h4.257
			c0.727,0,1.35,0.623,1.35,1.349v14.018c0,0.728-0.624,1.35-1.35,1.35H198.946L198.946,275.73z"/>
		<path fill="none" stroke="#717071" stroke-linecap="round" stroke-linejoin="round" d="M198.946,275.73
			c-0.727,0-1.35-0.622-1.35-1.35v-14.018c0-0.726,0.623-1.349,1.35-1.349h4.257c0.727,0,1.35,0.623,1.35,1.349v14.018
			c0,0.728-0.624,1.35-1.35,1.35H198.946L198.946,275.73z"/>
		<path fill="#FCFBF8" d="M198.946,215.198c-0.727,0-1.35-0.623-1.35-1.35v-14.018c0-0.726,0.623-1.35,1.35-1.35h4.257
			c0.727,0,1.35,0.624,1.35,1.35v14.018c0,0.727-0.624,1.35-1.35,1.35H198.946L198.946,215.198z"/>
		<path fill="none" stroke="#717071" stroke-linecap="round" stroke-linejoin="round" d="M198.946,215.198
			c-0.727,0-1.35-0.623-1.35-1.35v-14.018c0-0.726,0.623-1.35,1.35-1.35h4.257c0.727,0,1.35,0.624,1.35,1.35v14.018
			c0,0.727-0.624,1.35-1.35,1.35H198.946L198.946,215.198z"/>
		<path fill="#FFFFFF" d="M189.186,235.445c-0.727,0-1.35-0.623-1.35-1.35v-34.16c0-0.727,0.623-1.35,1.35-1.35h4.257
			c0.727,0,1.349,0.623,1.349,1.35v34.16c0,0.727-0.623,1.35-1.349,1.35H189.186L189.186,235.445z"/>
		<path fill="none" stroke="#717071" stroke-linecap="round" stroke-linejoin="round" d="M189.186,235.445
			c-0.727,0-1.35-0.623-1.35-1.35v-34.16c0-0.727,0.623-1.35,1.35-1.35h4.257c0.727,0,1.349,0.623,1.349,1.35v34.16
			c0,0.727-0.623,1.35-1.349,1.35H189.186L189.186,235.445z"/>
		<path fill="#FFFFFF" d="M189.186,275.73c-0.727,0-1.35-0.622-1.35-1.35v-34.16c0-0.726,0.623-1.35,1.35-1.35h4.257
			c0.727,0,1.349,0.624,1.349,1.35v34.16c0,0.728-0.623,1.35-1.349,1.35H189.186L189.186,275.73z"/>
		<path fill="none" stroke="#717071" stroke-linecap="round" stroke-linejoin="round" d="M189.186,275.73
			c-0.727,0-1.35-0.622-1.35-1.35v-34.16c0-0.726,0.623-1.35,1.35-1.35h4.257c0.727,0,1.349,0.624,1.349,1.35v34.16
			c0,0.728-0.623,1.35-1.349,1.35H189.186L189.186,275.73z"/>
		<path fill="#FFFFFF" d="M179.426,255.588c-0.727,0-1.35-0.623-1.35-1.35v-34.16c0-0.727,0.623-1.35,1.35-1.35h4.257
			c0.727,0,1.35,0.623,1.35,1.35v34.16c0,0.727-0.623,1.35-1.35,1.35H179.426L179.426,255.588z"/>
		<path fill="none" stroke="#717071" stroke-linecap="round" stroke-linejoin="round" d="M179.426,255.588
			c-0.727,0-1.35-0.623-1.35-1.35v-34.16c0-0.727,0.623-1.35,1.35-1.35h4.257c0.727,0,1.35,0.623,1.35,1.35v34.16
			c0,0.727-0.623,1.35-1.35,1.35H179.426L179.426,255.588z"/>
		<path fill="#FFFFFF" d="M179.426,275.73c-0.727,0-1.35-0.622-1.35-1.35v-14.018c0-0.726,0.623-1.349,1.35-1.349h4.257
			c0.727,0,1.35,0.623,1.35,1.349v14.018c0,0.728-0.623,1.35-1.35,1.35H179.426L179.426,275.73z"/>
		<path fill="none" stroke="#717071" stroke-linecap="round" stroke-linejoin="round" d="M179.426,275.73
			c-0.727,0-1.35-0.622-1.35-1.35v-14.018c0-0.726,0.623-1.349,1.35-1.349h4.257c0.727,0,1.35,0.623,1.35,1.349v14.018
			c0,0.728-0.623,1.35-1.35,1.35H179.426L179.426,275.73z"/>
		<path fill="#FFFFFF" d="M179.426,215.198c-0.727,0-1.35-0.623-1.35-1.35v-14.018c0-0.726,0.623-1.35,1.35-1.35h4.257
			c0.727,0,1.35,0.624,1.35,1.35v14.018c0,0.727-0.623,1.35-1.35,1.35H179.426L179.426,215.198z"/>
		<path fill="none" stroke="#717071" stroke-linecap="round" stroke-linejoin="round" d="M179.426,215.198
			c-0.727,0-1.35-0.623-1.35-1.35v-14.018c0-0.726,0.623-1.35,1.35-1.35h4.257c0.727,0,1.35,0.624,1.35,1.35v14.018
			c0,0.727-0.623,1.35-1.35,1.35H179.426L179.426,215.198z"/>
		<path fill="#FFFFFF" d="M169.769,235.445c-0.727,0-1.349-0.623-1.349-1.35v-34.16c0-0.727,0.623-1.35,1.349-1.35h4.257
			c0.727,0,1.35,0.623,1.35,1.35v34.16c0,0.727-0.623,1.35-1.35,1.35H169.769L169.769,235.445z"/>
		<path fill="none" stroke="#717071" stroke-linecap="round" stroke-linejoin="round" d="M169.769,235.445
			c-0.727,0-1.349-0.623-1.349-1.35v-34.16c0-0.727,0.623-1.35,1.349-1.35h4.257c0.727,0,1.35,0.623,1.35,1.35v34.16
			c0,0.727-0.623,1.35-1.35,1.35H169.769L169.769,235.445z"/>
		<path fill="#FFFFFF" d="M169.769,275.73c-0.727,0-1.349-0.622-1.349-1.35v-34.16c0-0.726,0.623-1.35,1.349-1.35h4.257
			c0.727,0,1.35,0.624,1.35,1.35v34.16c0,0.728-0.623,1.35-1.35,1.35H169.769L169.769,275.73z"/>
		<path fill="none" stroke="#717071" stroke-linecap="round" stroke-linejoin="round" d="M169.769,275.73
			c-0.727,0-1.349-0.622-1.349-1.35v-34.16c0-0.726,0.623-1.35,1.349-1.35h4.257c0.727,0,1.35,0.624,1.35,1.35v34.16
			c0,0.728-0.623,1.35-1.35,1.35H169.769L169.769,275.73z"/>
		<polygon fill="#FFFFFF" points="205.071,195.575 203.514,195.575 203.514,187.891 205.071,187.891 		"/>
		<polygon fill="none" stroke="#717071" stroke-linecap="round" stroke-linejoin="round" points="205.071,195.575 203.514,195.575 
			203.514,187.891 205.071,187.891 		"/>
		<polygon fill="#EEEEEF" points="264.565,192.459 205.071,192.459 205.071,194.017 264.565,194.017 		"/>
		<polygon fill="none" stroke="#717071" stroke-linecap="round" stroke-linejoin="round" points="264.565,192.459 205.071,192.459 
			205.071,194.017 264.565,194.017 		"/>
		<polygon fill="#FFFFFF" points="266.124,195.575 264.565,195.575 264.565,187.891 266.124,187.891 		"/>
		<polygon fill="none" stroke="#717071" stroke-linecap="round" stroke-linejoin="round" points="266.124,195.575 264.565,195.575 
			264.565,187.891 266.124,187.891 		"/>
		<polygon fill="#DBDCDC" points="355.105,188.1 271.107,188.1 271.107,186.438 355.105,186.438 		"/>
		<polygon fill="none" stroke="#717071" stroke-linecap="round" stroke-linejoin="round" points="355.105,188.1 271.107,188.1 
			271.107,186.438 355.105,186.438 		"/>
		<polygon fill="#DBDCDC" points="355.105,286.736 271.107,286.736 271.107,284.972 355.105,284.972 		"/>
		<polygon fill="none" stroke="#717071" stroke-linecap="round" stroke-linejoin="round" points="355.105,286.736 271.107,286.736 
			271.107,284.972 355.105,284.972 		"/>
		<polygon fill="#EEEEEF" points="329.045,61.842 297.064,61.842 297.064,61.011 329.045,61.011 		"/>
		<polygon fill="none" stroke="#717071" stroke-linecap="round" stroke-linejoin="round" points="329.045,61.842 297.064,61.842 
			297.064,61.011 329.045,61.011 		"/>
		<polygon fill="#F2E8CC" points="148.588,284.972 195.52,284.972 195.52,188.1 148.588,188.1 		"/>
		<polygon fill="none" stroke="#717071" stroke-miterlimit="10" points="148.588,284.972 195.52,284.972 195.52,188.1 
			148.588,188.1 		"/>
		<polygon fill="#DBDCDC" points="149.003,186.022 148.588,186.022 148.588,191.525 149.003,191.525 149.003,188.409 
			150.873,188.409 150.873,186.022 		"/>
		<polygon fill="none" stroke="#717071" stroke-linecap="round" stroke-linejoin="round" points="149.003,186.022 148.588,186.022 
			148.588,191.525 149.003,191.525 149.003,188.409 150.873,188.409 150.873,186.022 		"/>
		<polygon fill="#DBDCDC" points="367.462,186.022 367.877,186.022 367.877,191.525 367.462,191.525 367.462,188.409 
			365.488,188.409 365.488,186.022 		"/>
		<polygon fill="none" stroke="#717071" stroke-linecap="round" stroke-linejoin="round" points="367.462,186.022 367.877,186.022 
			367.877,191.525 367.462,191.525 367.462,188.409 365.488,188.409 365.488,186.022 		"/>
		<g>
			<g>
				<defs>
					<rect id="SVGID_5_" x="141.009" y="58" width="229.982" height="241.093"/>
				</defs>
				<clipPath id="SVGID_6_">
					<use xlink:href="#SVGID_5_"  overflow="visible"/>
				</clipPath>
				<polygon clip-path="url(#SVGID_6_)" fill="#DBDCDC" points="369.849,63.711 367.565,63.711 367.565,58.935 369.849,58.935 				
					"/>
			</g>
			<g>
				<defs>
					<rect id="SVGID_7_" x="141.009" y="58" width="229.982" height="241.093"/>
				</defs>
				<clipPath id="SVGID_8_">
					<use xlink:href="#SVGID_7_"  overflow="visible"/>
				</clipPath>
				<polygon clip-path="url(#SVGID_8_)" fill="none" stroke="#717071" stroke-linecap="round" stroke-linejoin="round" points="
					369.849,63.711 367.565,63.711 367.565,58.935 369.849,58.935 				"/>
			</g>
			<g>
				<defs>
					<rect id="SVGID_9_" x="141.009" y="58" width="229.982" height="241.093"/>
				</defs>
				<clipPath id="SVGID_10_">
					<use xlink:href="#SVGID_9_"  overflow="visible"/>
				</clipPath>
				<polygon clip-path="url(#SVGID_10_)" fill="#DBDCDC" points="369.849,61.738 370.265,61.738 370.265,58.935 369.849,58.935 				
					"/>
			</g>
			<g>
				<defs>
					<rect id="SVGID_11_" x="141.009" y="58" width="229.982" height="241.093"/>
				</defs>
				<clipPath id="SVGID_12_">
					<use xlink:href="#SVGID_11_"  overflow="visible"/>
				</clipPath>
				<polygon clip-path="url(#SVGID_12_)" fill="none" stroke="#717071" stroke-linecap="round" stroke-linejoin="round" points="
					369.849,61.738 370.265,61.738 370.265,58.935 369.849,58.935 				"/>
			</g>
			<g>
				<defs>
					<rect id="SVGID_13_" x="141.009" y="58" width="229.982" height="241.093"/>
				</defs>
				<clipPath id="SVGID_14_">
					<use xlink:href="#SVGID_13_"  overflow="visible"/>
				</clipPath>
				<polygon clip-path="url(#SVGID_14_)" fill="#DBDCDC" points="146.512,63.711 148.899,63.711 148.899,58.935 146.512,58.935 				
					"/>
			</g>
			<g>
				<defs>
					<rect id="SVGID_15_" x="141.009" y="58" width="229.982" height="241.093"/>
				</defs>
				<clipPath id="SVGID_16_">
					<use xlink:href="#SVGID_15_"  overflow="visible"/>
				</clipPath>
				<polygon clip-path="url(#SVGID_16_)" fill="none" stroke="#717071" stroke-linecap="round" stroke-linejoin="round" points="
					146.512,63.711 148.899,63.711 148.899,58.935 146.512,58.935 				"/>
			</g>
			<g>
				<defs>
					<rect id="SVGID_17_" x="141.009" y="58" width="229.982" height="241.093"/>
				</defs>
				<clipPath id="SVGID_18_">
					<use xlink:href="#SVGID_17_"  overflow="visible"/>
				</clipPath>
				<polygon clip-path="url(#SVGID_18_)" fill="#DBDCDC" points="146.512,61.738 146.096,61.738 146.096,58.935 146.512,58.935 				
					"/>
			</g>
			<g>
				<defs>
					<rect id="SVGID_19_" x="141.009" y="58" width="229.982" height="241.093"/>
				</defs>
				<clipPath id="SVGID_20_">
					<use xlink:href="#SVGID_19_"  overflow="visible"/>
				</clipPath>
				<polygon clip-path="url(#SVGID_20_)" fill="none" stroke="#717071" stroke-linecap="round" stroke-linejoin="round" points="
					146.512,61.738 146.096,61.738 146.096,58.935 146.512,58.935 				"/>
			</g>
		</g>
		<polygon fill="#DBDCDC" points="146.512,282.377 148.899,282.377 148.899,287.049 146.512,287.049 		"/>
		<polygon fill="none" stroke="#717071" stroke-linecap="round" stroke-linejoin="round" points="146.512,282.377 148.899,282.377 
			148.899,287.049 146.512,287.049 		"/>
		<polygon fill="#DBDCDC" points="146.512,284.35 146.096,284.35 146.096,287.049 146.512,287.049 		"/>
		<polygon fill="none" stroke="#717071" stroke-linecap="round" stroke-linejoin="round" points="146.512,284.35 146.096,284.35 
			146.096,287.049 146.512,287.049 		"/>
		<g>
			<g>
				<defs>
					<rect id="SVGID_21_" x="141.009" y="58" width="229.982" height="241.093"/>
				</defs>
				<clipPath id="SVGID_22_">
					<use xlink:href="#SVGID_21_"  overflow="visible"/>
				</clipPath>
				<polygon clip-path="url(#SVGID_22_)" fill="#DBDCDC" points="369.953,282.377 367.565,282.377 367.565,287.049 369.953,287.049 
									"/>
			</g>
			<g>
				<defs>
					<rect id="SVGID_23_" x="141.009" y="58" width="229.982" height="241.093"/>
				</defs>
				<clipPath id="SVGID_24_">
					<use xlink:href="#SVGID_23_"  overflow="visible"/>
				</clipPath>
				<polygon clip-path="url(#SVGID_24_)" fill="none" stroke="#717071" stroke-linecap="round" stroke-linejoin="round" points="
					369.953,282.377 367.565,282.377 367.565,287.049 369.953,287.049 				"/>
			</g>
			<g>
				<defs>
					<rect id="SVGID_25_" x="141.009" y="58" width="229.982" height="241.093"/>
				</defs>
				<clipPath id="SVGID_26_">
					<use xlink:href="#SVGID_25_"  overflow="visible"/>
				</clipPath>
				<polygon clip-path="url(#SVGID_26_)" fill="#DBDCDC" points="369.953,284.35 370.265,284.35 370.265,287.049 369.953,287.049 
									"/>
			</g>
			<g>
				<defs>
					<rect id="SVGID_27_" x="141.009" y="58" width="229.982" height="241.093"/>
				</defs>
				<clipPath id="SVGID_28_">
					<use xlink:href="#SVGID_27_"  overflow="visible"/>
				</clipPath>
				<polygon clip-path="url(#SVGID_28_)" fill="none" stroke="#717071" stroke-linecap="round" stroke-linejoin="round" points="
					369.953,284.35 370.265,284.35 370.265,287.049 369.953,287.049 				"/>
			</g>
		</g>
		<polygon fill="#717071" points="148.588,284.35 146.823,284.35 146.823,61.634 148.588,61.634 		"/>
		<polygon fill="#717071" points="369.643,284.35 367.877,284.35 367.877,61.634 369.643,61.634 		"/>
		<polygon fill="#717071" points="270.173,287.049 270.173,284.66 267.682,284.66 267.682,284.972 267.682,284.972 146.823,284.972 
			146.823,286.736 267.682,286.736 267.682,286.736 267.682,287.049 269.86,287.049 		"/>
		<polygon fill="#717071" points="358.324,188.409 358.324,188.1 367.565,188.1 367.565,186.334 358.324,186.334 358.324,186.022 
			355.937,186.022 355.937,188.409 		"/>
		<polygon fill="#717071" points="358.324,287.152 358.324,286.736 369.643,286.736 369.643,284.972 358.324,284.972 
			358.324,284.66 355.937,284.66 355.937,287.152 		"/>
		<polygon fill="#717071" points="270.173,188.409 270.173,186.022 267.682,186.022 267.682,186.334 267.682,186.334 
			148.899,186.334 148.899,188.1 267.682,188.1 267.682,188.1 267.682,188.409 269.86,188.409 		"/>
		<polygon fill="#717071" points="369.643,61.011 146.823,61.011 146.823,59.246 369.643,59.246 		"/>
		<polygon fill="#DBDCDC" points="179.944,284.972 223.865,284.972 223.865,286.736 179.944,286.736 		"/>
		<polygon fill="none" stroke="#717071" stroke-linecap="round" stroke-linejoin="round" points="179.944,284.972 223.865,284.972 
			223.865,286.736 179.944,286.736 		"/>
		<path fill="#FFFFFF" d="M159.075,121.647v4.05v5.918l21.285-0.935c0,0,0.623-0.104,0.623-0.623v-4.464v-4.05v-4.464
			c0-0.519-0.623-0.623-0.623-0.623l-21.285-0.935V121.647L159.075,121.647z"/>
		<path fill="none" stroke="#717071" stroke-linecap="round" stroke-linejoin="round" d="M159.075,121.647v4.05v5.918l21.285-0.935
			c0,0,0.623-0.104,0.623-0.623v-4.464v-4.05v-4.464c0-0.519-0.623-0.623-0.623-0.623l-21.285-0.935V121.647L159.075,121.647z"/>
		<polygon fill="#FFFFFF" points="151.807,131.823 158.66,131.615 158.971,131.615 158.971,115.937 158.66,115.937 151.807,115.314 
					"/>
		<polygon fill="none" stroke="#717071" stroke-linecap="round" stroke-linejoin="round" points="151.807,131.823 158.66,131.615 
			158.971,131.615 158.971,115.937 158.66,115.937 151.807,115.314 		"/>
		<polygon fill="#FFFFFF" points="152.118,132.238 148.484,132.238 148.484,115.106 152.118,115.106 		"/>
		<polygon fill="none" stroke="#717071" stroke-linecap="round" stroke-linejoin="round" points="152.118,132.238 148.484,132.238 
			148.484,115.106 152.118,115.106 		"/>
		<polygon fill="#FFFFFF" points="146.719,127.67 145.992,127.67 145.992,119.779 146.719,119.779 		"/>
		<polygon fill="none" stroke="#717071" stroke-linecap="round" stroke-linejoin="round" points="146.719,127.67 145.992,127.67 
			145.992,119.779 146.719,119.779 		"/>
		<g>
			<g>
				<defs>
					<rect id="SVGID_29_" x="141.009" y="58" width="229.982" height="241.093"/>
				</defs>
				<clipPath id="SVGID_30_">
					<use xlink:href="#SVGID_29_"  overflow="visible"/>
				</clipPath>
				<path clip-path="url(#SVGID_30_)" fill="#FFFFFF" d="M143.604,121.336c-1.246,0-2.388,1.039-2.388,2.388
					c0,1.246,1.038,2.388,2.388,2.388h2.388v-4.672L143.604,121.336L143.604,121.336L143.604,121.336z"/>
			</g>
			<g>
				<defs>
					<rect id="SVGID_31_" x="141.009" y="58" width="229.982" height="241.093"/>
				</defs>
				<clipPath id="SVGID_32_">
					<use xlink:href="#SVGID_31_"  overflow="visible"/>
				</clipPath>
				<path clip-path="url(#SVGID_32_)" fill="none" stroke="#717071" stroke-linecap="round" stroke-linejoin="round" d="
					M143.604,121.336c-1.246,0-2.388,1.039-2.388,2.388c0,1.246,1.038,2.388,2.388,2.388h2.388v-4.672L143.604,121.336
					L143.604,121.336L143.604,121.336z"/>
			</g>
		</g>
		<path fill="#EEEEEF" d="M229.783,91.745c0,0.831-0.727,1.557-1.557,1.557s-1.558-0.727-1.558-1.557
			c0-0.831,0.727-1.558,1.558-1.558S229.783,90.811,229.783,91.745"/>
		<path fill="none" stroke="#717071" stroke-linecap="round" stroke-linejoin="round" d="M229.783,91.745
			c0,0.831-0.727,1.557-1.557,1.557s-1.558-0.727-1.558-1.557c0-0.831,0.727-1.558,1.558-1.558S229.783,90.811,229.783,91.745"/>
		<path fill="#FFFFFF" d="M203.514,62.984l0.415,2.284c0.312-0.104,3.219-0.415,4.361,3.842c1.246,4.88,8.41,8.099,18.274,8.099
			c13.394,0,20.87-2.284,20.87-6.438h-2.284c0,1.142-3.323,4.153-18.585,4.153c-8.41,0-15.056-2.596-15.99-6.438
			C209.121,63.295,205.279,62.672,203.514,62.984"/>
		<path fill="none" stroke="#717071" stroke-linecap="round" stroke-linejoin="round" d="M203.514,62.984l0.415,2.284
			c0.312-0.104,3.219-0.415,4.361,3.842c1.246,4.88,8.41,8.099,18.274,8.099c13.394,0,20.87-2.284,20.87-6.438h-2.284
			c0,1.142-3.323,4.153-18.585,4.153c-8.41,0-15.056-2.596-15.99-6.438C209.121,63.295,205.279,62.672,203.514,62.984"/>
		<polygon fill="#FFFFFF" points="200.503,60.7 201.749,64.126 205.591,64.126 206.836,60.7 		"/>
		<polygon fill="none" stroke="#717071" stroke-linecap="round" stroke-linejoin="round" points="200.503,60.7 201.749,64.126 
			205.591,64.126 206.836,60.7 		"/>
		<path fill="#FFFFFF" d="M203.722,62.776L203.722,62.776c-1.558,0-2.804,2.181-2.804,4.88v4.049h5.607v-4.049
			C206.525,64.957,205.279,62.776,203.722,62.776"/>
		<path fill="none" stroke="#717071" stroke-linecap="round" stroke-linejoin="round" d="M203.722,62.776L203.722,62.776
			c-1.558,0-2.804,2.181-2.804,4.88v4.049h5.607v-4.049C206.525,64.957,205.279,62.776,203.722,62.776"/>
		<path fill="#EEEEEF" d="M244.734,77.104l-1.869-1.869l-15.574,15.575l0,0c-0.208,0.207-0.415,0.519-0.415,0.935
			c0,0.727,0.623,1.349,1.35,1.349c0.312,0,0.623-0.104,0.727-0.208C229.056,92.679,244.734,77.104,244.734,77.104"/>
		<path fill="none" stroke="#717071" stroke-linecap="round" stroke-linejoin="round" d="M244.734,77.104l-1.869-1.869
			l-15.574,15.575l0,0c-0.208,0.207-0.415,0.519-0.415,0.935c0,0.727,0.623,1.349,1.35,1.349c0.312,0,0.623-0.104,0.727-0.208
			C229.056,92.679,244.734,77.104,244.734,77.104"/>
		<polygon fill="#EEEEEF" points="248.057,77 243.489,77 243.489,76.482 248.057,76.482 		"/>
		<polygon fill="none" stroke="#717071" stroke-linecap="round" stroke-linejoin="round" points="248.057,77 243.489,77 
			243.489,76.482 248.057,76.482 		"/>
		<path fill="#FFFFFF" d="M248.784,81.466c0,0.104-0.104,0.207-0.104,0.207h-5.711c-0.104,0-0.104-0.103-0.104-0.207V77
			c0-0.103,0.104-0.207,0.104-0.207h5.711c0.104,0,0.104,0.104,0.104,0.207V81.466L248.784,81.466z"/>
		<path fill="none" stroke="#717071" stroke-linecap="round" stroke-linejoin="round" d="M248.784,81.466
			c0,0.104-0.104,0.207-0.104,0.207h-5.711c-0.104,0-0.104-0.103-0.104-0.207V77c0-0.103,0.104-0.207,0.104-0.207h5.711
			c0.104,0,0.104,0.104,0.104,0.207V81.466L248.784,81.466z"/>
		<path fill="#EEEEEF" d="M239.958,74.197v-3.115h2.077c0,0,1.558-0.104,1.765-1.557h3.946c0,0,0.416,1.557,1.765,1.557h2.18v3.115
			c0,0-2.699-0.208-3.53,2.388h-4.672C243.489,76.482,243.073,74.197,239.958,74.197"/>
		<path fill="none" stroke="#717071" stroke-linecap="round" stroke-linejoin="round" d="M239.958,74.197v-3.115h2.077
			c0,0,1.558-0.104,1.765-1.557h3.946c0,0,0.416,1.557,1.765,1.557h2.18v3.115c0,0-2.699-0.208-3.53,2.388h-4.672
			C243.489,76.482,243.073,74.197,239.958,74.197"/>
		<polygon fill="#EEEEEF" points="247.746,69.421 243.8,69.421 243.8,66.306 247.746,66.306 		"/>
		<polygon fill="none" stroke="#717071" stroke-linecap="round" stroke-linejoin="round" points="247.746,69.421 243.8,69.421 
			243.8,66.306 247.746,66.306 		"/>
		<polygon fill="#EEEEEF" points="236.013,60.803 228.122,60.803 228.122,61.322 236.013,61.322 		"/>
		<polygon fill="none" stroke="#717071" stroke-linecap="round" stroke-linejoin="round" points="236.013,60.803 228.122,60.803 
			228.122,61.322 236.013,61.322 		"/>
		<polygon fill="#EEEEEF" points="228.33,61.322 235.909,61.322 233.625,62.361 230.51,62.361 		"/>
		<polygon fill="none" stroke="#717071" stroke-linecap="round" stroke-linejoin="round" points="228.33,61.322 235.909,61.322 
			233.625,62.361 230.51,62.361 		"/>
		<path fill="#EEEEEF" d="M230.51,62.361h3.115c0,0,0.104,1.142,1.558,1.142c0.519,0,1.039,0.312,1.039,0.312
			s1.765,0.935,1.765,2.596v2.804h-3.115v-2.285c0,0-0.312-1.142-1.35-1.142c-0.623,0-1.453-0.312-1.765-0.624
			C231.444,64.957,230.51,64.229,230.51,62.361"/>
		<path fill="none" stroke="#717071" stroke-linecap="round" stroke-linejoin="round" d="M230.51,62.361h3.115
			c0,0,0.104,1.142,1.558,1.142c0.519,0,1.039,0.312,1.039,0.312s1.765,0.935,1.765,2.596v2.804h-3.115v-2.285
			c0,0-0.312-1.142-1.35-1.142c-0.623,0-1.453-0.312-1.765-0.624C231.444,64.957,230.51,64.229,230.51,62.361"/>
		<path fill="#EEEEEF" d="M238.816,67.656c0,0.312-0.312,0.623-0.624,0.623h-3.53c-0.312,0-0.623-0.312-0.623-0.623
			s0.311-0.623,0.623-0.623h3.53C238.505,67.033,238.816,67.345,238.816,67.656"/>
		<path fill="none" stroke="#717071" stroke-linecap="round" stroke-linejoin="round" d="M238.816,67.656
			c0,0.312-0.312,0.623-0.624,0.623h-3.53c-0.312,0-0.623-0.312-0.623-0.623s0.311-0.623,0.623-0.623h3.53
			C238.505,67.033,238.816,67.345,238.816,67.656"/>
		<path fill="#FFFFFF" d="M240.374,72.536c0,2.181-1.765,3.946-3.945,3.946s-3.945-1.765-3.945-3.946
			c0-2.18,1.765-3.945,3.945-3.945S240.374,70.356,240.374,72.536"/>
		<path fill="none" stroke="#717071" stroke-linecap="round" stroke-linejoin="round" d="M240.374,72.536
			c0,2.181-1.765,3.946-3.945,3.946s-3.945-1.765-3.945-3.946c0-2.18,1.765-3.945,3.945-3.945S240.374,70.356,240.374,72.536"/>
		<path fill="#EEEEEF" d="M238.297,72.64c0,1.038-0.831,1.973-1.973,1.973c-1.038,0-1.973-0.831-1.973-1.973
			c0-1.039,0.831-1.973,1.973-1.973S238.297,71.498,238.297,72.64"/>
		<path fill="none" stroke="#717071" stroke-linecap="round" stroke-linejoin="round" d="M238.297,72.64
			c0,1.038-0.831,1.973-1.973,1.973c-1.038,0-1.973-0.831-1.973-1.973c0-1.039,0.831-1.973,1.973-1.973
			S238.297,71.498,238.297,72.64"/>
		<polygon fill="#EEEEEF" points="255.637,60.803 263.424,60.803 263.424,61.322 255.637,61.322 		"/>
		<polygon fill="none" stroke="#717071" stroke-linecap="round" stroke-linejoin="round" points="255.637,60.803 263.424,60.803 
			263.424,61.322 255.637,61.322 		"/>
		<polygon fill="#EEEEEF" points="263.32,61.322 255.74,61.322 257.921,62.361 261.14,62.361 		"/>
		<polygon fill="none" stroke="#717071" stroke-linecap="round" stroke-linejoin="round" points="263.32,61.322 255.74,61.322 
			257.921,62.361 261.14,62.361 		"/>
		<path fill="#EEEEEF" d="M261.14,62.361h-3.115c0,0-0.104,1.142-1.557,1.142c-0.52,0-1.039,0.312-1.039,0.312
			s-1.765,0.935-1.765,2.596v2.804h3.115v-2.285c0,0,0.311-1.142,1.35-1.142c0.623,0,1.453-0.312,1.765-0.624
			C260.102,64.957,261.14,64.229,261.14,62.361"/>
		<path fill="none" stroke="#717071" stroke-linecap="round" stroke-linejoin="round" d="M261.14,62.361h-3.115
			c0,0-0.104,1.142-1.557,1.142c-0.52,0-1.039,0.312-1.039,0.312s-1.765,0.935-1.765,2.596v2.804h3.115v-2.285
			c0,0,0.311-1.142,1.35-1.142c0.623,0,1.453-0.312,1.765-0.624C260.102,64.957,261.14,64.229,261.14,62.361"/>
		<path fill="#EEEEEF" d="M252.833,67.656c0,0.312,0.313,0.623,0.624,0.623h3.531c0.311,0,0.622-0.312,0.622-0.623
			s-0.312-0.623-0.622-0.623h-3.531C253.146,67.033,252.833,67.345,252.833,67.656"/>
		<path fill="none" stroke="#717071" stroke-linecap="round" stroke-linejoin="round" d="M252.833,67.656
			c0,0.312,0.313,0.623,0.624,0.623h3.531c0.311,0,0.622-0.312,0.622-0.623s-0.312-0.623-0.622-0.623h-3.531
			C253.146,67.033,252.833,67.345,252.833,67.656"/>
		<path fill="#FFFFFF" d="M251.276,72.536c0,2.181,1.765,3.946,3.945,3.946c2.181,0,3.946-1.765,3.946-3.946
			c0-2.18-1.766-3.945-3.946-3.945C253.041,68.591,251.276,70.356,251.276,72.536"/>
		<path fill="none" stroke="#717071" stroke-linecap="round" stroke-linejoin="round" d="M251.276,72.536
			c0,2.181,1.765,3.946,3.945,3.946c2.181,0,3.946-1.765,3.946-3.946c0-2.18-1.766-3.945-3.946-3.945
			C253.041,68.591,251.276,70.356,251.276,72.536"/>
		<path fill="#EEEEEF" d="M253.249,72.64c0,1.038,0.83,1.973,1.972,1.973c1.039,0,1.973-0.831,1.973-1.973
			c0-1.039-0.83-1.973-1.973-1.973C254.079,70.667,253.249,71.498,253.249,72.64"/>
		<path fill="none" stroke="#717071" stroke-linecap="round" stroke-linejoin="round" d="M253.249,72.64
			c0,1.038,0.83,1.973,1.972,1.973c1.039,0,1.973-0.831,1.973-1.973c0-1.039-0.83-1.973-1.973-1.973
			C254.079,70.667,253.249,71.498,253.249,72.64"/>
		<polygon fill="#EEEEEF" points="288.032,185.087 278.583,185.087 278.583,186.334 288.032,186.334 		"/>
		<polygon fill="none" stroke="#717071" stroke-linecap="round" stroke-linejoin="round" points="288.032,185.087 278.583,185.087 
			278.583,186.334 288.032,186.334 		"/>
		<path fill="#EEEEEF" d="M278.583,185.087h9.449l-1.661-0.52c0,0-0.416-0.103-0.52-0.519c-0.104-0.415-0.312-1.557-0.312-1.557
			s-0.104-0.415-0.416-0.415h-3.426c0,0-0.312,0.104-0.416,0.415c-0.104,0.311-0.311,1.557-0.311,1.557s-0.104,0.519-0.623,0.623
			C279.725,184.777,278.583,185.087,278.583,185.087"/>
		<path fill="none" stroke="#717071" stroke-linecap="round" stroke-linejoin="round" d="M278.583,185.087h9.449l-1.661-0.52
			c0,0-0.416-0.103-0.52-0.519c-0.104-0.415-0.312-1.557-0.312-1.557s-0.104-0.415-0.416-0.415h-3.426c0,0-0.312,0.104-0.416,0.415
			c-0.104,0.311-0.311,1.557-0.311,1.557s-0.104,0.519-0.623,0.623C279.725,184.777,278.583,185.087,278.583,185.087"/>
		<path fill="#EEEEEF" d="M281.698,180h3.114c0,0,0.104-0.208,0.312-0.312c0.208-0.104,1.143-0.415,1.143-0.415s0.104,0,0.104-0.208
			h-6.23c0,0,0,0.208,0.104,0.208c0.104,0,1.142,0.415,1.142,0.415S281.594,179.688,281.698,180"/>
		<path fill="none" stroke="#717071" stroke-linecap="round" stroke-linejoin="round" d="M281.698,180h3.114
			c0,0,0.104-0.208,0.312-0.312c0.208-0.104,1.143-0.415,1.143-0.415s0.104,0,0.104-0.208h-6.23c0,0,0,0.208,0.104,0.208
			c0.104,0,1.142,0.415,1.142,0.415S281.594,179.688,281.698,180"/>
		<polygon fill="#EEEEEF" points="283.255,182.077 281.698,182.077 281.698,179.792 283.255,179.792 284.812,179.792 
			284.812,182.077 		"/>
		<polygon fill="none" stroke="#717071" stroke-linecap="round" stroke-linejoin="round" points="283.255,182.077 281.698,182.077 
			281.698,179.792 283.255,179.792 284.812,179.792 284.812,182.077 		"/>
		<path fill="#EEEEEF" d="M280.141,178.961h6.23c0,0,0.518,0,0.414-0.415c-0.104-0.416-0.727-3.842-0.727-3.842
			s-0.104-0.312-0.519-0.312h-4.568c0,0-0.416,0.104-0.52,0.312c0,0.312-0.728,3.842-0.728,3.842S279.725,178.961,280.141,178.961"
			/>
		<path fill="none" stroke="#717071" stroke-linecap="round" stroke-linejoin="round" d="M280.141,178.961h6.23
			c0,0,0.518,0,0.414-0.415c-0.104-0.416-0.727-3.842-0.727-3.842s-0.104-0.312-0.519-0.312h-4.568c0,0-0.416,0.104-0.52,0.312
			c0,0.312-0.728,3.842-0.728,3.842S279.725,178.961,280.141,178.961"/>
		<polygon fill="#EEEEEF" points="278.583,189.345 288.032,189.345 288.032,188.1 278.583,188.1 		"/>
		<polygon fill="none" stroke="#717071" stroke-linecap="round" stroke-linejoin="round" points="278.583,189.345 288.032,189.345 
			288.032,188.1 278.583,188.1 		"/>
		<path fill="#EEEEEF" d="M288.032,189.345h-9.449l1.661,0.52c0,0,0.52,0.104,0.52,0.519c0.104,0.415,0.311,1.557,0.311,1.557
			s0.104,0.416,0.416,0.416h3.426c0,0,0.312-0.104,0.416-0.416c0.104-0.311,0.312-1.557,0.312-1.557s0.104-0.519,0.623-0.622
			C286.785,189.656,288.032,189.345,288.032,189.345"/>
		<path fill="none" stroke="#717071" stroke-linecap="round" stroke-linejoin="round" d="M288.032,189.345h-9.449l1.661,0.52
			c0,0,0.52,0.104,0.52,0.519c0.104,0.415,0.311,1.557,0.311,1.557s0.104,0.416,0.416,0.416h3.426c0,0,0.312-0.104,0.416-0.416
			c0.104-0.311,0.312-1.557,0.312-1.557s0.104-0.519,0.623-0.622C286.785,189.656,288.032,189.345,288.032,189.345"/>
		<path fill="#EEEEEF" d="M284.812,194.433h-3.114c0,0-0.104,0.207-0.312,0.312c-0.207,0.104-1.142,0.415-1.142,0.415
			s-0.104,0-0.104,0.208h6.23c0,0,0-0.208-0.104-0.208c-0.104,0-1.143-0.415-1.143-0.415S284.916,194.64,284.812,194.433"/>
		<path fill="none" stroke="#717071" stroke-linecap="round" stroke-linejoin="round" d="M284.812,194.433h-3.114
			c0,0-0.104,0.207-0.312,0.312c-0.207,0.104-1.142,0.415-1.142,0.415s-0.104,0-0.104,0.208h6.23c0,0,0-0.208-0.104-0.208
			c-0.104,0-1.143-0.415-1.143-0.415S284.916,194.64,284.812,194.433"/>
		<polygon fill="#EEEEEF" points="283.255,192.252 284.812,192.252 284.812,194.536 283.255,194.536 281.698,194.536 
			281.698,192.252 		"/>
		<polygon fill="none" stroke="#717071" stroke-linecap="round" stroke-linejoin="round" points="283.255,192.252 284.812,192.252 
			284.812,194.536 283.255,194.536 281.698,194.536 281.698,192.252 		"/>
		<path fill="#EEEEEF" d="M286.371,195.471h-6.23c0,0-0.52,0-0.416,0.415c0.104,0.415,0.728,3.842,0.728,3.842
			s0.104,0.312,0.52,0.312h4.568c0,0,0.415-0.104,0.519-0.312c0-0.311,0.727-3.842,0.727-3.842S286.889,195.471,286.371,195.471"/>
		<path fill="none" stroke="#717071" stroke-linecap="round" stroke-linejoin="round" d="M286.371,195.471h-6.23
			c0,0-0.52,0-0.416,0.415c0.104,0.415,0.728,3.842,0.728,3.842s0.104,0.312,0.52,0.312h4.568c0,0,0.415-0.104,0.519-0.312
			c0-0.311,0.727-3.842,0.727-3.842S286.889,195.471,286.371,195.471"/>
		<polygon fill="#DBDCDC" points="355.105,188.1 271.107,188.1 271.107,186.334 355.105,186.334 		"/>
		<polygon fill="none" stroke="#717071" stroke-linecap="round" stroke-linejoin="round" points="355.105,188.1 271.107,188.1 
			271.107,186.334 355.105,186.334 		"/>
		<polygon fill="#EEEEEF" points="288.032,283.727 278.583,283.727 278.583,284.972 288.032,284.972 		"/>
		<polygon fill="none" stroke="#717071" stroke-linecap="round" stroke-linejoin="round" points="288.032,283.727 278.583,283.727 
			278.583,284.972 288.032,284.972 		"/>
		<path fill="#EEEEEF" d="M278.583,283.727h9.449l-1.661-0.52c0,0-0.416-0.104-0.52-0.52c-0.104-0.415-0.312-1.558-0.312-1.558
			s-0.104-0.414-0.416-0.414h-3.426c0,0-0.312,0.103-0.416,0.414s-0.311,1.558-0.311,1.558s-0.104,0.52-0.623,0.623
			C279.725,283.414,278.583,283.727,278.583,283.727"/>
		<path fill="none" stroke="#717071" stroke-linecap="round" stroke-linejoin="round" d="M278.583,283.727h9.449l-1.661-0.52
			c0,0-0.416-0.104-0.52-0.52c-0.104-0.415-0.312-1.558-0.312-1.558s-0.104-0.414-0.416-0.414h-3.426c0,0-0.312,0.103-0.416,0.414
			s-0.311,1.558-0.311,1.558s-0.104,0.52-0.623,0.623C279.725,283.414,278.583,283.727,278.583,283.727"/>
		<path fill="#EEEEEF" d="M281.698,278.639h3.114c0,0,0.104-0.208,0.312-0.312c0.208-0.104,1.143-0.416,1.143-0.416
			s0.104,0,0.104-0.207h-6.23c0,0,0,0.104,0.104,0.207c0.104,0,1.142,0.416,1.142,0.416S281.594,278.327,281.698,278.639"/>
		<path fill="none" stroke="#717071" stroke-linecap="round" stroke-linejoin="round" d="M281.698,278.639h3.114
			c0,0,0.104-0.208,0.312-0.312c0.208-0.104,1.143-0.416,1.143-0.416s0.104,0,0.104-0.207h-6.23c0,0,0,0.104,0.104,0.207
			c0.104,0,1.142,0.416,1.142,0.416S281.594,278.327,281.698,278.639"/>
		<polygon fill="#EEEEEF" points="283.255,280.716 281.698,280.716 281.698,278.431 283.255,278.431 284.812,278.431 
			284.812,280.716 		"/>
		<polygon fill="none" stroke="#717071" stroke-linecap="round" stroke-linejoin="round" points="283.255,280.716 281.698,280.716 
			281.698,278.431 283.255,278.431 284.812,278.431 284.812,280.716 		"/>
		<path fill="#EEEEEF" d="M280.141,277.6h6.23c0,0,0.518,0,0.414-0.415s-0.727-3.841-0.727-3.841s-0.104-0.312-0.519-0.312h-4.568
			c0,0-0.416,0.104-0.52,0.312c0,0.311-0.728,3.841-0.728,3.841S279.725,277.6,280.141,277.6"/>
		<path fill="none" stroke="#717071" stroke-linecap="round" stroke-linejoin="round" d="M280.141,277.6h6.23
			c0,0,0.518,0,0.414-0.415s-0.727-3.841-0.727-3.841s-0.104-0.312-0.519-0.312h-4.568c0,0-0.416,0.104-0.52,0.312
			c0,0.311-0.728,3.841-0.728,3.841S279.725,277.6,280.141,277.6"/>
		<polygon fill="#EEEEEF" points="278.583,287.983 288.032,287.983 288.032,286.736 278.583,286.736 		"/>
		<polygon fill="none" stroke="#717071" stroke-linecap="round" stroke-linejoin="round" points="278.583,287.983 288.032,287.983 
			288.032,286.736 278.583,286.736 		"/>
		<path fill="#EEEEEF" d="M288.032,287.983h-9.449l1.661,0.519c0,0,0.52,0.104,0.52,0.52c0.104,0.415,0.311,1.557,0.311,1.557
			s0.104,0.416,0.416,0.416h3.426c0,0,0.312-0.104,0.416-0.416c0.104-0.312,0.312-1.557,0.312-1.557s0.104-0.52,0.623-0.624
			C286.785,288.294,288.032,287.983,288.032,287.983"/>
		<path fill="none" stroke="#717071" stroke-linecap="round" stroke-linejoin="round" d="M288.032,287.983h-9.449l1.661,0.519
			c0,0,0.52,0.104,0.52,0.52c0.104,0.415,0.311,1.557,0.311,1.557s0.104,0.416,0.416,0.416h3.426c0,0,0.312-0.104,0.416-0.416
			c0.104-0.312,0.312-1.557,0.312-1.557s0.104-0.52,0.623-0.624C286.785,288.294,288.032,287.983,288.032,287.983"/>
		<path fill="#EEEEEF" d="M284.812,293.071h-3.114c0,0-0.104,0.207-0.312,0.312c-0.207,0.104-1.142,0.414-1.142,0.414
			s-0.104,0-0.104,0.208h6.23c0,0,0-0.208-0.104-0.208c-0.104,0-1.143-0.414-1.143-0.414S284.916,293.278,284.812,293.071"/>
		<path fill="none" stroke="#717071" stroke-linecap="round" stroke-linejoin="round" d="M284.812,293.071h-3.114
			c0,0-0.104,0.207-0.312,0.312c-0.207,0.104-1.142,0.414-1.142,0.414s-0.104,0-0.104,0.208h6.23c0,0,0-0.208-0.104-0.208
			c-0.104,0-1.143-0.414-1.143-0.414S284.916,293.278,284.812,293.071"/>
		<polygon fill="#EEEEEF" points="283.255,290.994 284.812,290.994 284.812,293.175 283.255,293.175 281.698,293.175 
			281.698,290.994 		"/>
		<polygon fill="none" stroke="#717071" stroke-linecap="round" stroke-linejoin="round" points="283.255,290.994 284.812,290.994 
			284.812,293.175 283.255,293.175 281.698,293.175 281.698,290.994 		"/>
		<g>
			<g>
				<defs>
					<rect id="SVGID_33_" x="141.009" y="58" width="229.982" height="241.093"/>
				</defs>
				<clipPath id="SVGID_34_">
					<use xlink:href="#SVGID_33_"  overflow="visible"/>
				</clipPath>
				<path clip-path="url(#SVGID_34_)" fill="#EEEEEF" d="M286.371,294.108h-6.23c0,0-0.52,0-0.416,0.416
					c0.104,0.415,0.728,3.842,0.728,3.842s0.104,0.312,0.52,0.312h4.568c0,0,0.415-0.104,0.519-0.312
					c0-0.312,0.727-3.842,0.727-3.842S286.889,294.108,286.371,294.108"/>
			</g>
			<g>
				<defs>
					<rect id="SVGID_35_" x="141.009" y="58" width="229.982" height="241.093"/>
				</defs>
				<clipPath id="SVGID_36_">
					<use xlink:href="#SVGID_35_"  overflow="visible"/>
				</clipPath>
				<path clip-path="url(#SVGID_36_)" fill="none" stroke="#717071" stroke-linecap="round" stroke-linejoin="round" d="
					M286.371,294.108h-6.23c0,0-0.52,0-0.416,0.416c0.104,0.415,0.728,3.842,0.728,3.842s0.104,0.312,0.52,0.312h4.568
					c0,0,0.415-0.104,0.519-0.312c0-0.312,0.727-3.842,0.727-3.842S286.889,294.108,286.371,294.108"/>
			</g>
		</g>
		<polygon fill="#DBDCDC" points="355.105,286.736 271.107,286.736 271.107,284.972 355.105,284.972 		"/>
		<polygon fill="none" stroke="#717071" stroke-linecap="round" stroke-linejoin="round" points="355.105,286.736 271.107,286.736 
			271.107,284.972 355.105,284.972 		"/>
		<path fill="#FFFFFF" d="M159.075,234.199v4.049v5.919l21.285-0.935c0,0,0.623-0.104,0.623-0.623v-4.464v-4.05v-4.465
			c0-0.52-0.623-0.624-0.623-0.624l-21.285-0.934V234.199L159.075,234.199z"/>
		<path fill="none" stroke="#717071" stroke-linecap="round" stroke-linejoin="round" d="M159.075,234.199v4.049v5.919l21.285-0.935
			c0,0,0.623-0.104,0.623-0.623v-4.464v-4.05v-4.465c0-0.52-0.623-0.624-0.623-0.624l-21.285-0.934V234.199L159.075,234.199z"/>
		<polygon fill="#FFFFFF" points="151.807,244.479 158.66,244.167 158.971,244.167 158.971,228.488 158.66,228.488 151.807,227.97 
					"/>
		<polygon fill="none" stroke="#717071" stroke-linecap="round" stroke-linejoin="round" points="151.807,244.479 158.66,244.167 
			158.971,244.167 158.971,228.488 158.66,228.488 151.807,227.97 		"/>
		<polygon fill="#FFFFFF" points="152.118,244.894 148.484,244.894 148.484,227.657 152.118,227.657 		"/>
		<polygon fill="none" stroke="#717071" stroke-linecap="round" stroke-linejoin="round" points="152.118,244.894 148.484,244.894 
			148.484,227.657 152.118,227.657 		"/>
		<polygon fill="#FFFFFF" points="146.719,240.221 145.992,240.221 145.992,232.33 146.719,232.33 		"/>
		<polygon fill="none" stroke="#717071" stroke-linecap="round" stroke-linejoin="round" points="146.719,240.221 145.992,240.221 
			145.992,232.33 146.719,232.33 		"/>
		<g>
			<g>
				<defs>
					<rect id="SVGID_37_" x="141.009" y="58" width="229.982" height="241.093"/>
				</defs>
				<clipPath id="SVGID_38_">
					<use xlink:href="#SVGID_37_"  overflow="visible"/>
				</clipPath>
				<path clip-path="url(#SVGID_38_)" fill="#FFFFFF" d="M143.604,233.991c-1.246,0-2.388,1.038-2.388,2.388
					c0,1.247,1.038,2.389,2.388,2.389h2.388v-4.776H143.604L143.604,233.991L143.604,233.991z"/>
			</g>
			<g>
				<defs>
					<rect id="SVGID_39_" x="141.009" y="58" width="229.982" height="241.093"/>
				</defs>
				<clipPath id="SVGID_40_">
					<use xlink:href="#SVGID_39_"  overflow="visible"/>
				</clipPath>
				<path clip-path="url(#SVGID_40_)" fill="none" stroke="#717071" stroke-linecap="round" stroke-linejoin="round" d="
					M143.604,233.991c-1.246,0-2.388,1.038-2.388,2.388c0,1.247,1.038,2.389,2.388,2.389h2.388v-4.776H143.604L143.604,233.991
					L143.604,233.991z"/>
			</g>
		</g>
	</g>
</g>
</svg>
