<?xml version="1.0" encoding="utf-8"?>
<!-- Generator: Adobe Illustrator 15.0.0, SVG Export Plug-In . SVG Version: 6.00 Build 0)  -->
<!DOCTYPE svg PUBLIC "-//W3C//DTD SVG 1.1//EN" "http://www.w3.org/Graphics/SVG/1.1/DTD/svg11.dtd">
<svg version="1.1" id="レイヤー_1" xmlns="http://www.w3.org/2000/svg" xmlns:xlink="http://www.w3.org/1999/xlink" x="0px"
	 y="0px" width="512px" height="512px" viewBox="0 0 512 512" enable-background="new 0 0 512 512" xml:space="preserve">
<g>
	<polygon fill="#FFFFFF" points="502.023,169.863 502.023,16.828 495.236,16.828 495.236,10.041 342.201,10.041 342.201,29.645 
		468.809,29.645 314.443,184.01 328.303,197.867 482.42,43.75 482.42,169.863 	"/>
	<polygon fill="#FFFFFF" points="169.799,502.086 16.768,502.084 16.766,495.299 9.98,495.297 9.979,342.262 29.58,342.262 
		29.58,468.871 183.947,314.506 197.805,328.365 43.688,482.484 169.799,482.484 	"/>
	<polygon fill="#FFFFFF" points="342.201,501.961 495.236,501.961 495.236,495.174 502.023,495.174 502.023,342.139 482.42,342.139 
		482.42,468.746 328.055,314.379 314.197,328.24 468.314,482.357 342.201,482.357 	"/>
	<polygon fill="#FFFFFF" points="9.979,169.736 9.98,16.705 16.766,16.701 16.768,9.918 169.799,9.916 169.799,29.518 
		43.193,29.518 197.559,183.885 183.699,197.742 29.58,43.625 29.58,169.736 	"/>
</g>
</svg>
