<?xml version="1.0" encoding="utf-8"?>
<!-- Generator: Adobe Illustrator 15.0.0, SVG Export Plug-In . SVG Version: 6.00 Build 0)  -->
<!DOCTYPE svg PUBLIC "-//W3C//DTD SVG 1.1//EN" "http://www.w3.org/Graphics/SVG/1.1/DTD/svg11.dtd">
<svg version="1.1" id="レイヤー_1" xmlns="http://www.w3.org/2000/svg" xmlns:xlink="http://www.w3.org/1999/xlink" x="0px"
	 y="0px" width="512px" height="512px" viewBox="0 0 512 512" enable-background="new 0 0 512 512" xml:space="preserve">
<linearGradient id="SVGID_1_" gradientUnits="userSpaceOnUse" x1="255.9995" y1="501.6855" x2="255.9995" y2="10.313">
	<stop  offset="0" style="stop-color:#C68CBB"/>
	<stop  offset="0.4294" style="stop-color:#BD91C0"/>
	<stop  offset="0.7423" style="stop-color:#8BB3DF"/>
	<stop  offset="1" style="stop-color:#52C0E6"/>
</linearGradient>
<circle fill="url(#SVGID_1_)" cx="255.999" cy="256" r="245.687"/>
<path fill="#FFFFFF" d="M346.182,151.291L266.322,71.43c-0.408-0.58-0.844-1.15-1.365-1.67c-3.1-3.102-7.422-4.215-11.42-3.371
	c-2.381,0.449-4.654,1.596-6.494,3.434c-0.305,0.307-0.533,0.654-0.805,0.98l-80.42,80.424c-4.883,4.883-4.883,12.797,0,17.68
	c4.881,4.881,12.797,4.881,17.674,0l59.576-59.574v323.5c0,7.207,5.842,13.051,13.053,13.051c7.205,0,13.049-5.844,13.049-13.051
	V109.633l59.336,59.338c4.887,4.879,12.797,4.879,17.676,0C351.062,164.088,351.062,156.174,346.182,151.291z"/>
</svg>
