<?xml version="1.0" encoding="utf-8"?>
<!-- Generator: Adobe Illustrator 15.0.0, SVG Export Plug-In . SVG Version: 6.00 Build 0)  -->
<!DOCTYPE svg PUBLIC "-//W3C//DTD SVG 1.1//EN" "http://www.w3.org/Graphics/SVG/1.1/DTD/svg11.dtd">
<svg version="1.1" id="レイヤー_1" xmlns="http://www.w3.org/2000/svg" xmlns:xlink="http://www.w3.org/1999/xlink" x="0px"
	 y="0px" width="512px" height="512px" viewBox="0 0 512 512" enable-background="new 0 0 512 512" xml:space="preserve">
<path opacity="0.5" fill="#FFFFFF" d="M256,172.457c122.261,0,221.373,37.4,221.373,83.539c0,46.146-99.112,83.547-221.373,83.547
	S34.627,302.142,34.627,255.996C34.627,209.857,133.739,172.457,256,172.457 M256,149.78c-61.798,0-120.233,9.208-164.541,25.928
	c-22.948,8.66-41.296,19.039-54.533,30.849c-20.643,18.418-24.977,37.051-24.977,49.439c0,12.389,4.333,31.023,24.976,49.443
	c13.237,11.812,31.585,22.191,54.534,30.853C135.765,353.012,194.2,362.22,256,362.22s120.234-9.208,164.541-25.929
	c22.948-8.661,41.296-19.041,54.533-30.853c20.643-18.42,24.976-37.054,24.976-49.443c0-12.388-4.333-31.021-24.977-49.439
	c-13.237-11.81-31.585-22.189-54.532-30.849C376.233,158.988,317.799,149.78,256,149.78L256,149.78z"/>
</svg>
