<?xml version="1.0" encoding="utf-8"?>
<!-- Generator: Adobe Illustrator 15.0.0, SVG Export Plug-In . SVG Version: 6.00 Build 0)  -->
<!DOCTYPE svg PUBLIC "-//W3C//DTD SVG 1.1//EN" "http://www.w3.org/Graphics/SVG/1.1/DTD/svg11.dtd">
<svg version="1.1" id="レイヤー_1" xmlns="http://www.w3.org/2000/svg" xmlns:xlink="http://www.w3.org/1999/xlink" x="0px"
	 y="0px" width="512px" height="512px" viewBox="0 0 512 512" enable-background="new 0 0 512 512" xml:space="preserve">
<g>
	<g>
		<circle fill="#FFFFFF" cx="132.067" cy="267.441" r="124.886"/>
		<path fill="#FFFFFF" d="M504.82,73.914c0,35.803-29.025,64.826-64.826,64.826c-35.805,0-64.83-29.023-64.83-64.826
			c0-35.803,29.025-64.826,64.83-64.826C475.795,9.088,504.82,38.111,504.82,73.914z"/>
		<path fill="#FFFFFF" d="M504.82,438.088c0,35.803-29.025,64.824-64.826,64.824c-35.805,0-64.83-29.021-64.83-64.824
			c0-35.805,29.025-64.828,64.83-64.828C475.795,373.26,504.82,402.283,504.82,438.088z"/>
	</g>
	
		<rect x="293.259" y="52.764" transform="matrix(-0.589 -0.8081 0.8081 -0.589 351.0681 511.6913)" fill="#FFFFFF" width="24.785" height="227.617"/>
	
		<rect x="304.697" y="245.344" transform="matrix(-0.589 0.8081 -0.8081 -0.589 794.0966 314.4503)" fill="#FFFFFF" width="24.782" height="227.617"/>
</g>
</svg>
