<?xml version="1.0" encoding="utf-8"?>
<!-- Generator: Adobe Illustrator 15.0.0, SVG Export Plug-In . SVG Version: 6.00 Build 0)  -->
<!DOCTYPE svg PUBLIC "-//W3C//DTD SVG 1.1//EN" "http://www.w3.org/Graphics/SVG/1.1/DTD/svg11.dtd">
<svg version="1.1" id="レイヤー_1" xmlns="http://www.w3.org/2000/svg" xmlns:xlink="http://www.w3.org/1999/xlink" x="0px"
	 y="0px" width="512px" height="512px" viewBox="0 0 512 512" enable-background="new 0 0 512 512" xml:space="preserve">
<g>
	<path opacity="0.5" fill="#FFFFFF" d="M5.193,256c0,66.729,57.066,121.324,126.807,121.324h247.998
		c69.744,0,126.809-54.596,126.809-121.324c0-66.727-57.064-121.324-126.809-121.324H132C62.26,134.676,5.193,189.273,5.193,256z
		 M284.189,256c0-47.533,40.277-86.068,89.965-86.068c49.68,0,89.957,38.535,89.957,86.068c0,47.535-40.277,86.066-89.957,86.066
		C324.467,342.066,284.189,303.535,284.189,256z"/>
	<path opacity="0.5" fill="#FFFFFF" d="M374.154,188.287c39.084,0,70.773,30.316,70.773,67.713s-31.689,67.711-70.773,67.711
		c-39.088,0-70.773-30.314-70.773-67.711S335.066,188.287,374.154,188.287z"/>
</g>
</svg>
