<?xml version="1.0" encoding="utf-8"?>
<!-- Generator: Adobe Illustrator 15.0.0, SVG Export Plug-In . SVG Version: 6.00 Build 0)  -->
<!DOCTYPE svg PUBLIC "-//W3C//DTD SVG 1.1//EN" "http://www.w3.org/Graphics/SVG/1.1/DTD/svg11.dtd">
<svg version="1.1" id="レイヤー_1" xmlns="http://www.w3.org/2000/svg" xmlns:xlink="http://www.w3.org/1999/xlink" x="0px"
	 y="0px" width="512px" height="512px" viewBox="0 0 512 512" enable-background="new 0 0 512 512" xml:space="preserve">
<g>
	<path fill="#2999A8" d="M379.999,134.676H132.003C62.259,134.676,5.194,189.273,5.194,256c0,66.729,57.064,121.324,126.809,121.324
		h247.996c69.744,0,126.807-54.596,126.807-121.324C506.806,189.273,449.743,134.676,379.999,134.676z M137.847,342.066
		c-49.68,0-89.957-38.529-89.957-86.066c0-47.531,40.277-86.068,89.957-86.068c49.686,0,89.961,38.537,89.961,86.068
		C227.808,303.537,187.532,342.066,137.847,342.066z"/>
	<ellipse fill="#2999A8" cx="137.847" cy="256" rx="70.773" ry="67.711"/>
</g>
</svg>
