<?xml version="1.0" encoding="utf-8"?>
<!-- Generator: Adobe Illustrator 15.0.0, SVG Export Plug-In . SVG Version: 6.00 Build 0)  -->
<!DOCTYPE svg PUBLIC "-//W3C//DTD SVG 1.1//EN" "http://www.w3.org/Graphics/SVG/1.1/DTD/svg11.dtd">
<svg version="1.1" id="レイヤー_1" xmlns="http://www.w3.org/2000/svg" xmlns:xlink="http://www.w3.org/1999/xlink" x="0px"
	 y="0px" width="512px" height="360px" viewBox="0 0 512 360" enable-background="new 0 0 512 360" xml:space="preserve">
<g>
	<polygon fill="#F7F7F0" points="471.15,288.3 471.15,71 40.75,71 40.75,288.3 	"/>
	<path fill="#C8C9CA" d="M51.45,63.2c-0.7,0-1.3-0.6-1.3-1.3c0-0.7,0.6-1.3,1.3-1.3s1.3,0.6,1.3,1.4
		C52.75,62.6,52.15,63.2,51.45,63.2L51.45,63.2z M55.35,59.6h-8l-0.6,0.6v8.4h9.2v-8.4L55.35,59.6L55.35,59.6z"/>
	<path fill="#C8C9CA" d="M459.15,61.9c0-0.8,0.6-1.4,1.3-1.4s1.3,0.6,1.3,1.3c0,0.7-0.6,1.3-1.3,1.3
		C459.75,63.2,459.15,62.6,459.15,61.9L459.15,61.9z M455.95,60.1v8.4h9.1v-8.4l-0.6-0.6h-7.9L455.95,60.1L455.95,60.1z"/>
	<path fill="#C8C9CA" d="M52.75,302.2c0,0.8-0.6,1.399-1.3,1.399s-1.3-0.6-1.3-1.3s0.6-1.3,1.3-1.3
		C52.15,300.8,52.75,301.4,52.75,302.2L52.75,302.2z M55.95,303.9v-10.7H46.85v10.7l0.601,0.6h8L55.95,303.9L55.95,303.9z"/>
	<path fill="#C8C9CA" d="M460.45,300.8c0.7,0,1.3,0.601,1.3,1.3c0,0.7-0.6,1.301-1.3,1.301s-1.3-0.601-1.3-1.4
		C459.15,301.4,459.75,300.8,460.45,300.8L460.45,300.8z M456.55,304.5h7.9l0.6-0.6v-8.4h-9.1v8.4L456.55,304.5L456.55,304.5z"/>
	<polygon fill="#FFFFFF" points="332.15,191.8 321.55,191.8 321.55,283.2 332.15,283.2 	"/>
	<polygon fill="none" stroke="#717071" stroke-linecap="round" stroke-linejoin="round" points="332.15,191.8 321.55,191.8 
		321.55,283.2 332.15,283.2 	"/>
	<path fill="#FFFFFF" d="M448.05,198.2c0,3.3,0.301,6.6,0.801,9.8v-19.7C448.351,191.6,448.05,194.9,448.05,198.2L448.05,198.2z"/>
	<path fill="none" stroke="#717071" stroke-linecap="round" stroke-linejoin="round" d="M448.05,198.2c0,3.3,0.301,6.6,0.801,9.8
		v-19.7C448.351,191.6,448.05,194.9,448.05,198.2L448.05,198.2z"/>
	<path fill="#FFFFFF" d="M448.05,218.2c0-3.3,0.301-6.601,0.801-9.8V228.1C448.351,224.8,448.05,221.5,448.05,218.2L448.05,218.2z"
		/>
	<path fill="none" stroke="#717071" stroke-linecap="round" stroke-linejoin="round" d="M448.05,218.2c0-3.3,0.301-6.601,0.801-9.8
		V228.1C448.351,224.8,448.05,221.5,448.05,218.2L448.05,218.2z"/>
	<path fill="#FFFFFF" d="M465.55,232.7v-49H450.15c-0.7,0-1.2,0.6-1.2,1.3v46.4c0,0.699,0.6,1.3,1.3,1.3H465.55L465.55,232.7z"/>
	<path fill="none" stroke="#717071" stroke-linecap="round" stroke-linejoin="round" d="M465.55,232.7v-49H450.15
		c-0.7,0-1.2,0.6-1.2,1.3v46.4c0,0.699,0.6,1.3,1.3,1.3H465.55L465.55,232.7z"/>
	<path fill="#FFFFFF" d="M452.351,86.4c0,0.4-0.301,0.7-0.7,0.7h-107.4c-0.399,0-0.7-0.3-0.7-0.7v-9c0-0.4,0.301-0.7,0.7-0.7h107.3
		c0.4,0,0.7,0.3,0.7,0.7v9H452.351z"/>
	<path fill="none" stroke="#717071" stroke-linecap="round" stroke-linejoin="round" d="M452.351,86.4c0,0.4-0.301,0.7-0.7,0.7
		h-107.4c-0.399,0-0.7-0.3-0.7-0.7v-9c0-0.4,0.301-0.7,0.7-0.7h107.3c0.4,0,0.7,0.3,0.7,0.7v9H452.351z M448.55,81.9
		c0,0.4-0.3,0.7-0.699,0.7c-0.4,0-0.7-0.3-0.7-0.7v-3.1c0-0.4,0.3-0.7,0.7-0.7c0.399,0,0.699,0.3,0.699,0.7V81.9L448.55,81.9z
		 M440.95,81.9c0,0.4-0.3,0.7-0.7,0.7c-0.399,0-0.7-0.3-0.7-0.7v-3.1c0-0.4,0.301-0.7,0.7-0.7c0.4,0,0.7,0.3,0.7,0.7V81.9
		L440.95,81.9z M433.45,81.9c0,0.4-0.3,0.7-0.7,0.7c-0.399,0-0.7-0.3-0.7-0.7v-3.1c0-0.4,0.301-0.7,0.7-0.7c0.4,0,0.7,0.3,0.7,0.7
		V81.9L433.45,81.9z M425.851,81.9c0,0.4-0.301,0.7-0.7,0.7c-0.4,0-0.7-0.3-0.7-0.7v-3.1c0-0.4,0.3-0.7,0.7-0.7
		c0.399,0,0.7,0.3,0.7,0.7V81.9L425.851,81.9z M418.25,81.9c0,0.4-0.3,0.7-0.7,0.7c-0.399,0-0.699-0.3-0.699-0.7v-3.1
		c0-0.4,0.3-0.7,0.699-0.7c0.4,0,0.7,0.3,0.7,0.7V81.9L418.25,81.9z M410.75,81.9c0,0.4-0.3,0.7-0.7,0.7
		c-0.399,0-0.699-0.3-0.699-0.7v-3.1c0-0.4,0.3-0.7,0.699-0.7c0.4,0,0.7,0.3,0.7,0.7V81.9L410.75,81.9z M403.15,81.9
		c0,0.4-0.3,0.7-0.7,0.7s-0.7-0.3-0.7-0.7v-3.1c0-0.4,0.3-0.7,0.7-0.7s0.7,0.3,0.7,0.7V81.9L403.15,81.9z M347.351,81.9
		c0,0.4,0.3,0.7,0.699,0.7c0.4,0,0.7-0.3,0.7-0.7v-3.1c0-0.4-0.3-0.7-0.7-0.7c-0.399,0-0.699,0.3-0.699,0.7V81.9L347.351,81.9z
		 M354.851,81.9c0,0.4,0.3,0.7,0.699,0.7c0.4,0,0.7-0.3,0.7-0.7v-3.1c0-0.4-0.3-0.7-0.7-0.7c-0.399,0-0.699,0.3-0.699,0.7V81.9
		L354.851,81.9z M362.45,81.9c0,0.4,0.3,0.7,0.7,0.7c0.399,0,0.7-0.3,0.7-0.7v-3.1c0-0.4-0.301-0.7-0.7-0.7c-0.4,0-0.7,0.3-0.7,0.7
		V81.9L362.45,81.9z M370.05,81.9c0,0.4,0.301,0.7,0.7,0.7c0.4,0,0.7-0.3,0.7-0.7v-3.1c0-0.4-0.3-0.7-0.7-0.7
		c-0.399,0-0.7,0.3-0.7,0.7V81.9L370.05,81.9z M377.55,81.9c0,0.4,0.301,0.7,0.7,0.7c0.4,0,0.7-0.3,0.7-0.7v-3.1
		c0-0.4-0.3-0.7-0.7-0.7c-0.399,0-0.7,0.3-0.7,0.7V81.9L377.55,81.9z M385.15,81.9c0,0.4,0.3,0.7,0.7,0.7
		c0.399,0,0.699-0.3,0.699-0.7v-3.1c0-0.4-0.3-0.7-0.699-0.7c-0.4,0-0.7,0.3-0.7,0.7V81.9L385.15,81.9z M392.75,81.9
		c0,0.4,0.3,0.7,0.7,0.7s0.7-0.3,0.7-0.7v-3.1c0-0.4-0.3-0.7-0.7-0.7s-0.7,0.3-0.7,0.7V81.9L392.75,81.9z"/>
	<path fill="#FFFFFF" d="M310.25,86.4c0,0.4-0.3,0.7-0.7,0.7h-107.3c-0.4,0-0.7-0.3-0.7-0.7v-9c0-0.4,0.3-0.7,0.7-0.7h107.3
		c0.4,0,0.7,0.3,0.7,0.7V86.4L310.25,86.4z"/>
	<path fill="none" stroke="#717071" stroke-linecap="round" stroke-linejoin="round" d="M310.25,86.4c0,0.4-0.3,0.7-0.7,0.7h-107.3
		c-0.4,0-0.7-0.3-0.7-0.7v-9c0-0.4,0.3-0.7,0.7-0.7h107.3c0.4,0,0.7,0.3,0.7,0.7V86.4L310.25,86.4z M306.55,81.9
		c0,0.4-0.3,0.7-0.699,0.7c-0.4,0-0.7-0.3-0.7-0.7v-3.1c0-0.4,0.3-0.7,0.7-0.7c0.399,0,0.699,0.3,0.699,0.7V81.9L306.55,81.9z
		 M298.95,81.9c0,0.4-0.3,0.7-0.7,0.7c-0.399,0-0.7-0.3-0.7-0.7v-3.1c0-0.4,0.301-0.7,0.7-0.7c0.4,0,0.7,0.3,0.7,0.7V81.9
		L298.95,81.9z M291.351,81.9c0,0.4-0.301,0.7-0.7,0.7c-0.4,0-0.7-0.3-0.7-0.7v-3.1c0-0.4,0.3-0.7,0.7-0.7c0.399,0,0.7,0.3,0.7,0.7
		V81.9L291.351,81.9z M283.851,81.9c0,0.4-0.301,0.7-0.7,0.7c-0.4,0-0.7-0.3-0.7-0.7v-3.1c0-0.4,0.3-0.7,0.7-0.7
		c0.399,0,0.7,0.3,0.7,0.7V81.9L283.851,81.9z M276.25,81.9c0,0.4-0.3,0.7-0.7,0.7c-0.399,0-0.699-0.3-0.699-0.7v-3.1
		c0-0.4,0.3-0.7,0.699-0.7c0.4,0,0.7,0.3,0.7,0.7V81.9L276.25,81.9z M268.65,81.9c0,0.4-0.3,0.7-0.7,0.7s-0.7-0.3-0.7-0.7v-3.1
		c0-0.4,0.3-0.7,0.7-0.7s0.7,0.3,0.7,0.7V81.9L268.65,81.9z M261.15,81.9c0,0.4-0.3,0.7-0.7,0.7s-0.7-0.3-0.7-0.7v-3.1
		c0-0.4,0.3-0.7,0.7-0.7s0.7,0.3,0.7,0.7V81.9L261.15,81.9z M205.25,81.9c0,0.4,0.3,0.7,0.7,0.7c0.399,0,0.7-0.3,0.7-0.7v-3.1
		c0-0.4-0.301-0.7-0.7-0.7c-0.4,0-0.7,0.3-0.7,0.7V81.9L205.25,81.9z M212.85,81.9c0,0.4,0.301,0.7,0.7,0.7c0.4,0,0.7-0.3,0.7-0.7
		v-3.1c0-0.4-0.3-0.7-0.7-0.7c-0.399,0-0.7,0.3-0.7,0.7V81.9L212.85,81.9z M220.45,81.9c0,0.4,0.3,0.7,0.7,0.7
		c0.399,0,0.699-0.3,0.699-0.7v-3.1c0-0.4-0.3-0.7-0.699-0.7c-0.4,0-0.7,0.3-0.7,0.7V81.9L220.45,81.9z M227.95,81.9
		c0,0.4,0.3,0.7,0.7,0.7c0.399,0,0.699-0.3,0.699-0.7v-3.1c0-0.4-0.3-0.7-0.699-0.7c-0.4,0-0.7,0.3-0.7,0.7V81.9L227.95,81.9z
		 M235.55,81.9c0,0.4,0.301,0.7,0.7,0.7c0.4,0,0.7-0.3,0.7-0.7v-3.1c0-0.4-0.3-0.7-0.7-0.7c-0.399,0-0.7,0.3-0.7,0.7V81.9
		L235.55,81.9z M243.15,81.9c0,0.4,0.3,0.7,0.7,0.7c0.399,0,0.699-0.3,0.699-0.7v-3.1c0-0.4-0.3-0.7-0.699-0.7
		c-0.4,0-0.7,0.3-0.7,0.7V81.9L243.15,81.9z M250.65,81.9c0,0.4,0.3,0.7,0.7,0.7c0.399,0,0.699-0.3,0.699-0.7v-3.1
		c0-0.4-0.3-0.7-0.699-0.7c-0.4,0-0.7,0.3-0.7,0.7V81.9L250.65,81.9z"/>
	<polygon fill="#DBDCDC" points="329.15,192.5 324.65,192.5 324.65,282.5 329.15,282.5 	"/>
	<polygon fill="none" stroke="#717071" stroke-linecap="round" stroke-linejoin="round" points="329.15,192.5 324.65,192.5 
		324.65,282.5 329.15,282.5 	"/>
	<polygon fill="#FFFFFF" points="464.15,183.7 465.55,183.7 465.55,195.6 464.15,195.6 	"/>
	<polygon fill="none" stroke="#717071" stroke-linecap="round" stroke-linejoin="round" points="464.15,183.7 465.55,183.7 
		465.55,195.6 464.15,195.6 	"/>
	<path fill="#FFFFFF" d="M464.15,183.7c-0.5,0.899-0.9,2.399-0.9,3c0,0.8,0,5.2,0,6c0,0.6,0.4,2.1,0.9,3V183.7L464.15,183.7z"/>
	<path fill="none" stroke="#717071" stroke-linecap="round" stroke-linejoin="round" d="M464.15,183.7c-0.5,0.899-0.9,2.399-0.9,3
		c0,0.8,0,5.2,0,6c0,0.6,0.4,2.1,0.9,3V183.7L464.15,183.7z"/>
	<path fill="#FFFFFF" d="M453.351,189.7c0-1.7,1.399-3,3-3c1.699,0,3,1.3,3,3s-1.4,3-3,3C454.65,192.7,453.351,191.3,453.351,189.7
		L453.351,189.7z"/>
	<path fill="none" stroke="#717071" stroke-linecap="round" stroke-linejoin="round" d="M453.351,189.7c0-1.7,1.399-3,3-3
		c1.699,0,3,1.3,3,3s-1.4,3-3,3C454.65,192.7,453.351,191.3,453.351,189.7L453.351,189.7z"/>
	<path fill="#FFFFFF" d="M456.25,192.2c0.601,0,3.9,0.2,7,0.3v-5.8c-3.1,0.1-6.399,0.3-7,0.3c-1.3,0.1-2.399,1.2-2.399,2.5
		C453.75,191,454.851,192.1,456.25,192.2L456.25,192.2z"/>
	<path fill="none" stroke="#717071" stroke-linecap="round" stroke-linejoin="round" d="M456.25,192.2c0.601,0,3.9,0.2,7,0.3v-5.8
		c-3.1,0.1-6.399,0.3-7,0.3c-1.3,0.1-2.399,1.2-2.399,2.5C453.75,191,454.851,192.1,456.25,192.2L456.25,192.2z"/>
	<polygon fill="#FFFFFF" points="415.65,95.8 397.95,95.8 380.25,95.8 373.75,136 397.95,136 422.05,136 	"/>
	<polygon fill="none" stroke="#717071" stroke-linecap="round" stroke-linejoin="round" points="415.65,95.8 397.95,95.8 
		380.25,95.8 373.75,136 397.95,136 422.05,136 	"/>
	<path fill="#FFFFFF" d="M421.05,131.2c-0.3-0.8-0.6-1-1.5-1.2v-1.4h-1.199v2.2h-2.9v-2.2h-2.1v2.7h-15.4h-15.5v-2.7h-2.1v2.2h-2.9
		v-2.2h-1.2v1.4c-0.899,0.2-1.2,0.4-1.5,1.2c-1.899,5.399-4.8,15.7-4.8,24.2c0,23.899,15.8,36.5,27.9,36.5
		c12.1,0,27.899-12.601,27.899-36.5C425.851,146.9,422.95,136.6,421.05,131.2L421.05,131.2z"/>
	<path fill="none" stroke="#717071" stroke-linecap="round" stroke-linejoin="round" d="M421.05,131.2c-0.3-0.8-0.6-1-1.5-1.2v-1.4
		h-1.199v2.2h-2.9v-2.2h-2.1v2.7h-15.4h-15.5v-2.7h-2.1v2.2h-2.9v-2.2h-1.2v1.4c-0.899,0.2-1.2,0.4-1.5,1.2
		c-1.899,5.399-4.8,15.7-4.8,24.2c0,23.899,15.8,36.5,27.9,36.5c12.1,0,27.899-12.601,27.899-36.5
		C425.851,146.9,422.95,136.6,421.05,131.2L421.05,131.2z"/>
	<polygon fill="#FFFFFF" points="377.55,130.8 380.351,130.8 380.351,129.4 377.55,129.4 	"/>
	<polygon fill="none" stroke="#717071" stroke-linecap="round" stroke-linejoin="round" points="377.55,130.8 380.351,130.8 
		380.351,129.4 377.55,129.4 	"/>
	<path fill="#FFFFFF" d="M387.25,123.2c-0.7,0-1.2,0.5-1.2,1.2c0,0.699,0.5,1.199,1.2,1.199s1.2-0.5,1.2-1.199
		C388.45,123.8,387.95,123.2,387.25,123.2L387.25,123.2z M384.75,128.6V124.4c0-1.4,1.101-2.601,2.601-2.601
		c1.399,0,2.6,1.101,2.6,2.601v4.199H384.75L384.75,128.6z"/>
	<path fill="none" stroke="#717071" stroke-linecap="round" stroke-linejoin="round" d="M387.25,123.2c-0.7,0-1.2,0.5-1.2,1.2
		c0,0.699,0.5,1.199,1.2,1.199s1.2-0.5,1.2-1.199C388.45,123.8,387.95,123.2,387.25,123.2L387.25,123.2z M384.75,128.6V124.4
		c0-1.4,1.101-2.601,2.601-2.601c1.399,0,2.6,1.101,2.6,2.601v4.199H384.75L384.75,128.6z"/>
	<path fill="#FFFFFF" d="M420.65,132.5c-0.3-0.8-0.8-1.2-1.7-1.2c-0.6,0-21,0-21,0s-20.4,0-21,0c-0.9,0-1.5,0.4-1.7,1.2
		c-1.899,6.1-4,16.5-4,21.9c0,6.699,1,15.699,6.3,23.8c4.801,7.3,12.9,12.6,20.4,12.6s15.6-5.3,20.4-12.6
		c5.399-8.101,6.3-17.101,6.3-23.8C424.65,149.1,422.55,138.6,420.65,132.5L420.65,132.5z"/>
	<path fill="none" stroke="#717071" stroke-linecap="round" stroke-linejoin="round" d="M420.65,132.5c-0.3-0.8-0.8-1.2-1.7-1.2
		c-0.6,0-21,0-21,0s-20.4,0-21,0c-0.9,0-1.5,0.4-1.7,1.2c-1.899,6.1-4,16.5-4,21.9c0,6.699,1,15.699,6.3,23.8
		c4.801,7.3,12.9,12.6,20.4,12.6s15.6-5.3,20.4-12.6c5.399-8.101,6.3-17.101,6.3-23.8C424.65,149.1,422.55,138.6,420.65,132.5
		L420.65,132.5z"/>
	<polygon fill="#FFFFFF" points="411.15,128.6 411.15,130.3 397.95,130.3 384.75,130.3 384.75,128.6 382.45,128.6 382.45,131.3 
		397.95,131.3 413.45,131.3 413.45,128.6 	"/>
	<polygon fill="none" stroke="#717071" stroke-linecap="round" stroke-linejoin="round" points="411.15,128.6 411.15,130.3 
		397.95,130.3 384.75,130.3 384.75,128.6 382.45,128.6 382.45,131.3 397.95,131.3 413.45,131.3 413.45,128.6 	"/>
	<polygon fill="#FFFFFF" points="418.351,130.8 415.45,130.8 415.45,129.4 418.351,129.4 	"/>
	<polygon fill="none" stroke="#717071" stroke-linecap="round" stroke-linejoin="round" points="418.351,130.8 415.45,130.8 
		415.45,129.4 418.351,129.4 	"/>
	<polygon fill="#FFFFFF" points="397.95,128.6 384.75,128.6 384.75,130.3 397.95,130.3 411.15,130.3 411.15,128.6 	"/>
	<polygon fill="none" stroke="#717071" stroke-linecap="round" stroke-linejoin="round" points="397.95,128.6 384.75,128.6 
		384.75,130.3 397.95,130.3 411.15,130.3 411.15,128.6 	"/>
	<path fill="#FFFFFF" d="M407.351,124.4c0,0.699,0.5,1.199,1.199,1.199c0.7,0,1.2-0.5,1.2-1.199c0-0.7-0.5-1.2-1.2-1.2
		C407.95,123.2,407.351,123.8,407.351,124.4L407.351,124.4z M405.95,128.6V124.4c0-1.4,1.1-2.601,2.6-2.601
		c1.4,0,2.601,1.101,2.601,2.601v4.199H405.95L405.95,128.6z"/>
	<path fill="none" stroke="#717071" stroke-linecap="round" stroke-linejoin="round" d="M407.351,124.4
		c0,0.699,0.5,1.199,1.199,1.199c0.7,0,1.2-0.5,1.2-1.199c0-0.7-0.5-1.2-1.2-1.2C407.95,123.2,407.351,123.8,407.351,124.4
		L407.351,124.4z M405.95,128.6V124.4c0-1.4,1.1-2.601,2.6-2.601c1.4,0,2.601,1.101,2.601,2.601v4.199H405.95L405.95,128.6z"/>
	<path fill="#FFFFFF" d="M418.55,79.6h-20.6h-20.6c-2.4,0-4.301,2-4.301,4.3v26.6c0,1.2,1,2.3,2.2,2.3c0,0,9.9,0.4,10.4,0.4
		c6.7,0.3,17.5,0.3,24.6,0c0.601,0,10.4-0.4,10.4-0.4c1.2,0,2.2-1.1,2.2-2.399V83.8C422.95,81.5,420.95,79.6,418.55,79.6
		L418.55,79.6z"/>
	<path fill="none" stroke="#717071" stroke-linecap="round" stroke-linejoin="round" d="M418.55,79.6h-20.6h-20.6
		c-2.4,0-4.301,2-4.301,4.3v26.6c0,1.2,1,2.3,2.2,2.3c0,0,9.9,0.4,10.4,0.4c6.7,0.3,17.5,0.3,24.6,0c0.601,0,10.4-0.4,10.4-0.4
		c1.2,0,2.2-1.1,2.2-2.399V83.8C422.95,81.5,420.95,79.6,418.55,79.6L418.55,79.6z"/>
	<polygon fill="#FFFFFF" points="425.25,103.7 426.851,103.7 426.851,98.1 425.25,98.1 	"/>
	<polygon fill="none" stroke="#717071" stroke-linecap="round" stroke-linejoin="round" points="425.25,103.7 426.851,103.7 
		426.851,98.1 425.25,98.1 	"/>
	<polygon fill="#FFFFFF" points="422.95,103.9 425.25,103.9 425.25,98 422.95,98 	"/>
	<polygon fill="none" stroke="#717071" stroke-linecap="round" stroke-linejoin="round" points="422.95,103.9 425.25,103.9 
		425.25,98 422.95,98 	"/>
	<polygon fill="#FFFFFF" points="426.851,102 427.55,100.9 426.851,99.8 	"/>
	<polygon fill="none" stroke="#717071" stroke-linecap="round" stroke-linejoin="round" points="426.851,102 427.55,100.9 
		426.851,99.8 	"/>
	<polygon fill="#FFFFFF" points="232.25,68.5 236.45,68.5 236.45,66.7 232.25,66.7 	"/>
	<polygon fill="none" stroke="#717071" stroke-linecap="round" stroke-linejoin="round" points="232.25,68.5 236.45,68.5 
		236.45,66.7 232.25,66.7 	"/>
	<polygon fill="#FFFFFF" points="232.25,74.7 236.45,74.7 236.45,71 232.25,71 	"/>
	<polygon fill="none" stroke="#717071" stroke-linecap="round" stroke-linejoin="round" points="232.25,74.7 236.45,74.7 236.45,71 
		232.25,71 	"/>
	<polygon fill="#FFFFFF" points="232.95,66.7 235.851,66.7 235.851,64.4 232.95,64.4 	"/>
	<polygon fill="none" stroke="#717071" stroke-linecap="round" stroke-linejoin="round" points="232.95,66.7 235.851,66.7 
		235.851,64.4 232.95,64.4 	"/>
	<polygon fill="#FFFFFF" points="339.05,76.6 339.05,77.4 341.15,77.9 347.351,77.9 349.55,77.4 349.55,76.6 	"/>
	<polygon fill="none" stroke="#717071" stroke-linecap="round" stroke-linejoin="round" points="339.05,76.6 339.05,77.4 
		341.15,77.9 347.351,77.9 349.55,77.4 349.55,76.6 	"/>
	<polygon fill="#FFFFFF" points="324.05,168 323.351,168 322.75,170.1 322.75,176.3 323.351,178.4 324.05,178.4 	"/>
	<polygon fill="none" stroke="#717071" stroke-linecap="round" stroke-linejoin="round" points="324.05,168 323.351,168 
		322.75,170.1 322.75,176.3 323.351,178.4 324.05,178.4 	"/>
	<polygon fill="#EEEEEF" points="329.15,205.4 330.15,205.4 330.15,195.4 329.15,195.4 	"/>
	<polygon fill="none" stroke="#717071" stroke-linecap="round" stroke-linejoin="round" points="329.15,205.4 330.15,205.4 
		330.15,195.4 329.15,195.4 	"/>
	<polygon fill="#EEEEEF" points="330.15,212.7 331.55,212.7 331.55,192.5 330.15,192.5 	"/>
	<polygon fill="none" stroke="#717071" stroke-linecap="round" stroke-linejoin="round" points="330.15,212.7 331.55,212.7 
		331.55,192.5 330.15,192.5 	"/>
	<polygon fill="#EEEEEF" points="322.05,205.4 324.65,205.4 324.65,195.4 322.05,195.4 	"/>
	<polygon fill="none" stroke="#717071" stroke-linecap="round" stroke-linejoin="round" points="322.05,205.4 324.65,205.4 
		324.65,195.4 322.05,195.4 	"/>
	<polygon fill="#FFFFFF" points="330.05,224.1 329.15,225 329.15,221.8 330.05,222.7 	"/>
	<polygon fill="none" stroke="#717071" stroke-linecap="round" stroke-linejoin="round" points="330.05,224.1 329.15,225 
		329.15,221.8 330.05,222.7 	"/>
	<polygon fill="#FFFFFF" points="330.05,224.1 341.55,224.1 341.55,222.7 330.05,222.7 	"/>
	<polygon fill="none" stroke="#717071" stroke-linecap="round" stroke-linejoin="round" points="330.05,224.1 341.55,224.1 
		341.55,222.7 330.05,222.7 	"/>
	<polygon fill="#FFFFFF" points="341.55,225 344.25,224.8 344.25,222 341.55,221.8 	"/>
	<polygon fill="none" stroke="#717071" stroke-linecap="round" stroke-linejoin="round" points="341.55,225 344.25,224.8 
		344.25,222 341.55,221.8 	"/>
	<polygon fill="#FFFFFF" points="247.351,68.5 264.55,68.5 264.55,66.3 247.351,66.3 	"/>
	<polygon fill="none" stroke="#717071" stroke-linecap="round" stroke-linejoin="round" points="247.351,68.5 264.55,68.5 
		264.55,66.3 247.351,66.3 	"/>
	<path fill="#FFFFFF" d="M247.351,66.3l1-9.4c0.1-0.6,0.6-1,1.1-1h12.9c0.6,0,1.1,0.4,1.1,1l1,9.4H247.351L247.351,66.3z"/>
	<g>
		<g>
			<defs>
				<rect id="SVGID_1_" x="37.55" y="55.5" width="436.9" height="249"/>
			</defs>
			<clipPath id="SVGID_2_">
				<use xlink:href="#SVGID_1_"  overflow="visible"/>
			</clipPath>
			<path clip-path="url(#SVGID_2_)" fill="none" stroke="#717071" stroke-linecap="round" stroke-linejoin="round" d="M247.351,66.3
				l1-9.4c0.1-0.6,0.6-1,1.1-1h12.9c0.6,0,1.1,0.4,1.1,1l1,9.4H247.351L247.351,66.3z"/>
		</g>
	</g>
	<path fill="#FFFFFF" d="M247.65,63.9c0.1-0.6,0.5-1,1.1-1h14.4c0.6,0,1.1,0.4,1.1,1l0.3,2.4h-17.199L247.65,63.9L247.65,63.9z"/>
	<path fill="none" stroke="#717071" stroke-linecap="round" stroke-linejoin="round" d="M247.65,63.9c0.1-0.6,0.5-1,1.1-1h14.4
		c0.6,0,1.1,0.4,1.1,1l0.3,2.4h-17.199L247.65,63.9L247.65,63.9z"/>
	<polygon fill="#FFFFFF" points="359.25,68.5 355.05,68.5 355.05,66.7 359.25,66.7 	"/>
	<polygon fill="none" stroke="#717071" stroke-linecap="round" stroke-linejoin="round" points="359.25,68.5 355.05,68.5 
		355.05,66.7 359.25,66.7 	"/>
	<polygon fill="#FFFFFF" points="359.25,74.7 355.05,74.7 355.05,71 359.25,71 	"/>
	<polygon fill="none" stroke="#717071" stroke-linecap="round" stroke-linejoin="round" points="359.25,74.7 355.05,74.7 355.05,71 
		359.25,71 	"/>
	<path fill="#FFFFFF" d="M361.351,76.6c0,1.4-1.301,2.4-2.801,2.4h-2.899c-1.4,0-2.8-1-2.8-2.4H361.351L361.351,76.6z"/>
	<path fill="none" stroke="#717071" stroke-linecap="round" stroke-linejoin="round" d="M361.351,76.6c0,1.4-1.301,2.4-2.801,2.4
		h-2.899c-1.4,0-2.8-1-2.8-2.4H361.351L361.351,76.6z"/>
	<polygon fill="#FFFFFF" points="358.55,85.2 355.65,85.2 355.65,79.1 358.55,79.1 	"/>
	<polygon fill="none" stroke="#717071" stroke-linecap="round" stroke-linejoin="round" points="358.55,85.2 355.65,85.2 
		355.65,79.1 358.55,79.1 	"/>
	<path fill="#FFFFFF" d="M359.05,91.8h-3.899v-6.3c0-0.2,0.2-0.4,0.399-0.4h3.101c0.2,0,0.399,0.2,0.399,0.4V91.8L359.05,91.8z"/>
	<path fill="none" stroke="#717071" stroke-linecap="round" stroke-linejoin="round" d="M359.05,91.8h-3.899v-6.3
		c0-0.2,0.2-0.4,0.399-0.4h3.101c0.2,0,0.399,0.2,0.399,0.4V91.8L359.05,91.8z"/>
	<polygon fill="#FFFFFF" points="358.55,66.7 355.65,66.7 355.65,64.4 358.55,64.4 	"/>
	<polygon fill="none" stroke="#717071" stroke-linecap="round" stroke-linejoin="round" points="358.55,66.7 355.65,66.7 
		355.65,64.4 358.55,64.4 	"/>
	<path fill="#FFFFFF" d="M358.95,81.8c0,1-0.8,1.9-1.9,1.9c-1,0-1.899-0.8-1.899-1.9c0-1,0.8-1.9,1.899-1.9
		C358.15,80,358.95,80.8,358.95,81.8L358.95,81.8z"/>
	<path fill="none" stroke="#717071" stroke-linecap="round" stroke-linejoin="round" d="M358.95,81.8c0,1-0.8,1.9-1.9,1.9
		c-1,0-1.899-0.8-1.899-1.9c0-1,0.8-1.9,1.899-1.9C358.15,80,358.95,80.8,358.95,81.8L358.95,81.8z"/>
	<polygon fill="#FFFFFF" points="357.15,91.8 357.05,91.8 355.25,91.8 355.25,92.8 356.25,93.6 358.05,93.6 359.05,92.8 
		359.05,91.8 	"/>
	<polygon fill="none" stroke="#717071" stroke-linecap="round" stroke-linejoin="round" points="357.15,91.8 357.05,91.8 
		355.25,91.8 355.25,92.8 356.25,93.6 358.05,93.6 359.05,92.8 359.05,91.8 	"/>
	<polygon fill="#FFFFFF" points="356.25,94.2 358.05,94.2 358.05,93.6 356.25,93.6 	"/>
	<polygon fill="none" stroke="#717071" stroke-linecap="round" stroke-linejoin="round" points="356.25,94.2 358.05,94.2 
		358.05,93.6 356.25,93.6 	"/>
	<polygon fill="#FFFFFF" points="372.95,89.4 359.05,89.4 359.05,87.1 372.95,87.1 	"/>
	<polygon fill="none" stroke="#717071" stroke-linecap="round" stroke-linejoin="round" points="372.95,89.4 359.05,89.4 
		359.05,87.1 372.95,87.1 	"/>
	<polygon fill="#FFFFFF" points="269.65,68.5 265.05,68.5 265.05,62.4 269.65,62.4 	"/>
	<polygon fill="none" stroke="#717071" stroke-linecap="round" stroke-linejoin="round" points="269.65,68.5 265.05,68.5 
		265.05,62.4 269.65,62.4 	"/>
	<polygon fill="#FFFFFF" points="324.05,127.9 210.65,127.9 210.65,76.6 324.05,76.6 	"/>
	<polygon fill="none" stroke="#717071" stroke-linecap="round" stroke-linejoin="round" points="324.05,127.9 210.65,127.9 
		210.65,76.6 324.05,76.6 	"/>
	<path fill="#FFFFFF" d="M287.25,85.6c0,0.9-0.8,1.7-1.7,1.7c-0.899,0-1.699-0.8-1.699-1.7s0.8-1.7,1.699-1.7
		C286.45,83.9,287.25,84.7,287.25,85.6L287.25,85.6z"/>
	<path fill="none" stroke="#717071" stroke-linecap="round" stroke-linejoin="round" d="M287.25,85.6c0,0.9-0.8,1.7-1.7,1.7
		c-0.899,0-1.699-0.8-1.699-1.7s0.8-1.7,1.699-1.7C286.45,83.9,287.25,84.7,287.25,85.6L287.25,85.6z"/>
	<path fill="#FFFFFF" d="M300.15,123.4c0,18.1-14.7,32.8-32.8,32.8c-18.101,0-32.801-14.7-32.801-32.8
		c0-18.101,14.7-32.8,32.801-32.8C285.45,90.6,300.15,105.3,300.15,123.4L300.15,123.4z"/>
	<path fill="none" stroke="#717071" stroke-linecap="round" stroke-linejoin="round" d="M300.15,123.4c0,18.1-14.7,32.8-32.8,32.8
		c-18.101,0-32.801-14.7-32.801-32.8c0-18.101,14.7-32.8,32.801-32.8C285.45,90.6,300.15,105.3,300.15,123.4L300.15,123.4z
		 M298.851,123.4c0,17.399-14.101,31.5-31.5,31.5c-17.4,0-31.5-14.101-31.5-31.5c0-17.4,14.1-31.5,31.5-31.5
		C284.75,91.9,298.851,106,298.851,123.4L298.851,123.4z M295.851,123.4c0,15.699-12.7,28.5-28.5,28.5c-15.7,0-28.5-12.7-28.5-28.5
		c0-15.7,12.699-28.5,28.5-28.5C283.05,94.9,295.851,107.7,295.851,123.4L295.851,123.4z M272.05,108.3c0,2.601-2.1,4.7-4.699,4.7
		c-2.601,0-4.7-2.1-4.7-4.7c0-2.6,2.1-4.7,4.7-4.7C269.95,103.6,272.05,105.7,272.05,108.3L272.05,108.3z M270.25,108.3
		c0,1.601-1.3,2.9-2.899,2.9c-1.601,0-2.9-1.3-2.9-2.9c0-1.6,1.3-2.899,2.9-2.899C268.95,105.4,270.25,106.7,270.25,108.3
		L270.25,108.3z"/>
	<path fill="#FFFFFF" d="M268.851,86.3c0-0.7-0.7-1.3-1.5-1.3c-0.801,0-1.5,0.6-1.5,1.3V94.9c0,0.699,0.699,1.3,1.5,1.3
		c0.8,0,1.5-0.601,1.5-1.3V86.3L268.851,86.3z"/>
	<path fill="none" stroke="#717071" stroke-linecap="round" stroke-linejoin="round" d="M268.851,86.3c0-0.7-0.7-1.3-1.5-1.3
		c-0.801,0-1.5,0.6-1.5,1.3V94.9c0,0.699,0.699,1.3,1.5,1.3c0.8,0,1.5-0.601,1.5-1.3V86.3L268.851,86.3z M268.851,92.8
		c0,0.5-0.7,1-1.5,1c-0.801,0-1.5-0.399-1.5-1"/>
	<path fill="#FFFFFF" d="M269.75,85.7c0,1.3-1.1,2.4-2.399,2.4c-1.301,0-2.4-1.1-2.4-2.4c0-1.3,1.1-2.4,2.4-2.4
		C268.65,83.2,269.75,84.3,269.75,85.7L269.75,85.7z"/>
	<path fill="none" stroke="#717071" stroke-linecap="round" stroke-linejoin="round" d="M269.75,85.7c0,1.3-1.1,2.4-2.399,2.4
		c-1.301,0-2.4-1.1-2.4-2.4c0-1.3,1.1-2.4,2.4-2.4C268.65,83.2,269.75,84.3,269.75,85.7L269.75,85.7z"/>
	<path fill="#FFFFFF" d="M465.55,131.4c0,0-3.199,0.1-9,0.399c-1.899,0.101-3.399,0.3-5.199,0.601
		c-2.301,0.399-5.801,0.899-5.801,0.899v12.9c0,0,3.5,0.6,5.801,0.899c1.8,0.301,3.3,0.5,5.199,0.601c5.7,0.3,9,0.399,9,0.399V131.4
		L465.55,131.4z"/>
	<path fill="none" stroke="#717071" stroke-linecap="round" stroke-linejoin="round" d="M465.55,131.4c0,0-3.199,0.1-9,0.399
		c-1.899,0.101-3.399,0.3-5.199,0.601c-2.301,0.399-5.801,0.899-5.801,0.899v12.9c0,0,3.5,0.6,5.801,0.899
		c1.8,0.301,3.3,0.5,5.199,0.601c5.7,0.3,9,0.399,9,0.399V131.4L465.55,131.4z M464.55,147.1c0,0-4.1-0.199-7.899-0.399
		c-1.8-0.101-3.4-0.3-5.101-0.5l-4.899-0.8V134.3l4.899-0.8c1.7-0.3,3.301-0.4,5.101-0.5c3.8-0.2,7.899-0.4,7.899-0.4V147.1
		L464.55,147.1z M464.55,133.8c0,0-6.3,0.3-7.8,0.4c-1.8,0.1-3.3,0.3-5,0.5l-3.8,0.6v8.8l3.8,0.601c1.7,0.3,3.2,0.399,5,0.5
		c1.5,0.1,7.8,0.399,7.8,0.399 M446.65,134.2l1.399,1.2 M446.65,145.3l1.399-1.2"/>
	<path fill="#FFFFFF" d="M168.35,86.4c0,0.4-0.3,0.7-0.699,0.7H60.35c-0.399,0-0.699-0.3-0.699-0.7v-9c0-0.4,0.3-0.7,0.699-0.7
		H167.65c0.399,0,0.699,0.3,0.699,0.7V86.4L168.35,86.4z"/>
	<path fill="none" stroke="#717071" stroke-linecap="round" stroke-linejoin="round" d="M168.35,86.4c0,0.4-0.3,0.7-0.699,0.7H60.35
		c-0.399,0-0.699-0.3-0.699-0.7v-9c0-0.4,0.3-0.7,0.699-0.7H167.65c0.399,0,0.699,0.3,0.699,0.7V86.4L168.35,86.4z M164.55,81.9
		c0,0.4-0.3,0.7-0.7,0.7c-0.399,0-0.699-0.3-0.699-0.7v-3.1c0-0.4,0.3-0.7,0.699-0.7c0.4,0,0.7,0.3,0.7,0.7V81.9L164.55,81.9z
		 M157.05,81.9c0,0.4-0.3,0.7-0.7,0.7c-0.399,0-0.699-0.3-0.699-0.7v-3.1c0-0.4,0.3-0.7,0.699-0.7c0.4,0,0.7,0.3,0.7,0.7V81.9
		L157.05,81.9z M149.45,81.9c0,0.4-0.3,0.7-0.7,0.7s-0.7-0.3-0.7-0.7v-3.1c0-0.4,0.3-0.7,0.7-0.7s0.7,0.3,0.7,0.7V81.9L149.45,81.9z
		 M141.85,81.9c0,0.4-0.3,0.7-0.699,0.7c-0.4,0-0.7-0.3-0.7-0.7v-3.1c0-0.4,0.3-0.7,0.7-0.7c0.399,0,0.699,0.3,0.699,0.7V81.9
		L141.85,81.9z M134.35,81.9c0,0.4-0.3,0.7-0.699,0.7c-0.4,0-0.7-0.3-0.7-0.7v-3.1c0-0.4,0.3-0.7,0.7-0.7
		c0.399,0,0.699,0.3,0.699,0.7V81.9L134.35,81.9z M126.75,81.9c0,0.4-0.3,0.7-0.7,0.7c-0.399,0-0.7-0.3-0.7-0.7v-3.1
		c0-0.4,0.301-0.7,0.7-0.7c0.4,0,0.7,0.3,0.7,0.7V81.9L126.75,81.9z M119.15,81.9c0,0.4-0.301,0.7-0.7,0.7c-0.4,0-0.7-0.3-0.7-0.7
		v-3.1c0-0.4,0.3-0.7,0.7-0.7c0.399,0,0.7,0.3,0.7,0.7V81.9L119.15,81.9z M63.35,81.9c0,0.4,0.301,0.7,0.7,0.7
		c0.4,0,0.7-0.3,0.7-0.7v-3.1c0-0.4-0.3-0.7-0.7-0.7c-0.399,0-0.7,0.3-0.7,0.7V81.9L63.35,81.9z M70.95,81.9c0,0.4,0.3,0.7,0.7,0.7
		c0.399,0,0.699-0.3,0.699-0.7v-3.1c0-0.4-0.3-0.7-0.699-0.7c-0.4,0-0.7,0.3-0.7,0.7V81.9L70.95,81.9z M78.45,81.9
		c0,0.4,0.3,0.7,0.7,0.7c0.399,0,0.699-0.3,0.699-0.7v-3.1c0-0.4-0.3-0.7-0.699-0.7c-0.4,0-0.7,0.3-0.7,0.7V81.9L78.45,81.9z
		 M86.05,81.9c0,0.4,0.3,0.7,0.7,0.7s0.7-0.3,0.7-0.7v-3.1c0-0.4-0.3-0.7-0.7-0.7s-0.7,0.3-0.7,0.7V81.9L86.05,81.9z M93.65,81.9
		c0,0.4,0.3,0.7,0.699,0.7c0.4,0,0.7-0.3,0.7-0.7v-3.1c0-0.4-0.3-0.7-0.7-0.7c-0.399,0-0.699,0.3-0.699,0.7V81.9L93.65,81.9z
		 M101.15,81.9c0,0.4,0.3,0.7,0.699,0.7c0.4,0,0.7-0.3,0.7-0.7v-3.1c0-0.4-0.3-0.7-0.7-0.7c-0.399,0-0.699,0.3-0.699,0.7V81.9
		L101.15,81.9z M108.75,81.9c0,0.4,0.3,0.7,0.7,0.7c0.399,0,0.7-0.3,0.7-0.7v-3.1c0-0.4-0.301-0.7-0.7-0.7c-0.4,0-0.7,0.3-0.7,0.7
		V81.9L108.75,81.9z"/>
	<polygon fill="#FFFFFF" points="116.05,68.5 111.85,68.5 111.85,66.7 116.05,66.7 	"/>
	<polygon fill="none" stroke="#717071" stroke-linecap="round" stroke-linejoin="round" points="116.05,68.5 111.85,68.5 
		111.85,66.7 116.05,66.7 	"/>
	<polygon fill="#FFFFFF" points="116.05,74.7 111.85,74.7 111.85,71 116.05,71 	"/>
	<polygon fill="none" stroke="#717071" stroke-linecap="round" stroke-linejoin="round" points="116.05,74.7 111.85,74.7 111.85,71 
		116.05,71 	"/>
	<polygon fill="#FFFFFF" points="115.45,66.7 112.55,66.7 112.55,64.4 115.45,64.4 	"/>
	<polygon fill="none" stroke="#717071" stroke-linecap="round" stroke-linejoin="round" points="115.45,66.7 112.55,66.7 
		112.55,64.4 115.45,64.4 	"/>
	<path fill="#FFFFFF" d="M125.85,93.8H113.95h-11.9l-11.7,7c0.2,2.101,0.601,2.9,1.101,4c3.5,7.9,9.7,16.8,17.1,23.9
		c1.601,1.5,3.4,2.3,5.5,2.3c2.101,0,3.8-0.7,5.5-2.3c7.4-7.101,13.601-15.9,17.101-23.9c0.5-1.1,0.899-1.899,1.1-4L125.85,93.8
		L125.85,93.8z"/>
	<path fill="none" stroke="#717071" stroke-linecap="round" stroke-linejoin="round" d="M125.85,93.8H113.95h-11.9l-11.7,7
		c0.2,2.101,0.601,2.9,1.101,4c3.5,7.9,9.7,16.8,17.1,23.9c1.601,1.5,3.4,2.3,5.5,2.3c2.101,0,3.8-0.7,5.5-2.3
		c7.4-7.101,13.601-15.9,17.101-23.9c0.5-1.1,0.899-1.899,1.1-4L125.85,93.8L125.85,93.8z M113.95,129c-1.601,0-2.9-0.6-4.2-1.8
		c-2.4-2.3-4.8-4.9-7-7.601c-4-5-7-11.3-9-16.699"/>
	<path fill="#FFFFFF" d="M113.95,76.6H88.35c0,5.9,0.5,14.1,1.2,18.8c0.3,2.399,0.601,4,1,6.8c0.2,1.5,1.101,1.8,1.7,1.8
		c0.3,0,0.6-0.1,0.9-0.4c2.6-2.6,5.6-5,11.1-5.5c2.4-0.199,5.8-0.399,9.8-0.399s7.3,0.2,9.8,0.399c5.5,0.5,8.5,2.9,11.101,5.5
		c0.3,0.301,0.5,0.4,0.899,0.4c0.601,0,1.5-0.3,1.7-1.8c0.4-2.8,0.601-4.4,1-6.8c0.7-4.8,1.2-13,1.2-18.8H113.95L113.95,76.6z"/>
	<path fill="none" stroke="#717071" stroke-linecap="round" stroke-linejoin="round" d="M113.95,76.6H88.35c0,5.9,0.5,14.1,1.2,18.8
		c0.3,2.399,0.601,4,1,6.8c0.2,1.5,1.101,1.8,1.7,1.8c0.3,0,0.6-0.1,0.9-0.4c2.6-2.6,5.6-5,11.1-5.5c2.4-0.199,5.8-0.399,9.8-0.399
		s7.3,0.2,9.8,0.399c5.5,0.5,8.5,2.9,11.101,5.5c0.3,0.301,0.5,0.4,0.899,0.4c0.601,0,1.5-0.3,1.7-1.8c0.4-2.8,0.601-4.4,1-6.8
		c0.7-4.8,1.2-13,1.2-18.8H113.95L113.95,76.6z M99.85,99.2c0.801,8.5,3.5,14.5,7.301,19.6c1.699,2.3,4.199,5.3,6.8,7 M113.95,129
		c1.6,0,2.899-0.6,4.2-1.8c2.399-2.3,4.8-4.9,7-7.601c4-5,7-11.3,9-16.699 M128.05,99.2c-0.8,8.5-3.5,14.5-7.3,19.6
		c-1.7,2.3-4.2,5.3-6.8,7"/>
	<path fill="#FFFFFF" d="M121.95,104.8c-1-2.399-1.9-4.5-2-4.8c-0.5-1.2-1-1.5-2-1.5c-0.601,0-4,0-4,0s-3.5,0-4,0
		c-1,0-1.5,0.4-2,1.5c-0.101,0.2-1,2.3-2,4.8c-0.5,1.101-0.7,2.2-0.7,3.5c0,4.8,3.9,8.7,8.7,8.7s8.7-3.9,8.7-8.7
		C122.65,107,122.45,106,121.95,104.8L121.95,104.8z"/>
	<path fill="none" stroke="#717071" stroke-linecap="round" stroke-linejoin="round" d="M121.95,104.8c-1-2.399-1.9-4.5-2-4.8
		c-0.5-1.2-1-1.5-2-1.5c-0.601,0-4,0-4,0s-3.5,0-4,0c-1,0-1.5,0.4-2,1.5c-0.101,0.2-1,2.3-2,4.8c-0.5,1.101-0.7,2.2-0.7,3.5
		c0,4.8,3.9,8.7,8.7,8.7s8.7-3.9,8.7-8.7C122.65,107,122.45,106,121.95,104.8L121.95,104.8z"/>
	<path fill="#FFFFFF" d="M119.95,108.3c0,3.3-2.7,6-6,6s-6-2.7-6-6s2.7-6,6-6C117.35,102.3,119.95,105,119.95,108.3L119.95,108.3z"
		/>
	<path fill="none" stroke="#717071" stroke-linecap="round" stroke-linejoin="round" d="M119.95,108.3c0,3.3-2.7,6-6,6s-6-2.7-6-6
		s2.7-6,6-6C117.35,102.3,119.95,105,119.95,108.3L119.95,108.3z M115.05,105.5c-0.2,1.4-0.5,2.9,0.4,5.9 M112.95,105.5
		c0.2,1.4,0.5,2.9-0.4,5.9"/>
	<polygon fill="#FFFFFF" points="110.35,98.8 117.55,98.8 117.55,96.1 110.35,96.1 	"/>
	<polygon fill="none" stroke="#717071" stroke-linecap="round" stroke-linejoin="round" points="110.35,98.8 117.55,98.8 
		117.55,96.1 110.35,96.1 	"/>
	<polygon fill="#FFFFFF" points="110.35,95.2 117.55,95.2 117.55,80.6 110.35,80.6 	"/>
	<polygon fill="none" stroke="#717071" stroke-linecap="round" stroke-linejoin="round" points="110.35,95.2 117.55,95.2 
		117.55,80.6 110.35,80.6 	"/>
	<polygon fill="#FFFFFF" points="110.35,79.7 117.55,79.7 117.55,76.6 110.35,76.6 	"/>
	<polygon fill="none" stroke="#717071" stroke-linecap="round" stroke-linejoin="round" points="110.35,79.7 117.55,79.7 
		117.55,76.6 110.35,76.6 	"/>
	<path fill="#FFFFFF" d="M117.55,98.8h-7.2c0.801,0.5,2.101,0.9,3.601,0.9S116.85,99.3,117.55,98.8L117.55,98.8z"/>
	<path fill="none" stroke="#717071" stroke-linecap="round" stroke-linejoin="round" d="M117.55,98.8h-7.2
		c0.801,0.5,2.101,0.9,3.601,0.9S116.85,99.3,117.55,98.8L117.55,98.8z"/>
	<polygon fill="#FFFFFF" points="113.25,96.1 111.65,96.1 111.65,95.2 113.25,95.2 	"/>
	<polygon fill="none" stroke="#717071" stroke-linecap="round" stroke-linejoin="round" points="113.25,96.1 111.65,96.1 
		111.65,95.2 113.25,95.2 	"/>
	<polygon fill="#FFFFFF" points="114.65,96.1 116.35,96.1 116.35,95.2 114.65,95.2 	"/>
	<polygon fill="none" stroke="#717071" stroke-linecap="round" stroke-linejoin="round" points="114.65,96.1 116.35,96.1 
		116.35,95.2 114.65,95.2 	"/>
	<polygon fill="#FFFFFF" points="115.95,80.6 111.95,80.6 111.95,79.7 115.95,79.7 	"/>
	<path fill="none" stroke="#717071" stroke-linecap="round" stroke-linejoin="round" d="M115.95,80.6h-4v-0.9h4V80.6L115.95,80.6z
		 M116.15,87.9c0,1.2-1,2.2-2.2,2.2s-2.2-1-2.2-2.2c0-1.2,1-2.2,2.2-2.2S116.15,86.7,116.15,87.9L116.15,87.9z M115.45,83
		c0,0.8-0.7,1.5-1.5,1.5s-1.5-0.7-1.5-1.5s0.7-1.5,1.5-1.5S115.45,82.2,115.45,83L115.45,83z"/>
	<polygon fill="#DBDCDC" points="190.35,191.8 179.75,191.8 179.75,283.2 190.35,283.2 	"/>
	<polygon fill="none" stroke="#717071" stroke-linecap="round" stroke-linejoin="round" points="190.35,191.8 179.75,191.8 
		179.75,283.2 190.35,283.2 	"/>
	<polygon fill="#DBDCDC" points="324.351,293.2 187.55,293.2 187.55,283.8 324.351,283.8 	"/>
	<polygon fill="none" stroke="#717071" stroke-linecap="round" stroke-linejoin="round" points="324.351,293.2 187.55,293.2 
		187.55,283.8 324.351,283.8 	"/>
	<polygon fill="#888888" points="329.65,76.6 324.05,76.6 324.05,191.2 329.65,191.2 	"/>
	<polygon fill="none" stroke="#717071" stroke-linecap="round" stroke-linejoin="round" points="329.65,76.6 324.05,76.6 
		324.05,191.2 329.65,191.2 	"/>
	<polygon fill="#717071" points="474.05,295.9 468.75,295.9 468.75,290.6 474.05,290.6 	"/>
	<g>
		<g>
			<defs>
				<rect id="SVGID_3_" x="37.55" y="55.5" width="436.9" height="249"/>
			</defs>
			<clipPath id="SVGID_4_">
				<use xlink:href="#SVGID_3_"  overflow="visible"/>
			</clipPath>
			<polygon clip-path="url(#SVGID_4_)" fill="none" stroke="#717071" stroke-linecap="round" stroke-linejoin="round" points="
				474.05,295.9 468.75,295.9 468.75,290.6 474.05,290.6 			"/>
		</g>
	</g>
	<polygon fill="#717071" points="473.65,293.1 471.15,293.1 471.15,71 473.65,71 	"/>
	<g>
		<g>
			<defs>
				<rect id="SVGID_5_" x="37.55" y="55.5" width="436.9" height="249"/>
			</defs>
			<clipPath id="SVGID_6_">
				<use xlink:href="#SVGID_5_"  overflow="visible"/>
			</clipPath>
			<polygon clip-path="url(#SVGID_6_)" fill="none" stroke="#717071" stroke-linecap="round" stroke-linejoin="round" points="
				473.65,293.1 471.15,293.1 471.15,71 473.65,71 			"/>
		</g>
	</g>
	<polygon fill="#717071" points="467.45,287.4 465.55,287.4 465.55,76.6 467.45,76.6 	"/>
	<polygon fill="none" stroke="#717071" stroke-linecap="round" stroke-linejoin="round" points="467.45,287.4 465.55,287.4 
		465.55,76.6 467.45,76.6 	"/>
	<polygon fill="#717071" points="471.15,293.1 467.45,293.1 467.45,71 471.15,71 	"/>
	<polygon fill="none" stroke="#717071" stroke-linecap="round" stroke-linejoin="round" points="471.15,293.1 467.45,293.1 
		467.45,71 471.15,71 	"/>
	<polygon fill="#717071" points="471.15,293.1 471.15,295.5 324.65,295.5 324.65,293.1 	"/>
	<polygon fill="none" stroke="#717071" stroke-linecap="round" stroke-linejoin="round" points="471.15,293.1 471.15,295.5 
		324.65,295.5 324.65,293.1 	"/>
	<polygon fill="#717071" points="471.15,289.3 471.15,293.1 324.65,293.1 324.65,289.3 	"/>
	<polygon fill="none" stroke="#717071" stroke-linecap="round" stroke-linejoin="round" points="471.15,289.3 471.15,293.1 
		324.65,293.1 324.65,289.3 	"/>
	<polygon fill="#717071" points="467.45,287.4 467.45,289.3 324.65,289.3 324.65,287.4 	"/>
	<polygon fill="none" stroke="#717071" stroke-linecap="round" stroke-linejoin="round" points="467.45,287.4 467.45,289.3 
		324.65,289.3 324.65,287.4 	"/>
	<polygon fill="#717071" points="471.15,293.1 466.55,293.1 466.55,283.9 471.15,283.9 	"/>
	<polygon fill="none" stroke="#717071" stroke-linecap="round" stroke-linejoin="round" points="471.15,293.1 466.55,293.1 
		466.55,283.9 471.15,283.9 	"/>
	<g>
		<g>
			<defs>
				<rect id="SVGID_7_" x="37.55" y="55.5" width="436.9" height="249"/>
			</defs>
			<clipPath id="SVGID_8_">
				<use xlink:href="#SVGID_7_"  overflow="visible"/>
			</clipPath>
			<polygon clip-path="url(#SVGID_8_)" fill="#717071" points="37.85,295.9 43.15,295.9 43.15,290.6 37.85,290.6 			"/>
		</g>
		<g>
			<defs>
				<rect id="SVGID_9_" x="37.55" y="55.5" width="436.9" height="249"/>
			</defs>
			<clipPath id="SVGID_10_">
				<use xlink:href="#SVGID_9_"  overflow="visible"/>
			</clipPath>
			<polygon clip-path="url(#SVGID_10_)" fill="none" stroke="#717071" stroke-linecap="round" stroke-linejoin="round" points="
				37.85,295.9 43.15,295.9 43.15,290.6 37.85,290.6 			"/>
		</g>
		<g>
			<defs>
				<rect id="SVGID_11_" x="37.55" y="55.5" width="436.9" height="249"/>
			</defs>
			<clipPath id="SVGID_12_">
				<use xlink:href="#SVGID_11_"  overflow="visible"/>
			</clipPath>
			<polygon clip-path="url(#SVGID_12_)" fill="#717071" points="38.25,293.1 40.75,293.1 40.75,71 38.25,71 			"/>
		</g>
		<g>
			<defs>
				<rect id="SVGID_13_" x="37.55" y="55.5" width="436.9" height="249"/>
			</defs>
			<clipPath id="SVGID_14_">
				<use xlink:href="#SVGID_13_"  overflow="visible"/>
			</clipPath>
			<polygon clip-path="url(#SVGID_14_)" fill="none" stroke="#717071" stroke-linecap="round" stroke-linejoin="round" points="
				38.25,293.1 40.75,293.1 40.75,71 38.25,71 			"/>
		</g>
	</g>
	<polygon fill="#717071" points="44.45,287.4 46.35,287.4 46.35,76.6 44.45,76.6 	"/>
	<polygon fill="none" stroke="#717071" stroke-linecap="round" stroke-linejoin="round" points="44.45,287.4 46.35,287.4 
		46.35,76.6 44.45,76.6 	"/>
	<polygon fill="#717071" points="40.75,293.1 44.45,293.1 44.45,71 40.75,71 	"/>
	<polygon fill="none" stroke="#717071" stroke-linecap="round" stroke-linejoin="round" points="40.75,293.1 44.45,293.1 44.45,71 
		40.75,71 	"/>
	<polygon fill="#717071" points="40.75,287.4 40.75,295.5 46.35,295.5 46.35,287.4 	"/>
	<polygon fill="none" stroke="#717071" stroke-linecap="round" stroke-linejoin="round" points="40.75,287.4 40.75,295.5 
		46.35,295.5 46.35,287.4 	"/>
	<polygon fill="#717071" points="40.75,293.1 45.35,293.1 45.35,283.9 40.75,283.9 	"/>
	<polygon fill="none" stroke="#717071" stroke-linecap="round" stroke-linejoin="round" points="40.75,293.1 45.35,293.1 
		45.35,283.9 40.75,283.9 	"/>
	<polygon fill="#717071" points="324.351,295.9 332.75,295.9 332.75,287.4 324.351,287.4 	"/>
	<polygon fill="none" stroke="#717071" stroke-linecap="round" stroke-linejoin="round" points="324.351,295.9 332.75,295.9 
		332.75,287.4 324.351,287.4 	"/>
	<polygon fill="#717071" points="324.65,293.1 329.05,293.1 329.05,283.9 324.65,283.9 	"/>
	<polygon fill="none" stroke="#717071" stroke-linecap="round" stroke-linejoin="round" points="324.65,293.1 329.05,293.1 
		329.05,283.9 324.65,283.9 	"/>
	<polygon fill="#717071" points="40.75,293.1 40.75,295.5 187.25,295.5 187.25,293.1 	"/>
	<polygon fill="none" stroke="#717071" stroke-linecap="round" stroke-linejoin="round" points="40.75,293.1 40.75,295.5 
		187.25,295.5 187.25,293.1 	"/>
	<polygon fill="#717071" points="40.75,289.3 40.75,293.1 187.25,293.1 187.25,289.3 	"/>
	<polygon fill="none" stroke="#717071" stroke-linecap="round" stroke-linejoin="round" points="40.75,289.3 40.75,293.1 
		187.25,293.1 187.25,289.3 	"/>
	<polygon fill="#717071" points="44.45,287.4 44.45,289.3 187.25,289.3 187.25,287.4 	"/>
	<polygon fill="none" stroke="#717071" stroke-linecap="round" stroke-linejoin="round" points="44.45,287.4 44.45,289.3 
		187.25,289.3 187.25,287.4 	"/>
	<polygon fill="#717071" points="187.55,295.9 179.15,295.9 179.15,287.4 187.55,287.4 	"/>
	<polygon fill="none" stroke="#717071" stroke-linecap="round" stroke-linejoin="round" points="187.55,295.9 179.15,295.9 
		179.15,287.4 187.55,287.4 	"/>
	<polygon fill="#717071" points="187.25,293.1 182.85,293.1 182.85,283.9 187.25,283.9 	"/>
	<polygon fill="none" stroke="#717071" stroke-linecap="round" stroke-linejoin="round" points="187.25,293.1 182.85,293.1 
		182.85,283.9 187.25,283.9 	"/>
	<g>
		<g>
			<defs>
				<rect id="SVGID_15_" x="37.55" y="55.5" width="436.9" height="249"/>
			</defs>
			<clipPath id="SVGID_16_">
				<use xlink:href="#SVGID_15_"  overflow="visible"/>
			</clipPath>
			<polygon clip-path="url(#SVGID_16_)" fill="#717071" points="474.05,68.2 468.75,68.2 468.75,73.4 474.05,73.4 			"/>
		</g>
		<g>
			<defs>
				<rect id="SVGID_17_" x="37.55" y="55.5" width="436.9" height="249"/>
			</defs>
			<clipPath id="SVGID_18_">
				<use xlink:href="#SVGID_17_"  overflow="visible"/>
			</clipPath>
			<polygon clip-path="url(#SVGID_18_)" fill="none" stroke="#717071" stroke-linecap="round" stroke-linejoin="round" points="
				474.05,68.2 468.75,68.2 468.75,73.4 474.05,73.4 			"/>
		</g>
	</g>
	<polygon fill="#717071" points="471.15,71 466.55,71 466.55,80.2 471.15,80.2 	"/>
	<polygon fill="none" stroke="#717071" stroke-linecap="round" stroke-linejoin="round" points="471.15,71 466.55,71 466.55,80.2 
		471.15,80.2 	"/>
	<polygon fill="#717071" points="324.65,71 329.05,71 329.05,80.2 324.65,80.2 	"/>
	<polygon fill="none" stroke="#717071" stroke-linecap="round" stroke-linejoin="round" points="324.65,71 329.05,71 329.05,80.2 
		324.65,80.2 	"/>
	<polygon fill="#888888" points="187.85,76.6 182.25,76.6 182.25,191.2 187.85,191.2 	"/>
	<polygon fill="none" stroke="#717071" stroke-linecap="round" stroke-linejoin="round" points="187.85,76.6 182.25,76.6 
		182.25,191.2 187.85,191.2 	"/>
	<polygon fill="#717071" points="182.85,71 187.25,71 187.25,80.2 182.85,80.2 	"/>
	<polygon fill="none" stroke="#717071" stroke-linecap="round" stroke-linejoin="round" points="182.85,71 187.25,71 187.25,80.2 
		182.85,80.2 	"/>
	<polygon fill="#717071" points="471.15,71 471.15,68.5 40.75,68.5 40.75,71 	"/>
	<polygon fill="none" stroke="#717071" stroke-linecap="round" stroke-linejoin="round" points="471.15,71 471.15,68.5 40.75,68.5 
		40.75,71 	"/>
	<polygon fill="#717071" points="471.15,74.7 471.15,71 40.75,71 40.75,74.7 	"/>
	<polygon fill="none" stroke="#717071" stroke-linecap="round" stroke-linejoin="round" points="471.15,74.7 471.15,71 40.75,71 
		40.75,74.7 	"/>
	<polygon fill="#717071" points="467.45,76.6 467.45,74.7 44.45,74.7 44.45,76.6 	"/>
	<polygon fill="none" stroke="#717071" stroke-linecap="round" stroke-linejoin="round" points="467.45,76.6 467.45,74.7 
		44.45,74.7 44.45,76.6 	"/>
	<g>
		<g>
			<defs>
				<rect id="SVGID_19_" x="37.55" y="55.5" width="436.9" height="249"/>
			</defs>
			<clipPath id="SVGID_20_">
				<use xlink:href="#SVGID_19_"  overflow="visible"/>
			</clipPath>
			<polygon clip-path="url(#SVGID_20_)" fill="#717071" points="37.85,68.2 43.15,68.2 43.15,73.4 37.85,73.4 			"/>
		</g>
		<g>
			<defs>
				<rect id="SVGID_21_" x="37.55" y="55.5" width="436.9" height="249"/>
			</defs>
			<clipPath id="SVGID_22_">
				<use xlink:href="#SVGID_21_"  overflow="visible"/>
			</clipPath>
			<polygon clip-path="url(#SVGID_22_)" fill="none" stroke="#717071" stroke-linecap="round" stroke-linejoin="round" points="
				37.85,68.2 43.15,68.2 43.15,73.4 37.85,73.4 			"/>
		</g>
	</g>
	<polygon fill="#717071" points="40.75,71 45.35,71 45.35,80.2 40.75,80.2 	"/>
	<polygon fill="none" stroke="#717071" stroke-linecap="round" stroke-linejoin="round" points="40.75,71 45.35,71 45.35,80.2 
		40.75,80.2 	"/>
</g>
</svg>
