<?xml version="1.0" encoding="utf-8"?>
<!-- Generator: Adobe Illustrator 15.0.0, SVG Export Plug-In . SVG Version: 6.00 Build 0)  -->
<!DOCTYPE svg PUBLIC "-//W3C//DTD SVG 1.1//EN" "http://www.w3.org/Graphics/SVG/1.1/DTD/svg11.dtd">
<svg version="1.1" id="レイヤー_1" xmlns="http://www.w3.org/2000/svg" xmlns:xlink="http://www.w3.org/1999/xlink" x="0px"
	 y="0px" width="512px" height="360px" viewBox="0 0 512 360" enable-background="new 0 0 512 360" xml:space="preserve">
<g>
	<g>
		<g>
			<g>
				<defs>
					<rect id="SVGID_1_" x="95.418" y="58.516" width="321.164" height="242.969"/>
				</defs>
				<clipPath id="SVGID_2_">
					<use xlink:href="#SVGID_1_"  overflow="visible"/>
				</clipPath>
				<polygon clip-path="url(#SVGID_2_)" fill="#C8C9CA" points="416.689,300.613 95.418,300.613 95.418,72.02 416.689,72.02 				"/>
			</g>
		</g>
		<path fill="#F7F7F0" d="M109.685,84.653c-0.98,0-1.852,0.871-1.852,1.852v200.277c0,0.98,0.872,1.852,1.852,1.852h139.509
			c0.979,0,1.851-0.871,1.851-1.852V86.505c0-0.981-0.871-1.852-1.851-1.852H109.685L109.685,84.653z"/>
		<path fill="none" stroke="#717071" stroke-linecap="round" stroke-linejoin="round" d="M109.685,84.653
			c-0.98,0-1.852,0.871-1.852,1.852v200.277c0,0.98,0.872,1.852,1.852,1.852h139.509c0.979,0,1.851-0.871,1.851-1.852V86.505
			c0-0.981-0.871-1.852-1.851-1.852H109.685L109.685,84.653z"/>
		<path fill="#F7F7F0" d="M402.424,84.653c0.979,0,1.851,0.871,1.851,1.852v200.277c0,0.98-0.871,1.852-1.851,1.852H262.916
			c-0.98,0-1.852-0.871-1.852-1.852V86.505c0-0.981,0.871-1.852,1.852-1.852H402.424L402.424,84.653z"/>
		<path fill="none" stroke="#717071" stroke-linecap="round" stroke-linejoin="round" d="M402.424,84.653
			c0.979,0,1.851,0.871,1.851,1.852v200.277c0,0.98-0.871,1.852-1.851,1.852H262.916c-0.98,0-1.852-0.871-1.852-1.852V86.505
			c0-0.981,0.871-1.852,1.852-1.852H402.424L402.424,84.653z"/>
		<path fill="#FFFFFF" d="M113.279,91.514c-0.872,0-1.525-0.653-1.525-1.524c0-0.872,0.654-1.525,1.525-1.525
			c0.871,0,1.524,0.654,1.524,1.525C114.803,90.861,114.15,91.514,113.279,91.514L113.279,91.514z"/>
		<path fill="none" stroke="#717071" stroke-linecap="round" stroke-linejoin="round" d="M113.279,91.514
			c-0.872,0-1.525-0.653-1.525-1.524c0-0.872,0.654-1.525,1.525-1.525c0.871,0,1.524,0.654,1.524,1.525
			C114.803,90.861,114.15,91.514,113.279,91.514L113.279,91.514z"/>
		<path fill="#FFFFFF" d="M245.491,284.277c-0.872,0-1.525-0.763-1.525-1.524c0-0.871,0.653-1.524,1.525-1.524
			c0.871,0,1.524,0.762,1.524,1.524C247.015,283.624,246.361,284.277,245.491,284.277L245.491,284.277z"/>
		<path fill="none" stroke="#717071" stroke-linecap="round" stroke-linejoin="round" d="M245.491,284.277
			c-0.872,0-1.525-0.763-1.525-1.524c0-0.871,0.653-1.524,1.525-1.524c0.871,0,1.524,0.762,1.524,1.524
			C247.015,283.624,246.361,284.277,245.491,284.277L245.491,284.277z"/>
		<path fill="#FFFFFF" d="M113.279,284.277c-0.872,0-1.525-0.763-1.525-1.524c0-0.871,0.654-1.524,1.525-1.524
			c0.871,0,1.524,0.762,1.524,1.524C114.803,283.624,114.15,284.277,113.279,284.277L113.279,284.277z"/>
		<path fill="none" stroke="#717071" stroke-linecap="round" stroke-linejoin="round" d="M113.279,284.277
			c-0.872,0-1.525-0.763-1.525-1.524c0-0.871,0.654-1.524,1.525-1.524c0.871,0,1.524,0.762,1.524,1.524
			C114.803,283.624,114.15,284.277,113.279,284.277L113.279,284.277z"/>
		<path fill="#FFFFFF" d="M245.491,91.514c0.871,0,1.524-0.653,1.524-1.524c0-0.872-0.653-1.525-1.524-1.525
			c-0.872,0-1.525,0.654-1.525,1.525C243.965,90.861,244.619,91.514,245.491,91.514L245.491,91.514z"/>
		<path fill="none" stroke="#717071" stroke-linecap="round" stroke-linejoin="round" d="M245.491,91.514
			c0.871,0,1.524-0.653,1.524-1.524c0-0.872-0.653-1.525-1.524-1.525c-0.872,0-1.525,0.654-1.525,1.525
			C243.965,90.861,244.619,91.514,245.491,91.514L245.491,91.514z"/>
		<path fill="#E5E5E6" d="M270.103,273.495c-0.218,0-0.436-0.218-0.436-0.436V124.403c0-0.217,0.218-0.436,0.436-0.436h38.334
			c0.219,0,0.437,0.218,0.437,0.436v61.205c0,0.763,0.653,1.416,1.416,1.416h44.65c0.764,0,1.417-0.653,1.417-1.416v-61.205
			c0-0.217,0.218-0.436,0.436-0.436h38.335c0.218,0,0.437,0.218,0.437,0.436V273.06c0,0.218-0.219,0.436-0.437,0.436H270.103
			L270.103,273.495z"/>
		<path fill="#717071" d="M395.127,123.423h-38.335c-0.545,0-0.98,0.436-0.98,0.871V185.5c0,0.545-0.436,0.98-0.872,0.98h-44.65
			c-0.545,0-0.871-0.436-0.871-0.98v-61.097c0-0.544-0.436-0.872-0.981-0.872h-38.334c-0.545,0-0.979,0.436-0.979,0.872V273.06
			c0,0.546,0.435,0.871,0.979,0.871h125.024c0.544,0,0.871-0.436,0.871-0.871V124.403
			C396.106,123.859,395.671,123.423,395.127,123.423L395.127,123.423L395.127,123.423z M308.437,124.403v61.205
			c0,0.979,0.872,1.851,1.853,1.851h44.65c0.981,0,1.853-0.871,1.853-1.851v-61.205h38.335V273.06H270.103V124.403H308.437"/>
		<path fill="#FFFFFF" d="M398.829,91.514c0.872,0,1.526-0.653,1.526-1.524c0-0.872-0.654-1.525-1.526-1.525
			c-0.871,0-1.524,0.654-1.524,1.525C397.305,90.861,397.958,91.514,398.829,91.514L398.829,91.514z"/>
		<path fill="none" stroke="#717071" stroke-linecap="round" stroke-linejoin="round" d="M398.829,91.514
			c0.872,0,1.526-0.653,1.526-1.524c0-0.872-0.654-1.525-1.526-1.525c-0.871,0-1.524,0.654-1.524,1.525
			C397.305,90.861,397.958,91.514,398.829,91.514L398.829,91.514z"/>
		<path fill="#FFFFFF" d="M266.618,284.277c0.87,0,1.524-0.763,1.524-1.524c0-0.871-0.654-1.524-1.524-1.524
			c-0.872,0-1.634,0.762-1.634,1.524C264.984,283.624,265.746,284.277,266.618,284.277L266.618,284.277z"/>
		<path fill="none" stroke="#717071" stroke-linecap="round" stroke-linejoin="round" d="M266.618,284.277
			c0.87,0,1.524-0.763,1.524-1.524c0-0.871-0.654-1.524-1.524-1.524c-0.872,0-1.634,0.762-1.634,1.524
			C264.984,283.624,265.746,284.277,266.618,284.277L266.618,284.277z"/>
		<path fill="#FFFFFF" d="M398.829,284.277c0.872,0,1.526-0.763,1.526-1.524c0-0.871-0.654-1.524-1.526-1.524
			c-0.871,0-1.524,0.762-1.524,1.524C397.305,283.624,397.958,284.277,398.829,284.277L398.829,284.277z"/>
		<path fill="none" stroke="#717071" stroke-linecap="round" stroke-linejoin="round" d="M398.829,284.277
			c0.872,0,1.526-0.763,1.526-1.524c0-0.871-0.654-1.524-1.526-1.524c-0.871,0-1.524,0.762-1.524,1.524
			C397.305,283.624,397.958,284.277,398.829,284.277L398.829,284.277z"/>
		<path fill="#E5E5E6" d="M116.981,273.387c-0.217,0-0.327-0.218-0.327-0.327V124.294c0-0.217,0.218-0.326,0.327-0.326h125.133
			c0.218,0,0.326,0.218,0.326,0.326V273.06c0,0.218-0.218,0.327-0.326,0.327H116.981L116.981,273.387z"/>
		<path fill="#717071" d="M242.114,123.423H116.981c-0.436,0-0.871,0.327-0.871,0.871V273.06c0,0.436,0.326,0.871,0.871,0.871
			h125.133c0.436,0,0.871-0.325,0.871-0.871V124.294C242.985,123.859,242.659,123.423,242.114,123.423L242.114,123.423
			L242.114,123.423z M242.005,124.403l0.109,148.656l-125.024,0.109l-0.109-148.766H242.005"/>
		<polygon fill="#EEEEEF" points="337.406,111.989 327.496,111.989 327.496,110.79 337.406,110.79 		"/>
		<polygon fill="none" stroke="#717071" stroke-linecap="round" stroke-linejoin="round" points="337.406,111.989 327.496,111.989 
			327.496,110.79 337.406,110.79 		"/>
		<polygon fill="#EEEEEF" points="336.753,110.79 328.259,110.79 328.259,109.81 336.753,109.81 		"/>
		<polygon fill="none" stroke="#717071" stroke-linecap="round" stroke-linejoin="round" points="336.753,110.79 328.259,110.79 
			328.259,109.81 336.753,109.81 		"/>
		<polygon fill="#EEEEEF" points="336.1,109.81 328.912,109.81 328.912,108.068 336.1,108.068 		"/>
		<polygon fill="none" stroke="#717071" stroke-linecap="round" stroke-linejoin="round" points="336.1,109.81 328.912,109.81 
			328.912,108.068 336.1,108.068 		"/>
		<path fill="#EEEEEF" d="M336.427,106.216h-7.842c-0.326,0-0.545,0.436-0.545,0.872c0,0.544,0.219,0.871,0.545,0.871h7.842
			c0.326,0,0.544-0.436,0.544-0.871C336.971,106.652,336.645,106.216,336.427,106.216"/>
		<path fill="none" stroke="#717071" stroke-linecap="round" stroke-linejoin="round" d="M336.427,106.216h-7.842
			c-0.326,0-0.545,0.436-0.545,0.872c0,0.544,0.219,0.871,0.545,0.871h7.842c0.326,0,0.544-0.436,0.544-0.871
			C336.971,106.652,336.645,106.216,336.427,106.216L336.427,106.216z"/>
		<path fill="#EEEEEF" d="M323.793,91.514h-11.762v5.99h11.762c3.158,0,5.663,2.505,5.663,5.663v3.049h5.99v-3.049l0,0
			C335.555,96.742,330.219,91.514,323.793,91.514"/>
		<path fill="none" stroke="#717071" stroke-linecap="round" stroke-linejoin="round" d="M323.793,91.514h-11.762v5.99h11.762
			c3.158,0,5.663,2.505,5.663,5.663v3.049h5.99v-3.049l0,0C335.555,96.742,330.219,91.514,323.793,91.514L323.793,91.514z"/>
		<path fill="#EEEEEF" d="M308.982,90.316v4.792c0,0-1.09,1.306-2.178,2.723h5.336v-7.514H308.982L308.982,90.316z"/>
		<path fill="none" stroke="#717071" stroke-linecap="round" stroke-linejoin="round" d="M308.982,90.316v4.792
			c0,0-1.09,1.306-2.178,2.723h5.336v-7.514H308.982L308.982,90.316z"/>
		<polygon fill="#FFFFFF" points="340.347,113.513 324.664,113.513 324.664,111.989 340.347,111.989 		"/>
		<polygon fill="none" stroke="#717071" stroke-linecap="round" stroke-linejoin="round" points="340.347,113.513 324.664,113.513 
			324.664,111.989 340.347,111.989 		"/>
		<polygon fill="#FFFFFF" points="251.698,174.174 250.5,174.174 250.5,162.412 251.698,162.412 		"/>
		<polygon fill="none" stroke="#717071" stroke-linecap="round" stroke-linejoin="round" points="251.698,174.174 250.5,174.174 
			250.5,162.412 251.698,162.412 		"/>
		<polygon fill="#FFFFFF" points="250.5,166.66 249.302,166.66 249.302,169.926 250.5,169.926 		"/>
		<polygon fill="none" stroke="#717071" stroke-linecap="round" stroke-linejoin="round" points="250.5,166.66 249.302,166.66 
			249.302,169.926 250.5,169.926 		"/>
		<polygon fill="#595757" points="395.018,297.02 395.236,298.544 406.997,298.544 407.324,297.02 		"/>
		<polygon fill="#595757" points="380.424,297.02 380.642,298.544 392.403,298.544 392.73,297.02 		"/>
		<polygon fill="#595757" points="365.831,297.02 366.049,298.544 377.81,298.544 378.138,297.02 		"/>
		<polygon fill="#595757" points="351.237,297.02 351.564,298.544 363.217,298.544 363.543,297.02 		"/>
		<polygon fill="#595757" points="336.645,297.02 336.971,298.544 348.733,298.544 348.95,297.02 		"/>
		<polygon fill="#595757" points="322.05,297.02 322.377,298.544 334.14,298.544 334.356,297.02 		"/>
		<polygon fill="#595757" points="307.458,297.02 307.783,298.544 319.547,298.544 319.874,297.02 		"/>
		<polygon fill="#595757" points="292.864,297.02 293.191,298.544 304.952,298.544 305.279,297.02 		"/>
		<polygon fill="#595757" points="278.271,297.02 278.598,298.544 290.359,298.544 290.686,297.02 		"/>
		<polygon fill="#595757" points="263.678,297.02 264.004,298.544 275.767,298.544 276.093,297.02 		"/>
		<polygon fill="#DBDCDC" points="250.5,288.634 108.705,288.634 108.705,300.939 250.5,300.939 		"/>
		<g>
			<g>
				<defs>
					<rect id="SVGID_3_" x="95.418" y="58.516" width="321.164" height="242.969"/>
				</defs>
				<clipPath id="SVGID_4_">
					<use xlink:href="#SVGID_3_"  overflow="visible"/>
				</clipPath>
				<polygon clip-path="url(#SVGID_4_)" fill="none" stroke="#717071" stroke-linecap="round" stroke-linejoin="round" points="
					250.5,288.634 108.705,288.634 108.705,300.939 250.5,300.939 				"/>
			</g>
		</g>
		<polyline fill="#FFFFFF" points="395.018,83.564 395.018,102.404 395.018,102.622 395.018,102.84 394.909,103.058 394.8,103.276 
			394.691,103.385 394.474,103.603 394.365,103.711 394.146,103.82 393.928,103.93 393.711,103.93 393.493,103.93 393.493,103.93 
			355.594,103.93 355.594,103.93 355.376,103.93 355.158,103.93 354.939,103.82 354.724,103.711 354.505,103.603 354.396,103.385 
			354.286,103.276 354.179,103.058 354.069,102.84 354.069,102.622 354.069,102.404 354.069,102.295 354.069,83.673 		"/>
		<path fill="none" stroke="#717071" stroke-linecap="round" stroke-linejoin="round" d="M354.069,83.673v18.623 M354.069,102.295
			L354.069,102.295 M393.493,103.93h-37.899 M395.018,83.564v18.84 M354.069,102.404v0.218v0.218l0.109,0.217l0.107,0.218
			l0.11,0.217l0.108,0.109l0.219,0.108l0.216,0.109l0.219,0.109h0.218h0.218 M393.493,103.93h0.218h0.217l0.219-0.109l0.219-0.109
			l0.217-0.108l0.109-0.109l0.108-0.217l0.109-0.218l0.108-0.217v-0.218v-0.218"/>
		<path fill="#717071" d="M411.789,75.613h-311.47c-0.653,0-1.198,0.545-1.198,1.199l0,0l0,0v219.009
			c0,0.544,0.327,0.979,0.871,1.09c0.109,0,0.218,0.108,0.436,0.108h5.989c0.654,0,1.198-0.544,1.198-1.198V83.673h144.083v101.391
			h8.712V83.673h144.191v205.505H260.41v-7.842h-8.712v14.377c0,0.652,0.544,1.198,1.197,1.198h152.032h8.059v-7.842V81.712v-4.9
			C412.986,76.158,412.442,75.613,411.789,75.613"/>
		<polygon fill="#FFFFFF" points="404.602,175.372 403.403,175.372 403.403,165.134 404.602,165.134 		"/>
		<polygon fill="none" stroke="#717071" stroke-linecap="round" stroke-linejoin="round" points="404.602,175.372 403.403,175.372 
			403.403,165.134 404.602,165.134 		"/>
		<polygon fill="#FFFFFF" points="402.859,167.204 402.859,172.976 403.403,173.52 403.403,166.986 		"/>
		<polygon fill="none" stroke="#717071" stroke-linecap="round" stroke-linejoin="round" points="402.859,167.204 402.859,172.976 
			403.403,173.52 403.403,166.986 		"/>
		<polygon fill="#FFFFFF" points="402.859,172.104 394.039,172.104 394.039,168.184 402.859,168.184 		"/>
		<polygon fill="none" stroke="#717071" stroke-linecap="round" stroke-linejoin="round" points="402.859,172.104 394.039,172.104 
			394.039,168.184 402.859,168.184 		"/>
		<path fill="#FFFFFF" d="M395.998,170.144c0,1.089-0.871,1.959-1.959,1.959c-1.091,0-1.963-0.871-1.963-1.959
			c0-1.089,0.872-1.96,1.963-1.96C395.018,168.184,395.998,169.055,395.998,170.144"/>
		<path fill="none" stroke="#717071" stroke-linecap="round" stroke-linejoin="round" d="M395.998,170.144
			c0,1.089-0.871,1.959-1.959,1.959c-1.091,0-1.963-0.871-1.963-1.959c0-1.089,0.872-1.96,1.963-1.96
			C395.018,168.184,395.998,169.055,395.998,170.144L395.998,170.144z"/>
		<path fill="#FFFFFF" d="M390.226,188.548c-0.652,0-0.652,0.654-0.652,0.654v1.852v0.327l13.83,0.326l0.327,0.327v5.88v7.732v5.883
			l-0.327,0.326l-13.83,0.326v0.326v1.852c0,0,0,0.654,0.652,0.654l14.376,0.544v-9.801v-7.732v-9.803L390.226,188.548
			L390.226,188.548z"/>
		<path fill="none" stroke="#717071" stroke-linecap="round" stroke-linejoin="round" d="M390.226,188.548
			c-0.652,0-0.652,0.654-0.652,0.654v1.852v0.327l13.83,0.326l0.327,0.327v5.88v7.732v5.883l-0.327,0.326l-13.83,0.326v0.326v1.852
			c0,0,0,0.654,0.652,0.654l14.376,0.544v-9.801v-7.732v-9.803L390.226,188.548L390.226,188.548z"/>
		<polygon fill="#FFFFFF" points="391.424,211.419 402.859,211.419 402.859,191.925 391.424,191.925 		"/>
		<polygon fill="none" stroke="#717071" stroke-linecap="round" stroke-linejoin="round" points="391.424,211.419 402.859,211.419 
			402.859,191.925 391.424,191.925 		"/>
		<polygon fill="#FFFFFF" points="391.424,209.567 386.632,209.567 386.632,193.668 391.424,193.668 		"/>
		<polygon fill="none" stroke="#717071" stroke-linecap="round" stroke-linejoin="round" points="391.424,209.567 386.632,209.567 
			386.632,193.668 391.424,193.668 		"/>
		<polygon fill="#DBDCDC" points="260.41,185.826 251.698,185.826 251.698,280.466 260.41,280.466 		"/>
		<polygon fill="none" stroke="#717071" stroke-linecap="round" stroke-linejoin="round" points="260.41,185.826 251.698,185.826 
			251.698,280.466 260.41,280.466 		"/>
		<path fill="#EEEEEF" d="M250.5,195.737h-2.722c-1.96,0-2.396,2.069-2.396,2.069c-0.218,3.811,0,7.514,0.654,11.108
			c0.217,0.652,0.108,1.198-0.327,1.852v0.327h-0.327h-0.545h-0.327v-0.327c-1.197-6.208-1.088-12.416,0.327-18.623h0.328h5.445
			v3.594H250.5z"/>
		<path fill="none" stroke="#717071" stroke-linecap="round" stroke-linejoin="round" d="M250.5,195.737h-2.722
			c-1.96,0-2.396,2.069-2.396,2.069c-0.218,3.811,0,7.514,0.654,11.108c0.217,0.652,0.108,1.198-0.327,1.852v0.327h-0.327h-0.545
			h-0.327v-0.327c-1.197-6.208-1.088-12.416,0.327-18.623h0.328h5.445v3.594H250.5z"/>
		<polygon fill="#EEEEEF" points="251.698,196.936 250.5,196.936 250.5,190.945 251.698,190.945 		"/>
		<polygon fill="none" stroke="#717071" stroke-linecap="round" stroke-linejoin="round" points="251.698,196.936 250.5,196.936 
			250.5,190.945 251.698,190.945 		"/>
		<path fill="#EEEEEF" d="M261.607,195.737h2.723c1.961,0,2.396,2.069,2.396,2.069c0.218,3.811,0,7.514-0.545,11.108
			c-0.217,0.652-0.108,1.198,0.327,1.852v0.327h0.327h0.652h0.327v-0.327c1.198-6.208,1.089-12.416-0.327-18.623h-0.326h-5.445
			v3.594H261.607z"/>
		<path fill="none" stroke="#717071" stroke-linecap="round" stroke-linejoin="round" d="M261.607,195.737h2.723
			c1.961,0,2.396,2.069,2.396,2.069c0.218,3.811,0,7.514-0.545,11.108c-0.217,0.652-0.108,1.198,0.327,1.852v0.327h0.327h0.652
			h0.327v-0.327c1.198-6.208,1.089-12.416-0.327-18.623h-0.326h-5.445v3.594H261.607z"/>
		<polygon fill="#EEEEEF" points="260.41,196.936 261.607,196.936 261.607,190.945 260.41,190.945 		"/>
		<polygon fill="none" stroke="#717071" stroke-linecap="round" stroke-linejoin="round" points="260.41,196.936 261.607,196.936 
			261.607,190.945 260.41,190.945 		"/>
		<polygon fill="#EEEEEF" points="261.936,192.471 261.936,193.124 262.152,193.124 262.152,193.342 262.479,193.342 
			264.33,193.668 264.33,194.321 262.479,194.538 262.152,194.538 262.152,194.865 261.936,194.865 261.936,195.519 
			261.607,195.519 261.607,192.471 		"/>
		<polygon fill="none" stroke="#717071" stroke-linecap="round" stroke-linejoin="round" points="261.936,192.471 261.936,193.124 
			262.152,193.124 262.152,193.342 262.479,193.342 264.33,193.668 264.33,194.321 262.479,194.538 262.152,194.538 
			262.152,194.865 261.936,194.865 261.936,195.519 261.607,195.519 261.607,192.471 		"/>
		<path fill="#FFFFFF" d="M307.676,83.673h-44.434l-0.109,0.109l0,0c-1.525,0-2.723,1.198-2.723,2.723c0,0.108,0,0.217,0,0.217
			v44.215c0,0,1.197,1.199,2.723,1.199h8.712c0,0,11.763-9.475,19.712-17.425c7.95-7.95,17.426-19.712,17.426-19.712v-8.713
			C308.873,84.871,307.676,83.673,307.676,83.673"/>
		<path fill="none" stroke="#717071" stroke-linecap="round" stroke-linejoin="round" d="M307.676,83.673h-44.434l-0.109,0.109l0,0
			c-1.525,0-2.723,1.198-2.723,2.723c0,0.108,0,0.217,0,0.217v44.215c0,0,1.197,1.199,2.723,1.199h8.712
			c0,0,11.763-9.475,19.712-17.425c7.95-7.95,17.426-19.712,17.426-19.712v-8.713C308.873,84.871,307.676,83.673,307.676,83.673
			L307.676,83.673z"/>
		<path fill="#FFFFFF" d="M300.378,86.286h-32.78c-2.505,0-4.574,2.069-4.574,4.575v32.78c0,0-0.217,5.663,7.842,4.792
			c0,0,2.506-0.654,4.248-2.069c1.741-1.416,10.019-8.713,14.701-13.395c4.684-4.683,11.979-12.96,13.396-14.703
			s2.069-4.247,2.069-4.247C306.041,86.069,300.378,86.286,300.378,86.286"/>
		<path fill="none" stroke="#717071" stroke-linecap="round" stroke-linejoin="round" d="M300.378,86.286h-32.78
			c-2.505,0-4.574,2.069-4.574,4.575v32.78c0,0-0.217,5.663,7.842,4.792c0,0,2.506-0.654,4.248-2.069
			c1.741-1.416,10.019-8.713,14.701-13.395c4.684-4.683,11.979-12.96,13.396-14.703s2.069-4.247,2.069-4.247
			C306.041,86.069,300.378,86.286,300.378,86.286L300.378,86.286z M288.943,87.811c-0.762,0-1.634,0.218-2.396,0.653
			 M286.548,88.355c-4.247,2.179-8.169,4.901-11.763,8.168 M273.371,98.266c-3.377,3.376-6.1,7.188-8.17,11.435 M265.201,109.701
			c-0.436,0.763-0.762,1.634-0.871,2.396"/>
		<path fill="#EEEEEF" d="M283.607,105.672c0,0.763-0.654,1.416-1.416,1.416s-1.416-0.653-1.416-1.416
			c0-0.762,0.654-1.416,1.416-1.416S283.607,104.91,283.607,105.672"/>
		<path fill="none" stroke="#717071" stroke-linecap="round" stroke-linejoin="round" d="M283.607,105.672
			c0,0.763-0.654,1.416-1.416,1.416s-1.416-0.653-1.416-1.416c0-0.762,0.654-1.416,1.416-1.416S283.607,104.91,283.607,105.672
			L283.607,105.672z"/>
		<path fill="#EEEEEF" d="M272.499,93.583c0,1.307-1.09,2.288-2.287,2.288c-1.308,0-2.287-1.089-2.287-2.288
			c0-1.307,1.089-2.287,2.287-2.287C271.409,91.296,272.499,92.386,272.499,93.583"/>
		<path fill="none" stroke="#717071" stroke-linecap="round" stroke-linejoin="round" d="M272.499,93.583
			c0,1.307-1.09,2.288-2.287,2.288c-1.308,0-2.287-1.089-2.287-2.288c0-1.307,1.089-2.287,2.287-2.287
			C271.409,91.296,272.499,92.386,272.499,93.583L272.499,93.583z"/>
		<path fill="#EEEEEF" d="M279.033,101.098c0,0.762-0.545,1.306-1.307,1.306c-0.763,0-1.307-0.544-1.307-1.306
			c0-0.763,0.544-1.307,1.307-1.307C278.488,99.791,279.033,100.444,279.033,101.098"/>
		<path fill="none" stroke="#717071" stroke-linecap="round" stroke-linejoin="round" d="M279.033,101.098
			c0,0.762-0.545,1.306-1.307,1.306c-0.763,0-1.307-0.544-1.307-1.306c0-0.763,0.544-1.307,1.307-1.307
			C278.488,99.791,279.033,100.444,279.033,101.098L279.033,101.098z"/>
		<path fill="#EEEEEF" d="M278.815,101.098C278.815,101.098,278.706,101.098,278.815,101.098c0-0.219-0.109-0.327-0.109-0.545
			c0,0,0,0,0-0.109c0-0.109-0.108-0.218-0.108-0.218l-7.516-7.514c-0.108-0.109-0.217-0.109-0.326-0.218l0,0
			c-0.109,0-0.217,0-0.326-0.109h-0.109c-0.326,0-0.544,0.109-0.763,0.327c-0.218,0.217-0.326,0.436-0.326,0.762v0.108
			c0,0.109,0,0.218,0.108,0.327c0,0,0,0,0,0.109c0.109,0.109,0.109,0.218,0.218,0.326l7.515,7.515
			c0.109,0.108,0.109,0.108,0.219,0.108c0,0,0,0,0.108,0c0.109,0.109,0.327,0.109,0.436,0.109l0,0c0.327,0,0.544-0.109,0.763-0.327
			C278.598,101.751,278.815,101.424,278.815,101.098"/>
		<path fill="none" stroke="#717071" stroke-linecap="round" stroke-linejoin="round" d="M278.815,101.098
			C278.815,101.098,278.706,101.098,278.815,101.098c0-0.219-0.109-0.327-0.109-0.545c0,0,0,0,0-0.109
			c0-0.109-0.108-0.218-0.108-0.218l-7.516-7.514c-0.108-0.109-0.217-0.109-0.326-0.218l0,0c-0.109,0-0.217,0-0.326-0.109h-0.109
			c-0.326,0-0.544,0.109-0.763,0.327c-0.218,0.217-0.326,0.436-0.326,0.762v0.108c0,0.109,0,0.218,0.108,0.327c0,0,0,0,0,0.109
			c0.109,0.109,0.109,0.218,0.218,0.326l7.515,7.515c0.109,0.108,0.109,0.108,0.219,0.108c0,0,0,0,0.108,0
			c0.109,0.109,0.327,0.109,0.436,0.109l0,0c0.327,0,0.544-0.109,0.763-0.327C278.598,101.751,278.815,101.424,278.815,101.098
			L278.815,101.098z"/>
		<polygon fill="#FFFFFF" points="294.606,114.82 291.34,118.087 292.21,119.067 293.953,117.324 295.587,115.691 		"/>
		<polygon fill="none" stroke="#717071" stroke-linecap="round" stroke-linejoin="round" points="294.606,114.82 291.34,118.087 
			292.21,119.067 293.953,117.324 295.587,115.691 		"/>
		<path fill="#FFFFFF" d="M293.408,112.969l-1.96,1.96l-1.96,1.96c0.979,0.98,1.852,1.307,1.852,1.307l3.267-3.268
			C294.606,114.82,294.389,113.949,293.408,112.969"/>
		<path fill="none" stroke="#717071" stroke-linecap="round" stroke-linejoin="round" d="M293.408,112.969l-1.96,1.96l-1.96,1.96
			c0.979,0.98,1.852,1.307,1.852,1.307l3.267-3.268C294.606,114.82,294.389,113.949,293.408,112.969L293.408,112.969z"/>
		<path fill="none" stroke="#717071" d="M387.83,273.931v-64.145 M387.83,193.668v-69.809 M379.88,273.931V123.859 M372.038,273.931
			V123.859 M364.196,273.931V123.859 M356.247,273.931V173.739 M348.407,273.931v-87.232 M332.615,273.931v-32.344 M332.615,226.666
			v-39.314 M116.545,265.654h126.222 M116.545,257.812h126.222 M116.545,249.972h126.222 M116.545,234.181h55.106 M187.552,234.181
			h55.106 M340.674,234.181h54.997 M116.545,218.39h126.222 M116.545,210.548h126.44 M116.545,202.706h126.222 M116.545,194.757
			h126.222 M269.558,265.654H395.78 M269.558,257.812H395.78 M269.558,249.972H395.78 M269.558,234.181h55.106 M269.558,218.39
			H395.78 M269.558,210.548h126.44 M269.558,202.706h117.074 M269.558,194.757h117.074 M116.545,186.915H242.55 M345.683,186.915
			h49.988 M356.247,178.965h39.533 M357.771,171.125h34.632 M360.276,163.283h35.504 M361.476,155.442h34.305 M360.822,147.492
			h34.958 M359.515,139.65h36.266 M356.029,131.701h39.751 M269.558,186.915h49.662 M269.558,178.965h39.534 M269.558,171.125h37.9
			 M269.558,163.283h35.505 M269.558,155.442h34.306 M269.558,147.492h34.96 M269.558,139.65h36.266 M272.389,131.701H309.2
			 M116.545,131.701h126.113 M116.545,139.65h126.113 M116.545,147.492h126.222 M116.545,155.442h126.222 M116.545,163.283h126.222
			 M116.545,171.125h126.222 M116.545,179.075h126.222 M316.933,273.931v-87.232 M308.982,273.931v-99.539 M301.141,273.931V123.859
			 M293.191,273.931V123.859 M285.35,273.931V123.859 M277.509,273.931V127.779 M234.708,273.931V123.859 M226.867,273.931V123.859
			 M218.917,273.931V123.859 M211.076,273.931V123.859 M203.235,273.931V123.859 M195.285,273.931V123.859 M179.493,273.931v-32.344
			 M179.493,227.102v-92.134 M163.811,273.931V123.859 M155.861,273.931V123.859 M148.02,273.931V123.859 M140.178,273.931V123.859
			 M132.228,273.931V123.859 M124.387,273.931V123.859"/>
		<polygon fill="#FFFFFF" points="187.443,241.913 171.543,241.913 171.543,226.34 187.443,226.34 		"/>
		<path fill="none" stroke="#717071" d="M116.545,242.021h126.222 M116.545,226.34h126.222 M187.443,273.931V132.245
			 M171.652,273.931V132.245"/>
		<path fill="#FFFFFF" d="M172.414,234.29c0-4.03,3.268-7.188,7.188-7.188c4.029,0,7.188,3.268,7.188,7.188
			c0,4.028-3.158,7.188-7.188,7.188C175.573,241.478,172.414,238.21,172.414,234.29"/>
		<path fill="none" stroke="#717071" stroke-linecap="round" stroke-linejoin="round" d="M172.414,234.29
			c0-4.03,3.268-7.188,7.188-7.188c4.029,0,7.188,3.268,7.188,7.188c0,4.028-3.158,7.188-7.188,7.188
			C175.573,241.478,172.414,238.21,172.414,234.29 M173.83,234.29c0-3.159,2.614-5.772,5.772-5.772s5.772,2.613,5.772,5.772
			c0,3.157-2.614,5.771-5.772,5.771S173.83,237.447,173.83,234.29L173.83,234.29z M177.097,229.933
			c-0.326,0.218-0.436,0.545-0.218,0.871l0.98,1.309c0.109,0.218,0.327,0.218,0.544,0.107c0.218-0.107,0.218-0.327,0.109-0.543
			l-0.654-1.526C177.751,229.933,177.424,229.825,177.097,229.933L177.097,229.933z M182.216,237.666l-0.981-1.308
			c-0.109-0.218-0.326-0.218-0.544-0.108c-0.218,0.108-0.218,0.326-0.108,0.544l0.653,1.524c0.218,0.327,0.544,0.436,0.871,0.218
			C182.325,238.318,182.434,237.992,182.216,237.666L182.216,237.666z M175.573,235.923l1.524-0.653
			c0.218-0.108,0.436,0,0.544,0.108c0.109,0.219,0,0.438-0.109,0.545l-1.307,0.979c-0.327,0.219-0.653,0.109-0.871-0.217
			C175.137,236.468,175.246,236.031,175.573,235.923L175.573,235.923z M183.849,231.785c0.109,0.327,0.109,0.653-0.217,0.871
			l-1.525,0.653c-0.217,0.108-0.435,0-0.544-0.108c-0.108-0.218,0-0.437,0.109-0.545l1.307-0.979
			C183.305,231.35,183.632,231.458,183.849,231.785L183.849,231.785z M175.355,231.785c-0.218,0.327-0.109,0.653,0.218,0.871
			l1.524,0.653c0.218,0.108,0.436,0,0.544-0.108c0.109-0.218,0-0.437-0.109-0.545l-1.307-0.979
			C175.899,231.35,175.464,231.458,175.355,231.785L175.355,231.785z M183.632,235.923l-1.525-0.653
			c-0.217-0.108-0.435,0-0.544,0.108c-0.108,0.219,0,0.438,0.109,0.545l1.307,0.979c0.327,0.219,0.653,0.109,0.871-0.217
			C184.068,236.468,183.958,236.031,183.632,235.923L183.632,235.923z M177.097,238.536c0.327,0.218,0.654,0.109,0.871-0.218
			l0.653-1.524c0.109-0.218,0-0.436-0.108-0.544c-0.218-0.109-0.436,0-0.545,0.108l-0.979,1.308
			C176.771,237.992,176.771,238.318,177.097,238.536L177.097,238.536z M181.235,230.26l-0.653,1.525
			c-0.109,0.217,0,0.435,0.108,0.545c0.218,0.108,0.436,0,0.544-0.11l0.981-1.307c0.217-0.326,0.109-0.653-0.218-0.871
			C181.78,229.825,181.345,229.933,181.235,230.26L181.235,230.26z M174.702,234.29c0,0.326,0.326,0.653,0.653,0.653l1.634-0.218
			c0.217,0,0.436-0.218,0.436-0.436s-0.218-0.437-0.436-0.437l-1.634-0.217C174.919,233.637,174.702,233.963,174.702,234.29
			L174.702,234.29z M183.849,233.637l-1.633,0.217c-0.218,0-0.437,0.219-0.437,0.437s0.219,0.436,0.437,0.436l1.633,0.218
			c0.327,0,0.654-0.327,0.654-0.653C184.503,233.963,184.285,233.637,183.849,233.637L183.849,233.637z M179.603,239.19
			c0.327,0,0.653-0.327,0.653-0.654l-0.218-1.634c0-0.217-0.218-0.435-0.435-0.435c-0.218,0-0.436,0.218-0.436,0.435l-0.218,1.634
			C178.948,238.863,179.275,239.19,179.603,239.19L179.603,239.19z M178.948,229.933l0.218,1.634c0,0.219,0.218,0.436,0.436,0.436
			c0.217,0,0.435-0.217,0.435-0.436l0.218-1.634c0-0.326-0.326-0.653-0.653-0.653C179.275,229.279,178.948,229.606,178.948,229.933
			L178.948,229.933z M177.533,234.29c0-1.089,0.871-2.07,2.07-2.07c1.088,0,2.069,0.981,2.069,2.07c0,1.198-0.98,2.068-2.069,2.068
			C178.404,236.358,177.533,235.378,177.533,234.29L177.533,234.29z"/>
		<polygon fill="#FFFFFF" points="340.565,241.913 324.882,241.913 324.882,226.448 340.565,226.448 		"/>
		<path fill="none" stroke="#717071" d="M269.558,242.021H395.78 M269.558,226.34H395.78 M340.565,273.931v-86.688 M324.774,273.931
			v-86.797"/>
		<path fill="#FFFFFF" d="M339.911,234.181c0-4.03-3.267-7.188-7.188-7.188c-4.03,0-7.188,3.267-7.188,7.188
			c0,4.029,3.268,7.188,7.188,7.188S339.911,238.102,339.911,234.181"/>
		<path fill="none" stroke="#717071" stroke-linecap="round" stroke-linejoin="round" d="M339.911,234.181
			c0-4.03-3.267-7.188-7.188-7.188c-4.03,0-7.188,3.267-7.188,7.188c0,4.029,3.268,7.188,7.188,7.188
			S339.911,238.102,339.911,234.181 M338.387,234.181c0-3.158-2.613-5.772-5.771-5.772c-3.159,0-5.772,2.614-5.772,5.772
			c0,3.159,2.613,5.772,5.772,5.772C335.881,239.953,338.387,237.34,338.387,234.181L338.387,234.181z M334.249,230.15l-0.654,1.526
			c-0.108,0.216,0,0.436,0.108,0.543c0.219,0.11,0.437,0,0.546-0.107l0.979-1.309c0.218-0.326,0.108-0.653-0.219-0.871
			C334.793,229.715,334.467,229.825,334.249,230.15L334.249,230.15z M330.219,238.429c0.326,0.217,0.653,0.107,0.872-0.219
			l0.652-1.524c0.109-0.218,0-0.436-0.107-0.545c-0.22-0.109-0.438,0-0.545,0.109l-0.981,1.307
			C329.783,237.883,329.892,238.21,330.219,238.429L330.219,238.429z M336.971,236.576c-0.218,0.326-0.544,0.436-0.871,0.218
			l-1.307-0.979c-0.218-0.111-0.218-0.327-0.109-0.546c0.109-0.218,0.326-0.218,0.545-0.108l1.524,0.654
			C336.971,235.923,337.079,236.358,336.971,236.576L336.971,236.576z M329.238,231.458l1.307,0.98
			c0.219,0.108,0.219,0.326,0.109,0.545c-0.109,0.218-0.328,0.218-0.545,0.107l-1.524-0.652c-0.326-0.219-0.435-0.546-0.219-0.872
			C328.585,231.35,328.912,231.239,329.238,231.458L329.238,231.458z M336.1,231.458l-1.307,0.98
			c-0.218,0.108-0.218,0.326-0.109,0.545c0.109,0.218,0.326,0.218,0.545,0.107l1.524-0.652c0.326-0.219,0.436-0.546,0.218-0.872
			C336.753,231.35,336.427,231.239,336.1,231.458L336.1,231.458z M328.366,236.576c0.219,0.326,0.546,0.436,0.872,0.218l1.307-0.979
			c0.219-0.111,0.219-0.327,0.109-0.546c-0.109-0.218-0.328-0.218-0.545-0.108l-1.524,0.654
			C328.259,235.923,328.259,236.358,328.366,236.576L328.366,236.576z M335.337,237.557l-0.98-1.307
			c-0.107-0.219-0.326-0.219-0.543-0.109c-0.219,0.109-0.219,0.327-0.11,0.545l0.653,1.524c0.219,0.326,0.546,0.436,0.872,0.219
			C335.446,238.21,335.555,237.883,335.337,237.557L335.337,237.557z M330.219,229.825c-0.327,0.217-0.436,0.544-0.217,0.871
			l0.979,1.306c0.11,0.218,0.328,0.218,0.545,0.11c0.218-0.11,0.218-0.327,0.11-0.546l-0.655-1.524
			C330.872,229.825,330.437,229.715,330.219,229.825L330.219,229.825z M336.971,233.526l-1.634,0.219
			c-0.217,0-0.435,0.218-0.435,0.436s0.218,0.436,0.435,0.436l1.634,0.218c0.327,0,0.653-0.326,0.653-0.653
			S337.298,233.526,336.971,233.526L336.971,233.526z M327.714,234.181c0,0.327,0.326,0.653,0.652,0.653l1.636-0.218
			c0.217,0,0.435-0.218,0.435-0.436s-0.218-0.436-0.435-0.436l-1.636-0.219C328.04,233.526,327.714,233.854,327.714,234.181
			L327.714,234.181z M333.268,238.429l-0.217-1.635c0-0.218-0.219-0.436-0.436-0.436c-0.219,0-0.438,0.218-0.438,0.436l-0.216,1.635
			c0,0.325,0.327,0.652,0.653,0.652S333.268,238.754,333.268,238.429L333.268,238.429z M332.615,229.172
			c-0.326,0-0.653,0.326-0.653,0.653l0.216,1.633c0,0.219,0.219,0.435,0.438,0.435c0.217,0,0.436-0.216,0.436-0.435l0.217-1.633
			C333.268,229.498,332.941,229.172,332.615,229.172L332.615,229.172z M332.615,236.25c-1.199,0-2.07-0.98-2.07-2.069
			c0-1.09,0.871-2.068,2.07-2.068c1.198,0,2.068,0.979,2.068,2.068C334.684,235.27,333.813,236.25,332.615,236.25L332.615,236.25z"
			/>
		<path fill="#EEEEEF" d="M237.649,280.793c-0.218,0.216-0.436,0.653-0.436,0.979v1.089h3.485v-1.307
			c0-0.219,0.109-0.435,0.327-0.546l11.762-8.492h3.92c0.219,0,0.436-0.219,0.436-0.438v-5.445c0-0.218-0.217-0.435-0.436-0.435
			h-3.267c-0.218,0-0.545,0.108-0.653,0.217L237.649,280.793L237.649,280.793z"/>
		<path fill="none" stroke="#717071" stroke-linecap="round" stroke-linejoin="round" d="M237.649,280.793
			c-0.218,0.216-0.436,0.653-0.436,0.979v1.089h3.485v-1.307c0-0.219,0.109-0.435,0.327-0.546l11.762-8.492h3.92
			c0.219,0,0.436-0.219,0.436-0.438v-5.445c0-0.218-0.217-0.435-0.436-0.435h-3.267c-0.218,0-0.545,0.108-0.653,0.217
			L237.649,280.793L237.649,280.793z"/>
		<path fill="#FFFFFF" d="M179.493,98.811c-7.841,0-17.098,2.505-24.286,12.197c2.94,8.931,12.96,21.456,18.079,26.029
			c2.178,1.96,4.247,2.832,6.208,2.832s4.03-0.872,6.208-2.832c5.228-4.574,15.138-17.098,18.079-26.029
			C196.7,101.315,187.443,98.811,179.493,98.811L179.493,98.811z"/>
		<path fill="none" stroke="#717071" stroke-linecap="round" stroke-linejoin="round" stroke-miterlimit="10" d="M179.493,98.811
			c-7.841,0-17.098,2.505-24.286,12.197c2.94,8.931,12.96,21.456,18.079,26.029c2.178,1.96,4.247,2.832,6.208,2.832
			s4.03-0.872,6.208-2.832c5.228-4.574,15.138-17.098,18.079-26.029C196.7,101.315,187.443,98.811,179.493,98.811L179.493,98.811z"
			/>
		<path fill="#FFFFFF" d="M179.493,100.009c-6.534,0-16.989,2.832-21.019,10.999c4.248,12.198,11,19.93,17.208,25.594
			c0.979,0.871,2.177,1.416,3.702,1.416c1.633,0,2.722-0.436,3.703-1.416c6.317-5.772,12.96-13.396,17.207-25.594
			C196.591,102.84,186.027,100.009,179.493,100.009L179.493,100.009z"/>
		<path fill="none" stroke="#717071" stroke-linecap="round" stroke-linejoin="round" stroke-miterlimit="10" d="M179.493,100.009
			c-6.534,0-16.989,2.832-21.019,10.999c4.248,12.198,11,19.93,17.208,25.594c0.979,0.871,2.177,1.416,3.702,1.416
			c1.633,0,2.722-0.436,3.703-1.416c6.317-5.772,12.96-13.396,17.207-25.594C196.591,102.84,186.027,100.009,179.493,100.009
			L179.493,100.009z"/>
		<path fill="#FFFFFF" d="M179.493,102.84c-11.218,0-13.396,2.069-14.593,3.921c0.544,6.425,2.069,17.425,14.593,27.988
			c12.524-10.563,14.049-21.454,14.593-27.988C192.889,104.91,190.711,102.84,179.493,102.84L179.493,102.84z"/>
		<path fill="none" stroke="#717071" stroke-linecap="round" stroke-linejoin="round" stroke-miterlimit="10" d="M179.493,102.84
			c-11.218,0-13.396,2.069-14.593,3.921c0.544,6.425,2.069,17.425,14.593,27.988c12.524-10.563,14.049-21.454,14.593-27.988
			C192.889,104.91,190.711,102.84,179.493,102.84L179.493,102.84z"/>
		<path fill="#FFFFFF" d="M187.443,111.771c-0.872-2.07-2.069-4.683-2.069-4.683c-0.109-0.327-0.654-0.653-0.98-0.653h-9.692
			c-0.436,0-0.872,0.327-0.981,0.653c0,0-1.197,2.613-2.069,4.683c-0.763,1.743-1.198,3.703-1.198,5.119
			c0,4.683,4.029,8.604,9.148,8.604c5.009,0,9.147-3.812,9.147-8.604C188.641,115.473,188.206,113.404,187.443,111.771
			L187.443,111.771z"/>
		<path fill="none" stroke="#717071" stroke-linecap="round" stroke-linejoin="round" stroke-miterlimit="10" d="M187.443,111.771
			c-0.872-2.07-2.069-4.683-2.069-4.683c-0.109-0.327-0.654-0.653-0.98-0.653h-9.692c-0.436,0-0.872,0.327-0.981,0.653
			c0,0-1.197,2.613-2.069,4.683c-0.763,1.743-1.198,3.703-1.198,5.119c0,4.683,4.029,8.604,9.148,8.604
			c5.009,0,9.147-3.812,9.147-8.604C188.641,115.473,188.206,113.404,187.443,111.771L187.443,111.771z"/>
		<path fill="#FFFFFF" d="M152.811,83.673c0,4.901,0.653,16.118,2.396,27.227c0.109,0.435,0.545,1.089,1.307,1.197
			c0.653,0.109,1.089-0.108,1.743-0.762c3.267-3.594,6.752-5.336,11.544-5.772c3.485-0.327,7.079-0.436,9.91-0.436
			s6.426,0.109,9.911,0.436c4.683,0.436,8.277,2.178,11.544,5.772c0.544,0.654,1.089,0.872,1.742,0.762
			c0.762-0.108,1.198-0.762,1.307-1.197c1.743-11.109,2.396-22.326,2.396-27.227H152.811L152.811,83.673z"/>
		<path fill="none" stroke="#717071" stroke-linecap="round" stroke-linejoin="round" stroke-miterlimit="10" d="M152.811,83.673
			c0,4.901,0.653,16.118,2.396,27.227c0.109,0.435,0.545,1.089,1.307,1.197c0.653,0.109,1.089-0.108,1.743-0.762
			c3.267-3.594,6.752-5.336,11.544-5.772c3.485-0.327,7.079-0.436,9.91-0.436s6.426,0.109,9.911,0.436
			c4.683,0.436,8.277,2.178,11.544,5.772c0.544,0.654,1.089,0.872,1.742,0.762c0.762-0.108,1.198-0.762,1.307-1.197
			c1.743-11.109,2.396-22.326,2.396-27.227H152.811L152.811,83.673z M171.761,117.76h15.573 M181.671,108.612
			c-0.545,2.069-0.98,5.119-0.98,7.296c0,1.961,0.327,3.921,1.416,5.99 M177.315,108.612c0.544,2.069,0.98,5.119,0.98,7.296
			c0,1.961-0.327,3.921-1.416,5.99 M176.879,113.731c0.762-0.436,1.634-0.762,2.614-0.762c2.613,0,4.792,2.178,4.792,4.791
			 M181.999,121.899c-0.763,0.436-1.634,0.762-2.505,0.762c-2.614,0-4.792-2.178-4.792-4.792"/>
		<polygon fill="#EEEEEF" points="181.889,83.673 177.206,83.673 177.206,76.376 181.889,76.376 		"/>
		<polygon fill="none" stroke="#717071" stroke-linecap="round" stroke-linejoin="round" stroke-miterlimit="10" points="
			181.889,83.673 177.206,83.673 177.206,76.376 181.889,76.376 		"/>
		<polygon fill="#EEEEEF" points="182.216,100.335 176.879,100.335 176.879,85.633 182.216,85.633 		"/>
		<polygon fill="none" stroke="#717071" stroke-linecap="round" stroke-linejoin="round" stroke-miterlimit="10" points="
			182.216,100.335 176.879,100.335 176.879,85.633 182.216,85.633 		"/>
		<polygon fill="#EEEEEF" points="182.216,102.731 176.879,102.731 176.879,101.751 182.216,101.751 		"/>
		<polygon fill="none" stroke="#717071" stroke-linecap="round" stroke-linejoin="round" stroke-miterlimit="10" points="
			182.216,102.731 176.879,102.731 176.879,101.751 182.216,101.751 		"/>
		<polygon fill="#EEEEEF" points="181.235,103.82 177.859,103.82 177.859,102.731 181.235,102.731 		"/>
		<polygon fill="none" stroke="#717071" stroke-linecap="round" stroke-linejoin="round" stroke-miterlimit="10" points="
			181.235,103.82 177.859,103.82 177.859,102.731 181.235,102.731 		"/>
		<polygon fill="#EEEEEF" points="181.126,85.633 177.968,85.633 177.968,85.089 181.126,85.089 		"/>
		<polygon fill="none" stroke="#717071" stroke-linecap="round" stroke-linejoin="round" stroke-miterlimit="10" points="
			181.126,85.633 177.968,85.633 177.968,85.089 181.126,85.089 		"/>
		<polygon fill="#EEEEEF" points="181.562,85.089 177.533,85.089 175.79,83.673 183.305,83.673 		"/>
		<polygon fill="none" stroke="#717071" stroke-linecap="round" stroke-linejoin="round" stroke-miterlimit="10" points="
			181.562,85.089 177.533,85.089 175.79,83.673 183.305,83.673 		"/>
		<polygon fill="#EEEEEF" points="181.126,76.376 177.859,76.376 177.859,74.851 181.126,74.851 		"/>
		<polygon fill="none" stroke="#717071" stroke-linecap="round" stroke-linejoin="round" stroke-miterlimit="10" points="
			181.126,76.376 177.859,76.376 177.859,74.851 181.126,74.851 		"/>
		<polygon fill="#EEEEEF" points="181.126,74.851 177.859,74.851 177.859,72.673 181.126,72.673 		"/>
		<polygon fill="none" stroke="#717071" stroke-linecap="round" stroke-linejoin="round" stroke-miterlimit="10" points="
			181.126,74.851 177.859,74.851 177.859,72.673 181.126,72.673 		"/>
		<path fill="#EEEEEF" d="M182.106,94.999c0,1.415-1.197,2.614-2.613,2.614c-1.416,0-2.614-1.199-2.614-2.614
			c0-1.416,1.198-2.613,2.614-2.613C181.018,92.386,182.106,93.475,182.106,94.999L182.106,94.999z"/>
		<path fill="none" stroke="#717071" stroke-linecap="round" stroke-linejoin="round" stroke-miterlimit="10" d="M182.106,94.999
			c0,1.415-1.197,2.614-2.613,2.614c-1.416,0-2.614-1.199-2.614-2.614c0-1.416,1.198-2.613,2.614-2.613
			C181.018,92.386,182.106,93.475,182.106,94.999L182.106,94.999z"/>
		<path fill="#EEEEEF" d="M181.235,89.663c0,0.871-0.762,1.633-1.633,1.633c-0.872,0-1.634-0.762-1.634-1.633
			c0-0.872,0.763-1.634,1.634-1.634C180.473,87.92,181.235,88.682,181.235,89.663L181.235,89.663z"/>
		<path fill="none" stroke="#717071" stroke-linecap="round" stroke-linejoin="round" stroke-miterlimit="10" d="M181.235,89.663
			c0,0.871-0.762,1.633-1.633,1.633c-0.872,0-1.634-0.762-1.634-1.633c0-0.872,0.763-1.634,1.634-1.634
			C180.473,87.92,181.235,88.682,181.235,89.663L181.235,89.663z"/>
		<path fill="#EEEEEF" d="M180.038,89.663c0,0.327-0.218,0.544-0.544,0.544s-0.545-0.217-0.545-0.544s0.218-0.545,0.545-0.545
			S180.038,89.336,180.038,89.663L180.038,89.663z"/>
		<path fill="none" stroke="#717071" stroke-linecap="round" stroke-linejoin="round" stroke-miterlimit="10" d="M180.038,89.663
			c0,0.327-0.218,0.544-0.544,0.544s-0.545-0.217-0.545-0.544s0.218-0.545,0.545-0.545S180.038,89.336,180.038,89.663
			L180.038,89.663z"/>
		<path fill="#EEEEEF" d="M175.682,94.999c0,0.872,0.435,1.743,1.197,2.179v-4.356C176.117,93.257,175.682,94.019,175.682,94.999
			L175.682,94.999z"/>
		<path fill="none" stroke="#717071" stroke-linecap="round" stroke-linejoin="round" stroke-miterlimit="10" d="M175.682,94.999
			c0,0.872,0.435,1.743,1.197,2.179v-4.356C176.117,93.257,175.682,94.019,175.682,94.999L175.682,94.999z"/>
		<path fill="#EEEEEF" d="M183.414,94.999c0,0.872-0.436,1.743-1.198,2.179v-4.356C182.979,93.257,183.414,94.019,183.414,94.999
			L183.414,94.999z"/>
		<path fill="none" stroke="#717071" stroke-linecap="round" stroke-linejoin="round" stroke-miterlimit="10" d="M183.414,94.999
			c0,0.872-0.436,1.743-1.198,2.179v-4.356C182.979,93.257,183.414,94.019,183.414,94.999L183.414,94.999z"/>
		<polygon fill="#EEEEEF" points="176.879,100.335 177.206,101.098 177.206,101.751 181.889,101.751 181.889,101.098 
			182.216,100.335 		"/>
		<path fill="none" stroke="#717071" stroke-linecap="round" stroke-linejoin="round" stroke-miterlimit="10" d="M176.879,100.335
			l0.327,0.763v0.653h4.683v-0.653l0.327-0.763H176.879L176.879,100.335z M176.553,103.82h5.99"/>
		<path fill="#FFFFFF" d="M351.999,129.195c-2.068-2.396-2.831-4.792-3.049-7.515c-0.108-0.871-0.327-3.267-0.436-4.574
			c-0.326-2.723-1.743-3.594-3.594-3.594c-1.089,0-12.197,0-12.197,0s-11.001,0-12.197,0c-1.852,0-3.268,0.871-3.594,3.594
			c-0.11,1.307-0.437,3.703-0.437,4.574c-0.327,2.723-0.979,5.119-3.048,7.515c-6.971,7.841-8.169,14.92-8.169,23.851
			c0,27.335,20.147,35.285,27.553,35.285c7.406,0,27.554-7.95,27.554-35.285C360.168,144.115,358.862,136.928,351.999,129.195
			L351.999,129.195z"/>
		<path fill="none" stroke="#717071" stroke-linecap="round" stroke-linejoin="round" d="M351.999,129.195
			c-2.068-2.396-2.831-4.792-3.049-7.515c-0.108-0.871-0.327-3.267-0.436-4.574c-0.326-2.723-1.743-3.594-3.594-3.594
			c-1.089,0-12.197,0-12.197,0s-11.001,0-12.197,0c-1.852,0-3.268,0.871-3.594,3.594c-0.11,1.307-0.437,3.703-0.437,4.574
			c-0.327,2.723-0.979,5.119-3.048,7.515c-6.971,7.841-8.169,14.92-8.169,23.851c0,27.335,20.147,35.285,27.553,35.285
			c7.406,0,27.554-7.95,27.554-35.285C360.168,144.115,358.862,136.928,351.999,129.195L351.999,129.195z"/>
		<polygon fill="#FFFFFF" points="324.447,121.354 319.547,121.354 319.547,114.602 324.447,114.602 		"/>
		<polygon fill="none" stroke="#717071" stroke-linecap="round" stroke-linejoin="round" points="324.447,121.354 319.547,121.354 
			319.547,114.602 324.447,114.602 		"/>
		<path fill="#FFFFFF" d="M322.704,118.196c0,0.544-0.436,1.089-1.089,1.089c-0.545,0-1.089-0.436-1.089-1.089
			c0-0.545,0.436-1.089,1.089-1.089S322.704,117.651,322.704,118.196L322.704,118.196z"/>
		<path fill="none" stroke="#717071" stroke-linecap="round" stroke-linejoin="round" d="M322.704,118.196
			c0,0.544-0.436,1.089-1.089,1.089c-0.545,0-1.089-0.436-1.089-1.089c0-0.545,0.436-1.089,1.089-1.089
			S322.704,117.651,322.704,118.196L322.704,118.196z"/>
		<polygon fill="#FFFFFF" points="340.893,121.354 345.683,121.354 345.683,114.602 340.893,114.602 		"/>
		<polygon fill="none" stroke="#717071" stroke-linecap="round" stroke-linejoin="round" points="340.893,121.354 345.683,121.354 
			345.683,114.602 340.893,114.602 		"/>
		<path fill="#FFFFFF" d="M342.524,118.196c0,0.544,0.436,1.089,1.089,1.089c0.545,0,1.09-0.436,1.09-1.089
			c0-0.545-0.436-1.089-1.09-1.089C342.96,117.107,342.524,117.651,342.524,118.196L342.524,118.196z"/>
		<path fill="none" stroke="#717071" stroke-linecap="round" stroke-linejoin="round" d="M342.524,118.196
			c0,0.544,0.436,1.089,1.089,1.089c0.545,0,1.09-0.436,1.09-1.089c0-0.545-0.436-1.089-1.09-1.089
			C342.96,117.107,342.524,117.651,342.524,118.196L342.524,118.196z"/>
		<polygon fill="#FFFFFF" points="337.516,121.245 327.714,121.245 327.714,120.048 337.516,120.048 		"/>
		<polygon fill="none" stroke="#717071" stroke-linecap="round" stroke-linejoin="round" points="337.516,121.245 327.714,121.245 
			327.714,120.048 337.516,120.048 		"/>
		<polygon fill="#FFFFFF" points="327.714,121.245 323.14,121.245 323.14,120.048 327.714,120.048 		"/>
		<polygon fill="none" stroke="#717071" stroke-linecap="round" stroke-linejoin="round" points="327.714,121.245 323.14,121.245 
			323.14,120.048 327.714,120.048 		"/>
		<polygon fill="#FFFFFF" points="342.09,121.245 337.516,121.245 337.516,120.048 342.09,120.048 		"/>
		<polygon fill="none" stroke="#717071" stroke-linecap="round" stroke-linejoin="round" points="342.09,121.245 337.516,121.245 
			337.516,120.048 342.09,120.048 		"/>
		<path fill="#FFFFFF" d="M351.999,124.513c-1.414-2.396-2.831-3.159-5.335-3.159c-0.981,0-14.158,0-14.158,0s-13.069,0-14.157,0
			c-2.505,0-3.922,0.871-5.337,3.159c-6.207,10.781-8.713,20.146-8.713,27.88c0,20.691,15.575,34.849,28.098,34.849
			c12.524,0,28.099-14.158,28.099-34.849C360.712,144.66,358.316,135.294,351.999,124.513L351.999,124.513z"/>
		<path fill="none" stroke="#717071" stroke-linecap="round" stroke-linejoin="round" d="M351.999,124.513
			c-1.414-2.396-2.831-3.159-5.335-3.159c-0.981,0-14.158,0-14.158,0s-13.069,0-14.157,0c-2.505,0-3.922,0.871-5.337,3.159
			c-6.207,10.781-8.713,20.146-8.713,27.88c0,20.691,15.575,34.849,28.098,34.849c12.524,0,28.099-14.158,28.099-34.849
			C360.712,144.66,358.316,135.294,351.999,124.513L351.999,124.513z"/>
		<polygon fill="#EEEEEF" points="315.407,75.613 311.923,75.613 311.923,73.654 315.407,73.654 		"/>
		<polygon fill="none" stroke="#717071" stroke-linecap="round" stroke-linejoin="round" points="315.407,75.613 311.923,75.613 
			311.923,73.654 315.407,73.654 		"/>
		<polygon fill="#EEEEEF" points="315.407,83.673 311.923,83.673 311.923,75.613 315.407,75.613 		"/>
		<polygon fill="none" stroke="#717071" stroke-linecap="round" stroke-linejoin="round" points="315.407,83.673 311.923,83.673 
			311.923,75.613 315.407,75.613 		"/>
		<polygon fill="#EEEEEF" points="315.407,87.702 311.923,87.702 311.923,86.178 315.407,86.178 		"/>
		<polygon fill="none" stroke="#717071" stroke-linecap="round" stroke-linejoin="round" points="315.407,87.702 311.923,87.702 
			311.923,86.178 315.407,86.178 		"/>
		<polygon fill="#EEEEEF" points="315.625,94.345 311.705,94.345 311.705,87.702 315.625,87.702 		"/>
		<polygon fill="none" stroke="#717071" stroke-linecap="round" stroke-linejoin="round" points="315.625,94.345 311.705,94.345 
			311.705,87.702 315.625,87.702 		"/>
		<polygon fill="#EEEEEF" points="315.734,95.652 311.487,95.652 311.487,94.345 315.734,94.345 		"/>
		<polygon fill="none" stroke="#717071" stroke-linecap="round" stroke-linejoin="round" points="315.734,95.652 311.487,95.652 
			311.487,94.345 315.734,94.345 		"/>
		<polygon fill="#EEEEEF" points="314.646,96.633 312.685,96.633 311.487,95.652 315.734,95.652 		"/>
		<polygon fill="none" stroke="#717071" stroke-linecap="round" stroke-linejoin="round" points="314.646,96.633 312.685,96.633 
			311.487,95.652 315.734,95.652 		"/>
		<path fill="#EEEEEF" d="M309.309,83.673c0,0,0,0.109,0,0.436c0,0.871,1.307,1.96,2.505,1.96h3.703c1.198,0,2.505-1.198,2.505-1.96
			c0-0.327,0-0.436,0-0.436H309.309L309.309,83.673z"/>
		<path fill="none" stroke="#717071" stroke-linecap="round" stroke-linejoin="round" d="M309.309,83.673c0,0,0,0.109,0,0.436
			c0,0.871,1.307,1.96,2.505,1.96h3.703c1.198,0,2.505-1.198,2.505-1.96c0-0.327,0-0.436,0-0.436H309.309L309.309,83.673z"/>
		<polygon fill="#EEEEEF" points="314.646,97.613 312.685,97.613 312.685,96.633 314.646,96.633 		"/>
		<polygon fill="none" stroke="#717071" stroke-linecap="round" stroke-linejoin="round" points="314.646,97.613 312.685,97.613 
			312.685,96.633 314.646,96.633 		"/>
		<polygon fill="#EEEEEF" points="312.903,94.019 311.052,94.019 311.052,90.099 312.903,90.099 		"/>
		<polygon fill="none" stroke="#717071" stroke-linecap="round" stroke-linejoin="round" points="312.903,94.019 311.052,94.019 
			311.052,90.099 312.903,90.099 		"/>
		<polygon fill="#EEEEEF" points="311.052,93.365 308.873,93.365 308.873,90.752 311.052,90.752 		"/>
		<polygon fill="none" stroke="#717071" stroke-linecap="round" stroke-linejoin="round" points="311.052,93.365 308.873,93.365 
			308.873,90.752 311.052,90.752 		"/>
		<path fill="#EEEEEF" d="M318.021,92.059c0,0.544-0.436,0.98-0.98,0.98h-4.247v-1.96h4.247
			C317.586,91.079,318.021,91.514,318.021,92.059L318.021,92.059z"/>
		<path fill="none" stroke="#717071" stroke-linecap="round" stroke-linejoin="round" d="M318.021,92.059
			c0,0.544-0.436,0.98-0.98,0.98h-4.247v-1.96h4.247C317.586,91.079,318.021,91.514,318.021,92.059L318.021,92.059z"/>
		<g>
			<g>
				<defs>
					<rect id="SVGID_5_" x="95.418" y="58.516" width="321.164" height="242.969"/>
				</defs>
				<clipPath id="SVGID_6_">
					<use xlink:href="#SVGID_5_"  overflow="visible"/>
				</clipPath>
				<path clip-path="url(#SVGID_6_)" fill="#FFFFFF" d="M384.562,61.783c0,0.327-0.218,0.544-0.544,0.544h-23.96
					c-0.326,0-0.544-0.217-0.544-0.544v-2.287c0-0.327,0.218-0.544,0.544-0.544h23.96c0.326,0,0.544,0.218,0.544,0.544V61.783
					L384.562,61.783z"/>
			</g>
			<g>
				<defs>
					<rect id="SVGID_7_" x="95.418" y="58.516" width="321.164" height="242.969"/>
				</defs>
				<clipPath id="SVGID_8_">
					<use xlink:href="#SVGID_7_"  overflow="visible"/>
				</clipPath>
				<path clip-path="url(#SVGID_8_)" fill="none" stroke="#717071" stroke-linecap="round" stroke-linejoin="round" d="
					M384.562,61.783c0,0.327-0.218,0.544-0.544,0.544h-23.96c-0.326,0-0.544-0.217-0.544-0.544v-2.287
					c0-0.327,0.218-0.544,0.544-0.544h23.96c0.326,0,0.544,0.218,0.544,0.544V61.783L384.562,61.783z"/>
			</g>
		</g>
		<path fill="#FFFFFF" d="M383.91,74.089c0,0.762-0.654,1.524-1.525,1.524h-20.802c-0.761,0-1.524-0.653-1.524-1.524V62.327H383.8
			v11.762H383.91z"/>
		<path fill="none" stroke="#717071" stroke-linecap="round" stroke-linejoin="round" d="M383.91,74.089
			c0,0.762-0.654,1.524-1.525,1.524h-20.802c-0.761,0-1.524-0.653-1.524-1.524V62.327H383.8v11.762H383.91z"/>
	</g>
</g>
</svg>
