<?xml version="1.0" encoding="utf-8"?>
<!-- Generator: Adobe Illustrator 15.0.0, SVG Export Plug-In . SVG Version: 6.00 Build 0)  -->
<!DOCTYPE svg PUBLIC "-//W3C//DTD SVG 1.1//EN" "http://www.w3.org/Graphics/SVG/1.1/DTD/svg11.dtd">
<svg version="1.1" id="レイヤー_1" xmlns="http://www.w3.org/2000/svg" xmlns:xlink="http://www.w3.org/1999/xlink" x="0px"
	 y="0px" width="512px" height="360px" viewBox="0 0 512 360" enable-background="new 0 0 512 360" xml:space="preserve">
<g>
	<path fill="#F8F7F0" d="M267.977,63.278c0,0,12.849-10.67,13.502-11.215c0.871-0.762,1.523-0.98,2.504-0.98
		c0.653,0,35.278,0,35.278,0c0.87,0,2.069,0.544,2.722,1.089l3.049,3.049c0.654,0.653,1.09,1.851,1.09,2.722v244.224
		c0,0.871-0.545,2.069-1.09,2.723l-3.049,3.049c-0.652,0.653-1.852,1.089-2.722,1.089h-69.685h-0.436h-56.401
		c-0.871,0-2.068-0.545-2.722-1.089l-3.049-3.049c-0.653-0.653-1.089-1.852-1.089-2.723V57.942c0-0.871,0.544-2.068,1.089-2.722
		l3.049-3.049c0.653-0.653,1.851-1.089,2.722-1.089c34.734,0,33.318,0,35.278,0c0.98,0,1.633,0.327,2.504,0.98
		c0.653,0.544,13.501,11.215,13.501,11.215H267.977L267.977,63.278z"/>
	<g>
		<g>
			<defs>
				<rect id="SVGID_1_" x="185.444" y="50.647" width="141.113" height="258.705"/>
			</defs>
			<clipPath id="SVGID_2_">
				<use xlink:href="#SVGID_1_"  overflow="visible"/>
			</clipPath>
			
				<path clip-path="url(#SVGID_2_)" fill="none" stroke="#717071" stroke-linecap="round" stroke-linejoin="round" stroke-miterlimit="10" d="
				M267.977,63.278c0,0,12.849-10.67,13.502-11.215c0.871-0.762,1.523-0.98,2.504-0.98c0.653,0,35.278,0,35.278,0
				c0.87,0,2.069,0.544,2.722,1.089l3.049,3.049c0.654,0.653,1.09,1.851,1.09,2.722v244.224c0,0.871-0.545,2.069-1.09,2.723
				l-3.049,3.049c-0.652,0.653-1.852,1.089-2.722,1.089h-69.685h-0.436h-56.401c-0.871,0-2.068-0.545-2.722-1.089l-3.049-3.049
				c-0.653-0.653-1.089-1.852-1.089-2.723V57.942c0-0.871,0.544-2.068,1.089-2.722l3.049-3.049c0.653-0.653,1.851-1.089,2.722-1.089
				c34.734,0,33.318,0,35.278,0c0.98,0,1.633,0.327,2.504,0.98c0.653,0.544,13.501,11.215,13.501,11.215H267.977L267.977,63.278z"/>
		</g>
	</g>
	<path fill="#FFFFFF" d="M192.303,302.493l0.762,0.762c0.218,0.218,0.653,0.436,0.98,0.436c0,0,6.642,0,7.731,0
		c2.287,0,2.94-2.396,1.524-3.811c-0.762-0.763-7.404-7.404-8.167-8.166c-1.416-1.416-3.811-0.763-3.811,1.524
		c0,1.089,0,7.73,0,7.73c0,0.326,0.218,0.762,0.436,0.979L192.303,302.493"/>
	<path fill="none" stroke="#717071" stroke-linecap="round" stroke-linejoin="round" stroke-miterlimit="10" d="M192.303,302.493
		l0.762,0.762c0.218,0.218,0.653,0.436,0.98,0.436c0,0,6.642,0,7.731,0c2.287,0,2.94-2.396,1.524-3.811
		c-0.762-0.763-7.404-7.404-8.167-8.166c-1.416-1.416-3.811-0.763-3.811,1.524c0,1.089,0,7.73,0,7.73
		c0,0.326,0.218,0.762,0.436,0.979L192.303,302.493"/>
	<path fill="#FFFFFF" d="M319.695,302.493l-0.762,0.762c-0.217,0.218-0.652,0.436-0.979,0.436c0,0-6.642,0-7.731,0
		c-2.285,0-2.939-2.396-1.523-3.811c0.762-0.763,7.404-7.404,8.166-8.166c1.416-1.416,3.811-0.763,3.811,1.524
		c0,1.089,0,7.73,0,7.73c0,0.326-0.217,0.762-0.436,0.979L319.695,302.493"/>
	<path fill="none" stroke="#717071" stroke-linecap="round" stroke-linejoin="round" stroke-miterlimit="10" d="M319.695,302.493
		l-0.762,0.762c-0.217,0.218-0.652,0.436-0.979,0.436c0,0-6.642,0-7.731,0c-2.285,0-2.939-2.396-1.523-3.811
		c0.762-0.763,7.404-7.404,8.166-8.166c1.416-1.416,3.811-0.763,3.811,1.524c0,1.089,0,7.73,0,7.73c0,0.326-0.217,0.762-0.436,0.979
		L319.695,302.493"/>
	<path fill="#FFFFFF" d="M192.63,57.181l0.762-0.762c0.218-0.218,0.653-0.436,0.98-0.436c0,0,6.642,0,7.731,0
		c2.287,0,2.939,2.395,1.524,3.811c-0.762,0.762-7.404,7.404-8.167,8.167c-1.416,1.416-3.811,0.762-3.811-1.524
		c0-1.089,0-7.731,0-7.731c0-0.327,0.218-0.762,0.435-0.98L192.63,57.181"/>
	<path fill="none" stroke="#717071" stroke-linecap="round" stroke-linejoin="round" stroke-miterlimit="10" d="M192.63,57.181
		l0.762-0.762c0.218-0.218,0.653-0.436,0.98-0.436c0,0,6.642,0,7.731,0c2.287,0,2.939,2.395,1.524,3.811
		c-0.762,0.762-7.404,7.404-8.167,8.167c-1.416,1.416-3.811,0.762-3.811-1.524c0-1.089,0-7.731,0-7.731
		c0-0.327,0.218-0.762,0.435-0.98L192.63,57.181"/>
	<path fill="#FFFFFF" d="M319.369,57.181l-0.762-0.762c-0.218-0.218-0.653-0.436-0.98-0.436c0,0-6.642,0-7.73,0
		c-2.286,0-2.939,2.395-1.523,3.811c0.762,0.762,7.403,7.404,8.166,8.167c1.415,1.416,3.811,0.762,3.811-1.524
		c0-1.089,0-7.731,0-7.731c0-0.327-0.219-0.762-0.436-0.98L319.369,57.181"/>
	<path fill="none" stroke="#717071" stroke-linecap="round" stroke-linejoin="round" stroke-miterlimit="10" d="M319.369,57.181
		l-0.762-0.762c-0.218-0.218-0.653-0.436-0.98-0.436c0,0-6.642,0-7.73,0c-2.286,0-2.939,2.395-1.523,3.811
		c0.762,0.762,7.403,7.404,8.166,8.167c1.415,1.416,3.811,0.762,3.811-1.524c0-1.089,0-7.731,0-7.731
		c0-0.327-0.219-0.762-0.436-0.98L319.369,57.181"/>
	<path fill="#F8F7F0" d="M299.335,307.938c0.653,0,1.524-0.436,2.069-0.871L324.27,284.2c0.436-0.436,0.871-1.415,0.871-2.068
		v-15.788l-32.992,5.988h-72.189l-32.991-5.988v15.788c0,0.653,0.327,1.524,0.871,2.068l22.865,22.866
		c0.436,0.436,1.416,0.871,2.069,0.871H299.335L299.335,307.938z"/>
	<g>
		<g>
			<defs>
				<rect id="SVGID_3_" x="185.444" y="50.647" width="141.113" height="258.705"/>
			</defs>
			<clipPath id="SVGID_4_">
				<use xlink:href="#SVGID_3_"  overflow="visible"/>
			</clipPath>
			
				<path clip-path="url(#SVGID_4_)" fill="none" stroke="#717071" stroke-linecap="round" stroke-linejoin="round" stroke-miterlimit="10" d="
				M299.335,307.938c0.653,0,1.524-0.436,2.069-0.871L324.27,284.2c0.436-0.436,0.871-1.415,0.871-2.068v-15.788l-32.992,5.988
				h-72.189l-32.991-5.988v15.788c0,0.653,0.327,1.524,0.871,2.068l22.865,22.866c0.436,0.436,1.416,0.871,2.069,0.871H299.335
				L299.335,307.938z M190.453,281.479c-0.762,0-1.307-0.544-1.307-1.307c0-0.762,0.544-1.307,1.307-1.307h16.659
				c0.762,0,1.307,0.545,1.307,1.307c0,0.763-0.544,1.307-1.307,1.307H190.453L190.453,281.479z M304.889,281.479
				c-0.763,0-1.307-0.544-1.307-1.307c0-0.762,0.544-1.307,1.307-1.307h16.658c0.762,0,1.307,0.545,1.307,1.307
				c0,0.763-0.545,1.307-1.307,1.307H304.889L304.889,281.479z M199.816,293.564c-0.762,0-1.307-0.544-1.307-1.307
				c0-0.762,0.544-1.307,1.307-1.307h7.295c0.762,0,1.307,0.545,1.307,1.307c0,0.763-0.544,1.307-1.307,1.307H199.816
				L199.816,293.564z M235.203,293.564c-0.762,0-1.307-0.544-1.307-1.307c0-0.762,0.544-1.307,1.307-1.307h18.401
				c0.762,0,1.307,0.545,1.307,1.307c0,0.763-0.544,1.307-1.307,1.307H235.203L235.203,293.564z M212.011,293.564
				c-0.762,0-1.307-0.544-1.307-1.307c0-0.762,0.544-1.307,1.307-1.307h18.401c0.762,0,1.306,0.545,1.306,1.307
				c0,0.763-0.544,1.307-1.306,1.307H212.011L212.011,293.564z M258.395,293.564c-0.762,0-1.307-0.544-1.307-1.307
				c0-0.762,0.545-1.307,1.307-1.307h18.402c0.762,0,1.307,0.545,1.307,1.307c0,0.763-0.545,1.307-1.307,1.307H258.395
				L258.395,293.564z M281.588,293.564c-0.763,0-1.307-0.544-1.307-1.307c0-0.762,0.544-1.307,1.307-1.307h18.4
				c0.762,0,1.307,0.545,1.307,1.307c0,0.763-0.545,1.307-1.307,1.307H281.588L281.588,293.564z M223.553,299.662
				c-0.762,0-1.307-0.545-1.307-1.307c0-0.763,0.544-1.307,1.307-1.307h18.401c0.762,0,1.307,0.544,1.307,1.307
				c0,0.762-0.544,1.307-1.307,1.307H223.553L223.553,299.662z M206.022,299.662c-0.762,0-1.306-0.545-1.306-1.307
				c0-0.763,0.544-1.307,1.306-1.307h12.739c0.762,0,1.307,0.544,1.307,1.307c0,0.762-0.544,1.307-1.307,1.307H206.022
				L206.022,299.662z M293.238,299.662c-0.763,0-1.307-0.545-1.307-1.307c0-0.763,0.544-1.307,1.307-1.307h12.738
				c0.763,0,1.307,0.544,1.307,1.307c0,0.762-0.544,1.307-1.307,1.307H293.238L293.238,299.662z M246.854,299.662
				c-0.762,0-1.307-0.545-1.307-1.307c0-0.763,0.544-1.307,1.307-1.307h18.401c0.763,0,1.307,0.544,1.307,1.307
				c0,0.762-0.544,1.307-1.307,1.307H246.854L246.854,299.662z M235.203,305.76c-0.762,0-1.307-0.545-1.307-1.307
				c0-0.763,0.544-1.307,1.307-1.307h18.401c0.762,0,1.307,0.544,1.307,1.307c0,0.762-0.544,1.307-1.307,1.307H235.203
				L235.203,305.76z M258.395,305.76c-0.762,0-1.307-0.545-1.307-1.307c0-0.763,0.545-1.307,1.307-1.307h18.402
				c0.762,0,1.307,0.544,1.307,1.307c0,0.762-0.545,1.307-1.307,1.307H258.395L258.395,305.76z M281.588,305.76
				c-0.763,0-1.307-0.545-1.307-1.307c0-0.763,0.544-1.307,1.307-1.307h18.4c0.762,0,1.307,0.544,1.307,1.307
				c0,0.762-0.545,1.307-1.307,1.307H281.588L281.588,305.76z M212.011,305.76c-0.762,0-1.307-0.545-1.307-1.307
				c0-0.763,0.544-1.307,1.307-1.307h18.401c0.762,0,1.306,0.544,1.306,1.307c0,0.762-0.544,1.307-1.306,1.307H212.011
				L212.011,305.76z M270.045,299.662c-0.762,0-1.306-0.545-1.306-1.307c0-0.763,0.544-1.307,1.306-1.307h18.402
				c0.762,0,1.307,0.544,1.307,1.307c0,0.762-0.545,1.307-1.307,1.307H270.045L270.045,299.662z M212.011,281.479
				c-0.762,0-1.307-0.544-1.307-1.307c0-0.762,0.544-1.307,1.307-1.307h18.401c0.762,0,1.306,0.545,1.306,1.307
				c0,0.763-0.544,1.307-1.306,1.307H212.011L212.011,281.479z M258.395,281.479c-0.762,0-1.307-0.544-1.307-1.307
				c0-0.762,0.545-1.307,1.307-1.307h18.402c0.762,0,1.307,0.545,1.307,1.307c0,0.763-0.545,1.307-1.307,1.307H258.395
				L258.395,281.479z M235.203,281.479c-0.762,0-1.307-0.544-1.307-1.307c0-0.762,0.544-1.307,1.307-1.307h18.401
				c0.762,0,1.307,0.545,1.307,1.307c0,0.763-0.544,1.307-1.307,1.307H235.203L235.203,281.479z M281.588,281.479
				c-0.763,0-1.307-0.544-1.307-1.307c0-0.762,0.544-1.307,1.307-1.307h18.4c0.762,0,1.307,0.545,1.307,1.307
				c0,0.763-0.545,1.307-1.307,1.307H281.588L281.588,281.479z M200.361,287.467c-0.762,0-1.307-0.544-1.307-1.307
				c0-0.762,0.544-1.307,1.307-1.307h18.401c0.762,0,1.307,0.545,1.307,1.307c0,0.763-0.544,1.307-1.307,1.307H200.361
				L200.361,287.467z M193.828,287.467c-0.762,0-1.307-0.544-1.307-1.307c0-0.762,0.544-1.307,1.307-1.307h1.742
				c0.762,0,1.307,0.545,1.307,1.307c0,0.763-0.544,1.307-1.307,1.307H193.828L193.828,287.467z M246.854,287.467
				c-0.762,0-1.307-0.544-1.307-1.307c0-0.762,0.544-1.307,1.307-1.307h18.401c0.763,0,1.307,0.545,1.307,1.307
				c0,0.763-0.544,1.307-1.307,1.307H246.854L246.854,287.467z M223.553,287.467c-0.762,0-1.307-0.544-1.307-1.307
				c0-0.762,0.544-1.307,1.307-1.307h18.401c0.762,0,1.307,0.545,1.307,1.307c0,0.763-0.544,1.307-1.307,1.307H223.553
				L223.553,287.467z M270.045,287.467c-0.762,0-1.306-0.544-1.306-1.307c0-0.762,0.544-1.307,1.306-1.307h18.402
				c0.762,0,1.307,0.545,1.307,1.307c0,0.763-0.545,1.307-1.307,1.307H270.045L270.045,287.467z M293.238,287.467
				c-0.763,0-1.307-0.544-1.307-1.307c0-0.762,0.544-1.307,1.307-1.307h18.4c0.762,0,1.307,0.545,1.307,1.307
				c0,0.763-0.545,1.307-1.307,1.307H293.238L293.238,287.467z M316.43,287.467c-0.762,0-1.307-0.544-1.307-1.307
				c0-0.762,0.545-1.307,1.307-1.307h1.742c0.762,0,1.307,0.545,1.307,1.307c0,0.763-0.545,1.307-1.307,1.307H316.43L316.43,287.467
				z M304.889,293.564c-0.763,0-1.307-0.544-1.307-1.307c0-0.762,0.544-1.307,1.307-1.307h7.295c0.762,0,1.307,0.545,1.307,1.307
				c0,0.763-0.545,1.307-1.307,1.307H304.889L304.889,293.564z"/>
		</g>
	</g>
	<path fill="#F8F7F0" d="M191.759,89.627c0,0,0,130.986,0,131.421c0,0.871,0.218,1.307,0.979,1.96
		c0.762,0.653,0.871,1.197,0.871,1.851c0,3.484,0,18.511,0,21.886c0,0.762-0.109,1.197-0.871,1.851
		c-0.762,0.653-0.979,1.089-0.979,1.96c0,0.436,0,1.307,0,1.307l2.177,2.178h13.937c14.155,2.939,30.814,4.682,48.235,4.682
		c17.42,0,34.081-1.742,48.235-4.682h13.938l2.178-2.178c0,0,0-0.979,0-1.307c0-0.871-0.219-1.307-0.98-1.96
		s-0.871-1.197-0.871-1.851c0-3.484,0-18.51,0-21.886c0-0.762,0.109-1.197,0.871-1.851s0.98-1.089,0.98-1.96
		c0-0.436,0-131.421,0-131.421l-13.611-3.811H205.587L191.759,89.627L191.759,89.627z"/>
	<path fill="none" stroke="#717071" stroke-linecap="round" stroke-linejoin="round" d="M191.759,89.627c0,0,0,130.986,0,131.421
		c0,0.871,0.218,1.307,0.979,1.96c0.762,0.653,0.871,1.197,0.871,1.851c0,3.484,0,18.511,0,21.886c0,0.762-0.109,1.197-0.871,1.851
		c-0.762,0.653-0.979,1.089-0.979,1.96c0,0.436,0,1.307,0,1.307l2.177,2.178h13.937c14.155,2.939,30.814,4.682,48.235,4.682
		c17.42,0,34.081-1.742,48.235-4.682h13.938l2.178-2.178c0,0,0-0.979,0-1.307c0-0.871-0.219-1.307-0.98-1.96
		s-0.871-1.197-0.871-1.851c0-3.484,0-18.51,0-21.886c0-0.762,0.109-1.197,0.871-1.851s0.98-1.089,0.98-1.96
		c0-0.436,0-131.421,0-131.421l-13.611-3.811H205.587L191.759,89.627L191.759,89.627z"/>
	<path fill="#F8F7F0" d="M267.977,63.278c0,0,12.849-10.67,13.502-11.215c0.871-0.762,1.523-0.98,2.504-0.98
		c1.633,0,11.76,0,14.264,0c0.653,0,1.524,0.327,2.068,0.762l23.955,23.954c0.436,0.436,0.871,1.416,0.871,2.069v9.255
		l-19.164-4.246H206.24l-19.163,4.246v-9.255c0-0.653,0.327-1.524,0.871-2.069l23.954-23.954c0.436-0.436,1.416-0.762,2.069-0.762
		c2.504,0,12.63,0,14.264,0c0.98,0,1.633,0.327,2.504,0.98c0.653,0.544,13.501,11.215,13.501,11.215H267.977L267.977,63.278z"/>
	<g>
		<g>
			<defs>
				<rect id="SVGID_5_" x="185.444" y="50.647" width="141.113" height="258.705"/>
			</defs>
			<clipPath id="SVGID_6_">
				<use xlink:href="#SVGID_5_"  overflow="visible"/>
			</clipPath>
			
				<path clip-path="url(#SVGID_6_)" fill="none" stroke="#717071" stroke-linecap="round" stroke-linejoin="round" stroke-miterlimit="10" d="
				M267.977,63.278c0,0,12.849-10.67,13.502-11.215c0.871-0.762,1.523-0.98,2.504-0.98c1.633,0,11.76,0,14.264,0
				c0.653,0,1.524,0.327,2.068,0.762l23.955,23.954c0.436,0.436,0.871,1.416,0.871,2.069v9.255l-19.164-4.246H206.24l-19.163,4.246
				v-9.255c0-0.653,0.327-1.524,0.871-2.069l23.954-23.954c0.436-0.436,1.416-0.762,2.069-0.762c2.504,0,12.63,0,14.264,0
				c0.98,0,1.633,0.327,2.504,0.98c0.653,0.544,13.501,11.215,13.501,11.215H267.977L267.977,63.278z M186.859,82.332v-1.959
				c0-0.653,0.327-1.633,0.871-2.069l24.607-25.261c0.436-0.436,1.416-0.871,2.069-0.871h14.046c0.653,0,1.524,0.327,2.069,0.871
				l7.622,7.622 M189.473,76.67c1.633,0,2.831,1.742,2.831,3.702c0,0.871,0,1.851,0,1.851 M192.303,79.61h44.969 M274.728,79.61
				c0,0,46.929,0,47.909,0c1.088,0,1.85,0.109,2.504,0.327 M298.899,50.974h-14.046c-0.653,0-1.524,0.327-2.068,0.871l-8.82,8.819"
				/>
		</g>
	</g>
	<path fill="none" stroke="#717071" stroke-linecap="round" stroke-linejoin="round" d="M226.166,168.023h2.504
		c1.089,0,1.96,0.871,1.96,1.96s-0.871,1.96-1.96,1.96h-2.504V168.023L226.166,168.023z M229.324,169.983
		c0,0.327-0.327,0.653-0.653,0.653s-0.653-0.327-0.653-0.653s0.327-0.653,0.653-0.653S229.324,169.547,229.324,169.983
		L229.324,169.983z M285.834,168.023h-2.505c-1.089,0-1.96,0.871-1.96,1.96s0.871,1.96,1.96,1.96h2.505V168.023L285.834,168.023z
		 M282.676,169.983c0,0.327,0.326,0.653,0.653,0.653s0.653-0.327,0.653-0.653s-0.326-0.653-0.653-0.653
		S282.676,169.547,282.676,169.983L282.676,169.983z M257.959,215.822v-2.504c0-1.089-0.871-1.96-1.959-1.96
		c-1.089,0-1.96,0.871-1.96,1.96v2.504 M256,212.556c-0.327,0-0.653,0.327-0.653,0.653c0,0.327,0.327,0.653,0.653,0.653
		s0.652-0.326,0.652-0.653C256.652,212.883,256.327,212.556,256,212.556L256,212.556z M285.834,164.865v21.123
		c0,16.441-13.393,29.834-29.834,29.834s-29.834-13.393-29.834-29.834v-21.123h-1.633v21.123c0,17.422,14.046,31.468,31.467,31.468
		c17.421,0,31.467-14.046,31.467-31.468v-21.123H285.834L285.834,164.865z"/>
	<path fill="none" stroke="#717071" stroke-linecap="round" stroke-linejoin="round" stroke-miterlimit="10" d="M237.381,190.671
		c0-0.109-0.109-0.327-0.218-0.436l-1.307-1.307c-0.109-0.109-0.327-0.218-0.436-0.218h-0.436c-0.109,0-0.327,0.108-0.436,0.218
		l-1.307,1.307c-0.109,0.108-0.218,0.326-0.218,0.436v0.436c0,0.108,0.109,0.326,0.218,0.436l1.307,1.307
		c0.109,0.108,0.327,0.217,0.436,0.217h0.436c0.109,0,0.327-0.108,0.436-0.217l1.307-1.307c0.109-0.109,0.218-0.327,0.218-0.436
		V190.671L237.381,190.671z M245.656,190.671c0-0.109-0.109-0.327-0.218-0.436l-1.307-1.307c-0.109-0.109-0.326-0.218-0.436-0.218
		h-0.435c-0.109,0-0.327,0.108-0.436,0.218l-1.307,1.307c-0.109,0.108-0.218,0.326-0.218,0.436v0.436
		c0,0.108,0.109,0.326,0.218,0.436l1.307,1.307c0.109,0.108,0.327,0.217,0.436,0.217h0.435c0.109,0,0.327-0.108,0.436-0.217
		l1.307-1.307c0.109-0.109,0.218-0.327,0.218-0.436V190.671L245.656,190.671z M253.931,190.671c0-0.109-0.109-0.327-0.218-0.436
		l-1.307-1.307c-0.109-0.109-0.327-0.218-0.436-0.218h-0.327c-0.109,0-0.327,0.108-0.436,0.218l-1.307,1.307
		c-0.109,0.108-0.218,0.326-0.218,0.436v0.436c0,0.108,0.109,0.326,0.218,0.436l1.307,1.307c0.109,0.108,0.327,0.217,0.436,0.217
		h0.436c0.109,0,0.327-0.108,0.436-0.217l1.307-1.307c0.109-0.109,0.218-0.327,0.218-0.436v-0.436H253.931z M262.206,190.671
		c0-0.109-0.108-0.327-0.218-0.436l-1.307-1.307c-0.109-0.109-0.326-0.218-0.436-0.218h-0.436c-0.109,0-0.326,0.108-0.436,0.218
		l-1.307,1.307c-0.109,0.108-0.218,0.326-0.218,0.436v0.436c0,0.108,0.108,0.326,0.218,0.436l1.307,1.307
		c0.109,0.108,0.326,0.217,0.436,0.217h0.436c0.109,0,0.326-0.108,0.436-0.217l1.307-1.307c0.109-0.109,0.218-0.327,0.218-0.436
		V190.671L262.206,190.671z M270.48,190.671c0-0.109-0.108-0.327-0.217-0.436l-1.307-1.307c-0.109-0.109-0.326-0.218-0.436-0.218
		h-0.436c-0.109,0-0.326,0.108-0.436,0.218l-1.307,1.307c-0.109,0.108-0.218,0.326-0.218,0.436v0.436
		c0,0.108,0.108,0.326,0.218,0.436l1.307,1.307c0.109,0.108,0.326,0.217,0.436,0.217h0.436c0.109,0,0.326-0.108,0.436-0.217
		l1.307-1.307c0.108-0.109,0.217-0.327,0.217-0.436V190.671L270.48,190.671z M278.756,190.671c0-0.109-0.108-0.327-0.217-0.436
		l-1.307-1.307c-0.109-0.109-0.327-0.218-0.436-0.218h-0.436c-0.109,0-0.327,0.108-0.436,0.218l-1.307,1.307
		c-0.109,0.108-0.219,0.326-0.219,0.436v0.436c0,0.108,0.109,0.326,0.219,0.436l1.307,1.307c0.108,0.108,0.326,0.217,0.436,0.217
		h0.436c0.108,0,0.326-0.108,0.436-0.217l1.307-1.307c0.108-0.109,0.217-0.327,0.217-0.436V190.671L278.756,190.671z
		 M237.381,198.945c0-0.108-0.109-0.326-0.218-0.436l-1.307-1.307c-0.109-0.108-0.327-0.218-0.436-0.218h-0.436
		c-0.109,0-0.327,0.109-0.436,0.218l-1.307,1.307c-0.109,0.109-0.218,0.327-0.218,0.436v0.436c0,0.109,0.109,0.327,0.218,0.436
		l1.307,1.307c0.109,0.109,0.327,0.218,0.436,0.218h0.436c0.109,0,0.327-0.108,0.436-0.218l1.307-1.307
		c0.109-0.108,0.218-0.326,0.218-0.436V198.945L237.381,198.945z M245.656,198.945c0-0.108-0.109-0.326-0.218-0.436l-1.307-1.307
		c-0.109-0.108-0.326-0.218-0.436-0.218h-0.435c-0.109,0-0.327,0.109-0.436,0.218l-1.307,1.307
		c-0.109,0.109-0.218,0.327-0.218,0.436v0.436c0,0.109,0.109,0.327,0.218,0.436l1.307,1.307c0.109,0.109,0.327,0.218,0.436,0.218
		h0.435c0.109,0,0.327-0.108,0.436-0.218l1.307-1.307c0.109-0.108,0.218-0.326,0.218-0.436V198.945L245.656,198.945z
		 M253.931,198.945c0-0.108-0.109-0.326-0.218-0.436l-1.307-1.307c-0.109-0.108-0.327-0.218-0.436-0.218h-0.327
		c-0.109,0-0.327,0.109-0.436,0.218l-1.307,1.307c-0.109,0.109-0.218,0.327-0.218,0.436v0.436c0,0.109,0.109,0.327,0.218,0.436
		l1.307,1.307c0.109,0.109,0.327,0.218,0.436,0.218h0.436c0.109,0,0.327-0.108,0.436-0.218l1.307-1.307
		c0.109-0.108,0.218-0.326,0.218-0.436v-0.436H253.931z M262.206,198.945c0-0.108-0.108-0.326-0.218-0.436l-1.307-1.307
		c-0.109-0.108-0.326-0.218-0.436-0.218h-0.436c-0.109,0-0.326,0.109-0.436,0.218l-1.197,1.307
		c-0.109,0.109-0.219,0.327-0.219,0.436v0.436c0,0.109,0.109,0.327,0.219,0.436l1.307,1.307c0.108,0.109,0.326,0.218,0.436,0.218
		h0.436c0.108,0,0.326-0.108,0.436-0.218l1.307-1.307c0.108-0.108,0.217-0.326,0.217-0.436v-0.436H262.206z M270.48,198.945
		c0-0.108-0.108-0.326-0.217-0.436l-1.307-1.307c-0.109-0.108-0.326-0.218-0.436-0.218h-0.436c-0.109,0-0.326,0.109-0.436,0.218
		l-1.307,1.307c-0.109,0.109-0.218,0.327-0.218,0.436v0.436c0,0.109,0.108,0.327,0.218,0.436l1.307,1.307
		c0.109,0.109,0.326,0.218,0.436,0.218h0.436c0.109,0,0.326-0.108,0.436-0.218l1.307-1.307c0.108-0.108,0.217-0.326,0.217-0.436
		V198.945L270.48,198.945z M278.756,198.945c0-0.108-0.108-0.326-0.217-0.436l-1.307-1.307c-0.109-0.108-0.327-0.218-0.436-0.218
		h-0.436c-0.109,0-0.327,0.109-0.436,0.218l-1.307,1.307c-0.109,0.109-0.219,0.327-0.219,0.436v0.436
		c0,0.109,0.109,0.327,0.219,0.436l1.307,1.307c0.108,0.109,0.326,0.218,0.436,0.218h0.436c0.108,0,0.326-0.108,0.436-0.218
		l1.307-1.307c0.108-0.108,0.217-0.326,0.217-0.436V198.945L278.756,198.945z M245.656,207.221c0-0.109-0.109-0.327-0.218-0.436
		l-1.307-1.307c-0.109-0.108-0.326-0.218-0.436-0.218h-0.435c-0.109,0-0.327,0.109-0.436,0.218l-1.307,1.307
		c-0.109,0.108-0.218,0.326-0.218,0.436v0.436c0,0.108,0.109,0.326,0.218,0.436l1.307,1.307c0.109,0.108,0.327,0.218,0.436,0.218
		h0.435c0.109,0,0.327-0.109,0.436-0.218l1.307-1.307c0.109-0.109,0.218-0.327,0.218-0.436V207.221L245.656,207.221z
		 M253.931,207.221c0-0.109-0.109-0.327-0.218-0.436l-1.307-1.307c-0.109-0.108-0.327-0.218-0.436-0.218h-0.327
		c-0.109,0-0.327,0.109-0.436,0.218l-1.307,1.307c-0.109,0.108-0.218,0.326-0.218,0.436v0.436c0,0.108,0.109,0.326,0.218,0.436
		l1.307,1.307c0.109,0.108,0.327,0.218,0.436,0.218h0.436c0.109,0,0.327-0.109,0.436-0.218l1.307-1.307
		c0.109-0.109,0.218-0.327,0.218-0.436v-0.436H253.931z M262.206,207.221c0-0.109-0.108-0.327-0.218-0.436l-1.307-1.307
		c-0.109-0.108-0.326-0.218-0.436-0.218h-0.436c-0.109,0-0.326,0.109-0.436,0.218l-1.307,1.307
		c-0.109,0.108-0.218,0.326-0.218,0.436v0.436c0,0.108,0.108,0.326,0.218,0.436l1.307,1.307c0.109,0.108,0.326,0.218,0.436,0.218
		h0.436c0.109,0,0.326-0.109,0.436-0.218l1.307-1.307c0.109-0.109,0.218-0.327,0.218-0.436V207.221L262.206,207.221z
		 M270.48,207.221c0-0.109-0.108-0.327-0.217-0.436l-1.307-1.307c-0.109-0.108-0.326-0.218-0.436-0.218h-0.436
		c-0.109,0-0.326,0.109-0.436,0.218l-1.307,1.307c-0.109,0.108-0.218,0.326-0.218,0.436v0.436c0,0.108,0.108,0.326,0.218,0.436
		l1.307,1.307c0.109,0.108,0.326,0.218,0.436,0.218h0.436c0.109,0,0.326-0.109,0.436-0.218l1.307-1.307
		c0.108-0.109,0.217-0.327,0.217-0.436V207.221L270.48,207.221z M204.39,223.117c0-0.108-0.109-0.326-0.218-0.436l-1.307-1.307
		c-0.109-0.108-0.327-0.218-0.436-0.218h-0.436c-0.109,0-0.327,0.109-0.436,0.218l-1.307,1.307
		c-0.109,0.109-0.218,0.327-0.218,0.436v0.436c0,0.109,0.109,0.327,0.218,0.436l1.307,1.307c0.109,0.109,0.327,0.218,0.436,0.218
		h0.436c0.109,0,0.327-0.108,0.436-0.218l1.307-1.307c0.109-0.108,0.218-0.326,0.218-0.436V223.117L204.39,223.117z
		 M212.665,223.117c0-0.108-0.109-0.326-0.218-0.436l-1.307-1.307c-0.109-0.108-0.327-0.218-0.436-0.218h-0.436
		c-0.109,0-0.327,0.109-0.436,0.218l-1.307,1.307c-0.109,0.109-0.218,0.327-0.218,0.436v0.436c0,0.109,0.109,0.327,0.218,0.436
		l1.307,1.307c0.109,0.109,0.327,0.218,0.436,0.218h0.436c0.109,0,0.327-0.108,0.436-0.218l1.307-1.307
		c0.109-0.108,0.218-0.326,0.218-0.436V223.117L212.665,223.117z M220.939,223.117c0-0.108-0.109-0.326-0.218-0.436l-1.307-1.307
		c-0.109-0.108-0.327-0.218-0.436-0.218h-0.436c-0.109,0-0.327,0.109-0.435,0.218l-1.307,1.307
		c-0.109,0.109-0.218,0.327-0.218,0.436v0.436c0,0.109,0.109,0.327,0.218,0.436l1.307,1.307c0.108,0.109,0.326,0.218,0.435,0.218
		h0.436c0.109,0,0.327-0.108,0.436-0.218l1.307-1.307c0.109-0.108,0.218-0.326,0.218-0.436V223.117L220.939,223.117z
		 M229.106,223.117c0-0.108-0.109-0.326-0.218-0.436l-1.198-1.307c-0.109-0.108-0.327-0.218-0.436-0.218h-0.436
		c-0.109,0-0.327,0.109-0.436,0.218l-1.307,1.307c-0.109,0.109-0.218,0.327-0.218,0.436v0.436c0,0.109,0.109,0.327,0.218,0.436
		l1.307,1.307c0.109,0.109,0.327,0.218,0.436,0.218h0.436c0.109,0,0.327-0.108,0.436-0.218l1.307-1.307
		c0.109-0.108,0.218-0.326,0.218-0.436v-0.436H229.106z M237.381,223.117c0-0.108-0.109-0.326-0.218-0.436l-1.307-1.307
		c-0.109-0.108-0.327-0.218-0.436-0.218h-0.436c-0.109,0-0.327,0.109-0.436,0.218l-1.307,1.307
		c-0.109,0.109-0.218,0.327-0.218,0.436v0.436c0,0.109,0.109,0.327,0.218,0.436l1.307,1.307c0.109,0.109,0.327,0.218,0.436,0.218
		h0.436c0.109,0,0.327-0.108,0.436-0.218l1.307-1.307c0.109-0.108,0.218-0.326,0.218-0.436V223.117L237.381,223.117z
		 M245.656,223.117c0-0.108-0.109-0.326-0.218-0.436l-1.307-1.307c-0.109-0.108-0.326-0.218-0.436-0.218h-0.435
		c-0.109,0-0.327,0.109-0.436,0.218l-1.307,1.307c-0.109,0.109-0.218,0.327-0.218,0.436v0.436c0,0.109,0.109,0.327,0.218,0.436
		l1.307,1.307c0.109,0.109,0.327,0.218,0.436,0.218h0.435c0.109,0,0.327-0.108,0.436-0.218l1.307-1.307
		c0.109-0.108,0.218-0.326,0.218-0.436V223.117L245.656,223.117z M253.931,223.117c0-0.108-0.109-0.326-0.218-0.436l-1.307-1.307
		c-0.109-0.108-0.327-0.218-0.436-0.218h-0.327c-0.109,0-0.327,0.109-0.436,0.218l-1.307,1.307
		c-0.109,0.109-0.218,0.327-0.218,0.436v0.436c0,0.109,0.109,0.327,0.218,0.436l1.307,1.307c0.109,0.109,0.327,0.218,0.436,0.218
		h0.436c0.109,0,0.327-0.108,0.436-0.218l1.307-1.307c0.109-0.108,0.218-0.326,0.218-0.436v-0.436H253.931z M262.206,223.117
		c0-0.108-0.108-0.326-0.218-0.436l-1.307-1.307c-0.109-0.108-0.326-0.218-0.436-0.218h-0.436c-0.109,0-0.326,0.109-0.436,0.218
		l-1.307,1.307c-0.109,0.109-0.218,0.327-0.218,0.436v0.436c0,0.109,0.108,0.327,0.218,0.436l1.307,1.307
		c0.109,0.109,0.326,0.218,0.436,0.218h0.436c0.109,0,0.326-0.108,0.436-0.218l1.307-1.307c0.109-0.108,0.218-0.326,0.218-0.436
		V223.117L262.206,223.117z M270.48,223.117c0-0.108-0.108-0.326-0.217-0.436l-1.197-1.307c-0.109-0.108-0.327-0.218-0.436-0.218
		h-0.436c-0.109,0-0.327,0.109-0.436,0.218l-1.307,1.307c-0.109,0.109-0.219,0.327-0.219,0.436v0.436
		c0,0.109,0.109,0.327,0.219,0.436l1.307,1.307c0.108,0.109,0.326,0.218,0.436,0.218h0.436c0.108,0,0.326-0.108,0.436-0.218
		l1.306-1.307c0.108-0.108,0.218-0.326,0.218-0.436v-0.436H270.48z M278.756,223.117c0-0.108-0.108-0.326-0.217-0.436l-1.307-1.307
		c-0.109-0.108-0.327-0.218-0.436-0.218h-0.436c-0.109,0-0.327,0.109-0.436,0.218l-1.307,1.307
		c-0.109,0.109-0.219,0.327-0.219,0.436v0.436c0,0.109,0.109,0.327,0.219,0.436l1.307,1.307c0.108,0.109,0.326,0.218,0.436,0.218
		h0.436c0.108,0,0.326-0.108,0.436-0.218l1.307-1.307c0.108-0.108,0.217-0.326,0.217-0.436V223.117L278.756,223.117z
		 M287.031,223.117c0-0.108-0.109-0.326-0.218-0.436l-1.307-1.307c-0.108-0.108-0.218-0.218-0.436-0.218h-0.436
		c-0.108,0-0.327,0.109-0.436,0.218l-1.306,1.307c-0.109,0.109-0.219,0.327-0.219,0.436v0.436c0,0.109,0.109,0.327,0.219,0.436
		l1.306,1.307c0.108,0.109,0.327,0.218,0.436,0.218h0.436c0.108,0,0.327-0.108,0.436-0.218l1.307-1.307
		c0.108-0.108,0.218-0.326,0.218-0.436V223.117L287.031,223.117z M295.307,223.117c0-0.108-0.109-0.326-0.218-0.436l-1.307-1.307
		c-0.108-0.108-0.327-0.218-0.436-0.218h-0.436c-0.108,0-0.327,0.109-0.436,0.218l-1.307,1.307
		c-0.108,0.109-0.218,0.327-0.218,0.436v0.436c0,0.109,0.109,0.327,0.218,0.436l1.307,1.307c0.108,0.109,0.327,0.218,0.436,0.218
		h0.436c0.108,0,0.327-0.108,0.436-0.218l1.307-1.307c0.108-0.108,0.218-0.326,0.218-0.436V223.117L295.307,223.117z
		 M303.473,223.117c0-0.108-0.109-0.326-0.218-0.436l-1.307-1.307c-0.108-0.108-0.327-0.218-0.436-0.218h-0.436
		c-0.108,0-0.327,0.109-0.436,0.218l-1.307,1.307c-0.108,0.109-0.218,0.327-0.218,0.436v0.436c0,0.109,0.109,0.327,0.218,0.436
		l1.307,1.307c0.108,0.109,0.327,0.218,0.436,0.218h0.436c0.108,0,0.327-0.108,0.436-0.218l1.307-1.307
		c0.108-0.108,0.218-0.326,0.218-0.436V223.117L303.473,223.117z M311.748,223.117c0-0.108-0.109-0.326-0.219-0.436l-1.307-1.307
		c-0.108-0.108-0.326-0.218-0.436-0.218h-0.436c-0.108,0-0.326,0.109-0.436,0.218l-1.306,1.307
		c-0.108,0.109-0.218,0.327-0.218,0.436v0.436c0,0.109,0.109,0.327,0.218,0.436l1.306,1.307c0.109,0.109,0.327,0.218,0.436,0.218
		h0.436c0.109,0,0.327-0.108,0.436-0.218l1.307-1.307c0.109-0.108,0.219-0.326,0.219-0.436V223.117L311.748,223.117z
		 M204.39,214.843c0-0.109-0.109-0.327-0.218-0.436l-1.307-1.307c-0.109-0.109-0.327-0.218-0.436-0.218h-0.436
		c-0.109,0-0.327,0.108-0.436,0.218l-1.307,1.307c-0.109,0.108-0.218,0.326-0.218,0.436v0.436c0,0.108,0.109,0.326,0.218,0.436
		l1.307,1.307c0.109,0.108,0.327,0.218,0.436,0.218h0.436c0.109,0,0.327-0.109,0.436-0.218l1.307-1.307
		c0.109-0.109,0.218-0.327,0.218-0.436V214.843L204.39,214.843z M212.665,214.843c0-0.109-0.109-0.327-0.218-0.436l-1.307-1.307
		c-0.109-0.109-0.327-0.218-0.436-0.218h-0.436c-0.109,0-0.327,0.108-0.436,0.218l-1.307,1.307
		c-0.109,0.108-0.218,0.326-0.218,0.436v0.436c0,0.108,0.109,0.326,0.218,0.436l1.307,1.307c0.109,0.108,0.327,0.218,0.436,0.218
		h0.436c0.109,0,0.327-0.109,0.436-0.218l1.307-1.307c0.109-0.109,0.218-0.327,0.218-0.436V214.843L212.665,214.843z
		 M220.939,214.843c0-0.109-0.109-0.327-0.218-0.436l-1.307-1.307c-0.109-0.109-0.327-0.218-0.436-0.218h-0.436
		c-0.109,0-0.327,0.108-0.435,0.218l-1.307,1.307c-0.109,0.108-0.218,0.326-0.218,0.436v0.436c0,0.108,0.109,0.326,0.218,0.436
		l1.307,1.307c0.108,0.108,0.326,0.218,0.435,0.218h0.436c0.109,0,0.327-0.109,0.436-0.218l1.307-1.307
		c0.109-0.109,0.218-0.327,0.218-0.436V214.843L220.939,214.843z M229.106,214.843c0-0.109-0.109-0.327-0.218-0.436l-1.307-1.307
		c-0.109-0.109-0.327-0.218-0.436-0.218h-0.436c-0.109,0-0.327,0.108-0.436,0.218l-1.307,1.307
		c-0.109,0.108-0.218,0.326-0.218,0.436v0.436c0,0.108,0.109,0.326,0.218,0.436l1.307,1.307c0.109,0.108,0.327,0.218,0.436,0.218
		h0.436c0.109,0,0.327-0.109,0.436-0.218l1.307-1.307c0.109-0.109,0.218-0.327,0.218-0.436V214.843L229.106,214.843z
		 M237.381,214.843c0-0.109-0.109-0.327-0.218-0.436l-1.307-1.307c-0.109-0.109-0.327-0.218-0.436-0.218h-0.436
		c-0.109,0-0.327,0.108-0.436,0.218l-1.307,1.307c-0.109,0.108-0.218,0.326-0.218,0.436v0.436c0,0.108,0.109,0.326,0.218,0.436
		l1.307,1.307c0.109,0.108,0.327,0.218,0.436,0.218h0.436c0.109,0,0.327-0.109,0.436-0.218l1.307-1.307
		c0.109-0.109,0.218-0.327,0.218-0.436V214.843L237.381,214.843z M278.756,214.843c0-0.109-0.108-0.327-0.217-0.436l-1.307-1.307
		c-0.109-0.109-0.327-0.218-0.436-0.218h-0.436c-0.109,0-0.327,0.108-0.436,0.218l-1.307,1.307
		c-0.109,0.108-0.219,0.326-0.219,0.436v0.436c0,0.108,0.109,0.326,0.219,0.436l1.307,1.307c0.108,0.108,0.326,0.218,0.436,0.218
		h0.436c0.108,0,0.326-0.109,0.436-0.218l1.307-1.307c0.108-0.109,0.217-0.327,0.217-0.436V214.843L278.756,214.843z
		 M287.031,214.843c0-0.109-0.109-0.327-0.218-0.436l-1.307-1.307c-0.108-0.109-0.218-0.218-0.436-0.218h-0.436
		c-0.108,0-0.327,0.108-0.436,0.218l-1.306,1.307c-0.109,0.108-0.219,0.326-0.219,0.436v0.436c0,0.108,0.109,0.326,0.219,0.436
		l1.306,1.307c0.108,0.108,0.327,0.218,0.436,0.218h0.436c0.108,0,0.327-0.109,0.436-0.218l1.307-1.307
		c0.108-0.109,0.218-0.327,0.218-0.436V214.843L287.031,214.843z M295.307,214.843c0-0.109-0.109-0.327-0.218-0.436l-1.307-1.307
		c-0.108-0.109-0.327-0.218-0.436-0.218h-0.436c-0.108,0-0.327,0.108-0.436,0.218l-1.307,1.307
		c-0.108,0.108-0.218,0.326-0.218,0.436v0.436c0,0.108,0.109,0.326,0.218,0.436l1.307,1.307c0.108,0.108,0.327,0.218,0.436,0.218
		h0.436c0.108,0,0.327-0.109,0.436-0.218l1.307-1.307c0.108-0.109,0.218-0.327,0.218-0.436V214.843L295.307,214.843z
		 M303.473,214.843c0-0.109-0.109-0.327-0.218-0.436l-1.307-1.307c-0.108-0.109-0.327-0.218-0.436-0.218h-0.436
		c-0.108,0-0.327,0.108-0.436,0.218l-1.307,1.307c-0.108,0.108-0.218,0.326-0.218,0.436v0.436c0,0.108,0.109,0.326,0.218,0.436
		l1.307,1.307c0.108,0.108,0.327,0.218,0.436,0.218h0.436c0.108,0,0.327-0.109,0.436-0.218l1.307-1.307
		c0.108-0.109,0.218-0.327,0.218-0.436V214.843L303.473,214.843z M311.748,214.843c0-0.109-0.109-0.327-0.219-0.436l-1.307-1.307
		c-0.108-0.109-0.326-0.218-0.436-0.218h-0.436c-0.108,0-0.326,0.108-0.436,0.218l-1.306,1.307
		c-0.108,0.108-0.218,0.326-0.218,0.436v0.436c0,0.108,0.109,0.326,0.218,0.436l1.306,1.307c0.109,0.108,0.327,0.218,0.436,0.218
		h0.436c0.109,0,0.327-0.109,0.436-0.218l1.307-1.307c0.109-0.109,0.219-0.327,0.219-0.436V214.843L311.748,214.843z
		 M204.39,206.567c0-0.109-0.109-0.327-0.218-0.436l-1.307-1.307c-0.109-0.108-0.327-0.218-0.436-0.218h-0.436
		c-0.109,0-0.327,0.109-0.436,0.218l-1.307,1.307c-0.109,0.108-0.218,0.326-0.218,0.436v0.436c0,0.108,0.109,0.326,0.218,0.436
		l1.307,1.307c0.109,0.108,0.327,0.218,0.436,0.218h0.436c0.109,0,0.327-0.109,0.436-0.218l1.307-1.307
		c0.109-0.109,0.218-0.327,0.218-0.436V206.567L204.39,206.567z M212.665,206.567c0-0.109-0.109-0.327-0.218-0.436l-1.307-1.307
		c-0.109-0.108-0.327-0.218-0.436-0.218h-0.436c-0.109,0-0.327,0.109-0.436,0.218l-1.307,1.307
		c-0.109,0.108-0.218,0.326-0.218,0.436v0.436c0,0.108,0.109,0.326,0.218,0.436l1.307,1.307c0.109,0.108,0.327,0.218,0.436,0.218
		h0.436c0.109,0,0.327-0.109,0.436-0.218l1.307-1.307c0.109-0.109,0.218-0.327,0.218-0.436V206.567L212.665,206.567z
		 M220.939,206.567c0-0.109-0.109-0.327-0.218-0.436l-1.307-1.307c-0.109-0.108-0.327-0.218-0.436-0.218h-0.436
		c-0.109,0-0.327,0.109-0.435,0.218l-1.307,1.307c-0.109,0.108-0.218,0.326-0.218,0.436v0.436c0,0.108,0.109,0.326,0.218,0.436
		l1.307,1.307c0.108,0.108,0.326,0.218,0.435,0.218h0.436c0.109,0,0.327-0.109,0.436-0.218l1.307-1.307
		c0.109-0.109,0.218-0.327,0.218-0.436V206.567L220.939,206.567z M229.106,206.567c0-0.109-0.109-0.327-0.218-0.436l-1.307-1.307
		c-0.109-0.108-0.327-0.218-0.436-0.218h-0.436c-0.109,0-0.327,0.109-0.436,0.218l-1.307,1.307
		c-0.109,0.108-0.218,0.326-0.218,0.436v0.436c0,0.108,0.109,0.326,0.218,0.436l1.307,1.307c0.109,0.108,0.327,0.218,0.436,0.218
		h0.436c0.109,0,0.327-0.109,0.436-0.218l1.307-1.307c0.109-0.109,0.218-0.327,0.218-0.436V206.567L229.106,206.567z
		 M287.031,206.567c0-0.109-0.109-0.327-0.218-0.436l-1.307-1.307c-0.108-0.108-0.218-0.218-0.436-0.218h-0.436
		c-0.108,0-0.327,0.109-0.436,0.218l-1.306,1.307c-0.109,0.108-0.219,0.326-0.219,0.436v0.436c0,0.108,0.109,0.326,0.219,0.436
		l1.306,1.307c0.108,0.108,0.327,0.218,0.436,0.218h0.436c0.108,0,0.327-0.109,0.436-0.218l1.307-1.307
		c0.108-0.109,0.218-0.327,0.218-0.436V206.567L287.031,206.567z M295.307,206.567c0-0.109-0.109-0.327-0.218-0.436l-1.307-1.307
		c-0.108-0.108-0.327-0.218-0.436-0.218h-0.436c-0.108,0-0.327,0.109-0.436,0.218l-1.307,1.307
		c-0.108,0.108-0.218,0.326-0.218,0.436v0.436c0,0.108,0.109,0.326,0.218,0.436l1.307,1.307c0.108,0.108,0.327,0.218,0.436,0.218
		h0.436c0.108,0,0.327-0.109,0.436-0.218l1.307-1.307c0.108-0.109,0.218-0.327,0.218-0.436V206.567L295.307,206.567z
		 M303.473,206.567c0-0.109-0.109-0.327-0.218-0.436l-1.307-1.307c-0.108-0.108-0.327-0.218-0.436-0.218h-0.436
		c-0.108,0-0.327,0.109-0.436,0.218l-1.089,1.307c-0.109,0.108-0.218,0.326-0.218,0.436v0.436c0,0.108,0.108,0.326,0.218,0.436
		l1.307,1.307c0.109,0.108,0.326,0.218,0.436,0.218h0.436c0.109,0,0.326-0.109,0.436-0.218l1.307-1.307
		c0.109-0.109,0.218-0.327,0.218-0.436v-0.436H303.473z M311.748,206.567c0-0.109-0.109-0.327-0.219-0.436l-1.307-1.307
		c-0.108-0.108-0.326-0.218-0.436-0.218h-0.436c-0.108,0-0.326,0.109-0.436,0.218l-1.306,1.307
		c-0.108,0.108-0.218,0.326-0.218,0.436v0.436c0,0.108,0.109,0.326,0.218,0.436l1.306,1.307c0.109,0.108,0.327,0.218,0.436,0.218
		h0.436c0.109,0,0.327-0.109,0.436-0.218l1.307-1.307c0.109-0.109,0.219-0.327,0.219-0.436V206.567L311.748,206.567z
		 M204.39,198.292c0-0.108-0.109-0.326-0.218-0.436l-1.307-1.307c-0.109-0.108-0.327-0.218-0.436-0.218h-0.436
		c-0.109,0-0.327,0.109-0.436,0.218l-1.307,1.307c-0.109,0.109-0.218,0.327-0.218,0.436v0.436c0,0.109,0.109,0.327,0.218,0.436
		l1.307,1.307c0.109,0.109,0.327,0.218,0.436,0.218h0.436c0.109,0,0.327-0.108,0.436-0.218l1.307-1.307
		c0.109-0.108,0.218-0.326,0.218-0.436V198.292L204.39,198.292z M212.665,198.292c0-0.108-0.109-0.326-0.218-0.436l-1.307-1.307
		c-0.109-0.108-0.327-0.218-0.436-0.218h-0.436c-0.109,0-0.327,0.109-0.436,0.218l-1.307,1.307
		c-0.109,0.109-0.218,0.327-0.218,0.436v0.436c0,0.109,0.109,0.327,0.218,0.436l1.307,1.307c0.109,0.109,0.327,0.218,0.436,0.218
		h0.436c0.109,0,0.327-0.108,0.436-0.218l1.307-1.307c0.109-0.108,0.218-0.326,0.218-0.436V198.292L212.665,198.292z
		 M220.939,198.292c0-0.108-0.109-0.326-0.218-0.436l-1.307-1.307c-0.109-0.108-0.327-0.218-0.436-0.218h-0.436
		c-0.109,0-0.327,0.109-0.435,0.218l-1.307,1.307c-0.109,0.109-0.218,0.327-0.218,0.436v0.436c0,0.109,0.109,0.327,0.218,0.436
		l1.307,1.307c0.108,0.109,0.326,0.218,0.435,0.218h0.436c0.109,0,0.327-0.108,0.436-0.218l1.307-1.307
		c0.109-0.108,0.218-0.326,0.218-0.436V198.292L220.939,198.292z M295.307,198.292c0-0.108-0.109-0.326-0.218-0.436l-1.307-1.307
		c-0.108-0.108-0.327-0.218-0.436-0.218h-0.436c-0.108,0-0.327,0.109-0.436,0.218l-1.307,1.307
		c-0.108,0.109-0.218,0.327-0.218,0.436v0.436c0,0.109,0.109,0.327,0.218,0.436l1.307,1.307c0.108,0.109,0.327,0.218,0.436,0.218
		h0.436c0.108,0,0.327-0.108,0.436-0.218l1.307-1.307c0.108-0.108,0.218-0.326,0.218-0.436V198.292L295.307,198.292z
		 M303.473,198.292c0-0.108-0.109-0.326-0.218-0.436l-1.307-1.307c-0.108-0.108-0.327-0.218-0.436-0.218h-0.436
		c-0.108,0-0.327,0.109-0.436,0.218l-1.307,1.307c-0.108,0.109-0.218,0.327-0.218,0.436v0.436c0,0.109,0.109,0.327,0.218,0.436
		l1.307,1.307c0.108,0.109,0.327,0.218,0.436,0.218h0.436c0.108,0,0.327-0.108,0.436-0.218l1.307-1.307
		c0.108-0.108,0.218-0.326,0.218-0.436V198.292L303.473,198.292z M311.748,198.292c0-0.108-0.109-0.326-0.219-0.436l-1.307-1.307
		c-0.108-0.108-0.326-0.218-0.436-0.218h-0.436c-0.108,0-0.326,0.109-0.436,0.218l-1.306,1.307
		c-0.108,0.109-0.218,0.327-0.218,0.436v0.436c0,0.109,0.109,0.327,0.218,0.436l1.306,1.307c0.109,0.109,0.327,0.218,0.436,0.218
		h0.436c0.109,0,0.327-0.108,0.436-0.218l1.307-1.307c0.109-0.108,0.219-0.326,0.219-0.436V198.292L311.748,198.292z
		 M204.39,190.018c0-0.109-0.109-0.327-0.218-0.436l-1.307-1.307c-0.109-0.109-0.327-0.218-0.436-0.218h-0.436
		c-0.109,0-0.327,0.108-0.436,0.218l-1.307,1.307c-0.109,0.108-0.218,0.326-0.218,0.436v0.436c0,0.108,0.109,0.326,0.218,0.436
		l1.307,1.307c0.109,0.108,0.327,0.218,0.436,0.218h0.436c0.109,0,0.327-0.109,0.436-0.218l1.307-1.307
		c0.109-0.109,0.218-0.327,0.218-0.436V190.018L204.39,190.018z M212.665,190.018c0-0.109-0.109-0.327-0.218-0.436l-1.307-1.307
		c-0.109-0.109-0.327-0.218-0.436-0.218h-0.436c-0.109,0-0.327,0.108-0.436,0.218l-1.307,1.307
		c-0.109,0.108-0.218,0.326-0.218,0.436v0.436c0,0.108,0.109,0.326,0.218,0.436l1.307,1.307c0.109,0.108,0.327,0.218,0.436,0.218
		h0.436c0.109,0,0.327-0.109,0.436-0.218l1.307-1.307c0.109-0.109,0.218-0.327,0.218-0.436V190.018L212.665,190.018z
		 M220.939,190.018c0-0.109-0.109-0.327-0.218-0.436l-1.307-1.307c-0.109-0.109-0.327-0.218-0.436-0.218h-0.436
		c-0.109,0-0.327,0.108-0.435,0.218l-1.307,1.307c-0.109,0.108-0.218,0.326-0.218,0.436v0.436c0,0.108,0.109,0.326,0.218,0.436
		l1.307,1.307c0.108,0.108,0.326,0.218,0.435,0.218h0.436c0.109,0,0.327-0.109,0.436-0.218l1.307-1.307
		c0.109-0.109,0.218-0.327,0.218-0.436V190.018L220.939,190.018z M295.307,190.018c0-0.109-0.109-0.327-0.218-0.436l-1.307-1.307
		c-0.108-0.109-0.327-0.218-0.436-0.218h-0.436c-0.108,0-0.327,0.108-0.436,0.218l-1.307,1.307
		c-0.108,0.108-0.218,0.326-0.218,0.436v0.436c0,0.108,0.109,0.326,0.218,0.436l1.307,1.307c0.108,0.108,0.327,0.218,0.436,0.218
		h0.436c0.108,0,0.327-0.109,0.436-0.218l1.307-1.307c0.108-0.109,0.218-0.327,0.218-0.436V190.018L295.307,190.018z
		 M303.473,190.018c0-0.109-0.109-0.327-0.218-0.436l-1.307-1.307c-0.108-0.109-0.327-0.218-0.436-0.218h-0.436
		c-0.108,0-0.327,0.108-0.436,0.218l-1.307,1.307c-0.108,0.108-0.218,0.326-0.218,0.436v0.436c0,0.108,0.109,0.326,0.218,0.436
		l1.307,1.307c0.108,0.108,0.327,0.218,0.436,0.218h0.436c0.108,0,0.327-0.109,0.436-0.218l1.307-1.307
		c0.108-0.109,0.218-0.327,0.218-0.436V190.018L303.473,190.018z M311.748,190.018c0-0.109-0.109-0.327-0.219-0.436l-1.307-1.307
		c-0.108-0.109-0.326-0.218-0.436-0.218h-0.436c-0.108,0-0.326,0.108-0.436,0.218l-1.306,1.307
		c-0.108,0.108-0.218,0.326-0.218,0.436v0.436c0,0.108,0.109,0.326,0.218,0.436l1.306,1.307c0.109,0.108,0.327,0.218,0.436,0.218
		h0.436c0.109,0,0.327-0.109,0.436-0.218l1.307-1.307c0.109-0.109,0.219-0.327,0.219-0.436V190.018L311.748,190.018z
		 M204.39,181.742c0-0.109-0.109-0.327-0.218-0.436L202.865,180c-0.109-0.108-0.327-0.218-0.436-0.218h-0.436
		c-0.109,0-0.327,0.109-0.436,0.218l-1.307,1.307c-0.109,0.108-0.218,0.326-0.218,0.436v0.436c0,0.108,0.109,0.326,0.218,0.436
		l1.307,1.307c0.109,0.108,0.327,0.218,0.436,0.218h0.436c0.109,0,0.327-0.109,0.436-0.218l1.307-1.307
		c0.109-0.109,0.218-0.327,0.218-0.436V181.742L204.39,181.742z M212.665,181.742c0-0.109-0.109-0.327-0.218-0.436L211.14,180
		c-0.109-0.108-0.327-0.218-0.436-0.218h-0.436c-0.109,0-0.327,0.109-0.436,0.218l-1.307,1.307
		c-0.109,0.108-0.218,0.326-0.218,0.436v0.436c0,0.108,0.109,0.326,0.218,0.436l1.307,1.307c0.109,0.108,0.327,0.218,0.436,0.218
		h0.436c0.109,0,0.327-0.109,0.436-0.218l1.307-1.307c0.109-0.109,0.218-0.327,0.218-0.436V181.742L212.665,181.742z
		 M220.939,181.742c0-0.109-0.109-0.327-0.218-0.436L219.415,180c-0.109-0.108-0.327-0.218-0.436-0.218h-0.436
		c-0.109,0-0.327,0.109-0.435,0.218l-1.307,1.307c-0.109,0.108-0.218,0.326-0.218,0.436v0.436c0,0.108,0.109,0.326,0.218,0.436
		l1.307,1.307c0.108,0.108,0.326,0.218,0.435,0.218h0.436c0.109,0,0.327-0.109,0.436-0.218l1.307-1.307
		c0.109-0.109,0.218-0.327,0.218-0.436V181.742L220.939,181.742z M295.307,181.742c0-0.109-0.109-0.327-0.218-0.436L293.782,180
		c-0.108-0.108-0.327-0.218-0.436-0.218h-0.436c-0.108,0-0.327,0.109-0.436,0.218l-1.307,1.307
		c-0.108,0.108-0.218,0.326-0.218,0.436v0.436c0,0.108,0.109,0.326,0.218,0.436l1.307,1.307c0.108,0.108,0.327,0.218,0.436,0.218
		h0.436c0.108,0,0.327-0.109,0.436-0.218l1.307-1.307c0.108-0.109,0.218-0.327,0.218-0.436V181.742L295.307,181.742z
		 M303.473,181.742c0-0.109-0.109-0.327-0.218-0.436L301.948,180c-0.108-0.108-0.327-0.218-0.436-0.218h-0.436
		c-0.108,0-0.327,0.109-0.436,0.218l-1.307,1.307c-0.108,0.108-0.218,0.326-0.218,0.436v0.436c0,0.108,0.109,0.326,0.218,0.436
		l1.307,1.307c0.108,0.108,0.327,0.218,0.436,0.218h0.436c0.108,0,0.327-0.109,0.436-0.218l1.307-1.307
		c0.108-0.109,0.218-0.327,0.218-0.436V181.742L303.473,181.742z M311.748,181.742c0-0.109-0.109-0.327-0.219-0.436L310.223,180
		c-0.108-0.108-0.326-0.218-0.436-0.218h-0.436c-0.108,0-0.326,0.109-0.436,0.218l-1.306,1.307
		c-0.108,0.108-0.218,0.326-0.218,0.436v0.436c0,0.108,0.109,0.326,0.218,0.436l1.306,1.307c0.109,0.108,0.327,0.218,0.436,0.218
		h0.436c0.109,0,0.327-0.109,0.436-0.218l1.307-1.307c0.109-0.109,0.219-0.327,0.219-0.436V181.742L311.748,181.742z
		 M204.39,173.467c0-0.108-0.109-0.326-0.218-0.436l-1.307-1.306c-0.109-0.109-0.327-0.218-0.436-0.218h-0.436
		c-0.109,0-0.327,0.109-0.436,0.218l-1.307,1.306c-0.109,0.109-0.218,0.327-0.218,0.436v0.436c0,0.109,0.109,0.327,0.218,0.436
		l1.307,1.307c0.109,0.109,0.327,0.218,0.436,0.218h0.436c0.109,0,0.327-0.109,0.436-0.218l1.307-1.307
		c0.109-0.109,0.218-0.327,0.218-0.436V173.467L204.39,173.467z M212.665,173.467c0-0.108-0.109-0.326-0.218-0.436l-1.307-1.306
		c-0.109-0.109-0.327-0.218-0.436-0.218h-0.436c-0.109,0-0.327,0.109-0.436,0.218l-1.307,1.306
		c-0.109,0.109-0.218,0.327-0.218,0.436v0.436c0,0.109,0.109,0.327,0.218,0.436l1.307,1.307c0.109,0.109,0.327,0.218,0.436,0.218
		h0.436c0.109,0,0.327-0.109,0.436-0.218l1.307-1.307c0.109-0.109,0.218-0.327,0.218-0.436V173.467L212.665,173.467z
		 M220.939,173.467c0-0.108-0.109-0.326-0.218-0.436l-1.307-1.306c-0.109-0.109-0.327-0.218-0.436-0.218h-0.436
		c-0.109,0-0.327,0.109-0.435,0.218l-1.307,1.306c-0.109,0.109-0.218,0.327-0.218,0.436v0.436c0,0.109,0.109,0.327,0.218,0.436
		l1.307,1.307c0.108,0.109,0.326,0.218,0.435,0.218h0.436c0.109,0,0.327-0.109,0.436-0.218l1.307-1.307
		c0.109-0.109,0.218-0.327,0.218-0.436V173.467L220.939,173.467z M295.307,173.467c0-0.108-0.109-0.326-0.218-0.436l-1.307-1.306
		c-0.108-0.109-0.327-0.218-0.436-0.218h-0.436c-0.108,0-0.327,0.109-0.436,0.218l-1.307,1.306
		c-0.108,0.109-0.218,0.327-0.218,0.436v0.436c0,0.109,0.109,0.327,0.218,0.436l1.307,1.307c0.108,0.109,0.327,0.218,0.436,0.218
		h0.436c0.108,0,0.327-0.109,0.436-0.218l1.307-1.307c0.108-0.109,0.218-0.327,0.218-0.436V173.467L295.307,173.467z
		 M303.473,173.467c0-0.108-0.109-0.326-0.218-0.436l-1.307-1.306c-0.108-0.109-0.327-0.218-0.436-0.218h-0.436
		c-0.108,0-0.327,0.109-0.436,0.218l-1.307,1.306c-0.108,0.109-0.218,0.327-0.218,0.436v0.436c0,0.109,0.109,0.327,0.218,0.436
		l1.307,1.307c0.108,0.109,0.327,0.218,0.436,0.218h0.436c0.108,0,0.327-0.109,0.436-0.218l1.307-1.307
		c0.108-0.109,0.218-0.327,0.218-0.436V173.467L303.473,173.467z M311.748,173.467c0-0.108-0.109-0.326-0.219-0.436l-1.307-1.306
		c-0.108-0.109-0.326-0.218-0.436-0.218h-0.436c-0.108,0-0.326,0.109-0.436,0.218l-1.306,1.306
		c-0.108,0.109-0.218,0.327-0.218,0.436v0.436c0,0.109,0.109,0.327,0.218,0.436l1.306,1.307c0.109,0.109,0.327,0.218,0.436,0.218
		h0.436c0.109,0,0.327-0.109,0.436-0.218l1.307-1.307c0.109-0.109,0.219-0.327,0.219-0.436V173.467L311.748,173.467z
		 M204.39,231.393c0-0.108-0.109-0.327-0.218-0.436l-1.307-1.307c-0.109-0.108-0.327-0.218-0.436-0.218h-0.436
		c-0.109,0-0.327,0.109-0.436,0.218l-1.307,1.307c-0.109,0.108-0.218,0.327-0.218,0.436v0.436c0,0.108,0.109,0.326,0.218,0.436
		l1.307,1.307c0.109,0.108,0.327,0.218,0.436,0.218h0.436c0.109,0,0.327-0.109,0.436-0.218l1.307-1.307
		c0.109-0.109,0.218-0.327,0.218-0.436V231.393L204.39,231.393z M212.665,231.393c0-0.108-0.109-0.327-0.218-0.436l-1.307-1.307
		c-0.109-0.108-0.327-0.218-0.436-0.218h-0.436c-0.109,0-0.327,0.109-0.436,0.218l-1.307,1.307
		c-0.109,0.108-0.218,0.327-0.218,0.436v0.436c0,0.108,0.109,0.326,0.218,0.436l1.307,1.307c0.109,0.108,0.327,0.218,0.436,0.218
		h0.436c0.109,0,0.327-0.109,0.436-0.218l1.307-1.307c0.109-0.109,0.218-0.327,0.218-0.436V231.393L212.665,231.393z
		 M220.939,231.393c0-0.108-0.109-0.327-0.218-0.436l-1.307-1.307c-0.109-0.108-0.327-0.218-0.436-0.218h-0.436
		c-0.109,0-0.327,0.109-0.435,0.218l-1.307,1.307c-0.109,0.108-0.218,0.327-0.218,0.436v0.436c0,0.108,0.109,0.326,0.218,0.436
		l1.307,1.307c0.108,0.108,0.326,0.218,0.435,0.218h0.436c0.109,0,0.327-0.109,0.436-0.218l1.307-1.307
		c0.109-0.109,0.218-0.327,0.218-0.436V231.393L220.939,231.393z M229.106,231.393c0-0.108-0.109-0.327-0.218-0.436l-1.307-1.307
		c-0.109-0.108-0.327-0.218-0.436-0.218h-0.436c-0.109,0-0.327,0.109-0.436,0.218l-1.307,1.307
		c-0.109,0.108-0.218,0.327-0.218,0.436v0.436c0,0.108,0.109,0.326,0.218,0.436l1.307,1.307c0.109,0.108,0.327,0.218,0.436,0.218
		h0.436c0.109,0,0.327-0.109,0.436-0.218l1.307-1.307c0.109-0.109,0.218-0.327,0.218-0.436V231.393L229.106,231.393z
		 M237.381,231.393c0-0.108-0.109-0.327-0.218-0.436l-1.307-1.307c-0.109-0.108-0.327-0.218-0.436-0.218h-0.436
		c-0.109,0-0.327,0.109-0.436,0.218l-1.307,1.307c-0.109,0.108-0.218,0.327-0.218,0.436v0.436c0,0.108,0.109,0.326,0.218,0.436
		l1.307,1.307c0.109,0.108,0.327,0.218,0.436,0.218h0.436c0.109,0,0.327-0.109,0.436-0.218l1.307-1.307
		c0.109-0.109,0.218-0.327,0.218-0.436V231.393L237.381,231.393z M245.656,231.393c0-0.108-0.109-0.327-0.218-0.436l-1.307-1.307
		c-0.109-0.108-0.326-0.218-0.436-0.218h-0.435c-0.109,0-0.327,0.109-0.436,0.218l-1.307,1.307
		c-0.109,0.108-0.218,0.327-0.218,0.436v0.436c0,0.108,0.109,0.326,0.218,0.436l1.307,1.307c0.109,0.108,0.327,0.218,0.436,0.218
		h0.435c0.109,0,0.327-0.109,0.436-0.218l1.307-1.307c0.109-0.109,0.218-0.327,0.218-0.436V231.393L245.656,231.393z
		 M253.931,231.393c0-0.108-0.109-0.327-0.218-0.436l-1.307-1.307c-0.109-0.108-0.327-0.218-0.436-0.218h-0.327
		c-0.109,0-0.327,0.109-0.436,0.218l-1.307,1.307c-0.109,0.108-0.218,0.327-0.218,0.436v0.436c0,0.108,0.109,0.326,0.218,0.436
		l1.307,1.307c0.109,0.108,0.327,0.218,0.436,0.218h0.436c0.109,0,0.327-0.109,0.436-0.218l1.307-1.307
		c0.109-0.109,0.218-0.327,0.218-0.436v-0.436H253.931z M262.206,231.393c0-0.108-0.108-0.327-0.218-0.436l-1.307-1.307
		c-0.109-0.108-0.326-0.218-0.436-0.218h-0.436c-0.109,0-0.326,0.109-0.436,0.218l-1.307,1.307
		c-0.109,0.108-0.218,0.327-0.218,0.436v0.436c0,0.108,0.108,0.326,0.218,0.436l1.307,1.307c0.109,0.108,0.326,0.218,0.436,0.218
		h0.436c0.109,0,0.326-0.109,0.436-0.218l1.307-1.307c0.109-0.109,0.218-0.327,0.218-0.436V231.393L262.206,231.393z
		 M270.48,231.393c0-0.108-0.108-0.327-0.217-0.436l-1.307-1.307c-0.109-0.108-0.326-0.218-0.436-0.218h-0.436
		c-0.109,0-0.326,0.109-0.436,0.218l-1.307,1.307c-0.109,0.108-0.218,0.327-0.218,0.436v0.436c0,0.108,0.108,0.326,0.218,0.436
		l1.307,1.307c0.109,0.108,0.326,0.218,0.436,0.218h0.436c0.109,0,0.326-0.109,0.436-0.218l1.307-1.307
		c0.108-0.109,0.217-0.327,0.217-0.436V231.393L270.48,231.393z M278.756,231.393c0-0.108-0.108-0.327-0.217-0.436l-1.307-1.307
		c-0.109-0.108-0.327-0.218-0.436-0.218h-0.436c-0.109,0-0.327,0.109-0.436,0.218l-1.307,1.307
		c-0.109,0.108-0.219,0.327-0.219,0.436v0.436c0,0.108,0.109,0.326,0.219,0.436l1.307,1.307c0.108,0.108,0.326,0.218,0.436,0.218
		h0.436c0.108,0,0.326-0.109,0.436-0.218l1.307-1.307c0.108-0.109,0.217-0.327,0.217-0.436V231.393L278.756,231.393z
		 M287.031,231.393c0-0.108-0.109-0.327-0.218-0.436l-1.307-1.307c-0.108-0.108-0.218-0.218-0.436-0.218h-0.436
		c-0.108,0-0.327,0.109-0.436,0.218l-1.306,1.307c-0.109,0.108-0.219,0.327-0.219,0.436v0.436c0,0.108,0.109,0.326,0.219,0.436
		l1.306,1.307c0.108,0.108,0.327,0.218,0.436,0.218h0.436c0.108,0,0.327-0.109,0.436-0.218l1.307-1.307
		c0.108-0.109,0.218-0.327,0.218-0.436V231.393L287.031,231.393z M295.307,231.393c0-0.108-0.109-0.327-0.218-0.436l-1.307-1.307
		c-0.108-0.108-0.327-0.218-0.436-0.218h-0.436c-0.108,0-0.327,0.109-0.436,0.218l-1.307,1.307
		c-0.108,0.108-0.218,0.327-0.218,0.436v0.436c0,0.108,0.109,0.326,0.218,0.436l1.307,1.307c0.108,0.108,0.327,0.218,0.436,0.218
		h0.436c0.108,0,0.327-0.109,0.436-0.218l1.307-1.307c0.108-0.109,0.218-0.327,0.218-0.436V231.393L295.307,231.393z
		 M303.473,231.393c0-0.108-0.109-0.327-0.218-0.436l-1.307-1.307c-0.108-0.108-0.327-0.218-0.436-0.218h-0.436
		c-0.108,0-0.327,0.109-0.436,0.218l-1.307,1.307c-0.108,0.108-0.218,0.327-0.218,0.436v0.436c0,0.108,0.109,0.326,0.218,0.436
		l1.307,1.307c0.108,0.108,0.327,0.218,0.436,0.218h0.436c0.108,0,0.327-0.109,0.436-0.218l1.307-1.307
		c0.108-0.109,0.218-0.327,0.218-0.436V231.393L303.473,231.393z M311.748,231.393c0-0.108-0.109-0.327-0.219-0.436l-1.307-1.307
		c-0.108-0.108-0.326-0.218-0.436-0.218h-0.436c-0.108,0-0.326,0.109-0.436,0.218l-1.306,1.307
		c-0.108,0.108-0.218,0.327-0.218,0.436v0.436c0,0.108,0.109,0.326,0.218,0.436l1.306,1.307c0.109,0.108,0.327,0.218,0.436,0.218
		h0.436c0.109,0,0.327-0.109,0.436-0.218l1.307-1.307c0.109-0.109,0.219-0.327,0.219-0.436V231.393L311.748,231.393z
		 M204.39,239.668c0-0.109-0.109-0.327-0.218-0.436l-1.307-1.307c-0.109-0.109-0.327-0.218-0.436-0.218h-0.436
		c-0.109,0-0.327,0.108-0.436,0.218l-1.307,1.307c-0.109,0.108-0.218,0.326-0.218,0.436v0.436c0,0.108,0.109,0.326,0.218,0.436
		l1.307,1.307c0.109,0.108,0.327,0.218,0.436,0.218h0.436c0.109,0,0.327-0.109,0.436-0.218l1.307-1.307
		c0.109-0.109,0.218-0.327,0.218-0.436V239.668L204.39,239.668z M212.665,239.668c0-0.109-0.109-0.327-0.218-0.436l-1.307-1.307
		c-0.109-0.109-0.327-0.218-0.436-0.218h-0.436c-0.109,0-0.327,0.108-0.436,0.218l-1.307,1.307
		c-0.109,0.108-0.218,0.326-0.218,0.436v0.436c0,0.108,0.109,0.326,0.218,0.436l1.307,1.307c0.109,0.108,0.327,0.218,0.436,0.218
		h0.436c0.109,0,0.327-0.109,0.436-0.218l1.307-1.307c0.109-0.109,0.218-0.327,0.218-0.436V239.668L212.665,239.668z
		 M220.939,239.668c0-0.109-0.109-0.327-0.218-0.436l-1.307-1.307c-0.109-0.109-0.327-0.218-0.436-0.218h-0.436
		c-0.109,0-0.327,0.108-0.435,0.218l-1.307,1.307c-0.109,0.108-0.218,0.326-0.218,0.436v0.436c0,0.108,0.109,0.326,0.218,0.436
		l1.307,1.307c0.108,0.108,0.326,0.218,0.435,0.218h0.436c0.109,0,0.327-0.109,0.436-0.218l1.307-1.307
		c0.109-0.109,0.218-0.327,0.218-0.436V239.668L220.939,239.668z M229.106,239.668c0-0.109-0.109-0.327-0.218-0.436l-1.307-1.307
		c-0.109-0.109-0.327-0.218-0.436-0.218h-0.436c-0.109,0-0.327,0.108-0.436,0.218l-1.307,1.307
		c-0.109,0.108-0.218,0.326-0.218,0.436v0.436c0,0.108,0.109,0.326,0.218,0.436l1.307,1.307c0.109,0.108,0.327,0.218,0.436,0.218
		h0.436c0.109,0,0.327-0.109,0.436-0.218l1.307-1.307c0.109-0.109,0.218-0.327,0.218-0.436V239.668L229.106,239.668z
		 M237.381,239.668c0-0.109-0.109-0.327-0.218-0.436l-1.307-1.307c-0.109-0.109-0.327-0.218-0.436-0.218h-0.436
		c-0.109,0-0.327,0.108-0.436,0.218l-1.307,1.307c-0.109,0.108-0.218,0.326-0.218,0.436v0.436c0,0.108,0.109,0.326,0.218,0.436
		l1.307,1.307c0.109,0.108,0.327,0.218,0.436,0.218h0.436c0.109,0,0.327-0.109,0.436-0.218l1.307-1.307
		c0.109-0.109,0.218-0.327,0.218-0.436V239.668L237.381,239.668z M245.656,239.668c0-0.109-0.109-0.327-0.218-0.436l-1.307-1.307
		c-0.109-0.109-0.326-0.218-0.436-0.218h-0.435c-0.109,0-0.327,0.108-0.436,0.218l-1.307,1.307
		c-0.109,0.108-0.218,0.326-0.218,0.436v0.436c0,0.108,0.109,0.326,0.218,0.436l1.307,1.307c0.109,0.108,0.327,0.218,0.436,0.218
		h0.435c0.109,0,0.327-0.109,0.436-0.218l1.307-1.307c0.109-0.109,0.218-0.327,0.218-0.436V239.668L245.656,239.668z
		 M253.931,239.668c0-0.109-0.109-0.327-0.218-0.436l-1.307-1.307c-0.109-0.109-0.327-0.218-0.436-0.218h-0.327
		c-0.109,0-0.327,0.108-0.436,0.218l-1.307,1.307c-0.109,0.108-0.218,0.326-0.218,0.436v0.436c0,0.108,0.109,0.326,0.218,0.436
		l1.307,1.307c0.109,0.108,0.327,0.218,0.436,0.218h0.436c0.109,0,0.327-0.109,0.436-0.218l1.307-1.307
		c0.109-0.109,0.218-0.327,0.218-0.436v-0.436H253.931z M262.206,239.668c0-0.109-0.108-0.327-0.218-0.436l-1.307-1.307
		c-0.109-0.109-0.326-0.218-0.436-0.218h-0.436c-0.109,0-0.326,0.108-0.436,0.218l-1.307,1.307
		c-0.109,0.108-0.218,0.326-0.218,0.436v0.436c0,0.108,0.108,0.326,0.218,0.436l1.307,1.307c0.109,0.108,0.326,0.218,0.436,0.218
		h0.436c0.109,0,0.326-0.109,0.436-0.218l1.307-1.307c0.109-0.109,0.218-0.327,0.218-0.436V239.668L262.206,239.668z
		 M270.48,239.668c0-0.109-0.108-0.327-0.217-0.436l-1.307-1.307c-0.109-0.109-0.326-0.218-0.436-0.218h-0.436
		c-0.109,0-0.326,0.108-0.436,0.218l-1.307,1.307c-0.109,0.108-0.218,0.326-0.218,0.436v0.436c0,0.108,0.108,0.326,0.218,0.436
		l1.307,1.307c0.109,0.108,0.326,0.218,0.436,0.218h0.436c0.109,0,0.326-0.109,0.436-0.218l1.307-1.307
		c0.108-0.109,0.217-0.327,0.217-0.436V239.668L270.48,239.668z M278.756,239.668c0-0.109-0.108-0.327-0.217-0.436l-1.307-1.307
		c-0.109-0.109-0.327-0.218-0.436-0.218h-0.436c-0.109,0-0.327,0.108-0.436,0.218l-1.307,1.307
		c-0.109,0.108-0.219,0.326-0.219,0.436v0.436c0,0.108,0.109,0.326,0.219,0.436l1.307,1.307c0.108,0.108,0.326,0.218,0.436,0.218
		h0.436c0.108,0,0.326-0.109,0.436-0.218l1.307-1.307c0.108-0.109,0.217-0.327,0.217-0.436V239.668L278.756,239.668z
		 M287.031,239.668c0-0.109-0.109-0.327-0.218-0.436l-1.307-1.307c-0.108-0.109-0.218-0.218-0.436-0.218h-0.436
		c-0.108,0-0.327,0.108-0.436,0.218l-1.306,1.307c-0.109,0.108-0.219,0.326-0.219,0.436v0.436c0,0.108,0.109,0.326,0.219,0.436
		l1.306,1.307c0.108,0.108,0.327,0.218,0.436,0.218h0.436c0.108,0,0.327-0.109,0.436-0.218l1.307-1.307
		c0.108-0.109,0.218-0.327,0.218-0.436V239.668L287.031,239.668z M295.307,239.668c0-0.109-0.109-0.327-0.218-0.436l-1.307-1.307
		c-0.108-0.109-0.327-0.218-0.436-0.218h-0.436c-0.108,0-0.327,0.108-0.436,0.218l-1.307,1.307
		c-0.108,0.108-0.218,0.326-0.218,0.436v0.436c0,0.108,0.109,0.326,0.218,0.436l1.307,1.307c0.108,0.108,0.327,0.218,0.436,0.218
		h0.436c0.108,0,0.327-0.109,0.436-0.218l1.307-1.307c0.108-0.109,0.218-0.327,0.218-0.436V239.668L295.307,239.668z
		 M303.473,239.668c0-0.109-0.109-0.327-0.218-0.436l-1.307-1.307c-0.108-0.109-0.327-0.218-0.436-0.218h-0.436
		c-0.108,0-0.327,0.108-0.436,0.218l-1.307,1.307c-0.108,0.108-0.218,0.326-0.218,0.436v0.436c0,0.108,0.109,0.326,0.218,0.436
		l1.307,1.307c0.108,0.108,0.327,0.218,0.436,0.218h0.436c0.108,0,0.327-0.109,0.436-0.218l1.307-1.307
		c0.108-0.109,0.218-0.327,0.218-0.436V239.668L303.473,239.668z M311.748,239.668c0-0.109-0.109-0.327-0.219-0.436l-1.307-1.307
		c-0.108-0.109-0.326-0.218-0.436-0.218h-0.436c-0.108,0-0.326,0.108-0.436,0.218l-1.306,1.307
		c-0.108,0.108-0.218,0.326-0.218,0.436v0.436c0,0.108,0.109,0.326,0.218,0.436l1.306,1.307c0.109,0.108,0.327,0.218,0.436,0.218
		h0.436c0.109,0,0.327-0.109,0.436-0.218l1.307-1.307c0.109-0.109,0.219-0.327,0.219-0.436V239.668L311.748,239.668z
		 M212.665,247.942c0-0.108-0.109-0.326-0.218-0.436l-1.307-1.307c-0.109-0.108-0.327-0.218-0.436-0.218h-0.436
		c-0.109,0-0.327,0.109-0.436,0.218l-1.307,1.307c-0.109,0.109-0.218,0.327-0.218,0.436v0.436c0,0.109,0.109,0.327,0.218,0.436
		l1.307,1.307c0.109,0.109,0.327,0.218,0.436,0.218h0.436c0.109,0,0.327-0.108,0.436-0.218l1.307-1.307
		c0.109-0.108,0.218-0.326,0.218-0.436V247.942L212.665,247.942z M220.939,247.942c0-0.108-0.109-0.326-0.218-0.436l-1.307-1.307
		c-0.109-0.108-0.327-0.218-0.436-0.218h-0.436c-0.109,0-0.327,0.109-0.435,0.218l-1.307,1.307
		c-0.109,0.109-0.218,0.327-0.218,0.436v0.436c0,0.109,0.109,0.327,0.218,0.436l1.307,1.307c0.108,0.109,0.326,0.218,0.435,0.218
		h0.436c0.109,0,0.327-0.108,0.436-0.218l1.307-1.307c0.109-0.108,0.218-0.326,0.218-0.436V247.942L220.939,247.942z
		 M229.106,247.942c0-0.108-0.109-0.326-0.218-0.436l-1.307-1.307c-0.109-0.108-0.327-0.218-0.436-0.218h-0.436
		c-0.109,0-0.327,0.109-0.436,0.218l-1.307,1.307c-0.109,0.109-0.218,0.327-0.218,0.436v0.436c0,0.109,0.109,0.327,0.218,0.436
		l1.307,1.307c0.109,0.109,0.327,0.218,0.436,0.218h0.436c0.109,0,0.327-0.108,0.436-0.218l1.307-1.307
		c0.109-0.108,0.218-0.326,0.218-0.436V247.942L229.106,247.942z M237.381,247.942c0-0.108-0.109-0.326-0.218-0.436l-1.307-1.307
		c-0.109-0.108-0.327-0.218-0.436-0.218h-0.436c-0.109,0-0.327,0.109-0.436,0.218l-1.307,1.307
		c-0.109,0.109-0.218,0.327-0.218,0.436v0.436c0,0.109,0.109,0.327,0.218,0.436l1.307,1.307c0.109,0.109,0.327,0.218,0.436,0.218
		h0.436c0.109,0,0.327-0.108,0.436-0.218l1.307-1.307c0.109-0.108,0.218-0.326,0.218-0.436V247.942L237.381,247.942z
		 M245.656,247.942c0-0.108-0.109-0.326-0.218-0.436l-1.307-1.307c-0.109-0.108-0.326-0.218-0.436-0.218h-0.435
		c-0.109,0-0.327,0.109-0.436,0.218l-1.307,1.307c-0.109,0.109-0.218,0.327-0.218,0.436v0.436c0,0.109,0.109,0.327,0.218,0.436
		l1.307,1.307c0.109,0.109,0.327,0.218,0.436,0.218h0.435c0.109,0,0.327-0.108,0.436-0.218l1.307-1.307
		c0.109-0.108,0.218-0.326,0.218-0.436V247.942L245.656,247.942z M253.931,247.942c0-0.108-0.109-0.326-0.218-0.436l-1.307-1.307
		c-0.109-0.108-0.327-0.218-0.436-0.218h-0.327c-0.109,0-0.327,0.109-0.436,0.218l-1.307,1.307
		c-0.109,0.109-0.218,0.327-0.218,0.436v0.436c0,0.109,0.109,0.327,0.218,0.436l1.307,1.307c0.109,0.109,0.327,0.218,0.436,0.218
		h0.436c0.109,0,0.327-0.108,0.436-0.218l1.307-1.307c0.109-0.108,0.218-0.326,0.218-0.436v-0.436H253.931z M262.206,247.942
		c0-0.108-0.108-0.326-0.218-0.436l-1.307-1.307c-0.109-0.108-0.326-0.218-0.436-0.218h-0.436c-0.109,0-0.326,0.109-0.436,0.218
		l-1.197,1.307c-0.109,0.109-0.219,0.327-0.219,0.436v0.436c0,0.109,0.109,0.327,0.219,0.436l1.307,1.307
		c0.108,0.109,0.326,0.218,0.436,0.218h0.436c0.108,0,0.326-0.108,0.436-0.218l1.307-1.307c0.108-0.108,0.217-0.326,0.217-0.436
		v-0.436H262.206z M270.48,247.942c0-0.108-0.108-0.326-0.217-0.436l-1.307-1.307c-0.109-0.108-0.326-0.218-0.436-0.218h-0.436
		c-0.109,0-0.326,0.109-0.436,0.218l-1.307,1.307c-0.109,0.109-0.218,0.327-0.218,0.436v0.436c0,0.109,0.108,0.327,0.218,0.436
		l1.307,1.307c0.109,0.109,0.326,0.218,0.436,0.218h0.436c0.109,0,0.326-0.108,0.436-0.218l1.307-1.307
		c0.108-0.108,0.217-0.326,0.217-0.436V247.942L270.48,247.942z M278.756,247.942c0-0.108-0.108-0.326-0.217-0.436l-1.307-1.307
		c-0.109-0.108-0.327-0.218-0.436-0.218h-0.436c-0.109,0-0.327,0.109-0.436,0.218l-1.307,1.307
		c-0.109,0.109-0.219,0.327-0.219,0.436v0.436c0,0.109,0.109,0.327,0.219,0.436l1.307,1.307c0.108,0.109,0.326,0.218,0.436,0.218
		h0.436c0.108,0,0.326-0.108,0.436-0.218l1.307-1.307c0.108-0.108,0.217-0.326,0.217-0.436V247.942L278.756,247.942z
		 M287.031,247.942c0-0.108-0.109-0.326-0.218-0.436l-1.307-1.307c-0.108-0.108-0.218-0.218-0.436-0.218h-0.436
		c-0.108,0-0.327,0.109-0.436,0.218l-1.306,1.307c-0.109,0.109-0.219,0.327-0.219,0.436v0.436c0,0.109,0.109,0.327,0.219,0.436
		l1.306,1.307c0.108,0.109,0.327,0.218,0.436,0.218h0.436c0.108,0,0.327-0.108,0.436-0.218l1.307-1.307
		c0.108-0.108,0.218-0.326,0.218-0.436V247.942L287.031,247.942z M295.307,247.942c0-0.108-0.109-0.326-0.218-0.436l-1.307-1.307
		c-0.108-0.108-0.327-0.218-0.436-0.218h-0.436c-0.108,0-0.327,0.109-0.436,0.218l-1.307,1.307
		c-0.108,0.109-0.218,0.327-0.218,0.436v0.436c0,0.109,0.109,0.327,0.218,0.436l1.307,1.307c0.108,0.109,0.327,0.218,0.436,0.218
		h0.436c0.108,0,0.327-0.108,0.436-0.218l1.307-1.307c0.108-0.108,0.218-0.326,0.218-0.436V247.942L295.307,247.942z
		 M303.473,247.942c0-0.108-0.109-0.326-0.218-0.436l-1.307-1.307c-0.108-0.108-0.327-0.218-0.436-0.218h-0.436
		c-0.108,0-0.327,0.109-0.436,0.218l-1.089,1.307c-0.109,0.109-0.218,0.327-0.218,0.436v0.436c0,0.109,0.108,0.327,0.218,0.436
		l1.307,1.307c0.109,0.109,0.326,0.218,0.436,0.218h0.436c0.109,0,0.326-0.108,0.436-0.218l1.307-1.307
		c0.109-0.108,0.218-0.326,0.218-0.436v-0.436H303.473z"/>
	<path fill="#F8F7F0" d="M283.982,113.146c0.436,0,0.762,0.327,0.762,0.762v45.84c0,7.404,2.287,10.779,6.425,13.937
		c2.069,1.633,16.55,12.631,20.36,15.57c3.049,2.287,8.711,2.287,8.711-1.524c0-8.274,0-98.212,0-98.212l-13.609-3.811H205.369
		l-13.61,3.92c0,0,0,89.937,0,98.212c0,3.811,5.662,3.811,8.71,1.524c3.702-2.831,18.183-13.938,20.361-15.571
		c4.138-3.157,6.424-6.533,6.424-13.937v-45.84c0-0.436,0.327-0.762,0.762-0.762h55.965V113.146z"/>
	<path fill="none" stroke="#717071" stroke-linecap="round" stroke-linejoin="round" stroke-miterlimit="10" d="M283.982,113.146
		c0.436,0,0.762,0.327,0.762,0.762v45.84c0,7.404,2.287,10.779,6.425,13.937c2.069,1.633,16.55,12.631,20.36,15.57
		c3.049,2.287,8.711,2.287,8.711-1.524c0-8.274,0-98.212,0-98.212l-13.609-3.811H205.369l-13.61,3.92c0,0,0,89.937,0,98.212
		c0,3.811,5.662,3.811,8.71,1.524c3.702-2.831,18.183-13.938,20.361-15.571c4.138-3.157,6.424-6.533,6.424-13.937v-45.84
		c0-0.436,0.327-0.762,0.762-0.762h55.965V113.146z M283.873,111.73c1.307,0,2.396,1.089,2.396,2.396c0,0,0,44.207,0,46.493
		c0,8.166,5.335,12.086,10.234,12.086c6.969,0,15.025,0,16.006,0c3.702,0,6.859-1.742,6.859-6.969c0-1.524,0-71.427,0-72.189
		c0-2.178-0.871-3.484-3.049-4.138c-3.266-0.98-8.166-2.287-8.602-2.396c-0.652-0.218-1.523-0.327-2.286-0.327
		c-0.544,0-98.212,0-98.757,0c-0.762,0-1.633,0.109-2.286,0.327c-0.436,0.109-5.227,1.524-8.602,2.396
		c-2.178,0.653-3.049,1.96-3.049,4.138c0,0.871,0,70.665,0,72.189c0,5.227,3.049,6.969,6.86,6.969c0.98,0,9.146,0,16.006,0
		c4.899,0,10.235-3.92,10.235-12.086c0-2.396,0-46.493,0-46.493c0-1.307,1.089-2.396,2.396-2.396H283.873L283.873,111.73z
		 M283.982,109.988c2.178,0,4.029,1.742,4.029,4.029v46.493c0,5.227,3.049,8.275,8.166,8.275h15.135
		c4.246,0,6.424-2.831,6.424-6.642V93.547c0-1.524-0.545-2.178-1.96-2.613l-8.602-2.396c-0.436-0.109-1.307-0.218-1.851-0.218
		c-2.94,0-95.817,0-98.757,0c-0.544,0-1.415,0.109-1.851,0.218l-8.602,2.396c-1.416,0.436-1.96,1.089-1.96,2.613v68.596
		c0,3.811,2.178,6.642,6.424,6.642h15.135c5.117,0,8.166-3.049,8.166-8.275v-46.493c0-2.178,1.742-4.029,4.029-4.029H283.982
		L283.982,109.988z M314.361,186.098c0-0.763,0.652-1.416,1.415-1.416s1.415,0.653,1.415,1.416c0,0.108,0,0.653,0,0.762
		c0,0.763-0.652,1.416-1.415,1.416s-1.415-0.653-1.415-1.416C314.361,186.751,314.361,186.206,314.361,186.098L314.361,186.098z
		 M197.639,186.098c0-0.763-0.653-1.416-1.416-1.416s-1.416,0.653-1.416,1.416c0,0.108,0,0.653,0,0.762
		c0,0.763,0.653,1.416,1.416,1.416s1.416-0.653,1.416-1.416C197.639,186.751,197.639,186.206,197.639,186.098L197.639,186.098z"/>
	<path fill="none" stroke="#717071" stroke-linecap="round" stroke-linejoin="round" d="M295.633,135.793
		c0,1.307-1.088,2.396-2.395,2.396h-5.227v-13.066h5.227c1.307,0,2.395,1.089,2.395,2.396V135.793L295.633,135.793z
		 M293.455,127.627c0,0.544-0.436,0.98-0.979,0.98s-0.979-0.436-0.979-0.98s0.436-0.98,0.979-0.98S293.455,127.083,293.455,127.627
		L293.455,127.627z M293.455,131.765c0,0.436-0.326,0.653-0.652,0.653c-0.436,0-0.654-0.327-0.654-0.653s0.327-0.653,0.654-0.653
		C293.129,131.003,293.455,131.33,293.455,131.765L293.455,131.765z M293.455,135.902c0,0.544-0.436,0.98-0.979,0.98
		s-0.979-0.436-0.979-0.98s0.436-0.98,0.979-0.98S293.455,135.358,293.455,135.902L293.455,135.902z M216.367,135.793
		c0,1.307,1.089,2.396,2.395,2.396h5.227v-13.066h-5.227c-1.306,0-2.395,1.089-2.395,2.396V135.793L216.367,135.793z
		 M218.544,127.627c0,0.544,0.436,0.98,0.98,0.98s0.98-0.436,0.98-0.98s-0.436-0.98-0.98-0.98S218.544,127.083,218.544,127.627
		L218.544,127.627z M218.544,131.765c0,0.436,0.327,0.653,0.653,0.653s0.653-0.327,0.653-0.653s-0.327-0.653-0.653-0.653
		S218.544,131.33,218.544,131.765L218.544,131.765z M218.544,135.902c0,0.544,0.436,0.98,0.98,0.98s0.98-0.436,0.98-0.98
		s-0.436-0.98-0.98-0.98S218.544,135.358,218.544,135.902L218.544,135.902z"/>
	<path fill="#FFFFFF" d="M316.975,161.816c0,2.613-2.178,4.791-4.791,4.791h-17.312c-2.613,0-4.791-2.178-4.791-4.791v-17.312
		c0-2.613,2.178-4.791,4.791-4.791h17.312c2.613,0,4.791,2.178,4.791,4.791V161.816L316.975,161.816z"/>
	<path fill="none" stroke="#717071" stroke-linecap="round" stroke-linejoin="round" d="M316.975,161.816
		c0,2.613-2.178,4.791-4.791,4.791h-17.312c-2.613,0-4.791-2.178-4.791-4.791v-17.312c0-2.613,2.178-4.791,4.791-4.791h17.312
		c2.613,0,4.791,2.178,4.791,4.791V161.816L316.975,161.816z M294.871,143.633c0,0.544-0.436,1.089-1.089,1.089
		s-1.089-0.436-1.089-1.089c0-0.544,0.436-1.089,1.089-1.089S294.871,142.98,294.871,143.633L294.871,143.633z M312.074,143.633
		c0,0.544,0.436,1.089,1.089,1.089s1.089-0.436,1.089-1.089c0-0.544-0.436-1.089-1.089-1.089S312.074,142.98,312.074,143.633
		L312.074,143.633z M294.871,162.796c0-0.544-0.436-1.089-1.089-1.089s-1.089,0.436-1.089,1.089c0,0.544,0.436,1.089,1.089,1.089
		S294.871,163.341,294.871,162.796L294.871,162.796z M312.074,162.796c0-0.544,0.436-1.089,1.089-1.089s1.089,0.436,1.089,1.089
		c0,0.544-0.436,1.089-1.089,1.089S312.074,163.341,312.074,162.796L312.074,162.796z M310.55,153.215
		c0,3.92-3.157,7.077-7.077,7.077s-7.078-3.157-7.078-7.077s3.158-7.077,7.078-7.077S310.55,149.295,310.55,153.215L310.55,153.215z
		 M309.135,153.215c0,3.049-2.504,5.662-5.662,5.662c-3.049,0-5.662-2.504-5.662-5.662c0-3.049,2.504-5.662,5.662-5.662
		S309.135,150.057,309.135,153.215L309.135,153.215z M306.631,153.215c0,1.742-1.416,3.158-3.158,3.158s-3.158-1.416-3.158-3.158
		s1.416-3.158,3.158-3.158S306.631,151.473,306.631,153.215L306.631,153.215z"/>
	<path fill="none" stroke="#717071" stroke-linecap="round" stroke-linejoin="round" stroke-miterlimit="10" d="M302.819,181.307
		c1.634,1.197,2.178,1.524,3.702,1.524c0.98,0,5.335,0,6.533,0c4.355,0,7.186-2.613,7.186-5.771"/>
	<path fill="#EEEEEF" d="M262.424,56.745h-12.848v-3.158c0-0.98,0.871-1.851,1.851-1.851h9.146c0.98,0,1.852,0.871,1.852,1.851
		V56.745L262.424,56.745z"/>
	<g>
		<g>
			<defs>
				<rect id="SVGID_7_" x="185.444" y="50.647" width="141.113" height="258.705"/>
			</defs>
			<clipPath id="SVGID_8_">
				<use xlink:href="#SVGID_7_"  overflow="visible"/>
			</clipPath>
			
				<path clip-path="url(#SVGID_8_)" fill="none" stroke="#717071" stroke-linecap="round" stroke-linejoin="round" stroke-miterlimit="10" d="
				M262.424,56.745h-12.848v-3.158c0-0.98,0.871-1.851,1.851-1.851h9.146c0.98,0,1.852,0.871,1.852,1.851V56.745L262.424,56.745z
				 M249.576,55.33h12.848"/>
		</g>
	</g>
	<path fill="#FFFFFF" d="M190.235,179.673v43.118h20.034c0.871,0,1.524-0.653,1.524-1.524v-39.96c0-0.871-0.653-1.524-1.524-1.524
		h-20.034V179.673z"/>
	<path fill="none" stroke="#717071" stroke-linecap="round" stroke-linejoin="round" d="M190.235,179.673v43.118h20.034
		c0.871,0,1.524-0.653,1.524-1.524v-39.96c0-0.871-0.653-1.524-1.524-1.524h-20.034V179.673z"/>
	<path fill="#EEEEEF" d="M307.719,66c0,7.513-6.098,13.501-13.501,13.501c-7.513,0-13.501-6.098-13.501-13.501
		c0-7.513,6.097-13.501,13.501-13.501C301.621,52.499,307.719,58.596,307.719,66"/>
	<g>
		<g>
			<defs>
				<rect id="SVGID_9_" x="185.444" y="50.647" width="141.113" height="258.705"/>
			</defs>
			<clipPath id="SVGID_10_">
				<use xlink:href="#SVGID_9_"  overflow="visible"/>
			</clipPath>
			
				<path clip-path="url(#SVGID_10_)" fill="none" stroke="#717071" stroke-linecap="round" stroke-linejoin="round" stroke-miterlimit="10" d="
				M307.719,66c0,7.513-6.098,13.501-13.501,13.501c-7.513,0-13.501-6.098-13.501-13.501c0-7.513,6.097-13.501,13.501-13.501
				C301.621,52.499,307.719,58.596,307.719,66"/>
		</g>
	</g>
	<path fill="#EEEEEF" d="M306.848,66c0,6.968-5.662,12.63-12.63,12.63c-6.969,0-12.63-5.662-12.63-12.63
		c0-6.969,5.661-12.63,12.63-12.63C301.186,53.37,306.848,59.031,306.848,66"/>
	<g>
		<g>
			<defs>
				<rect id="SVGID_11_" x="185.444" y="50.647" width="141.113" height="258.705"/>
			</defs>
			<clipPath id="SVGID_12_">
				<use xlink:href="#SVGID_11_"  overflow="visible"/>
			</clipPath>
			
				<path clip-path="url(#SVGID_12_)" fill="none" stroke="#717071" stroke-linecap="round" stroke-linejoin="round" stroke-miterlimit="10" d="
				M306.848,66c0,6.968-5.662,12.63-12.63,12.63c-6.969,0-12.63-5.662-12.63-12.63c0-6.969,5.661-12.63,12.63-12.63
				C301.186,53.37,306.848,59.031,306.848,66"/>
		</g>
	</g>
	<path fill="#EEEEEF" d="M292.911,57.289c-0.436-0.326-1.089-0.436-1.634-0.218l-1.415,0.653c-0.436,0.218-0.871,0.762-0.979,1.307
		l-0.109,0.653c0,0.544-0.545,0.98-0.98,1.089l-0.762,0.109c-0.545,0.109-1.089,0.544-1.307,0.98l-0.545,1.307
		c-0.217,0.436-0.108,1.198,0.219,1.633l0.436,0.544c0.326,0.436,0.326,1.089,0,1.416l-0.436,0.544
		c-0.327,0.436-0.436,1.089-0.219,1.633l0.545,1.415c0.218,0.436,0.762,0.871,1.307,0.98l0.653,0.109
		c0.544,0,0.979,0.544,1.089,1.089l0.109,0.653c0,0.544,0.436,1.089,0.979,1.307l1.415,0.653c0.436,0.218,1.198,0.109,1.634-0.218
		l0.544-0.436c0.436-0.327,1.09-0.327,1.416,0l0.545,0.436c0.436,0.327,1.088,0.436,1.633,0.218l1.415-0.653
		c0.436-0.218,0.871-0.762,0.979-1.307l0.109-0.653c0-0.544,0.545-0.98,1.089-1.089l0.653-0.109c0.545,0,1.089-0.436,1.307-0.98
		l0.653-1.415c0.218-0.436,0.108-1.198-0.218-1.633l-0.436-0.544c-0.326-0.436-0.326-1.089,0-1.416l0.436-0.544
		c0.326-0.436,0.436-1.089,0.218-1.633l-0.653-1.416c-0.218-0.436-0.762-0.871-1.307-0.98l-0.653-0.109
		c-0.544,0-0.979-0.544-1.089-1.089l-0.109-0.653c0-0.544-0.436-1.089-0.979-1.307l-1.415-0.653
		c-0.436-0.218-1.197-0.109-1.633,0.218l-0.545,0.435c-0.436,0.327-1.089,0.327-1.416,0L292.911,57.289L292.911,57.289z"/>
	<path fill="none" stroke="#717071" stroke-linecap="round" stroke-linejoin="round" stroke-miterlimit="10" d="M292.911,57.289
		c-0.436-0.326-1.089-0.436-1.634-0.218l-1.415,0.653c-0.436,0.218-0.871,0.762-0.979,1.307l-0.109,0.653
		c0,0.544-0.545,0.98-0.98,1.089l-0.762,0.109c-0.545,0.109-1.089,0.544-1.307,0.98l-0.545,1.307
		c-0.217,0.436-0.108,1.198,0.219,1.633l0.436,0.544c0.326,0.436,0.326,1.089,0,1.416l-0.436,0.544
		c-0.327,0.436-0.436,1.089-0.219,1.633l0.545,1.415c0.218,0.436,0.762,0.871,1.307,0.98l0.653,0.109
		c0.544,0,0.979,0.544,1.089,1.089l0.109,0.653c0,0.544,0.436,1.089,0.979,1.307l1.415,0.653c0.436,0.218,1.198,0.109,1.634-0.218
		l0.544-0.436c0.436-0.327,1.09-0.327,1.416,0l0.545,0.436c0.436,0.327,1.088,0.436,1.633,0.218l1.415-0.653
		c0.436-0.218,0.871-0.762,0.979-1.307l0.109-0.653c0-0.544,0.545-0.98,1.089-1.089l0.653-0.109c0.545,0,1.089-0.436,1.307-0.98
		l0.653-1.415c0.218-0.436,0.108-1.198-0.218-1.633l-0.436-0.544c-0.326-0.436-0.326-1.089,0-1.416l0.436-0.544
		c0.326-0.436,0.436-1.089,0.218-1.633l-0.653-1.416c-0.218-0.436-0.762-0.871-1.307-0.98l-0.653-0.109
		c-0.544,0-0.979-0.544-1.089-1.089l-0.109-0.653c0-0.544-0.436-1.089-0.979-1.307l-1.415-0.653
		c-0.436-0.218-1.197-0.109-1.633,0.218l-0.545,0.435c-0.436,0.327-1.089,0.327-1.416,0L292.911,57.289L292.911,57.289z"/>
	<path fill="#EEEEEF" d="M299.988,66c0,3.267-2.613,5.879-5.879,5.879c-3.268,0-5.881-2.613-5.881-5.879s2.613-5.88,5.881-5.88
		C297.375,60.229,299.988,62.842,299.988,66"/>
	<path fill="none" stroke="#717071" stroke-linecap="round" stroke-linejoin="round" stroke-miterlimit="10" d="M299.988,66
		c0,3.267-2.613,5.879-5.879,5.879c-3.268,0-5.881-2.613-5.881-5.879s2.613-5.88,5.881-5.88
		C297.375,60.229,299.988,62.842,299.988,66"/>
	<path fill="#EEEEEF" d="M295.089,66c0,0.436-0.436,0.871-0.871,0.871c-0.544,0-0.871-0.436-0.871-0.871
		c0-0.544,0.436-0.871,0.871-0.871S295.089,65.564,295.089,66"/>
	<path fill="none" stroke="#717071" stroke-linecap="round" stroke-linejoin="round" stroke-miterlimit="10" d="M295.089,66
		c0,0.436-0.436,0.871-0.871,0.871c-0.544,0-0.871-0.436-0.871-0.871c0-0.544,0.436-0.871,0.871-0.871S295.089,65.564,295.089,66"/>
	<polygon fill="#EEEEEF" points="310.877,66.98 294.218,66.98 294.218,65.129 310.877,65.129 	"/>
	<polygon fill="none" stroke="#717071" stroke-linecap="round" stroke-linejoin="round" stroke-miterlimit="10" points="
		310.877,66.98 294.218,66.98 294.218,65.129 310.877,65.129 	"/>
	<path fill="#EEEEEF" d="M295.089,66c0,0.436-0.436,0.871-0.871,0.871c-0.544,0-0.871-0.436-0.871-0.871
		c0-0.544,0.436-0.871,0.871-0.871S295.089,65.564,295.089,66"/>
	<path fill="none" stroke="#717071" stroke-linecap="round" stroke-linejoin="round" stroke-miterlimit="10" d="M295.089,66
		c0,0.436-0.436,0.871-0.871,0.871c-0.544,0-0.871-0.436-0.871-0.871c0-0.544,0.436-0.871,0.871-0.871S295.089,65.564,295.089,66"/>
	<path fill="#EEEEEF" d="M274.728,80.59h-37.456V63.931c0-3.92,3.267-7.186,7.186-7.186h23.083c3.92,0,7.187,3.266,7.187,7.186
		V80.59L274.728,80.59z"/>
	<path fill="none" stroke="#717071" stroke-linecap="round" stroke-linejoin="round" stroke-miterlimit="10" d="M274.728,80.59
		h-37.456V63.931c0-3.92,3.267-7.186,7.186-7.186h23.083c3.92,0,7.187,3.266,7.187,7.186V80.59L274.728,80.59z"/>
	<path fill="#EEEEEF" d="M269.393,62.298c0-1.307-1.089-2.396-2.396-2.396h-21.886c-1.306,0-2.395,1.089-2.395,2.396v18.184h26.676
		V62.298L269.393,62.298z"/>
	<path fill="none" stroke="#717071" stroke-linecap="round" stroke-linejoin="round" stroke-miterlimit="10" d="M269.393,62.298
		c0-1.307-1.089-2.396-2.396-2.396h-21.886c-1.306,0-2.395,1.089-2.395,2.396v18.184h26.676V62.298L269.393,62.298z M237.272,66.98
		c0-4.464,3.593-8.058,7.295-8.058c1.307,0,21.451,0,22.757,0c3.701,0,7.295,3.593,7.295,8.058 M239.776,63.278
		c-0.218,1.96-0.327,4.138-0.327,6.424c0,1.306,0,10.888,0,10.888 M272.223,63.278c0.219,1.96,0.327,4.138,0.327,6.424
		c0,1.306,0,10.888,0,10.888"/>
	<line fill="none" x1="272.332" y1="58.705" x2="271.787" y2="60.665"/>
	
		<line fill="none" stroke="#717071" stroke-linecap="round" stroke-linejoin="round" stroke-miterlimit="10" x1="272.332" y1="58.705" x2="271.787" y2="60.665"/>
	<line fill="none" x1="239.667" y1="58.705" x2="240.212" y2="60.665"/>
	
		<line fill="none" stroke="#717071" stroke-linecap="round" stroke-linejoin="round" stroke-miterlimit="10" x1="239.667" y1="58.705" x2="240.212" y2="60.665"/>
	<path fill="#EEEEEF" d="M260.355,56.745h-8.711v-2.504c0-0.327,0.218-0.544,0.544-0.544h7.622c0.326,0,0.545,0.218,0.545,0.544
		V56.745L260.355,56.745z"/>
	<g>
		<g>
			<defs>
				<rect id="SVGID_13_" x="185.444" y="50.647" width="141.113" height="258.705"/>
			</defs>
			<clipPath id="SVGID_14_">
				<use xlink:href="#SVGID_13_"  overflow="visible"/>
			</clipPath>
			
				<path clip-path="url(#SVGID_14_)" fill="none" stroke="#717071" stroke-linecap="round" stroke-linejoin="round" stroke-miterlimit="10" d="
				M260.355,56.745h-8.711v-2.504c0-0.327,0.218-0.544,0.544-0.544h7.622c0.326,0,0.545,0.218,0.545,0.544V56.745L260.355,56.745z"
				/>
		</g>
	</g>
	<polygon fill="#EEEEEF" points="256.871,53.696 255.129,53.696 255.129,52.716 256.871,52.716 	"/>
	<g>
		<g>
			<defs>
				<rect id="SVGID_15_" x="185.444" y="50.647" width="141.113" height="258.705"/>
			</defs>
			<clipPath id="SVGID_16_">
				<use xlink:href="#SVGID_15_"  overflow="visible"/>
			</clipPath>
			
				<path clip-path="url(#SVGID_16_)" fill="none" stroke="#717071" stroke-linecap="round" stroke-linejoin="round" stroke-miterlimit="10" d="
				M256.871,53.696h-1.633v-0.98h1.633V53.696L256.871,53.696z M253.06,53.696v3.049 M254.476,53.696v3.049 M256,53.696v3.049
				 M257.415,53.696v3.049 M258.939,53.696v3.049"/>
		</g>
	</g>
	<path fill="#FFFFFF" d="M270.48,101.169c0,1.851-1.523,3.484-3.483,3.484h-22.104c-1.851,0-3.484-1.524-3.484-3.484v-6.75
		c0-1.851,1.524-3.484,3.484-3.484h22.104c1.851,0,3.483,1.524,3.483,3.484V101.169L270.48,101.169z"/>
	<path fill="none" stroke="#717071" stroke-linecap="round" stroke-linejoin="round" d="M270.48,101.169
		c0,1.851-1.523,3.484-3.483,3.484h-22.104c-1.851,0-3.484-1.524-3.484-3.484v-6.75c0-1.851,1.524-3.484,3.484-3.484h22.104
		c1.851,0,3.483,1.524,3.483,3.484V101.169L270.48,101.169z M245.002,95.834v0.979 M268.739,92.676
		c-0.653,1.089-1.742,1.416-3.376,1.416c-2.068,0-16.55,0-18.619,0c-1.633,0-2.722-0.327-3.375-1.416 M269.066,102.584
		c0,0-0.327-0.98-0.871-2.613c-0.545-1.416-1.525-2.287-4.465-2.287c-0.762,0-14.59,0-15.353,0c-2.94,0-3.92,0.871-4.464,2.287
		c-0.544,1.633-0.871,2.613-0.871,2.613 M266.997,95.834v0.979"/>
	<polygon fill="#FFFFFF" points="321.766,207.221 316.975,207.221 316.975,206.132 321.766,206.132 	"/>
	<polygon fill="none" stroke="#717071" stroke-linecap="round" stroke-linejoin="round" points="321.766,207.221 316.975,207.221 
		316.975,206.132 321.766,206.132 	"/>
	<path fill="#FFFFFF" d="M317.41,206.676c0,0.545-0.436,0.871-0.871,0.871s-0.871-0.436-0.871-0.871c0-0.544,0.436-0.87,0.871-0.87
		S317.41,206.24,317.41,206.676L317.41,206.676z"/>
	<path fill="none" stroke="#717071" stroke-linecap="round" stroke-linejoin="round" d="M317.41,206.676
		c0,0.545-0.436,0.871-0.871,0.871s-0.871-0.436-0.871-0.871c0-0.544,0.436-0.87,0.871-0.87S317.41,206.24,317.41,206.676
		L317.41,206.676z"/>
	<path fill="#FFFFFF" d="M256,193.065c-6.207,0-18.184-4.464-24.826-17.421c-2.286-4.464-6.859-14.917-3.048-32.12
		c2.396-10.779,7.513-20.144,11.868-26.676c0.653-1.089,1.633-1.742,3.158-1.742c0.544,0,25.26,0,25.915,0
		c1.523,0,2.504,0.762,3.156,1.742c4.355,6.642,9.474,15.897,11.869,26.676c3.701,17.095-0.763,27.656-3.049,32.12
		C274.184,188.602,262.206,193.065,256,193.065L256,193.065z"/>
	<path fill="none" stroke="#717071" stroke-linecap="round" stroke-linejoin="round" d="M256,193.065
		c-6.207,0-18.184-4.464-24.826-17.421c-2.286-4.464-6.859-14.917-3.048-32.12c2.396-10.779,7.513-20.144,11.868-26.676
		c0.653-1.089,1.633-1.742,3.158-1.742c0.544,0,25.26,0,25.915,0c1.523,0,2.504,0.762,3.156,1.742
		c4.355,6.642,9.474,15.897,11.869,26.676c3.701,17.095-0.763,27.656-3.049,32.12C274.184,188.602,262.206,193.065,256,193.065
		L256,193.065z"/>
	<polygon fill="#FFFFFF" points="247.18,123.381 242.281,123.381 242.281,116.304 247.18,116.304 	"/>
	<polygon fill="none" stroke="#717071" stroke-linecap="round" stroke-linejoin="round" points="247.18,123.381 242.281,123.381 
		242.281,116.304 247.18,116.304 	"/>
	<path fill="#FFFFFF" d="M245.874,120.115c0,0.762-0.544,1.306-1.307,1.306c-0.762,0-1.306-0.544-1.306-1.306
		s0.544-1.307,1.306-1.307C245.22,118.808,245.874,119.461,245.874,120.115L245.874,120.115z"/>
	<path fill="none" stroke="#717071" stroke-linecap="round" stroke-linejoin="round" d="M245.874,120.115
		c0,0.762-0.544,1.306-1.307,1.306c-0.762,0-1.306-0.544-1.306-1.306s0.544-1.307,1.306-1.307
		C245.22,118.808,245.874,119.461,245.874,120.115L245.874,120.115z"/>
	<polygon fill="#FFFFFF" points="264.819,123.381 269.719,123.381 269.719,116.304 264.819,116.304 	"/>
	<polygon fill="none" stroke="#717071" stroke-linecap="round" stroke-linejoin="round" points="264.819,123.381 269.719,123.381 
		269.719,116.304 264.819,116.304 	"/>
	<path fill="#FFFFFF" d="M266.126,120.115c0,0.762,0.544,1.306,1.307,1.306s1.307-0.544,1.307-1.306s-0.544-1.307-1.307-1.307
		C266.779,118.808,266.126,119.461,266.126,120.115L266.126,120.115z"/>
	<path fill="none" stroke="#717071" stroke-linecap="round" stroke-linejoin="round" d="M266.126,120.115
		c0,0.762,0.544,1.306,1.307,1.306s1.307-0.544,1.307-1.306s-0.544-1.307-1.307-1.307
		C266.779,118.808,266.126,119.461,266.126,120.115L266.126,120.115z"/>
	<polygon fill="#FFFFFF" points="261.008,123.381 250.991,123.381 250.991,122.401 261.008,122.401 	"/>
	<polygon fill="none" stroke="#717071" stroke-linecap="round" stroke-linejoin="round" points="261.008,123.381 250.991,123.381 
		250.991,122.401 261.008,122.401 	"/>
	<polygon fill="#FFFFFF" points="250.991,123.381 246.2,123.381 246.2,122.401 250.991,122.401 	"/>
	<polygon fill="none" stroke="#717071" stroke-linecap="round" stroke-linejoin="round" points="250.991,123.381 246.2,123.381 
		246.2,122.401 250.991,122.401 	"/>
	<polygon fill="#FFFFFF" points="261.008,123.381 265.799,123.381 265.799,122.401 261.008,122.401 	"/>
	<polygon fill="none" stroke="#717071" stroke-linecap="round" stroke-linejoin="round" points="261.008,123.381 265.799,123.381 
		265.799,122.401 261.008,122.401 	"/>
	<path fill="#FFFFFF" d="M256,99.645c-0.98,0-1.742,0.653-1.742,1.416v14.155h3.375V101.06
		C257.742,100.298,256.98,99.645,256,99.645L256,99.645z"/>
	<path fill="none" stroke="#717071" stroke-linecap="round" stroke-linejoin="round" d="M256,99.645
		c-0.98,0-1.742,0.653-1.742,1.416v14.155h3.375V101.06C257.742,100.298,256.98,99.645,256,99.645L256,99.645z"/>
	<path fill="#FFFFFF" d="M256,193.719c-8.493,0-20.035-6.968-25.261-18.183c-6.75-14.264-3.375-34.951,5.118-49.324
		c1.416-2.396,3.484-2.831,5.553-2.831c0.871,0,28.418,0,29.29,0c2.068,0,4.137,0.436,5.553,2.831
		c8.492,14.373,11.868,34.951,5.117,49.324C276.034,186.751,264.492,193.719,256,193.719L256,193.719z"/>
	<path fill="none" stroke="#717071" stroke-linecap="round" stroke-linejoin="round" d="M256,193.719
		c-8.493,0-20.035-6.968-25.261-18.183c-6.75-14.264-3.375-34.951,5.118-49.324c1.416-2.396,3.484-2.831,5.553-2.831
		c0.871,0,28.418,0,29.29,0c2.068,0,4.137,0.436,5.553,2.831c8.492,14.373,11.868,34.951,5.117,49.324
		C276.034,186.751,264.492,193.719,256,193.719L256,193.719z"/>
	<path fill="#EEEEEF" d="M256,272.006c18.836,0,40.939-1.524,53.57-3.157V265.8c-18.619,2.068-36.477,3.484-53.57,3.484
		c-17.095,0-34.952-1.307-53.57-3.484v3.049C215.06,270.481,237.163,272.006,256,272.006L256,272.006z"/>
	<path fill="none" stroke="#717071" stroke-linecap="round" stroke-linejoin="round" stroke-miterlimit="10" d="M256,272.006
		c18.836,0,40.939-1.524,53.57-3.157V265.8c-18.619,2.068-36.477,3.484-53.57,3.484c-17.095,0-34.952-1.307-53.57-3.484v3.049
		C215.06,270.481,237.163,272.006,256,272.006L256,272.006z"/>
	<polygon fill="#888888" points="307.938,84.51 307.938,85.599 312.51,85.599 315.668,86.796 318.39,90.716 320.131,90.716 
		320.131,89.41 325.686,89.41 325.467,85.054 323.398,82.877 307.502,80.59 204.499,80.59 188.602,82.877 186.533,85.054 
		186.315,89.41 191.868,89.41 191.868,90.716 193.61,90.716 196.332,86.796 199.49,85.599 204.063,85.599 204.063,84.51 	"/>
	<g>
		<g>
			<defs>
				<rect id="SVGID_17_" x="185.444" y="50.647" width="141.113" height="258.705"/>
			</defs>
			<clipPath id="SVGID_18_">
				<use xlink:href="#SVGID_17_"  overflow="visible"/>
			</clipPath>
			<polygon clip-path="url(#SVGID_18_)" fill="none" stroke="#717071" stroke-linecap="round" stroke-linejoin="round" points="
				307.938,84.51 307.938,85.599 312.51,85.599 315.668,86.796 318.39,90.716 320.131,90.716 320.131,89.41 325.686,89.41 
				325.467,85.054 323.398,82.877 307.502,80.59 204.499,80.59 188.602,82.877 186.533,85.054 186.315,89.41 191.868,89.41 
				191.868,90.716 193.61,90.716 196.332,86.796 199.49,85.599 204.063,85.599 204.063,84.51 			"/>
		</g>
	</g>
	<path fill="#EEEEEF" d="M320.023,256h-15.57v-1.089c0-0.436,0.326-0.762,0.762-0.762h13.938c0.436,0,0.762,0.326,0.762,0.762V256
		H320.023z"/>
	<path fill="none" stroke="#717071" stroke-linecap="round" stroke-linejoin="round" stroke-miterlimit="10" d="M320.023,256h-15.57
		v-1.089c0-0.436,0.326-0.762,0.762-0.762h13.938c0.436,0,0.762,0.326,0.762,0.762V256H320.023z"/>
	<path fill="#EEEEEF" d="M301.295,261.88c0,0,0-2.94,0-3.484c0-1.197-0.871-1.96-2.178-1.633
		c-13.175,2.504-28.418,3.701-43.117,3.701s-29.943-1.197-43.118-3.701c-1.307-0.218-2.178,0.436-2.178,1.633
		c0,0.544,0,3.484,0,3.484H301.295L301.295,261.88z"/>
	<path fill="none" stroke="#717071" stroke-linecap="round" stroke-linejoin="round" stroke-miterlimit="10" d="M301.295,261.88
		c0,0,0-2.94,0-3.484c0-1.197-0.871-1.96-2.178-1.633c-13.175,2.504-28.418,3.701-43.117,3.701s-29.943-1.197-43.118-3.701
		c-1.307-0.218-2.178,0.436-2.178,1.633c0,0.544,0,3.484,0,3.484H301.295L301.295,261.88z"/>
	<path fill="#EEEEEF" d="M321.221,267.215l4.246-4.573l0.436-5.553l-2.395-0.218v-1.851c0,0-4.465,0-4.9,0s-0.871,0.108-1.524,1.851
		s-1.415,1.633-2.069,1.633c-0.652,0-8.166,0-8.166,0v4.138h-0.979c0,0,0,0.545,0,1.198c0,1.851,1.089,3.484,3.919,3.484
		C312.074,267.215,321.221,267.215,321.221,267.215L321.221,267.215z"/>
	<g>
		<g>
			<defs>
				<rect id="SVGID_19_" x="185.444" y="50.647" width="141.113" height="258.705"/>
			</defs>
			<clipPath id="SVGID_20_">
				<use xlink:href="#SVGID_19_"  overflow="visible"/>
			</clipPath>
			
				<path clip-path="url(#SVGID_20_)" fill="none" stroke="#717071" stroke-linecap="round" stroke-linejoin="round" stroke-miterlimit="10" d="
				M321.221,267.215l4.246-4.573l0.436-5.553l-2.395-0.218v-1.851c0,0-4.465,0-4.9,0s-0.871,0.108-1.524,1.851
				s-1.415,1.633-2.069,1.633c-0.652,0-8.166,0-8.166,0v4.138h-0.979c0,0,0,0.545,0,1.198c0,1.851,1.089,3.484,3.919,3.484
				C312.074,267.215,321.221,267.215,321.221,267.215L321.221,267.215z M306.848,260.246h1.742l0.219-0.762h2.068l0.326,0.436h2.178
				c0,0,0.109,3.049,0.218,4.791c0,0.871,0.653,1.633,1.851,1.633c1.09,0,6.643,0,6.643,0"/>
		</g>
	</g>
	<path fill="#EEEEEF" d="M191.977,256h15.57v-1.089c0-0.436-0.327-0.762-0.762-0.762h-13.937c-0.436,0-0.762,0.326-0.762,0.762V256
		H191.977z"/>
	<path fill="none" stroke="#717071" stroke-linecap="round" stroke-linejoin="round" stroke-miterlimit="10" d="M191.977,256h15.57
		v-1.089c0-0.436-0.327-0.762-0.762-0.762h-13.937c-0.436,0-0.762,0.326-0.762,0.762V256H191.977z"/>
	<path fill="#EEEEEF" d="M190.779,267.215l-4.247-4.573l-0.436-5.553l2.396-0.218v-1.851c0,0,4.464,0,4.899,0
		s0.871,0.108,1.524,1.851s1.416,1.633,2.069,1.633s8.167,0,8.167,0v4.138h0.979c0,0,0,0.545,0,1.198
		c0,1.851-1.089,3.484-3.919,3.484C199.925,267.215,190.779,267.215,190.779,267.215L190.779,267.215z"/>
	<g>
		<g>
			<defs>
				<rect id="SVGID_21_" x="185.444" y="50.647" width="141.113" height="258.705"/>
			</defs>
			<clipPath id="SVGID_22_">
				<use xlink:href="#SVGID_21_"  overflow="visible"/>
			</clipPath>
			
				<path clip-path="url(#SVGID_22_)" fill="none" stroke="#717071" stroke-linecap="round" stroke-linejoin="round" stroke-miterlimit="10" d="
				M190.779,267.215l-4.247-4.573l-0.436-5.553l2.396-0.218v-1.851c0,0,4.464,0,4.899,0s0.871,0.108,1.524,1.851
				s1.416,1.633,2.069,1.633s8.167,0,8.167,0v4.138h0.979c0,0,0,0.545,0,1.198c0,1.851-1.089,3.484-3.919,3.484
				C199.925,267.215,190.779,267.215,190.779,267.215L190.779,267.215z M205.152,260.246h-1.742l-0.218-0.762h-2.069l-0.327,0.436
				h-2.178c0,0-0.109,3.049-0.218,4.791c0,0.871-0.653,1.633-1.851,1.633c-1.089,0-6.642,0-6.642,0"/>
		</g>
	</g>
	<polygon fill="#C8C9CA" points="206.676,260.138 206.676,254.04 234.441,254.04 234.441,260.138 	"/>
	<polygon fill="none" stroke="#717071" stroke-linecap="round" stroke-linejoin="round" stroke-miterlimit="10" points="
		206.676,260.138 206.676,254.04 234.441,254.04 234.441,260.138 	"/>
	<polygon fill="#EEEEEF" points="231.828,249.031 219.197,249.031 218.653,249.576 218.653,254.04 222.355,254.04 222.355,251.972 
		223.553,250.773 231.828,250.773 232.154,250.447 232.154,249.358 	"/>
	<polygon fill="none" stroke="#717071" stroke-linecap="round" stroke-linejoin="round" stroke-miterlimit="10" points="
		231.828,249.031 219.197,249.031 218.653,249.576 218.653,254.04 222.355,254.04 222.355,251.972 223.553,250.773 231.828,250.773 
		232.154,250.447 232.154,249.358 	"/>
	<polygon fill="#EEEEEF" points="215.931,253.387 215.931,251.427 214.516,251.427 214.516,253.387 210.705,253.387 210.705,254.04 
		219.742,254.04 219.742,253.387 	"/>
	<polygon fill="none" stroke="#717071" stroke-linecap="round" stroke-linejoin="round" stroke-miterlimit="10" points="
		215.931,253.387 215.931,251.427 214.516,251.427 214.516,253.387 210.705,253.387 210.705,254.04 219.742,254.04 219.742,253.387 
			"/>
	<path fill="#EEEEEF" d="M306.304,264.166c0,0,0-3.375,0-3.92c0-0.544-0.436-1.089-1.089-1.089
		c-17.53,1.524-27.221,1.852-49.215,1.852c-5.88,0-33.754-0.98-47.8-2.178c-0.98-0.109-1.851,0.544-1.851,1.633
		c0,0.545,0,3.594,0,3.594h99.955V264.166z"/>
	<path fill="none" stroke="#717071" stroke-linecap="round" stroke-linejoin="round" stroke-miterlimit="10" d="M306.304,264.166
		c0,0,0-3.375,0-3.92c0-0.544-0.436-1.089-1.089-1.089c-17.53,1.524-27.221,1.852-49.215,1.852c-5.88,0-33.754-0.98-47.8-2.178
		c-0.98-0.109-1.851,0.544-1.851,1.633c0,0.545,0,3.594,0,3.594h99.955V264.166z"/>
	<path fill="#C8C9CA" d="M256,267.106c10.889,0,34.08-0.98,48.126-1.96c0.653,0,0.979-0.653,0.871-1.089
		c0-1.198-0.108-2.069-0.218-3.158c0-0.436-0.326-0.653-0.762-0.653c-0.763,0-0.98,0-1.525,0.218
		c-0.326,0.109-3.375,0.871-4.791,1.307c-0.544,0.109-1.088,0.218-1.523,0.218c-0.326,0-9.908,0-12.849,0
		c-0.763,0-1.197,0.109-1.741,0.109c-7.949,0.871-16.986,1.415-25.588,1.415c-8.602,0-17.748-0.436-25.587-1.415
		c-0.544-0.109-0.98-0.109-1.742-0.109c-2.94,0-12.521,0-12.848,0c-0.436,0-0.98-0.108-1.524-0.218
		c-1.416-0.436-4.573-1.197-4.791-1.307c-0.544-0.108-0.762-0.218-1.524-0.218c-0.436,0-6.424,0-6.859,0
		c-0.653,0-1.089,0.218-1.089,0.871c0,0.218-0.109,1.307-0.109,2.178c0,0.653,0.327,0.98,0.871,1.089
		c0.871,0.109,2.287,0.327,4.028,0.545c0.871,0.108,1.633,0.218,2.722,0.218C221.484,266.126,245.002,267.106,256,267.106
		L256,267.106z"/>
	<path fill="none" stroke="#717071" stroke-linecap="round" stroke-linejoin="round" stroke-miterlimit="10" d="M256,267.106
		c10.889,0,34.08-0.98,48.126-1.96c0.653,0,0.979-0.653,0.871-1.089c0-1.198-0.108-2.069-0.218-3.158
		c0-0.436-0.326-0.653-0.762-0.653c-0.763,0-0.98,0-1.525,0.218c-0.326,0.109-3.375,0.871-4.791,1.307
		c-0.544,0.109-1.088,0.218-1.523,0.218c-0.326,0-9.908,0-12.849,0c-0.763,0-1.197,0.109-1.741,0.109
		c-7.949,0.871-16.986,1.415-25.588,1.415c-8.602,0-17.748-0.436-25.587-1.415c-0.544-0.109-0.98-0.109-1.742-0.109
		c-2.94,0-12.521,0-12.848,0c-0.436,0-0.98-0.108-1.524-0.218c-1.416-0.436-4.573-1.197-4.791-1.307
		c-0.544-0.108-0.762-0.218-1.524-0.218c-0.436,0-6.424,0-6.859,0c-0.653,0-1.089,0.218-1.089,0.871
		c0,0.218-0.109,1.307-0.109,2.178c0,0.653,0.327,0.98,0.871,1.089c0.871,0.109,2.287,0.327,4.028,0.545
		c0.871,0.108,1.633,0.218,2.722,0.218C221.484,266.126,245.002,267.106,256,267.106L256,267.106z"/>
	<path fill="#C8C9CA" d="M304.018,260.138c-0.109,0-0.327,0-0.436,0v5.009c0.217,0,0.544,0,0.871-0.109
		c1.088-0.108,1.742-0.108,2.722-0.218c1.198-0.218,2.177-0.326,2.939-0.436v-4.246
		C308.373,260.138,304.453,260.138,304.018,260.138L304.018,260.138z"/>
	<path fill="none" stroke="#717071" stroke-linecap="round" stroke-linejoin="round" stroke-miterlimit="10" d="M304.018,260.138
		c-0.109,0-0.327,0-0.436,0v5.009c0.217,0,0.544,0,0.871-0.109c1.088-0.108,1.742-0.108,2.722-0.218
		c1.198-0.218,2.177-0.326,2.939-0.436v-4.246C308.373,260.138,304.453,260.138,304.018,260.138L304.018,260.138z"/>
	<path fill="#C8C9CA" d="M312.184,262.315c0,1.197-0.98,2.068-2.069,2.068c-1.198,0-2.068-0.979-2.068-2.068
		s0.979-2.069,2.068-2.069C311.312,260.138,312.184,261.117,312.184,262.315L312.184,262.315z"/>
	<path fill="none" stroke="#717071" stroke-linecap="round" stroke-linejoin="round" stroke-miterlimit="10" d="M312.184,262.315
		c0,1.197-0.98,2.068-2.069,2.068c-1.198,0-2.068-0.979-2.068-2.068s0.979-2.069,2.068-2.069
		C311.312,260.138,312.184,261.117,312.184,262.315L312.184,262.315z"/>
	<path fill="#C8C9CA" d="M311.203,262.315c0,0.544-0.436,1.089-1.089,1.089c-0.544,0-1.089-0.436-1.089-1.089
		s0.436-1.089,1.089-1.089C310.658,261.227,311.203,261.662,311.203,262.315L311.203,262.315z"/>
	<path fill="none" stroke="#717071" stroke-linecap="round" stroke-linejoin="round" stroke-miterlimit="10" d="M311.203,262.315
		c0,0.544-0.436,1.089-1.089,1.089c-0.544,0-1.089-0.436-1.089-1.089s0.436-1.089,1.089-1.089
		C310.658,261.227,311.203,261.662,311.203,262.315L311.203,262.315z"/>
	<polygon fill="#EEEEEF" points="200.579,271.135 200.796,266.453 188.384,264.819 186.75,262.969 186.75,267.76 189.364,270.372 
		198.945,271.896 	"/>
	<g>
		<g>
			<defs>
				<rect id="SVGID_23_" x="185.444" y="50.647" width="141.113" height="258.705"/>
			</defs>
			<clipPath id="SVGID_24_">
				<use xlink:href="#SVGID_23_"  overflow="visible"/>
			</clipPath>
			
				<path clip-path="url(#SVGID_24_)" fill="none" stroke="#717071" stroke-linecap="round" stroke-linejoin="round" stroke-miterlimit="10" d="
				M200.579,271.135l0.327-4.573l-12.413-1.633l-1.633-1.852v4.791l2.613,2.613l9.582,1.415L200.579,271.135L200.579,271.135z
				 M189.364,265.908v4.464 M199.272,267.215l-0.327,4.573 M188.384,264.819l0.98,1.089l9.908,1.307l1.524-0.762"/>
		</g>
		<g>
			<defs>
				<rect id="SVGID_25_" x="185.444" y="50.647" width="141.113" height="258.705"/>
			</defs>
			<clipPath id="SVGID_26_">
				<use xlink:href="#SVGID_25_"  overflow="visible"/>
			</clipPath>
			<polygon clip-path="url(#SVGID_26_)" fill="#EEEEEF" points="311.421,271.135 311.203,266.453 323.615,264.819 325.25,262.969 
				325.25,267.76 322.637,270.372 313.055,271.896 			"/>
		</g>
		<g>
			<defs>
				<rect id="SVGID_27_" x="185.444" y="50.647" width="141.113" height="258.705"/>
			</defs>
			<clipPath id="SVGID_28_">
				<use xlink:href="#SVGID_27_"  overflow="visible"/>
			</clipPath>
			
				<path clip-path="url(#SVGID_28_)" fill="none" stroke="#717071" stroke-linecap="round" stroke-linejoin="round" stroke-miterlimit="10" d="
				M311.421,271.135l-0.327-4.573l12.414-1.633l1.633-1.852v4.791l-2.613,2.613l-9.582,1.415L311.421,271.135L311.421,271.135z
				 M322.637,265.908v4.464 M312.728,267.215l0.327,4.573 M323.615,264.819l-0.979,1.089l-9.909,1.307l-1.524-0.762"/>
		</g>
	</g>
	<path fill="#EEEEEF" d="M256,275.055c19.49,0,42.464-1.852,55.421-3.92l-0.327-4.573c-13.393,2.287-38,3.811-55.203,3.811
		c-17.204,0-41.702-1.523-55.204-3.811l-0.327,4.573C213.536,273.095,236.51,275.055,256,275.055L256,275.055z"/>
	<path fill="none" stroke="#717071" stroke-linecap="round" stroke-linejoin="round" stroke-miterlimit="10" d="M256,275.055
		c19.49,0,42.464-1.852,55.421-3.92l-0.327-4.573c-13.393,2.287-38,3.811-55.203,3.811c-17.204,0-41.702-1.523-55.204-3.811
		l-0.327,4.573C213.536,273.095,236.51,275.055,256,275.055L256,275.055z"/>
	<polygon fill="#888888" points="186.315,257.415 191.868,257.089 191.868,247.942 190.235,247.507 190.235,98.991 191.868,98.447 
		191.868,89.41 186.315,89.41 	"/>
	<g>
		<g>
			<defs>
				<rect id="SVGID_29_" x="185.444" y="50.647" width="141.113" height="258.705"/>
			</defs>
			<clipPath id="SVGID_30_">
				<use xlink:href="#SVGID_29_"  overflow="visible"/>
			</clipPath>
			<polygon clip-path="url(#SVGID_30_)" fill="none" stroke="#717071" stroke-linecap="round" stroke-linejoin="round" points="
				186.315,257.415 191.868,257.089 191.868,247.942 190.235,247.507 190.235,98.991 191.868,98.447 191.868,89.41 186.315,89.41 
							"/>
		</g>
	</g>
	<polygon fill="#888888" points="325.686,257.415 320.131,257.089 320.131,247.942 321.766,247.507 321.766,98.991 320.131,98.447 
		320.131,89.41 325.686,89.41 	"/>
	<g>
		<g>
			<defs>
				<rect id="SVGID_31_" x="185.444" y="50.647" width="141.113" height="258.705"/>
			</defs>
			<clipPath id="SVGID_32_">
				<use xlink:href="#SVGID_31_"  overflow="visible"/>
			</clipPath>
			<polygon clip-path="url(#SVGID_32_)" fill="none" stroke="#717071" stroke-linecap="round" stroke-linejoin="round" points="
				325.686,257.415 320.131,257.089 320.131,247.942 321.766,247.507 321.766,98.991 320.131,98.447 320.131,89.41 325.686,89.41 
							"/>
		</g>
	</g>
</g>
</svg>
